  0
SECTION
  2
ENTITIES
  0
LINE
  8
0
 10
  48.35817337036133    
 20
  2.976014137268066    
 30
0.0
 11
  48.26563262939453    
 21
  4.222692966461182    
 31
0.0
  0
LINE
  8
0
 10
  47.36198043823242    
 20
  2.888858795166016    
 30
0.0
 11
  48.35817337036133    
 21
  2.976014137268066    
 31
0.0
  0
ARC
  8
0
 10
 0.2758949995040894E-01
 20
-0.1544412225484848E-01
 30
0.0
 40
  48.42306900024414    
 50
  2.385426521301270    
 51
  3.541849374771118    
  0
ARC
  8
0
 10
 0.2469867467880249E-02
 20
 0.8498318493366241E-04
 30
0.0
 40
  47.44753265380859    
 50
-0.1094529070542194E-03
 51
  3.490530967712402    
  0
LINE
  8
0
 10
  48.40870285034180    
 20
  1.999997258186340    
 30
0.0
 11
  57.89003372192383    
 21
  1.999998211860657    
 31
0.0
  0
LINE
  8
0
 10
  65.31938934326172    
 20
  1.999998688697815    
 30
0.0
 11
  57.89003372192383    
 21
  1.999998211860657    
 31
0.0
  0
ARC
  8
0
 10
 0.2399832010269165E-01
 20
 0.7089693099260330E-04
 30
0.0
 40
  78.97601318359375    
 50
-0.5143453745404258E-04
 51
  1.754255414009094    
  0
LINE
  8
0
 10
  65.10132598876953    
 20
  5.695624351501465    
 30
0.0
 11
  65.31938934326172    
 21
  1.999998688697815    
 31
0.0
  0
ARC
  8
0
 10
 0.1311302185058594E-02
 20
 0.1532025635242462E-03
 30
0.0
 40
  78.99868774414062    
 50
  1.753692150115967    
 51
  4.999970436096191    
  0
LINE
  8
0
 10
  48.14028549194336    
 20
  5.466496467590332    
 30
0.0
 11
  48.26563644409180    
 21
  4.222687244415283    
 31
0.0
  0
LINE
  8
0
 10
  47.14409255981445    
 20
  5.379341125488281    
 30
0.0
 11
  48.14028549194336    
 21
  5.466496467590332    
 31
0.0
  0
ARC
  8
0
 10
 0.2447122475132346E-02
 20
 0.3449620562605560E-03
 30
0.0
 40
  47.44753265380859    
 50
  6.509457111358643    
 51
  10.00009632110596    
  0
ARC
  8
0
 10
 0.2448853477835655E-01
 20
 0.2000011876225471E-01
 30
0.0
 40
  48.42306900024414    
 50
  6.458138942718506    
 51
  7.614560604095459    
  0
LINE
  8
0
 10
  48.02056121826172    
 20
  6.436459064483643    
 30
0.0
 11
  57.35785293579102    
 21
  8.082873344421387    
 31
0.0
  0
LINE
  8
0
 10
  64.67433929443359    
 20
  9.372965812683105    
 30
0.0
 11
  57.35785293579102    
 21
  8.082873344421387    
 31
0.0
  0
LINE
  8
0
 10
  65.10132598876953    
 20
  5.695617198944092    
 30
0.0
 11
  64.67433929443359    
 21
  9.372965812683105    
 31
0.0
  0
ARC
  8
0
 10
 0.1318004331551492E-02
 20
 0.7659656694158912E-04
 30
0.0
 40
  78.99868774414062    
 50
  5.000017166137695    
 51
  8.246297836303711    
  0
ARC
  8
0
 10
 0.2364606410264969E-01
 20
 0.4097206983715296E-02
 30
0.0
 40
  78.97601318359375    
 50
  8.245735168457031    
 51
  10.00004005432129    
  0
LINE
  8
0
 10
  57.89003372192383    
 20
  1.999998211860657    
 30
0.0
 11
  57.35785293579102    
 21
  8.082879066467285    
 31
0.0
  0
ARC
  8
0
 10
 0.2417587442323565E-02
 20
 0.5125800962559879E-03
 30
0.0
 40
  47.44753265380859    
 50
  9.999890327453613    
 51
  13.49053001403809    
  0
LINE
  8
0
 10
  46.14080047607422    
 20
  11.06929111480713    
 30
0.0
 11
  47.10671997070312    
 21
  11.32810974121094    
 31
0.0
  0
LINE
  8
0
 10
  47.10671997070312    
 20
  11.32810974121094    
 30
0.0
 11
  46.79910278320312    
 21
  12.53977870941162    
 31
0.0
  0
LINE
  8
0
 10
  46.45967483520508    
 20
  13.74291992187500    
 30
0.0
 11
  46.79910659790039    
 21
  12.53977394104004    
 31
0.0
  0
LINE
  8
0
 10
  45.49375534057617    
 20
  13.48410129547119    
 30
0.0
 11
  46.45967483520508    
 21
  13.74291992187500    
 31
0.0
  0
ARC
  8
0
 10
 0.2350042806938291E-02
 20
 0.7646596059203148E-03
 30
0.0
 40
  47.44753265380859    
 50
  16.50945663452148    
 51
  20.00009346008301    
  0
ARC
  8
0
 10
 0.2064351364970207E-01
 20
 0.2394866198301315E-01
 30
0.0
 40
  48.42306900024414    
 50
  16.45813751220703    
 51
  17.61455917358398    
  0
LINE
  8
0
 10
  46.17333602905273    
 20
  14.67735671997070    
 30
0.0
 11
  55.08287811279297    
 21
  17.92016220092773    
 31
0.0
  0
LINE
  8
0
 10
  62.06418991088867    
 20
  20.46114921569824    
 30
0.0
 11
  55.08287811279297    
 21
  17.92016220092773    
 31
0.0
  0
LINE
  8
0
 10
  63.12325668334961    
 20
  16.91381454467773    
 30
0.0
 11
  62.06418991088867    
 21
  20.46114921569824    
 31
0.0
  0
LINE
  8
0
 10
  63.12325668334961    
 20
  16.91382026672363    
 30
0.0
 11
  63.97974395751953    
 21
  13.31220531463623    
 31
0.0
  0
LINE
  8
0
 10
  63.97974395751953    
 20
  13.31220531463623    
 30
0.0
 11
  56.66325759887695    
 21
  12.02211284637451    
 31
0.0
  0
LINE
  8
0
 10
  47.32596588134766    
 20
  10.37569522857666    
 30
0.0
 11
  56.66325759887695    
 21
  12.02211284637451    
 31
0.0
  0
ARC
  8
0
 10
 0.2985219471156597E-01
 20
-0.1041862461715937E-01
 30
0.0
 40
  48.42306900024414    
 50
  12.38542461395264    
 51
  13.54184818267822    
  0
LINE
  8
0
 10
  56.66325759887695    
 20
  12.02211284637451    
 30
0.0
 11
  55.08287811279297    
 21
  17.92016601562500    
 31
0.0
  0
ARC
  8
0
 10
 0.2362141944468021E-01
 20
 0.4237083718180656E-02
 30
0.0
 40
  78.97601318359375    
 50
  9.999947547912598    
 51
  11.75425434112549    
  0
ARC
  8
0
 10
 0.1264777267351747E-02
 20
 0.3785802982747555E-03
 30
0.0
 40
  78.99868774414062    
 50
  11.75369167327881    
 51
  14.99996948242188    
  0
ARC
  8
0
 10
 0.1284679980017245E-02
 20
 0.3043019096367061E-03
 30
0.0
 40
  78.99868774414062    
 50
  15.00001525878906    
 51
  18.24629592895508    
  0
ARC
  8
0
 10
 0.2257535420358181E-01
 20
 0.8141056634485722E-02
 30
0.0
 40
  78.97601318359375    
 50
  18.24573326110840    
 51
  20.00003814697266    
  0
ARC
  8
0
 10
 0.2291850280016661E-02
 20
 0.9246023837476969E-03
 30
0.0
 40
  47.44753265380859    
 50
  19.99988746643066    
 51
  23.49052619934082    
  0
LINE
  8
0
 10
  43.51765823364258    
 20
  18.91338729858398    
 30
0.0
 11
  44.42396163940430    
 21
  19.33600616455078    
 31
0.0
  0
LINE
  8
0
 10
  44.42396163940430    
 20
  19.33600616455078    
 30
0.0
 11
  43.91061019897461    
 21
  20.47584915161133    
 31
0.0
  0
LINE
  8
0
 10
  43.36741638183594    
 20
  21.60177230834961    
 30
0.0
 11
  43.91061782836914    
 21
  20.47584533691406    
 31
0.0
  0
LINE
  8
0
 10
  42.46111297607422    
 20
  21.17915344238281    
 30
0.0
 11
  43.36741638183594    
 21
  21.60177230834961    
 31
0.0
  0
ARC
  8
0
 10
 0.2181558869779110E-02
 20
 0.1161123276688159E-02
 30
0.0
 40
  47.44753265380859    
 50
  26.50945472717285    
 51
  30.00009536743164    
  0
ARC
  8
0
 10
 0.1617125235497952E-01
 20
 0.2716953493654728E-01
 30
0.0
 40
  48.42306900024414    
 50
  26.45813560485840    
 51
  27.61455726623535    
  0
LINE
  8
0
 10
  42.92316818237305    
 20
  22.47229003906250    
 30
0.0
 11
  51.13424301147461    
 21
  27.21295356750488    
 31
0.0
  0
LINE
  8
0
 10
  57.56825637817383    
 20
  30.92763137817383    
 30
0.0
 11
  51.13424301147461    
 21
  27.21295356750488    
 31
0.0
  0
LINE
  8
0
 10
  59.22722244262695    
 20
  27.61809158325195    
 30
0.0
 11
  57.56825637817383    
 21
  30.92763137817383    
 31
0.0
  0
LINE
  8
0
 10
  59.22721862792969    
 20
  27.61809730529785    
 30
0.0
 11
  60.69610595703125    
 21
  24.21992874145508    
 31
0.0
  0
LINE
  8
0
 10
  60.69610595703125    
 20
  24.21992874145508    
 30
0.0
 11
  53.71480178833008    
 21
  21.67893791198730    
 31
0.0
  0
LINE
  8
0
 10
  44.80526351928711    
 20
  18.43613243103027    
 30
0.0
 11
  53.71480178833008    
 21
  21.67893791198730    
 31
0.0
  0
ARC
  8
0
 10
 0.3120784834027290E-01
 20
-0.5076564848423004E-02
 30
0.0
 40
  48.42306900024414    
 50
  22.38542175292969    
 51
  23.54184532165527    
  0
LINE
  8
0
 10
  53.71480178833008    
 20
  21.67893791198730    
 30
0.0
 11
  51.13423919677734    
 21
  27.21295928955078    
 31
0.0
  0
ARC
  8
0
 10
 0.2252679504454136E-01
 20
 0.8274529129266739E-02
 30
0.0
 40
  78.97601318359375    
 50
  19.99994468688965    
 51
  21.75425148010254    
  0
ARC
  8
0
 10
 0.1179822604171932E-02
 20
 0.5924550350755453E-03
 30
0.0
 40
  78.99868774414062    
 50
  21.75368690490723    
 51
  24.99996566772461    
  0
ARC
  8
0
 10
 0.1212321454659104E-02
 20
 0.5227611982263625E-03
 30
0.0
 40
  78.99868774414062    
 50
  25.00001144409180    
 51
  28.24629402160645    
  0
ARC
  8
0
 10
 0.2081870287656784E-01
 20
 0.1193754374980927E-01
 30
0.0
 40
  78.97601318359375    
 50
  28.24573135375977    
 51
  30.00004196166992    
  0
ARC
  8
0
 10
 0.2096476498991251E-02
 20
 0.1308531151153147E-02
 30
0.0
 40
  47.44753265380859    
 50
  29.99988365173340    
 51
  33.49052429199219    
  0
LINE
  8
0
 10
  39.57225036621094    
 20
  26.18281364440918    
 30
0.0
 11
  40.39139938354492    
 21
  26.75638771057129    
 31
0.0
  0
LINE
  8
0
 10
  40.39139938354492    
 20
  26.75638771057129    
 30
0.0
 11
  39.68791961669922    
 21
  27.78977394104004    
 31
0.0
  0
LINE
  8
0
 10
  38.95746231079102    
 20
  28.80426406860352    
 30
0.0
 11
  39.68792724609375    
 21
  27.78977203369141    
 31
0.0
  0
LINE
  8
0
 10
  38.13830947875977    
 20
  28.23069190979004    
 30
0.0
 11
  38.95746231079102    
 21
  28.80426406860352    
 31
0.0
  0
ARC
  8
0
 10
 0.1946789328940213E-02
 20
 0.1522307051345706E-02
 30
0.0
 40
  47.44753265380859    
 50
  36.50945663452148    
 51
  40.00009536743164    
  0
ARC
  8
0
 10
 0.1120763458311558E-01
 20
 0.2956487797200680E-01
 30
0.0
 40
  48.42306900024414    
 50
  36.45813751220703    
 51
  37.61455917358398    
  0
LINE
  8
0
 10
  38.36879730224609    
 20
  29.58441543579102    
 30
0.0
 11
  45.63192367553711    
 21
  35.67889785766602    
 31
0.0
  0
LINE
  8
0
 10
  51.32314300537109    
 20
  40.45439529418945    
 30
0.0
 11
  45.63192367553711    
 21
  35.67889785766602    
 31
0.0
  0
LINE
  8
0
 10
  53.53159332275391    
 20
  37.48320770263672    
 30
0.0
 11
  51.32314300537109    
 21
  40.45439529418945    
 31
0.0
  0
LINE
  8
0
 10
  53.53158950805664    
 20
  37.48321533203125    
 30
0.0
 11
  55.56825637817383    
 21
  34.39174270629883    
 31
0.0
  0
LINE
  8
0
 10
  55.56825637817383    
 20
  34.39174270629883    
 30
0.0
 11
  49.13424682617188    
 21
  30.67706489562988    
 31
0.0
  0
LINE
  8
0
 10
  40.92317199707031    
 20
  25.93639945983887    
 30
0.0
 11
  49.13424682617188    
 21
  30.67706489562988    
 31
0.0
  0
ARC
  8
0
 10
 0.3161526843905449E-01
 20
 0.4197463567834347E-03
 30
0.0
 40
  48.42306900024414    
 50
  32.38542175292969    
 51
  33.54184341430664    
  0
LINE
  8
0
 10
  49.13424682617188    
 20
  30.67706489562988    
 30
0.0
 11
  45.63192367553711    
 21
  35.67890167236328    
 31
0.0
  0
ARC
  8
0
 10
 0.2074770815670490E-01
 20
 0.1206055749207735E-01
 30
0.0
 40
  78.97601318359375    
 50
  29.99994468688965    
 51
  31.75425720214844    
  0
ARC
  8
0
 10
 0.1059019705280662E-02
 20
 0.7883283542469144E-03
 30
0.0
 40
  78.99868774414062    
 50
  31.75368881225586    
 51
  34.99996948242188    
  0
ARC
  8
0
 10
 0.1103127025999129E-02
 20
 0.7253366638906300E-03
 30
0.0
 40
  78.99868774414062    
 50
  35.00001144409180    
 51
  38.24629211425781    
  0
ARC
  8
0
 10
 0.1842949166893959E-01
 20
 0.1537131518125534E-01
 30
0.0
 40
  78.97601318359375    
 50
  38.24573135375977    
 51
  40.00003814697266    
  0
ARC
  8
0
 10
 0.1837402232922614E-02
 20
 0.1652701059356332E-02
 30
0.0
 40
  47.44753265380859    
 50
  39.99988937377930    
 51
  43.49052429199219    
  0
LINE
  8
0
 10
  34.42446136474609    
 20
  32.65668869018555    
 30
0.0
 11
  35.13156509399414    
 21
  33.36379241943359    
 31
0.0
  0
LINE
  8
0
 10
  35.13156509399414    
 20
  33.36379241943359    
 30
0.0
 11
  34.25932693481445    
 21
  34.25931930541992    
 31
0.0
  0
LINE
  8
0
 10
  33.36380386352539    
 20
  35.13155364990234    
 30
0.0
 11
  34.25933456420898    
 21
  34.25931930541992    
 31
0.0
  0
LINE
  8
0
 10
  32.65670013427734    
 20
  34.42444992065430    
 30
0.0
 11
  33.36380386352539    
 21
  35.13155364990234    
 31
0.0
  0
ARC
  8
0
 10
 0.1652867300435901E-02
 20
 0.1837236108258367E-02
 30
0.0
 40
  47.44753265380859    
 50
  46.50945663452148    
 51
  50.00009536743164    
  0
ARC
  8
0
 10
 0.5903478246182203E-02
 20
 0.3106190636754036E-01
 30
0.0
 40
  48.42306900024414    
 50
  46.45813369750977    
 51
  47.61455154418945    
  0
LINE
  8
0
 10
  32.64860916137695    
 20
  35.79763412475586    
 30
0.0
 11
  38.74309921264648    
 21
  43.06075668334961    
 31
0.0
  0
LINE
  8
0
 10
  43.51859664916992    
 20
  48.75197219848633    
 30
0.0
 11
  38.74309921264648    
 21
  43.06075668334961    
 31
0.0
  0
LINE
  8
0
 10
  46.20943832397461    
 20
  46.20941925048828    
 30
0.0
 11
  43.51859664916992    
 21
  48.75197219848633    
 31
0.0
  0
LINE
  8
0
 10
  46.20943450927734    
 20
  46.20942306518555    
 30
0.0
 11
  48.75198364257812    
 21
  43.51858139038086    
 31
0.0
  0
LINE
  8
0
 10
  48.75198364257812    
 20
  43.51858139038086    
 30
0.0
 11
  43.06076812744141    
 21
  38.74308776855469    
 31
0.0
  0
LINE
  8
0
 10
  35.79764938354492    
 20
  32.64859771728516    
 30
0.0
 11
  43.06076812744141    
 21
  38.74308776855469    
 31
0.0
  0
ARC
  8
0
 10
 0.3106207400560379E-01
 20
 0.5903303623199463E-02
 30
0.0
 40
  48.42306900024414    
 50
  42.38542175292969    
 51
  43.54184341430664    
  0
LINE
  8
0
 10
  43.06076812744141    
 20
  38.74308776855469    
 30
0.0
 11
  38.74309539794922    
 21
  43.06076049804688    
 31
0.0
  0
ARC
  8
0
 10
 0.1833821088075638E-01
 20
 0.1548013091087341E-01
 30
0.0
 40
  78.97601318359375    
 50
  39.99994277954102    
 51
  41.75424957275391    
  0
ARC
  8
0
 10
 0.9060392039828002E-03
 20
 0.9602486970834434E-03
 30
0.0
 40
  78.99868774414062    
 50
  41.75368118286133    
 51
  44.99996566772461    
  0
ARC
  8
0
 10
 0.9604147053323686E-03
 20
 0.9058731957338750E-03
 30
0.0
 40
  78.99868774414062    
 50
  45.00001525878906    
 51
  48.24629211425781    
  0
ARC
  8
0
 10
 0.1548030413687229E-01
 20
 0.1833803951740265E-01
 30
0.0
 40
  78.97601318359375    
 50
  48.24573135375977    
 51
  50.00003433227539    
  0
ARC
  8
0
 10
 0.1522499602288008E-02
 20
 0.1946654287166893E-02
 30
0.0
 40
  47.44753265380859    
 50
  49.99987792968750    
 51
  53.49052047729492    
  0
LINE
  8
0
 10
  28.23070526123047    
 20
  38.13830566406250    
 30
0.0
 11
  28.80427932739258    
 21
  38.95745086669922    
 31
0.0
  0
LINE
  8
0
 10
  28.80427932739258    
 20
  38.95745086669922    
 30
0.0
 11
  27.78978538513184    
 21
  39.68791198730469    
 31
0.0
  0
LINE
  8
0
 10
  26.75640487670898    
 20
  40.39139175415039    
 30
0.0
 11
  27.78979110717773    
 21
  39.68790817260742    
 31
0.0
  0
LINE
  8
0
 10
  26.18282890319824    
 20
  39.57223892211914    
 30
0.0
 11
  26.75640487670898    
 21
  40.39139175415039    
 31
0.0
  0
ARC
  8
0
 10
 0.1308724051341414E-02
 20
 0.2096341690048575E-02
 30
0.0
 40
  47.44753265380859    
 50
  56.50944900512695    
 51
  60.00008773803711    
  0
ARC
  8
0
 10
 0.4199500835966319E-03
 20
 0.3161513432860374E-01
 30
0.0
 40
  48.42306900024414    
 50
  56.45812988281250    
 51
  57.61454772949219    
  0
LINE
  8
0
 10
  25.93641090393066    
 20
  40.92316055297852    
 30
0.0
 11
  30.67708396911621    
 21
  49.13423156738281    
 31
0.0
  0
LINE
  8
0
 10
  34.39176559448242    
 20
  55.56824111938477    
 30
0.0
 11
  30.67708396911621    
 21
  49.13423156738281    
 31
0.0
  0
LINE
  8
0
 10
  37.48323822021484    
 20
  53.53157806396484    
 30
0.0
 11
  34.39176559448242    
 21
  55.56824111938477    
 31
0.0
  0
LINE
  8
0
 10
  37.48323059082031    
 20
  53.53158187866211    
 30
0.0
 11
  40.45441055297852    
 21
  51.32312774658203    
 31
0.0
  0
LINE
  8
0
 10
  40.45441055297852    
 20
  51.32312774658203    
 30
0.0
 11
  35.67891311645508    
 21
  45.63191223144531    
 31
0.0
  0
LINE
  8
0
 10
  29.58443069458008    
 20
  38.36878585815430    
 30
0.0
 11
  35.67891311645508    
 21
  45.63191223144531    
 31
0.0
  0
ARC
  8
0
 10
 0.2956507541239262E-01
 20
 0.1120748929679394E-01
 30
0.0
 40
  48.42306900024414    
 50
  52.38541793823242    
 51
  53.54184341430664    
  0
LINE
  8
0
 10
  35.67891311645508    
 20
  45.63191223144531    
 30
0.0
 11
  30.67707824707031    
 21
  49.13423156738281    
 31
0.0
  0
ARC
  8
0
 10
 0.1537151541560888E-01
 20
 0.1842935010790825E-01
 30
0.0
 40
  78.97601318359375    
 50
  49.99994277954102    
 51
  51.75424194335938    
  0
ARC
  8
0
 10
 0.7255289237946272E-03
 20
 0.1102992333471775E-02
 30
0.0
 40
  78.99868774414062    
 50
  51.75368499755859    
 51
  54.99996185302734    
  0
ARC
  8
0
 10
 0.7885206141509116E-03
 20
 0.1058885245583951E-02
 30
0.0
 40
  78.99868774414062    
 50
  55.00001144409180    
 51
  58.24628829956055    
  0
ARC
  8
0
 10
 0.1206075679510832E-01
 20
 0.2074757032096386E-01
 30
0.0
 40
  78.97601318359375    
 50
  58.24573135375977    
 51
  60.00003433227539    
  0
ARC
  8
0
 10
 0.1161336316727102E-02
 20
 0.2181459451094270E-02
 30
0.0
 40
  47.44753265380859    
 50
  59.99988555908203    
 51
  63.49052810668945    
  0
LINE
  8
0
 10
  21.17916870117188    
 20
  42.46110916137695    
 30
0.0
 11
  21.60178756713867    
 21
  43.36741256713867    
 31
0.0
  0
LINE
  8
0
 10
  21.60178756713867    
 20
  43.36741256713867    
 30
0.0
 11
  20.47586059570312    
 21
  43.91060638427734    
 31
0.0
  0
LINE
  8
0
 10
  19.33602142333984    
 20
  44.42395782470703    
 30
0.0
 11
  20.47586822509766    
 21
  43.91061019897461    
 31
0.0
  0
LINE
  8
0
 10
  18.91340255737305    
 20
  43.51765441894531    
 30
0.0
 11
  19.33602142333984    
 21
  44.42395782470703    
 31
0.0
  0
ARC
  8
0
 10
 0.9248153655789793E-03
 20
 0.2291751094162464E-02
 30
0.0
 40
  47.44753265380859    
 50
  66.50945281982422    
 51
  70.00009155273438    
  0
ARC
  8
0
 10
-0.5076342727988958E-02
 20
 0.3120775334537029E-01
 30
0.0
 40
  48.42306900024414    
 50
  66.45812988281250    
 51
  67.61455535888672    
  0
LINE
  8
0
 10
  18.43614768981934    
 20
  44.80525588989258    
 30
0.0
 11
  21.67895698547363    
 21
  53.71479415893555    
 31
0.0
  0
LINE
  8
0
 10
  24.21994972229004    
 20
  60.69610214233398    
 30
0.0
 11
  21.67895698547363    
 21
  53.71479415893555    
 31
0.0
  0
LINE
  8
0
 10
  27.61811828613281    
 20
  59.22721099853516    
 30
0.0
 11
  24.21994972229004    
 21
  60.69610214233398    
 31
0.0
  0
LINE
  8
0
 10
  27.61811065673828    
 20
  59.22721481323242    
 30
0.0
 11
  30.92764854431152    
 21
  57.56824874877930    
 31
0.0
  0
LINE
  8
0
 10
  30.92764854431152    
 20
  57.56824874877930    
 30
0.0
 11
  27.21297264099121    
 21
  51.13423919677734    
 31
0.0
  0
LINE
  8
0
 10
  22.47230720520020    
 20
  42.92316436767578    
 30
0.0
 11
  27.21297264099121    
 21
  51.13423919677734    
 31
0.0
  0
ARC
  8
0
 10
 0.2716975286602974E-01
 20
 0.1617114618420601E-01
 30
0.0
 40
  48.42306900024414    
 50
  62.38542556762695    
 51
  63.54184341430664    
  0
LINE
  8
0
 10
  27.21297264099121    
 20
  51.13423919677734    
 30
0.0
 11
  21.67895126342773    
 21
  53.71479797363281    
 31
0.0
  0
ARC
  8
0
 10
 0.1193776354193687E-01
 20
 0.2081860229372978E-01
 30
0.0
 40
  78.97601318359375    
 50
  59.99994277954102    
 51
  61.75425338745117    
  0
ARC
  8
0
 10
 0.5229738308116794E-03
 20
 0.1212222268804908E-02
 30
0.0
 40
  78.99868774414062    
 50
  61.75368499755859    
 51
  64.99996948242188    
  0
ARC
  8
0
 10
 0.5926676676608622E-03
 20
 0.1179723534733057E-02
 30
0.0
 40
  78.99868774414062    
 50
  65.00001525878906    
 51
  68.24629211425781    
  0
ARC
  8
0
 10
 0.8274747990071774E-02
 20
 0.2252669632434845E-01
 30
0.0
 40
  78.97601318359375    
 50
  68.24573516845703    
 51
  70.00003814697266    
  0
ARC
  8
0
 10
 0.7648866740055382E-03
 20
 0.2349982038140297E-02
 30
0.0
 40
  47.44753265380859    
 50
  69.99988555908203    
 51
  73.49051666259766    
  0
LINE
  8
0
 10
  13.48411846160889    
 20
  45.49374771118164    
 30
0.0
 11
  13.74293708801270    
 21
  46.45967102050781    
 31
0.0
  0
LINE
  8
0
 10
  13.74293708801270    
 20
  46.45967102050781    
 30
0.0
 11
  12.53979206085205    
 21
  46.79910278320312    
 31
0.0
  0
LINE
  8
0
 10
  11.32812595367432    
 20
  47.10671997070312    
 30
0.0
 11
  12.53979873657227    
 21
  46.79910278320312    
 31
0.0
  0
LINE
  8
0
 10
  11.06930923461914    
 20
  46.14079666137695    
 30
0.0
 11
  11.32812595367432    
 21
  47.10671997070312    
 31
0.0
  0
ARC
  8
0
 10
 0.5128072225488722E-03
 20
 0.2417526673525572E-02
 30
0.0
 40
  47.44753265380859    
 50
  76.50944519042969    
 51
  80.00008392333984    
  0
ARC
  8
0
 10
-0.1041838899254799E-01
 20
 0.2985213883221149E-01
 30
0.0
 40
  48.42306900024414    
 50
  76.45812988281250    
 51
  77.61454772949219    
  0
LINE
  8
0
 10
  10.37571334838867    
 20
  47.32596588134766    
 30
0.0
 11
  12.02213191986084    
 21
  56.66325378417969    
 31
0.0
  0
LINE
  8
0
 10
  13.31223011016846    
 20
  63.97973632812500    
 30
0.0
 11
  12.02213191986084    
 21
  56.66325378417969    
 31
0.0
  0
LINE
  8
0
 10
  16.91384315490723    
 20
  63.12324905395508    
 30
0.0
 11
  13.31223011016846    
 21
  63.97973632812500    
 31
0.0
  0
LINE
  8
0
 10
  16.91383743286133    
 20
  63.12324905395508    
 30
0.0
 11
  20.46117019653320    
 21
  62.06418609619141    
 31
0.0
  0
LINE
  8
0
 10
  20.46117019653320    
 20
  62.06418609619141    
 30
0.0
 11
  17.92018318176270    
 21
  55.08287811279297    
 31
0.0
  0
LINE
  8
0
 10
  14.67737388610840    
 20
  46.17333221435547    
 30
0.0
 11
  17.92018318176270    
 21
  55.08287811279297    
 31
0.0
  0
ARC
  8
0
 10
 0.2394889481365681E-01
 20
 0.2064344473183155E-01
 30
0.0
 40
  48.42306900024414    
 50
  72.38541412353516    
 51
  73.54183959960938    
  0
LINE
  8
0
 10
  17.92018318176270    
 20
  55.08287811279297    
 30
0.0
 11
  12.02212715148926    
 21
  56.66325378417969    
 31
0.0
  0
ARC
  8
0
 10
 0.8141291327774525E-02
 20
 0.2257529273629189E-01
 30
0.0
 40
  78.97601318359375    
 50
  69.99993896484375    
 51
  71.75424194335938    
  0
ARC
  8
0
 10
 0.3045285993721336E-03
 20
 0.1284619327634573E-02
 30
0.0
 40
  78.99868774414062    
 50
  71.75368499755859    
 51
  74.99996185302734    
  0
ARC
  8
0
 10
 0.3788069880101830E-03
 20
 0.1264716382138431E-02
 30
0.0
 40
  78.99868774414062    
 50
  75.00000000000000    
 51
  78.24629211425781    
  0
ARC
  8
0
 10
 0.4237318411469460E-02
 20
 0.2362135797739029E-01
 30
0.0
 40
  78.97601318359375    
 50
  78.24571990966797    
 51
  80.00003051757812    
  0
ARC
  8
0
 10
 0.3451962838880718E-03
 20
 0.2447101986035705E-02
 30
0.0
 40
  47.44753265380859    
 50
  79.99987792968750    
 51
  83.49051666259766    
  0
LINE
  8
0
 10
  5.379359245300293    
 20
  47.14408874511719    
 30
0.0
 11
  5.466515064239502    
 21
  48.14028167724609    
 31
0.0
  0
LINE
  8
0
 10
  5.466515064239502    
 20
  48.14028167724609    
 30
0.0
 11
  4.222705841064453    
 21
  48.26563262939453    
 31
0.0
  0
LINE
  8
0
 10
  2.976032495498657    
 20
  48.35817337036133    
 30
0.0
 11
  4.222712516784668    
 21
  48.26563644409180    
 31
0.0
  0
LINE
  8
0
 10
  2.888877391815186    
 20
  47.36198043823242    
 30
0.0
 11
  2.976032495498657    
 21
  48.35817337036133    
 31
0.0
  0
ARC
  8
0
 10
 0.8521746349288151E-04
 20
 0.2469846978783607E-02
 30
0.0
 40
  47.44753265380859    
 50
  86.50944519042969    
 51
  90.00008392333984    
  0
ARC
  8
0
 10
-0.1544387824833393E-01
 20
 0.2758948504924774E-01
 30
0.0
 40
  48.42306900024414    
 50
  86.45812988281250    
 51
  87.61454772949219    
  0
LINE
  8
0
 10
  2.000015735626221    
 20
  48.40869903564453    
 30
0.0
 11
  2.000019073486328    
 21
  57.89002990722656    
 31
0.0
  0
LINE
  8
0
 10
  2.000022649765015    
 20
  65.31938934326172    
 30
0.0
 11
  2.000019073486328    
 21
  57.89002990722656    
 31
0.0
  0
LINE
  8
0
 10
  5.695649147033691    
 20
  65.10132598876953    
 30
0.0
 11
  2.000022649765015    
 21
  65.31938934326172    
 31
0.0
  0
LINE
  8
0
 10
  5.695642471313477    
 20
  65.10132598876953    
 30
0.0
 11
  9.372989654541016    
 21
  64.67433166503906    
 31
0.0
  0
LINE
  8
0
 10
  9.372989654541016    
 20
  64.67433166503906    
 30
0.0
 11
  8.082894325256348    
 21
  57.35785293579102    
 31
0.0
  0
LINE
  8
0
 10
  6.436477184295654    
 20
  48.02056121826172    
 30
0.0
 11
  8.082894325256348    
 21
  57.35785293579102    
 31
0.0
  0
ARC
  8
0
 10
 0.2000036090612411E-01
 20
 0.2448850497603416E-01
 30
0.0
 40
  48.42306900024414    
 50
  82.38541412353516    
 51
  83.54183959960938    
  0
LINE
  8
0
 10
  8.082894325256348    
 20
  57.35785293579102    
 30
0.0
 11
  2.000014305114746    
 21
  57.89002990722656    
 31
0.0
  0
ARC
  8
0
 10
 0.4097448661923409E-02
 20
 0.2364604175090790E-01
 30
0.0
 40
  78.97601318359375    
 50
  79.99993896484375    
 51
  81.75424194335938    
  0
ARC
  8
0
 10
 0.7683038711547852E-04
 20
 0.1317983958870173E-02
 30
0.0
 40
  78.99868774414062    
 50
  81.75368499755859    
 51
  84.99996185302734    
  0
ARC
  8
0
 10
 0.1534363836981356E-03
 20
 0.1311281812377274E-02
 30
0.0
 40
  78.99868774414062    
 50
  85.00000762939453    
 51
  88.24628448486328    
  0
ARC
  8
0
 10
 0.7113885658327490E-04
 20
 0.2399829775094986E-01
 30
0.0
 40
  78.97601318359375    
 50
  88.24571990966797    
 51
  90.00003051757812    
  0
LINE
  8
0
 10
  47.45000076293945    
 20
-0.2074105623250944E-05
 30
0.0
 11
  79.00000000000000    
 21
-0.3453199951763963E-05
 31
0.0
  0
LINE
  8
0
 10
  0.000000000000000    
 20
  47.45000076293945    
 30
0.0
 11
  0.000000000000000    
 21
  79.00000000000000    
 31
0.0
  0
LINE
  8
0
 10
  37.85694122314453    
 20
  6.319980621337891    
 30
0.0
 11
  42.09957885742188    
 21
  10.56262111663818    
 31
0.0
  0
LINE
  8
0
 10
  6.319975852966309    
 20
  37.85694122314453    
 30
0.0
 11
  10.56261634826660    
 21
  42.09957885742188    
 31
0.0
  0
LINE
  8
0
 10
  42.09957885742188    
 20
  10.56262111663818    
 30
0.0
 11
  10.56261634826660    
 21
  42.09957885742188    
 31
0.0
  0
LINE
  8
0
 10
  37.85694122314453    
 20
  6.319980621337891    
 30
0.0
 11
  6.319975852966309    
 21
  37.85694122314453    
 31
0.0
  0
LINE
  8
0
 10
  37.85694122314453    
 20
  6.319980621337891    
 30
0.0
 11
  6.319975852966309    
 21
  37.85694122314453    
 31
0.0
  0
LINE
  8
0
 10
  37.85694122314453    
 20
  6.319980621337891    
 30
0.0
 11
  42.09957885742188    
 21
  6.319980621337891    
 31
0.0
  0
LINE
  8
0
 10
  6.319975852966309    
 20
  37.85694122314453    
 30
0.0
 11
  6.319977283477783    
 21
  42.09957885742188    
 31
0.0
  0
LINE
  8
0
 10
  42.09957885742188    
 20
  10.56262111663818    
 30
0.0
 11
  42.09957885742188    
 21
  6.319980621337891    
 31
0.0
  0
LINE
  8
0
 10
  10.56261634826660    
 20
  42.09957885742188    
 30
0.0
 11
  6.319977283477783    
 21
  42.09957885742188    
 31
0.0
  0
ARC
  8
0
 10
 0.1862645149230957E-05
 20
 0.1862645149230957E-05
 30
0.0
 40
  22.24999809265137    
 50
-0.4796481789526297E-05
 51
  90.00000000000000    
  0
ARC
  8
0
 10
-0.1117587089538574E-04
 20
-0.1117587089538574E-04
 30
0.0
 40
  45.95001220703125    
 50
 0.1393536513205618E-04
 51
  89.99999237060547    
  0
LINE
  8
0
 10
  22.25000000000000    
 20
-0.9725785048431135E-06
 30
0.0
 11
  45.95000457763672    
 21
-0.2008538558584405E-05
 31
0.0
  0
LINE
  8
0
 10
  0.000000000000000    
 20
  22.25000000000000    
 30
0.0
 11
  0.000000000000000    
 21
  45.95000457763672    
 31
0.0
  0
ENDSEC
  0
EOF

