<?xml version="1.0" encoding="UTF-8" standalone="no"?>
<svg
   encoding="UTF-8"
   width="360"
   height="420"
   viewBox="10 0 370 420"
   version="1.1"
   id="svg1158"
   xmlns="http://www.w3.org/2000/svg"
   xmlns:svg="http://www.w3.org/2000/svg">
  <defs
     id="defs4">
    <style
       type="text/css"
       id="style2"><![CDATA[text { font-family:monospace;font-size:8;} svg { font-size:8;}
]]></style>
  </defs>
  <g
     stroke="rgb(0,0,0)"
     stroke-width="1"
     id="g824">
    <line
       x1="200.134201"
       y1="366.442963"
       x2="202.723495"
       y2="366.454865"
       id="line6" />
    <line
       x1="202.723495"
       y1="366.454865"
       x2="205.312561"
       y2="366.490540"
       id="line8" />
    <line
       x1="205.312561"
       y1="366.490540"
       x2="207.901199"
       y2="366.549988"
       id="line10" />
    <line
       x1="207.901199"
       y1="366.549988"
       x2="210.489182"
       y2="366.633209"
       id="line12" />
    <line
       x1="210.489182"
       y1="366.633209"
       x2="213.076294"
       y2="366.740234"
       id="line14" />
    <line
       x1="213.076294"
       y1="366.740234"
       x2="215.662308"
       y2="366.871002"
       id="line16" />
    <line
       x1="215.662308"
       y1="366.871002"
       x2="218.247009"
       y2="367.025513"
       id="line18" />
    <line
       x1="218.247009"
       y1="367.025513"
       x2="220.830185"
       y2="367.203735"
       id="line20" />
    <line
       x1="220.830185"
       y1="367.203735"
       x2="223.411606"
       y2="367.405731"
       id="line22" />
    <line
       x1="223.411606"
       y1="367.405731"
       x2="225.991074"
       y2="367.631409"
       id="line24" />
    <line
       x1="225.991074"
       y1="367.631409"
       x2="228.568359"
       y2="367.880768"
       id="line26" />
    <line
       x1="228.568359"
       y1="367.880768"
       x2="231.143250"
       y2="368.153778"
       id="line28" />
    <line
       x1="231.143250"
       y1="368.153778"
       x2="233.715515"
       y2="368.450439"
       id="line30" />
    <line
       x1="233.715515"
       y1="368.450439"
       x2="236.284943"
       y2="368.770721"
       id="line32" />
    <line
       x1="236.284943"
       y1="368.770721"
       x2="238.851334"
       y2="369.114594"
       id="line34" />
    <line
       x1="238.851334"
       y1="369.114594"
       x2="241.414444"
       y2="369.482025"
       id="line36" />
    <line
       x1="241.414444"
       y1="369.482025"
       x2="243.974075"
       y2="369.872986"
       id="line38" />
    <line
       x1="243.974075"
       y1="369.872986"
       x2="246.530014"
       y2="370.287445"
       id="line40" />
    <line
       x1="246.530014"
       y1="370.287445"
       x2="249.082031"
       y2="370.725342"
       id="line42" />
    <line
       x1="200.134201"
       y1="366.442963"
       x2="197.544922"
       y2="366.454865"
       id="line44" />
    <line
       x1="197.544922"
       y1="366.454865"
       x2="194.955841"
       y2="366.490540"
       id="line46" />
    <line
       x1="194.955841"
       y1="366.490540"
       x2="192.367203"
       y2="366.549988"
       id="line48" />
    <line
       x1="192.367203"
       y1="366.549988"
       x2="189.779236"
       y2="366.633209"
       id="line50" />
    <line
       x1="189.779236"
       y1="366.633209"
       x2="187.192123"
       y2="366.740234"
       id="line52" />
    <line
       x1="187.192123"
       y1="366.740234"
       x2="184.606110"
       y2="366.871002"
       id="line54" />
    <line
       x1="184.606110"
       y1="366.871002"
       x2="182.021408"
       y2="367.025513"
       id="line56" />
    <line
       x1="182.021408"
       y1="367.025513"
       x2="179.438232"
       y2="367.203735"
       id="line58" />
    <line
       x1="179.438232"
       y1="367.203735"
       x2="176.856812"
       y2="367.405731"
       id="line60" />
    <line
       x1="176.856812"
       y1="367.405731"
       x2="174.277344"
       y2="367.631409"
       id="line62" />
    <line
       x1="174.277344"
       y1="367.631409"
       x2="171.700073"
       y2="367.880768"
       id="line64" />
    <line
       x1="171.700073"
       y1="367.880768"
       x2="169.125183"
       y2="368.153778"
       id="line66" />
    <line
       x1="169.125183"
       y1="368.153778"
       x2="166.552917"
       y2="368.450439"
       id="line68" />
    <line
       x1="166.552917"
       y1="368.450439"
       x2="163.983490"
       y2="368.770721"
       id="line70" />
    <line
       x1="163.983490"
       y1="368.770721"
       x2="161.417099"
       y2="369.114594"
       id="line72" />
    <line
       x1="161.417099"
       y1="369.114594"
       x2="158.853989"
       y2="369.482025"
       id="line74" />
    <line
       x1="158.853989"
       y1="369.482025"
       x2="156.294357"
       y2="369.872986"
       id="line76" />
    <line
       x1="156.294357"
       y1="369.872986"
       x2="153.738434"
       y2="370.287445"
       id="line78" />
    <line
       x1="153.738434"
       y1="370.287445"
       x2="151.186401"
       y2="370.725342"
       id="line80" />
    <line
       x1="205.771820"
       y1="70.4973145"
       x2="210.782700"
       y2="70.5679321"
       id="line82" />
    <line
       x1="210.782700"
       y1="70.5679321"
       x2="215.792786"
       y2="70.6820068"
       id="line84" />
    <line
       x1="215.792786"
       y1="70.6820068"
       x2="220.801697"
       y2="70.8395386"
       id="line86" />
    <line
       x1="220.801697"
       y1="70.8395386"
       x2="225.809052"
       y2="71.0404663"
       id="line88" />
    <line
       x1="225.809052"
       y1="71.0404663"
       x2="230.814468"
       y2="71.2848511"
       id="line90" />
    <line
       x1="230.814468"
       y1="71.2848511"
       x2="235.817596"
       y2="71.5725708"
       id="line92" />
    <line
       x1="235.817596"
       y1="71.5725708"
       x2="240.818024"
       y2="71.9037476"
       id="line94" />
    <line
       x1="240.818024"
       y1="71.9037476"
       x2="245.815384"
       y2="72.2782593"
       id="line96" />
    <line
       x1="245.815384"
       y1="72.2782593"
       x2="250.809326"
       y2="72.6961060"
       id="line98" />
    <line
       x1="250.809326"
       y1="72.6961060"
       x2="255.799454"
       y2="73.1572266"
       id="line100" />
    <line
       x1="255.799454"
       y1="73.1572266"
       x2="260.785400"
       y2="73.6615601"
       id="line102" />
    <line
       x1="260.785400"
       y1="73.6615601"
       x2="265.766754"
       y2="74.2091675"
       id="line104" />
    <line
       x1="265.766754"
       y1="74.2091675"
       x2="270.743195"
       y2="74.7999878"
       id="line106" />
    <line
       x1="270.743195"
       y1="74.7999878"
       x2="275.714325"
       y2="75.4338989"
       id="line108" />
    <line
       x1="275.714325"
       y1="75.4338989"
       x2="280.679779"
       y2="76.1109009"
       id="line110" />
    <line
       x1="280.679779"
       y1="76.1109009"
       x2="285.639160"
       y2="76.8308716"
       id="line112" />
    <line
       x1="285.639160"
       y1="76.8308716"
       x2="290.592102"
       y2="77.5939331"
       id="line114" />
    <line
       x1="290.592102"
       y1="77.5939331"
       x2="295.538269"
       y2="78.3998413"
       id="line116" />
    <line
       x1="295.538269"
       y1="78.3998413"
       x2="300.477234"
       y2="79.2487183"
       id="line118" />
    <line
       x1="99.7912064"
       y1="79.2487183"
       x2="104.730186"
       y2="78.3998413"
       id="line120" />
    <line
       x1="104.730186"
       y1="78.3998413"
       x2="109.676331"
       y2="77.5939331"
       id="line122" />
    <line
       x1="109.676331"
       y1="77.5939331"
       x2="114.629288"
       y2="76.8308716"
       id="line124" />
    <line
       x1="114.629288"
       y1="76.8308716"
       x2="119.588676"
       y2="76.1109009"
       id="line126" />
    <line
       x1="119.588676"
       y1="76.1109009"
       x2="124.554123"
       y2="75.4338989"
       id="line128" />
    <line
       x1="124.554123"
       y1="75.4338989"
       x2="129.525238"
       y2="74.7999878"
       id="line130" />
    <line
       x1="129.525238"
       y1="74.7999878"
       x2="134.501678"
       y2="74.2091675"
       id="line132" />
    <line
       x1="134.501678"
       y1="74.2091675"
       x2="139.483063"
       y2="73.6615601"
       id="line134" />
    <line
       x1="139.483063"
       y1="73.6615601"
       x2="144.469009"
       y2="73.1572266"
       id="line136" />
    <line
       x1="144.469009"
       y1="73.1572266"
       x2="149.459122"
       y2="72.6961060"
       id="line138" />
    <line
       x1="149.459122"
       y1="72.6961060"
       x2="154.453064"
       y2="72.2782593"
       id="line140" />
    <line
       x1="154.453064"
       y1="72.2782593"
       x2="159.450439"
       y2="71.9037476"
       id="line142" />
    <line
       x1="159.450439"
       y1="71.9037476"
       x2="164.450867"
       y2="71.5725708"
       id="line144" />
    <line
       x1="164.450867"
       y1="71.5725708"
       x2="169.453979"
       y2="71.2848511"
       id="line146" />
    <line
       x1="169.453979"
       y1="71.2848511"
       x2="174.459396"
       y2="71.0404663"
       id="line148" />
    <line
       x1="174.459396"
       y1="71.0404663"
       x2="179.466751"
       y2="70.8395386"
       id="line150" />
    <line
       x1="179.466751"
       y1="70.8395386"
       x2="184.475662"
       y2="70.6820068"
       id="line152" />
    <line
       x1="184.475662"
       y1="70.6820068"
       x2="189.485748"
       y2="70.5679321"
       id="line154" />
    <line
       x1="189.485748"
       y1="70.5679321"
       x2="194.496628"
       y2="70.4973145"
       id="line156" />
    <line
       x1="300.477234"
       y1="79.2487183"
       x2="249.082031"
       y2="370.725342"
       id="line158" />
    <line
       x1="99.7911987"
       y1="79.2487183"
       x2="151.186401"
       y2="370.725342"
       id="line160" />
    <line
       x1="205.771805"
       y1="70.4973145"
       x2="205.771805"
       y2="81.7449341"
       id="line162" />
    <line
       x1="194.496628"
       y1="70.4973145"
       x2="194.496628"
       y2="81.7449341"
       id="line164" />
    <line
       x1="209.999969"
       y1="115.570435"
       x2="212.754883"
       y2="114.991821"
       id="line166" />
    <line
       x1="212.754883"
       y1="114.991821"
       x2="215.376984"
       y2="113.967590"
       id="line168" />
    <line
       x1="215.376984"
       y1="113.967590"
       x2="217.794724"
       y2="112.525757"
       id="line170" />
    <line
       x1="217.794724"
       y1="112.525757"
       x2="219.942200"
       y2="110.705688"
       id="line172" />
    <line
       x1="219.942200"
       y1="110.705688"
       x2="221.760803"
       y2="108.557007"
       id="line174" />
    <line
       x1="221.760803"
       y1="108.557007"
       x2="223.200928"
       y2="106.138245"
       id="line176" />
    <line
       x1="223.200928"
       y1="106.138245"
       x2="224.223297"
       y2="103.515381"
       id="line178" />
    <line
       x1="224.223297"
       y1="103.515381"
       x2="224.800034"
       y2="100.760132"
       id="line180" />
    <line
       x1="224.800034"
       y1="100.760132"
       x2="224.915390"
       y2="97.9474487"
       id="line182" />
    <line
       x1="224.915390"
       y1="97.9474487"
       x2="224.566238"
       y2="95.1541748"
       id="line184" />
    <line
       x1="224.566238"
       y1="95.1541748"
       x2="223.762070"
       y2="92.4564819"
       id="line186" />
    <line
       x1="223.762070"
       y1="92.4564819"
       x2="222.524857"
       y2="89.9279175"
       id="line188" />
    <line
       x1="222.524857"
       y1="89.9279175"
       x2="220.888321"
       y2="87.6374512"
       id="line190" />
    <line
       x1="220.888321"
       y1="87.6374512"
       x2="218.897125"
       y2="85.6475830"
       id="line192" />
    <line
       x1="218.897125"
       y1="85.6475830"
       x2="216.605560"
       y2="84.0126343"
       id="line194" />
    <line
       x1="216.605560"
       y1="84.0126343"
       x2="214.076141"
       y2="82.7771606"
       id="line196" />
    <line
       x1="214.076141"
       y1="82.7771606"
       x2="211.377869"
       y2="81.9748535"
       id="line198" />
    <line
       x1="211.377869"
       y1="81.9748535"
       x2="208.584351"
       y2="81.6276245"
       id="line200" />
    <line
       x1="208.584351"
       y1="81.6276245"
       x2="205.771774"
       y2="81.7449341"
       id="line202" />
    <line
       x1="194.496613"
       y1="81.7449341"
       x2="191.684036"
       y2="81.6276245"
       id="line204" />
    <line
       x1="191.684036"
       y1="81.6276245"
       x2="188.890518"
       y2="81.9749146"
       id="line206" />
    <line
       x1="188.890518"
       y1="81.9749146"
       x2="186.192245"
       y2="82.7772217"
       id="line208" />
    <line
       x1="186.192245"
       y1="82.7772217"
       x2="183.662842"
       y2="84.0126953"
       id="line210" />
    <line
       x1="183.662842"
       y1="84.0126953"
       x2="181.371277"
       y2="85.6476440"
       id="line212" />
    <line
       x1="181.371277"
       y1="85.6476440"
       x2="179.380081"
       y2="87.6375122"
       id="line214" />
    <line
       x1="179.380081"
       y1="87.6375122"
       x2="177.743561"
       y2="89.9279175"
       id="line216" />
    <line
       x1="177.743561"
       y1="89.9279175"
       x2="176.506348"
       y2="92.4564819"
       id="line218" />
    <line
       x1="176.506348"
       y1="92.4564819"
       x2="175.702194"
       y2="95.1541748"
       id="line220" />
    <line
       x1="175.702194"
       y1="95.1541748"
       x2="175.353043"
       y2="97.9475098"
       id="line222" />
    <line
       x1="175.353043"
       y1="97.9475098"
       x2="175.468414"
       y2="100.760132"
       id="line224" />
    <line
       x1="175.468414"
       y1="100.760132"
       x2="176.045135"
       y2="103.515442"
       id="line226" />
    <line
       x1="176.045135"
       y1="103.515442"
       x2="177.067520"
       y2="106.138245"
       id="line228" />
    <line
       x1="177.067520"
       y1="106.138245"
       x2="178.507660"
       y2="108.557007"
       id="line230" />
    <line
       x1="178.507660"
       y1="108.557007"
       x2="180.326263"
       y2="110.705688"
       id="line232" />
    <line
       x1="180.326263"
       y1="110.705688"
       x2="182.473724"
       y2="112.525757"
       id="line234" />
    <line
       x1="182.473724"
       y1="112.525757"
       x2="184.891479"
       y2="113.967590"
       id="line236" />
    <line
       x1="184.891479"
       y1="113.967590"
       x2="187.513580"
       y2="114.991821"
       id="line238" />
    <line
       x1="187.513580"
       y1="114.991821"
       x2="190.268478"
       y2="115.570435"
       id="line240" />
    <line
       x1="209.999985"
       y1="115.570435"
       x2="209.999985"
       y2="149.395905"
       id="line242" />
    <line
       x1="190.268448"
       y1="115.570435"
       x2="190.268448"
       y2="149.395905"
       id="line244" />
    <line
       x1="242.416107"
       y1="191.677795"
       x2="242.940735"
       y2="188.783691"
       id="line246" />
    <line
       x1="242.940735"
       y1="188.783691"
       x2="243.205170"
       y2="185.828217"
       id="line248" />
    <line
       x1="243.205170"
       y1="185.828217"
       x2="243.202652"
       y2="182.834961"
       id="line250" />
    <line
       x1="243.202652"
       y1="182.834961"
       x2="242.928558"
       y2="179.828217"
       id="line252" />
    <line
       x1="242.928558"
       y1="179.828217"
       x2="242.380524"
       y2="176.832733"
       id="line254" />
    <line
       x1="242.380524"
       y1="176.832733"
       x2="241.558411"
       y2="173.873627"
       id="line256" />
    <line
       x1="241.558411"
       y1="173.873627"
       x2="240.464417"
       y2="170.976074"
       id="line258" />
    <line
       x1="240.464417"
       y1="170.976074"
       x2="239.103088"
       y2="168.165192"
       id="line260" />
    <line
       x1="239.103088"
       y1="168.165192"
       x2="237.481247"
       y2="165.465790"
       id="line262" />
    <line
       x1="237.481247"
       y1="165.465790"
       x2="235.608063"
       y2="162.902039"
       id="line264" />
    <line
       x1="235.608063"
       y1="162.902039"
       x2="233.494949"
       y2="160.497437"
       id="line266" />
    <line
       x1="233.494949"
       y1="160.497437"
       x2="231.155518"
       y2="158.274445"
       id="line268" />
    <line
       x1="231.155518"
       y1="158.274445"
       x2="228.605469"
       y2="156.254456"
       id="line270" />
    <line
       x1="228.605469"
       y1="156.254456"
       x2="225.862564"
       y2="154.457397"
       id="line272" />
    <line
       x1="225.862564"
       y1="154.457397"
       x2="222.946426"
       y2="152.901733"
       id="line274" />
    <line
       x1="222.946426"
       y1="152.901733"
       x2="219.878433"
       y2="151.603973"
       id="line276" />
    <line
       x1="219.878433"
       y1="151.603973"
       x2="216.681549"
       y2="150.579010"
       id="line278" />
    <line
       x1="216.681549"
       y1="150.579010"
       x2="213.380173"
       y2="149.839508"
       id="line280" />
    <line
       x1="213.380173"
       y1="149.839508"
       x2="209.999985"
       y2="149.395905"
       id="line282" />
    <line
       x1="190.268463"
       y1="149.395905"
       x2="186.888260"
       y2="149.839508"
       id="line284" />
    <line
       x1="186.888260"
       y1="149.839508"
       x2="183.586899"
       y2="150.579010"
       id="line286" />
    <line
       x1="183.586899"
       y1="150.579010"
       x2="180.390015"
       y2="151.603973"
       id="line288" />
    <line
       x1="180.390015"
       y1="151.603973"
       x2="177.322006"
       y2="152.901733"
       id="line290" />
    <line
       x1="177.322006"
       y1="152.901733"
       x2="174.405869"
       y2="154.457428"
       id="line292" />
    <line
       x1="174.405869"
       y1="154.457428"
       x2="171.662964"
       y2="156.254456"
       id="line294" />
    <line
       x1="171.662964"
       y1="156.254456"
       x2="169.112930"
       y2="158.274445"
       id="line296" />
    <line
       x1="169.112930"
       y1="158.274445"
       x2="166.773483"
       y2="160.497437"
       id="line298" />
    <line
       x1="166.773483"
       y1="160.497437"
       x2="164.660370"
       y2="162.902039"
       id="line300" />
    <line
       x1="164.660370"
       y1="162.902039"
       x2="162.787186"
       y2="165.465790"
       id="line302" />
    <line
       x1="162.787186"
       y1="165.465790"
       x2="161.165359"
       y2="168.165192"
       id="line304" />
    <line
       x1="161.165359"
       y1="168.165192"
       x2="159.804016"
       y2="170.976074"
       id="line306" />
    <line
       x1="159.804016"
       y1="170.976074"
       x2="158.710037"
       y2="173.873627"
       id="line308" />
    <line
       x1="158.710037"
       y1="173.873627"
       x2="157.887924"
       y2="176.832733"
       id="line310" />
    <line
       x1="157.887924"
       y1="176.832733"
       x2="157.339874"
       y2="179.828217"
       id="line312" />
    <line
       x1="157.339874"
       y1="179.828217"
       x2="157.065796"
       y2="182.834961"
       id="line314" />
    <line
       x1="157.065796"
       y1="182.834961"
       x2="157.063278"
       y2="185.828217"
       id="line316" />
    <line
       x1="157.063278"
       y1="185.828217"
       x2="157.327713"
       y2="188.783691"
       id="line318" />
    <line
       x1="157.327713"
       y1="188.783691"
       x2="157.852341"
       y2="191.677795"
       id="line320" />
    <line
       x1="242.416092"
       y1="191.677795"
       x2="228.322144"
       y2="304.429474"
       id="line322" />
    <line
       x1="157.852341"
       y1="191.677795"
       x2="171.946289"
       y2="304.429474"
       id="line324" />
    <line
       x1="171.946289"
       y1="304.429474"
       x2="172.330734"
       y2="309.069092"
       id="line326" />
    <line
       x1="172.330734"
       y1="309.069092"
       x2="173.473587"
       y2="313.582092"
       id="line328" />
    <line
       x1="173.473587"
       y1="313.582092"
       x2="175.343674"
       y2="317.845459"
       id="line330" />
    <line
       x1="175.343674"
       y1="317.845459"
       x2="177.889984"
       y2="321.742889"
       id="line332" />
    <line
       x1="177.889984"
       y1="321.742889"
       x2="181.043060"
       y2="325.167999"
       id="line334" />
    <line
       x1="181.043060"
       y1="325.167999"
       x2="184.716888"
       y2="328.027466"
       id="line336" />
    <line
       x1="184.716888"
       y1="328.027466"
       x2="188.811264"
       y2="330.243225"
       id="line338" />
    <line
       x1="188.811264"
       y1="330.243225"
       x2="193.214493"
       y2="331.754852"
       id="line340" />
    <line
       x1="193.214493"
       y1="331.754852"
       x2="197.806488"
       y2="332.521118"
       id="line342" />
    <line
       x1="197.806488"
       y1="332.521118"
       x2="202.461960"
       y2="332.521118"
       id="line344" />
    <line
       x1="202.461960"
       y1="332.521118"
       x2="207.053940"
       y2="331.754852"
       id="line346" />
    <line
       x1="207.053940"
       y1="331.754852"
       x2="211.457184"
       y2="330.243225"
       id="line348" />
    <line
       x1="211.457184"
       y1="330.243225"
       x2="215.551544"
       y2="328.027466"
       id="line350" />
    <line
       x1="215.551544"
       y1="328.027466"
       x2="219.225372"
       y2="325.167999"
       id="line352" />
    <line
       x1="219.225372"
       y1="325.167999"
       x2="222.378433"
       y2="321.742859"
       id="line354" />
    <line
       x1="222.378433"
       y1="321.742859"
       x2="224.924744"
       y2="317.845428"
       id="line356" />
    <line
       x1="224.924744"
       y1="317.845428"
       x2="226.794830"
       y2="313.582092"
       id="line358" />
    <line
       x1="226.794830"
       y1="313.582092"
       x2="227.937683"
       y2="309.069061"
       id="line360" />
    <line
       x1="227.937683"
       y1="309.069061"
       x2="228.322113"
       y2="304.429474"
       id="line362" />
    <line
       x1="205.771820"
       y1="70.4973145"
       x2="205.178406"
       y2="70.4918213"
       id="line364" />
    <line
       x1="205.178406"
       y1="70.4918213"
       x2="204.584976"
       y2="70.4869385"
       id="line366" />
    <line
       x1="204.584976"
       y1="70.4869385"
       x2="203.991562"
       y2="70.4826660"
       id="line368" />
    <line
       x1="203.991562"
       y1="70.4826660"
       x2="203.398132"
       y2="70.4790039"
       id="line370" />
    <line
       x1="203.398132"
       y1="70.4790039"
       x2="202.804703"
       y2="70.4759521"
       id="line372" />
    <line
       x1="202.804703"
       y1="70.4759521"
       x2="202.211258"
       y2="70.4735107"
       id="line374" />
    <line
       x1="202.211258"
       y1="70.4735107"
       x2="201.617828"
       y2="70.4716797"
       id="line376" />
    <line
       x1="201.617828"
       y1="70.4716797"
       x2="201.024384"
       y2="70.4704590"
       id="line378" />
    <line
       x1="201.024384"
       y1="70.4704590"
       x2="200.430939"
       y2="70.4699097"
       id="line380" />
    <line
       x1="200.430939"
       y1="70.4699097"
       x2="199.837509"
       y2="70.4699097"
       id="line382" />
    <line
       x1="199.837509"
       y1="70.4699097"
       x2="199.244064"
       y2="70.4704590"
       id="line384" />
    <line
       x1="199.244064"
       y1="70.4704590"
       x2="198.650620"
       y2="70.4716797"
       id="line386" />
    <line
       x1="198.650620"
       y1="70.4716797"
       x2="198.057190"
       y2="70.4735107"
       id="line388" />
    <line
       x1="198.057190"
       y1="70.4735107"
       x2="197.463760"
       y2="70.4759521"
       id="line390" />
    <line
       x1="197.463760"
       y1="70.4759521"
       x2="196.870316"
       y2="70.4790039"
       id="line392" />
    <line
       x1="196.870316"
       y1="70.4790039"
       x2="196.276886"
       y2="70.4826660"
       id="line394" />
    <line
       x1="196.276886"
       y1="70.4826660"
       x2="195.683472"
       y2="70.4869385"
       id="line396" />
    <line
       x1="195.683472"
       y1="70.4869385"
       x2="195.090042"
       y2="70.4918213"
       id="line398" />
    <line
       x1="195.090042"
       y1="70.4918213"
       x2="194.496628"
       y2="70.4973145"
       id="line400" />
    <line
       x1="194.057190"
       y1="56.4070435"
       x2="194.696884"
       y2="56.4008179"
       id="line554" />
  </g>
  <g
     stroke="rgb(0,128,255)"
     stroke-width="1"
     id="g992">
    <line
       x1="200.134216"
       y1="70.4973145"
       x2="329.798645"
       y2="70.4973145"
       id="line974" />
    <line
       x1="205.771805"
       y1="81.7449341"
       x2="329.798645"
       y2="81.7449341"
       id="line976" />
    <line
       x1="209.999985"
       y1="115.570435"
       x2="329.798645"
       y2="115.570435"
       id="line978" />
    <line
       x1="209.999985"
       y1="149.395905"
       x2="329.798645"
       y2="149.395905"
       id="line980" />
    <line
       x1="242.416092"
       y1="191.677795"
       x2="329.798645"
       y2="191.677795"
       id="line982" />
    <line
       x1="228.322144"
       y1="304.429474"
       x2="329.798645"
       y2="304.429474"
       id="line984" />
    <line
       x1="200.134216"
       y1="332.617401"
       x2="329.798645"
       y2="332.617401"
       id="line986" />
    <line
       x1="228.322144"
       y1="304.429474"
       x2="228.322144"
       y2="248.053619"
       id="line988" />
    <line
       x1="171.946289"
       y1="304.429474"
       x2="171.946289"
       y2="248.053619"
       id="line990" />
  </g>
  <text
     x="332.617432"
     y="81.1365967"
     text-anchor="middle"
     id="text994">HS2</text>
  <g
     stroke="rgb(0,128,255)"
     stroke-width="1"
     id="g1016">
    <line
       x1="321.342255"
       y1="81.7449341"
       x2="321.342255"
       y2="70.4697876"
       id="line996" />
    <line
       x1="321.342255"
       y1="70.4697876"
       x2="319.211243"
       y2="74.0214844"
       id="line998" />
    <line
       x1="321.342255"
       y1="70.4697876"
       x2="323.473267"
       y2="74.0214844"
       id="line1000" />
    <line
       x1="321.342255"
       y1="81.7449341"
       x2="319.211243"
       y2="78.1932983"
       id="line1002" />
    <line
       x1="321.342255"
       y1="81.7449341"
       x2="323.473267"
       y2="78.1932983"
       id="line1004" />
    <line
       x1="321.342255"
       y1="115.570435"
       x2="321.342255"
       y2="81.7449341"
       id="line1006" />
    <line
       x1="321.342255"
       y1="81.7449341"
       x2="317.790588"
       y2="87.6644287"
       id="line1008" />
    <line
       x1="321.342255"
       y1="81.7449341"
       x2="324.893951"
       y2="87.6644287"
       id="line1010" />
    <line
       x1="321.342255"
       y1="115.570435"
       x2="317.790588"
       y2="109.650940"
       id="line1012" />
    <line
       x1="321.342255"
       y1="115.570435"
       x2="324.893951"
       y2="109.650940"
       id="line1014" />
  </g>
  <text
     x="332.617432"
     y="101.807678"
     text-anchor="middle"
     id="text1018">H32</text>
  <text
     x="332.617432"
     y="135.633179"
     text-anchor="middle"
     id="text1020">H42</text>
  <g
     stroke="rgb(0,128,255)"
     stroke-width="1"
     id="g1032">
    <line
       x1="321.342255"
       y1="149.395905"
       x2="321.342255"
       y2="115.570435"
       id="line1022" />
    <line
       x1="321.342255"
       y1="115.570435"
       x2="317.790588"
       y2="121.489929"
       id="line1024" />
    <line
       x1="321.342255"
       y1="115.570435"
       x2="324.893951"
       y2="121.489929"
       id="line1026" />
    <line
       x1="321.342255"
       y1="149.395905"
       x2="317.790588"
       y2="143.476440"
       id="line1028" />
    <line
       x1="321.342255"
       y1="149.395905"
       x2="324.893951"
       y2="143.476440"
       id="line1030" />
  </g>
  <text
     x="332.617432"
     y="173.686859"
     text-anchor="middle"
     id="text1034">H52</text>
  <g
     stroke="rgb(0,128,255)"
     stroke-width="1"
     id="g1046">
    <line
       x1="321.342255"
       y1="149.395905"
       x2="321.342255"
       y2="191.677795"
       id="line1036" />
    <line
       x1="321.342255"
       y1="191.677795"
       x2="324.893951"
       y2="185.758331"
       id="line1038" />
    <line
       x1="321.342255"
       y1="191.677795"
       x2="317.790588"
       y2="185.758331"
       id="line1040" />
    <line
       x1="321.342255"
       y1="149.395905"
       x2="324.893951"
       y2="155.315399"
       id="line1042" />
    <line
       x1="321.342255"
       y1="149.395905"
       x2="317.790588"
       y2="155.315399"
       id="line1044" />
  </g>
  <text
     x="332.617432"
     y="251.203613"
     text-anchor="middle"
     id="text1048">H62</text>
  <g
     stroke="rgb(0,128,255)"
     stroke-width="1"
     id="g1060">
    <line
       x1="321.342255"
       y1="191.677795"
       x2="321.342255"
       y2="304.429474"
       id="line1050" />
    <line
       x1="321.342255"
       y1="304.429474"
       x2="324.893921"
       y2="298.510040"
       id="line1052" />
    <line
       x1="321.342255"
       y1="304.429474"
       x2="317.790588"
       y2="298.510040"
       id="line1054" />
    <line
       x1="321.342255"
       y1="191.677795"
       x2="324.893951"
       y2="197.597260"
       id="line1056" />
    <line
       x1="321.342255"
       y1="191.677795"
       x2="317.790588"
       y2="197.597260"
       id="line1058" />
  </g>
  <text
     x="332.617432"
     y="321.673431"
     text-anchor="middle"
     id="text1062">H72</text>
  <g
     stroke="rgb(0,128,255)"
     stroke-width="1"
     id="g1090">
    <line
       x1="321.342255"
       y1="332.617401"
       x2="321.342255"
       y2="304.429474"
       id="line1064" />
    <line
       x1="321.342255"
       y1="304.429474"
       x2="317.790588"
       y2="310.348938"
       id="line1066" />
    <line
       x1="321.342255"
       y1="304.429474"
       x2="324.893951"
       y2="310.348938"
       id="line1068" />
    <line
       x1="321.342255"
       y1="332.617401"
       x2="317.790588"
       y2="326.697937"
       id="line1070" />
    <line
       x1="321.342255"
       y1="332.617401"
       x2="324.893951"
       y2="326.697937"
       id="line1072" />
    <line
       x1="194.496628"
       y1="70.4973145"
       x2="194.496628"
       y2="44.5644531"
       id="line1074" />
    <line
       x1="205.771805"
       y1="70.4973145"
       x2="205.771805"
       y2="44.5644531"
       id="line1076" />
    <line
       x1="219.978516"
       y1="50.7382812"
       x2="205.771805"
       y2="50.7382812"
       id="line1078" />
    <line
       x1="205.771805"
       y1="50.7382812"
       x2="209.323471"
       y2="52.8692627"
       id="line1080" />
    <line
       x1="205.771805"
       y1="50.7382812"
       x2="209.323471"
       y2="48.6072388"
       id="line1082" />
    <line
       x1="180.289917"
       y1="50.7382812"
       x2="194.496628"
       y2="50.7382812"
       id="line1084" />
    <line
       x1="194.496628"
       y1="50.7382812"
       x2="190.944962"
       y2="48.6072388"
       id="line1086" />
    <line
       x1="194.496628"
       y1="50.7382812"
       x2="190.944962"
       y2="52.8692627"
       id="line1088" />
  </g>
  <text
     x="200.134216"
     y="45.3190918"
     text-anchor="middle"
     id="text1092">BS2</text>
  <g
     stroke="rgb(0,128,255)"
     stroke-width="1"
     id="g1108">
    <line
       x1="225.503342"
       y1="98.6577148"
       x2="225.503342"
       y2="27.9624634"
       id="line1094" />
    <line
       x1="174.765091"
       y1="98.6577148"
       x2="174.765091"
       y2="27.9624634"
       id="line1096" />
    <line
       x1="225.503342"
       y1="32.6979980"
       x2="174.765091"
       y2="32.6979980"
       id="line1098" />
    <line
       x1="174.765091"
       y1="32.6979980"
       x2="180.684555"
       y2="36.2496948"
       id="line1100" />
    <line
       x1="174.765091"
       y1="32.6979980"
       x2="180.684555"
       y2="29.1463623"
       id="line1102" />
    <line
       x1="225.503342"
       y1="32.6979980"
       x2="219.583878"
       y2="36.2496948"
       id="line1104" />
    <line
       x1="225.503342"
       y1="32.6979980"
       x2="219.583878"
       y2="29.1463623"
       id="line1106" />
  </g>
  <text
     x="200.134216"
     y="32.2963257"
     text-anchor="middle"
     id="text1110">B32</text>
  <g
     stroke="rgb(0,128,255)"
     stroke-width="1"
     id="g1126">
    <line
       x1="209.999985"
       y1="149.395905"
       x2="209.999985"
       y2="173.073761"
       id="line1112" />
    <line
       x1="190.268448"
       y1="149.395905"
       x2="190.268448"
       y2="173.073761"
       id="line1114" />
    <line
       x1="209.999985"
       y1="168.338226"
       x2="190.268448"
       y2="168.338226"
       id="line1116" />
    <line
       x1="190.268448"
       y1="168.338226"
       x2="193.820129"
       y2="170.469208"
       id="line1118" />
    <line
       x1="190.268448"
       y1="168.338226"
       x2="193.820129"
       y2="166.207214"
       id="line1120" />
    <line
       x1="209.999985"
       y1="168.338226"
       x2="206.448303"
       y2="170.469208"
       id="line1122" />
    <line
       x1="209.999985"
       y1="168.338226"
       x2="206.448303"
       y2="166.207214"
       id="line1124" />
  </g>
  <text
     x="200.134216"
     y="166.752625"
     text-anchor="middle"
     id="text1128">B42</text>
  <g
     stroke="rgb(0,128,255)"
     stroke-width="1"
     id="g1140">
    <line
       x1="242.416092"
       y1="191.677795"
       x2="157.852341"
       y2="191.677795"
       id="line1130" />
    <line
       x1="157.852341"
       y1="191.677795"
       x2="163.771805"
       y2="195.229462"
       id="line1132" />
    <line
       x1="157.852341"
       y1="191.677795"
       x2="163.771805"
       y2="188.126129"
       id="line1134" />
    <line
       x1="242.416092"
       y1="191.677795"
       x2="236.496628"
       y2="195.229462"
       id="line1136" />
    <line
       x1="242.416092"
       y1="191.677795"
       x2="236.496628"
       y2="188.126129"
       id="line1138" />
  </g>
  <text
     x="200.134216"
     y="190.092224"
     text-anchor="middle"
     id="text1142">B52</text>
  <g
     stroke="rgb(0,128,255)"
     stroke-width="1"
     id="g1154">
    <line
       x1="228.322144"
       y1="248.053619"
       x2="171.946289"
       y2="248.053619"
       id="line1144" />
    <line
       x1="171.946289"
       y1="248.053619"
       x2="177.865753"
       y2="251.605286"
       id="line1146" />
    <line
       x1="171.946289"
       y1="248.053619"
       x2="177.865753"
       y2="244.501953"
       id="line1148" />
    <line
       x1="228.322144"
       y1="248.053619"
       x2="222.402679"
       y2="251.605286"
       id="line1150" />
    <line
       x1="228.322144"
       y1="248.053619"
       x2="222.402679"
       y2="244.501953"
       id="line1152" />
  </g>
  <text
     x="200.134216"
     y="246.468048"
     text-anchor="middle"
     id="text1156">B62</text>
</svg>
