<?xml version="1.0" encoding="UTF-8" standalone="no"?>
<svg
   encoding="UTF-8"
   width="400"
   height="400"
   viewBox="40 40 440 400"
   version="1.1"
   id="svg766"
   sodipodi:docname="magnetIron.svg"
   inkscape:version="1.1.2 (0a00cf5339, 2022-02-04)"
   xmlns:inkscape="http://www.inkscape.org/namespaces/inkscape"
   xmlns:sodipodi="http://sodipodi.sourceforge.net/DTD/sodipodi-0.dtd"
   xmlns="http://www.w3.org/2000/svg"
   xmlns:svg="http://www.w3.org/2000/svg">
  <sodipodi:namedview
     id="namedview288"
     pagecolor="#ffffff"
     bordercolor="#666666"
     borderopacity="1.0"
     inkscape:pageshadow="2"
     inkscape:pageopacity="0.0"
     inkscape:pagecheckerboard="0"
     showgrid="false"
     inkscape:zoom="12.56"
     inkscape:cx="157.64331"
     inkscape:cy="78.781847"
     inkscape:window-width="1920"
     inkscape:window-height="1127"
     inkscape:window-x="0"
     inkscape:window-y="0"
     inkscape:window-maximized="1"
     inkscape:current-layer="svg766" />
  <defs
     id="defs4">
    <style
       type="text/css"
       id="style2"><![CDATA[text { font-family:monospace;font-size:11;}]]></style>
  </defs>
  <g
     stroke-width="1"
     stroke="rgb(0,0,0)"
     id="g374">
    <line
       x1="183.714813"
       y1="163.715027"
       x2="86.1538391"
       y2="332.695618"
       id="line6" />
    <line
       x1="122.051285"
       y1="394.871796"
       x2="121.565834"
       y2="386.536926"
       id="line8" />
    <line
       x1="121.565834"
       y1="386.536926"
       x2="120.116043"
       y2="378.314758"
       id="line10" />
    <line
       x1="120.116043"
       y1="378.314758"
       x2="117.721519"
       y2="370.316498"
       id="line12" />
    <line
       x1="117.721519"
       y1="370.316498"
       x2="114.414658"
       y2="362.650299"
       id="line14" />
    <line
       x1="114.414658"
       y1="362.650299"
       x2="110.240158"
       y2="355.419861"
       id="line16" />
    <line
       x1="110.240158"
       y1="355.419861"
       x2="105.254471"
       y2="348.722931"
       id="line18" />
    <line
       x1="105.254471"
       y1="348.722931"
       x2="99.5250397"
       y2="342.650085"
       id="line20" />
    <line
       x1="99.5250397"
       y1="342.650085"
       x2="93.1293335"
       y2="337.283447"
       id="line22" />
    <line
       x1="93.1293335"
       y1="337.283447"
       x2="86.1538391"
       y2="332.695618"
       id="line24" />
    <line
       x1="122.051285"
       y1="394.871796"
       x2="317.173248"
       y2="394.871796"
       id="line26" />
    <line
       x1="317.173248"
       y1="394.871796"
       x2="394.871796"
       y2="394.871796"
       id="line28" />
    <line
       x1="196.152115"
       y1="279.550781"
       x2="182.498489"
       y2="273.514099"
       id="line30" />
    <line
       x1="182.498489"
       y1="273.514099"
       x2="153.647385"
       y2="323.485687"
       id="line32" />
    <line
       x1="163.774078"
       y1="341.025635"
       x2="221.476273"
       y2="341.025635"
       id="line34" />
    <line
       x1="221.476273"
       y1="341.025635"
       x2="223.075165"
       y2="326.182922"
       id="line36" />
    <line
       x1="223.075165"
       y1="326.182922"
       x2="222.004547"
       y2="323.548157"
       id="line38" />
    <line
       x1="222.004547"
       y1="323.548157"
       x2="220.893768"
       y2="320.930084"
       id="line40" />
    <line
       x1="220.893768"
       y1="320.930084"
       x2="219.743073"
       y2="318.329285"
       id="line42" />
    <line
       x1="219.743073"
       y1="318.329285"
       x2="218.552750"
       y2="315.746399"
       id="line44" />
    <line
       x1="218.552750"
       y1="315.746399"
       x2="217.323059"
       y2="313.182037"
       id="line46" />
    <line
       x1="217.323059"
       y1="313.182037"
       x2="216.054306"
       y2="310.636749"
       id="line48" />
    <line
       x1="216.054306"
       y1="310.636749"
       x2="214.746780"
       y2="308.111176"
       id="line50" />
    <line
       x1="214.746780"
       y1="308.111176"
       x2="213.400772"
       y2="305.605896"
       id="line52" />
    <line
       x1="213.400772"
       y1="305.605896"
       x2="212.016617"
       y2="303.121460"
       id="line54" />
    <line
       x1="212.016617"
       y1="303.121460"
       x2="210.594620"
       y2="300.658508"
       id="line56" />
    <line
       x1="210.594620"
       y1="300.658508"
       x2="209.135147"
       y2="298.217590"
       id="line58" />
    <line
       x1="209.135147"
       y1="298.217590"
       x2="207.638489"
       y2="295.799286"
       id="line60" />
    <line
       x1="207.638489"
       y1="295.799286"
       x2="206.105057"
       y2="293.404114"
       id="line62" />
    <line
       x1="206.105057"
       y1="293.404114"
       x2="204.535156"
       y2="291.032715"
       id="line64" />
    <line
       x1="204.535156"
       y1="291.032715"
       x2="202.929184"
       y2="288.685577"
       id="line66" />
    <line
       x1="202.929184"
       y1="288.685577"
       x2="201.287491"
       y2="286.363281"
       id="line68" />
    <line
       x1="201.287491"
       y1="286.363281"
       x2="199.610504"
       y2="284.066345"
       id="line70" />
    <line
       x1="199.610504"
       y1="284.066345"
       x2="197.898560"
       y2="281.795349"
       id="line72" />
    <line
       x1="197.898560"
       y1="281.795349"
       x2="196.152115"
       y2="279.550781"
       id="line74" />
    <line
       x1="163.774078"
       y1="341.025635"
       x2="163.312653"
       y2="340.063446"
       id="line76" />
    <line
       x1="163.312653"
       y1="340.063446"
       x2="162.843063"
       y2="339.105194"
       id="line78" />
    <line
       x1="162.843063"
       y1="339.105194"
       x2="162.365356"
       y2="338.150970"
       id="line80" />
    <line
       x1="162.365356"
       y1="338.150970"
       x2="161.879562"
       y2="337.200836"
       id="line82" />
    <line
       x1="161.879562"
       y1="337.200836"
       x2="161.385712"
       y2="336.254852"
       id="line84" />
    <line
       x1="161.385712"
       y1="336.254852"
       x2="160.883850"
       y2="335.313110"
       id="line86" />
    <line
       x1="160.883850"
       y1="335.313110"
       x2="160.374023"
       y2="334.375671"
       id="line88" />
    <line
       x1="160.374023"
       y1="334.375671"
       x2="159.856232"
       y2="333.442566"
       id="line90" />
    <line
       x1="159.856232"
       y1="333.442566"
       x2="159.330536"
       y2="332.513916"
       id="line92" />
    <line
       x1="159.330536"
       y1="332.513916"
       x2="158.796967"
       y2="331.589752"
       id="line94" />
    <line
       x1="158.796967"
       y1="331.589752"
       x2="158.255585"
       y2="330.670166"
       id="line96" />
    <line
       x1="158.255585"
       y1="330.670166"
       x2="157.706390"
       y2="329.755219"
       id="line98" />
    <line
       x1="157.706390"
       y1="329.755219"
       x2="157.149475"
       y2="328.844971"
       id="line100" />
    <line
       x1="157.149475"
       y1="328.844971"
       x2="156.584824"
       y2="327.939453"
       id="line102" />
    <line
       x1="156.584824"
       y1="327.939453"
       x2="156.012512"
       y2="327.038788"
       id="line104" />
    <line
       x1="156.012512"
       y1="327.038788"
       x2="155.432571"
       y2="326.143005"
       id="line106" />
    <line
       x1="155.432571"
       y1="326.143005"
       x2="154.845032"
       y2="325.252197"
       id="line108" />
    <line
       x1="154.845032"
       y1="325.252197"
       x2="154.249969"
       y2="324.366394"
       id="line110" />
    <line
       x1="154.249969"
       y1="324.366394"
       x2="153.647385"
       y2="323.485687"
       id="line112" />
    <line
       x1="373.131805"
       y1="345.247192"
       x2="254.670242"
       y2="140.065796"
       id="line114" />
    <line
       x1="198.711670"
       y1="172.373474"
       x2="317.173248"
       y2="377.554901"
       id="line116" />
    <line
       x1="317.173248"
       y1="377.554901"
       x2="376.463776"
       y2="377.554901"
       id="line118" />
    <line
       x1="373.131805"
       y1="345.247192"
       x2="376.463776"
       y2="377.554901"
       id="line120" />
    <line
       x1="198.711670"
       y1="172.373474"
       x2="228.356934"
       y2="121.026398"
       id="line122" />
    <line
       x1="254.670242"
       y1="140.065796"
       x2="228.356934"
       y2="121.026398"
       id="line124" />
    <line
       x1="373.131805"
       y1="345.247192"
       x2="326.499664"
       y2="372.170288"
       id="line126" />
    <line
       x1="208.038116"
       y1="166.988861"
       x2="326.499664"
       y2="372.170288"
       id="line128" />
    <line
       x1="208.038116"
       y1="166.988861"
       x2="254.670242"
       y2="140.065796"
       id="line130" />
    <line
       x1="183.714813"
       y1="163.715027"
       x2="222.564087"
       y2="96.4260864"
       id="line132" />
    <line
       x1="361.137329"
       y1="215.384613"
       x2="357.923798"
       y2="210.006561"
       id="line134" />
    <line
       x1="357.923798"
       y1="210.006561"
       x2="354.550903"
       y2="204.727493"
       id="line136" />
    <line
       x1="354.550903"
       y1="204.727493"
       x2="351.022949"
       y2="199.551712"
       id="line138" />
    <line
       x1="351.022949"
       y1="199.551712"
       x2="347.345062"
       y2="194.482941"
       id="line140" />
    <line
       x1="347.345062"
       y1="194.482941"
       x2="343.523102"
       y2="189.524261"
       id="line142" />
    <line
       x1="343.523102"
       y1="189.524261"
       x2="339.563477"
       y2="184.677887"
       id="line144" />
    <line
       x1="339.563477"
       y1="184.677887"
       x2="335.473328"
       y2="179.945419"
       id="line146" />
    <line
       x1="335.473328"
       y1="179.945419"
       x2="331.260193"
       y2="175.327591"
       id="line148" />
    <line
       x1="331.260193"
       y1="175.327591"
       x2="326.931946"
       y2="170.824371"
       id="line150" />
    <line
       x1="326.931946"
       y1="170.824371"
       x2="322.496826"
       y2="166.434937"
       id="line152" />
    <line
       x1="322.496826"
       y1="166.434937"
       x2="317.963287"
       y2="162.157745"
       id="line154" />
    <line
       x1="317.963287"
       y1="162.157745"
       x2="313.339661"
       y2="157.990540"
       id="line156" />
    <line
       x1="313.339661"
       y1="157.990540"
       x2="308.634613"
       y2="153.930237"
       id="line158" />
    <line
       x1="308.634613"
       y1="153.930237"
       x2="303.856293"
       y2="149.973206"
       id="line160" />
    <line
       x1="303.856293"
       y1="149.973206"
       x2="299.012939"
       y2="146.115204"
       id="line162" />
    <line
       x1="299.012939"
       y1="146.115204"
       x2="294.112366"
       y2="142.351532"
       id="line164" />
    <line
       x1="294.112366"
       y1="142.351532"
       x2="289.161926"
       y2="138.676971"
       id="line166" />
    <line
       x1="289.161926"
       y1="138.676971"
       x2="284.168640"
       y2="135.085938"
       id="line168" />
    <line
       x1="284.168640"
       y1="135.085938"
       x2="279.138794"
       y2="131.572693"
       id="line170" />
    <line
       x1="279.138794"
       y1="131.572693"
       x2="274.078369"
       y2="128.131165"
       id="line172" />
    <line
       x1="274.078369"
       y1="128.131165"
       x2="268.992371"
       y2="124.755341"
       id="line174" />
    <line
       x1="268.992371"
       y1="124.755341"
       x2="263.885315"
       y2="121.439240"
       id="line176" />
    <line
       x1="263.885315"
       y1="121.439240"
       x2="258.760925"
       y2="118.176941"
       id="line178" />
    <line
       x1="258.760925"
       y1="118.176941"
       x2="253.622208"
       y2="114.962799"
       id="line180" />
    <line
       x1="253.622208"
       y1="114.962799"
       x2="248.471405"
       y2="111.791473"
       id="line182" />
    <line
       x1="248.471405"
       y1="111.791473"
       x2="243.309998"
       y2="108.658081"
       id="line184" />
    <line
       x1="243.309998"
       y1="108.658081"
       x2="238.138809"
       y2="105.558289"
       id="line186" />
    <line
       x1="238.138809"
       y1="105.558289"
       x2="232.957901"
       y2="102.488312"
       id="line188" />
    <line
       x1="232.957901"
       y1="102.488312"
       x2="227.766754"
       y2="99.4450378"
       id="line190" />
    <line
       x1="227.766754"
       y1="99.4450378"
       x2="222.564102"
       y2="96.4260559"
       id="line192" />
    <line
       x1="361.137329"
       y1="215.384613"
       x2="364.188080"
       y2="220.856628"
       id="line194" />
    <line
       x1="364.188080"
       y1="220.856628"
       x2="367.073456"
       y2="226.417175"
       id="line196" />
    <line
       x1="367.073456"
       y1="226.417175"
       x2="369.791809"
       y2="232.060364"
       id="line198" />
    <line
       x1="369.791809"
       y1="232.060364"
       x2="372.342560"
       y2="237.779892"
       id="line200" />
    <line
       x1="372.342560"
       y1="237.779892"
       x2="374.725952"
       y2="243.569168"
       id="line202" />
    <line
       x1="374.725952"
       y1="243.569168"
       x2="376.943207"
       y2="249.421448"
       id="line204" />
    <line
       x1="376.943207"
       y1="249.421448"
       x2="378.996552"
       y2="255.329880"
       id="line206" />
    <line
       x1="378.996552"
       y1="255.329880"
       x2="380.889130"
       y2="261.287476"
       id="line208" />
    <line
       x1="380.889130"
       y1="261.287476"
       x2="382.624939"
       y2="267.287476"
       id="line210" />
    <line
       x1="382.624939"
       y1="267.287476"
       x2="384.208740"
       y2="273.323090"
       id="line212" />
    <line
       x1="384.208740"
       y1="273.323090"
       x2="385.646088"
       y2="279.387848"
       id="line214" />
    <line
       x1="385.646088"
       y1="279.387848"
       x2="386.943237"
       y2="285.475616"
       id="line216" />
    <line
       x1="386.943237"
       y1="285.475616"
       x2="388.107025"
       y2="291.580505"
       id="line218" />
    <line
       x1="388.107025"
       y1="291.580505"
       x2="389.144745"
       y2="297.697144"
       id="line220" />
    <line
       x1="389.144745"
       y1="297.697144"
       x2="390.064178"
       y2="303.820587"
       id="line222" />
    <line
       x1="390.064178"
       y1="303.820587"
       x2="390.873322"
       y2="309.946472"
       id="line224" />
    <line
       x1="390.873322"
       y1="309.946472"
       x2="391.580383"
       y2="316.070923"
       id="line226" />
    <line
       x1="391.580383"
       y1="316.070923"
       x2="392.193665"
       y2="322.190796"
       id="line228" />
    <line
       x1="392.193665"
       y1="322.190796"
       x2="392.721313"
       y2="328.303345"
       id="line230" />
    <line
       x1="392.721313"
       y1="328.303345"
       x2="393.171539"
       y2="334.406616"
       id="line232" />
    <line
       x1="393.171539"
       y1="334.406616"
       x2="393.552094"
       y2="340.499084"
       id="line234" />
    <line
       x1="393.552094"
       y1="340.499084"
       x2="393.870422"
       y2="346.579987"
       id="line236" />
    <line
       x1="393.870422"
       y1="346.579987"
       x2="394.133453"
       y2="352.648987"
       id="line238" />
    <line
       x1="394.133453"
       y1="352.648987"
       x2="394.347626"
       y2="358.706329"
       id="line240" />
    <line
       x1="394.347626"
       y1="358.706329"
       x2="394.518646"
       y2="364.752716"
       id="line242" />
    <line
       x1="394.518646"
       y1="364.752716"
       x2="394.651520"
       y2="370.789307"
       id="line244" />
    <line
       x1="394.651520"
       y1="370.789307"
       x2="394.750458"
       y2="376.817596"
       id="line246" />
    <line
       x1="394.750458"
       y1="376.817596"
       x2="394.818695"
       y2="382.839417"
       id="line248" />
    <line
       x1="394.818695"
       y1="382.839417"
       x2="394.858643"
       y2="388.856689"
       id="line250" />
    <line
       x1="394.858643"
       y1="388.856689"
       x2="394.871826"
       y2="394.871796"
       id="line252" />
  </g>
  <text
     x="260.969543"
     y="207.972702"
     text-anchor="middle"
     id="text376">HM</text>
  <g
     stroke-width="1"
     stroke="rgb(0,128,255)"
     id="g404">
    <line
       x1="253.197525"
       y1="209.309845"
       x2="237.653488"
       y2="218.284210"
       id="line378" />
    <line
       x1="237.653488"
       y1="218.284210"
       x2="242.885651"
       y2="218.372238"
       id="line380" />
    <line
       x1="237.653488"
       y1="218.284210"
       x2="240.193359"
       y2="213.709015"
       id="line382" />
    <line
       x1="268.741577"
       y1="200.335510"
       x2="284.285645"
       y2="191.361145"
       id="line384" />
    <line
       x1="284.285645"
       y1="191.361145"
       x2="279.053467"
       y2="191.273132"
       id="line386" />
    <line
       x1="284.285645"
       y1="191.361145"
       x2="281.745789"
       y2="195.936340"
       id="line388" />
    <line
       x1="254.670242"
       y1="140.065796"
       x2="344.413849"
       y2="88.2523193"
       id="line390" />
    <line
       x1="373.131805"
       y1="345.247192"
       x2="462.875397"
       y2="293.433716"
       id="line392" />
    <line
       x1="455.695892"
       y1="297.578796"
       x2="337.234344"
       y2="92.3973999"
       id="line394" />
    <line
       x1="337.234344"
       y1="92.3973999"
       x2="337.146332"
       y2="97.6295776"
       id="line396" />
    <line
       x1="337.234344"
       y1="92.3973999"
       x2="341.809570"
       y2="94.9372559"
       id="line398" />
    <line
       x1="455.695892"
       y1="297.578796"
       x2="451.120697"
       y2="295.038940"
       id="line400" />
    <line
       x1="455.695892"
       y1="297.578796"
       x2="455.783936"
       y2="292.346649"
       id="line402" />
  </g>
  <text
     x="410.313446"
     y="190.142746"
     text-anchor="middle"
     id="text406">BM</text>
  <g
     stroke-width="1"
     stroke="rgb(0,128,255)"
     id="g480">
    <line
       x1="62.8205109"
       y1="319.224121"
       x2="86.1538391"
       y2="332.695618"
       id="line408" />
    <line
       x1="153.647385"
       y1="323.485687"
       x2="152.545105"
       y2="321.915009"
       id="line410" />
    <line
       x1="152.545105"
       y1="321.915009"
       x2="151.418976"
       y2="320.361328"
       id="line412" />
    <line
       x1="151.418976"
       y1="320.361328"
       x2="150.269226"
       y2="318.825043"
       id="line414" />
    <line
       x1="150.269226"
       y1="318.825043"
       x2="149.096161"
       y2="317.306519"
       id="line416" />
    <line
       x1="149.096161"
       y1="317.306519"
       x2="147.900055"
       y2="315.806030"
       id="line418" />
    <line
       x1="147.900055"
       y1="315.806030"
       x2="146.681152"
       y2="314.324036"
       id="line420" />
    <line
       x1="146.681152"
       y1="314.324036"
       x2="145.439758"
       y2="312.860809"
       id="line422" />
    <line
       x1="145.439758"
       y1="312.860809"
       x2="144.176178"
       y2="311.416718"
       id="line424" />
    <line
       x1="144.176178"
       y1="311.416718"
       x2="142.890671"
       y2="309.992096"
       id="line426" />
    <line
       x1="142.890671"
       y1="309.992096"
       x2="141.583572"
       y2="308.587250"
       id="line428" />
    <line
       x1="141.583572"
       y1="308.587250"
       x2="140.255157"
       y2="307.202576"
       id="line430" />
    <line
       x1="140.255157"
       y1="307.202576"
       x2="138.905762"
       y2="305.838318"
       id="line432" />
    <line
       x1="138.905762"
       y1="305.838318"
       x2="137.535690"
       y2="304.494812"
       id="line434" />
    <line
       x1="137.535690"
       y1="304.494812"
       x2="136.145264"
       y2="303.172424"
       id="line436" />
    <line
       x1="136.145264"
       y1="303.172424"
       x2="134.734787"
       y2="301.871399"
       id="line438" />
    <line
       x1="134.734787"
       y1="301.871399"
       x2="133.304626"
       y2="300.592072"
       id="line440" />
    <line
       x1="133.304626"
       y1="300.592072"
       x2="131.855072"
       y2="299.334717"
       id="line442" />
    <line
       x1="131.855072"
       y1="299.334717"
       x2="130.386490"
       y2="298.099670"
       id="line444" />
    <line
       x1="130.386490"
       y1="298.099670"
       x2="128.899231"
       y2="296.887207"
       id="line446" />
    <line
       x1="128.899231"
       y1="296.887207"
       x2="127.393608"
       y2="295.697601"
       id="line448" />
    <line
       x1="127.393608"
       y1="295.697601"
       x2="125.870010"
       y2="294.531097"
       id="line450" />
    <line
       x1="125.870010"
       y1="294.531097"
       x2="124.328758"
       y2="293.388000"
       id="line452" />
    <line
       x1="124.328758"
       y1="293.388000"
       x2="122.770241"
       y2="292.268616"
       id="line454" />
    <line
       x1="122.770241"
       y1="292.268616"
       x2="121.194809"
       y2="291.173126"
       id="line456" />
    <line
       x1="121.194809"
       y1="291.173126"
       x2="119.602837"
       y2="290.101837"
       id="line458" />
    <line
       x1="119.602837"
       y1="290.101837"
       x2="117.994675"
       y2="289.054993"
       id="line460" />
    <line
       x1="117.994675"
       y1="289.054993"
       x2="116.370720"
       y2="288.032806"
       id="line462" />
    <line
       x1="116.370720"
       y1="288.032806"
       x2="114.731346"
       y2="287.035553"
       id="line464" />
    <line
       x1="114.731346"
       y1="287.035553"
       x2="113.076935"
       y2="286.063477"
       id="line466" />
    <line
       x1="89.7435913"
       y1="272.591949"
       x2="113.076935"
       y2="286.063477"
       id="line468" />
    <line
       x1="95.1282043"
       y1="275.700745"
       x2="68.2051239"
       y2="322.332886"
       id="line470" />
    <line
       x1="68.2051239"
       y1="322.332886"
       x2="72.7803192"
       y2="319.793060"
       id="line472" />
    <line
       x1="68.2051239"
       y1="322.332886"
       x2="68.1171036"
       y2="317.100739"
       id="line474" />
    <line
       x1="95.1282043"
       y1="275.700745"
       x2="95.2162247"
       y2="280.932922"
       id="line476" />
    <line
       x1="95.1282043"
       y1="275.700745"
       x2="90.5530090"
       y2="278.240601"
       id="line478" />
  </g>
  <text
     x="70.7810364"
     y="301.461060"
     text-anchor="middle"
     id="text482">BH</text>
  <line
     x1="198.711670"
     y1="172.373474"
     x2="180.762955"
     y2="141.285370"
     stroke="rgb(0,128,255)"
     id="line484" />
  <line
     x1="211.310318"
     y1="301.887268"
     x2="134.130814"
     y2="168.208466"
     stroke="rgb(0,128,255)"
     id="line486" />
  <line
     x1="184.352707"
     y1="147.503021"
     x2="137.720566"
     y2="174.426117"
     stroke="rgb(0,128,255)"
     id="line488" />
  <line
     x1="137.720566"
     y1="174.426117"
     x2="142.952728"
     y2="174.514130"
     stroke="rgb(0,128,255)"
     id="line490" />
  <line
     x1="137.720566"
     y1="174.426117"
     x2="140.260437"
     y2="169.850922"
     stroke="rgb(0,128,255)"
     id="line492" />
  <line
     x1="184.352707"
     y1="147.503021"
     x2="181.812851"
     y2="152.078217"
     stroke="rgb(0,128,255)"
     id="line494" />
  <line
     x1="184.352707"
     y1="147.503021"
     x2="179.120544"
     y2="147.415009"
     stroke="rgb(0,128,255)"
     id="line496" />
  <text
     x="161.036636"
     y="154.758270"
     text-anchor="middle"
     id="text498">BH</text>
  <line
     x1="306.505249"
     y1="301.641479"
     x2="290.961182"
     y2="310.615845"
     stroke="rgb(0,128,255)"
     id="line500" />
  <line
     x1="290.961182"
     y1="310.615845"
     x2="296.193359"
     y2="310.703857"
     stroke="rgb(0,128,255)"
     id="line502" />
  <line
     x1="290.961182"
     y1="310.615845"
     x2="293.501038"
     y2="306.040649"
     stroke="rgb(0,128,255)"
     id="line504" />
  <line
     x1="266.090698"
     y1="324.974823"
     x2="281.634766"
     y2="316.000488"
     stroke="rgb(0,128,255)"
     id="line506" />
  <line
     x1="281.634766"
     y1="316.000488"
     x2="276.402588"
     y2="315.912445"
     stroke="rgb(0,128,255)"
     id="line508" />
  <line
     x1="281.634766"
     y1="316.000488"
     x2="279.094910"
     y2="320.575684"
     stroke="rgb(0,128,255)"
     id="line510" />
  <text
     x="263.827698"
     y="343.132019"
     text-anchor="middle"
     id="text512">DE_FEM</text>
  <line
     x1="121.198723"
     y1="271.996094"
     x2="168.072937"
     y2="298.499878"
     stroke="rgb(0,128,255)"
     id="line514" />
  <line
     x1="168.072937"
     y1="298.499878"
     x2="165.492035"
     y2="293.947723"
     stroke="rgb(0,128,255)"
     id="line516" />
  <line
     x1="168.072937"
     y1="298.499878"
     x2="162.841766"
     y2="298.634949"
     stroke="rgb(0,128,255)"
     id="line518" />
  <line
     x1="121.198723"
     y1="271.996094"
     x2="126.429878"
     y2="271.861023"
     stroke="rgb(0,128,255)"
     id="line520" />
  <line
     x1="121.198723"
     y1="271.996094"
     x2="123.779610"
     y2="276.548279"
     stroke="rgb(0,128,255)"
     id="line522" />
  <text
     x="150.298599"
     y="284.013031"
     text-anchor="middle"
     id="text524">BW</text>
  <line
     x1="376.463776"
     y1="377.554901"
     x2="376.923065"
     y2="430.769226"
     stroke="rgb(0,128,255)"
     id="line526" />
  <line
     x1="394.871796"
     y1="394.871796"
     x2="394.871796"
     y2="430.769226"
     stroke="rgb(0,128,255)"
     id="line528" />
  <line
     x1="376.923065"
     y1="425.384613"
     x2="394.871796"
     y2="425.384613"
     stroke="rgb(0,128,255)"
     id="line530" />
  <line
     x1="394.871796"
     y1="425.384613"
     x2="390.384613"
     y2="422.692322"
     stroke="rgb(0,128,255)"
     id="line532" />
  <line
     x1="394.871796"
     y1="425.384613"
     x2="390.384613"
     y2="428.076935"
     stroke="rgb(0,128,255)"
     id="line534" />
  <line
     x1="376.923065"
     y1="425.384613"
     x2="381.410248"
     y2="422.692322"
     stroke="rgb(0,128,255)"
     id="line536" />
  <line
     x1="376.923065"
     y1="425.384613"
     x2="381.410248"
     y2="428.076935"
     stroke="rgb(0,128,255)"
     id="line538" />
  <text
     x="385.897461"
     y="419.560242"
     text-anchor="middle"
     id="text540">HS</text>
  <text
     x="193.424606"
     y="369.061981"
     text-anchor="middle"
     id="text542">BW&gt;0,BH&gt;0</text>
  <line
     x1="193.424606"
     y1="351.553009"
     x2="193.424606"
     y2="333.604279"
     stroke="rgb(0,128,255)"
     id="line544" />
  <line
     x1="193.424606"
     y1="333.604279"
     x2="190.732300"
     y2="338.091461"
     stroke="rgb(0,128,255)"
     id="line546" />
  <line
     x1="193.424606"
     y1="333.604279"
     x2="196.116928"
     y2="338.091461"
     stroke="rgb(0,128,255)"
     id="line548" />
  <line
     x1="210.408218"
     y1="131.795624"
     x2="228.356934"
     y2="131.795624"
     stroke="rgb(0,128,255)"
     id="line550" />
  <line
     x1="228.356934"
     y1="131.795624"
     x2="223.869766"
     y2="129.103333"
     stroke="rgb(0,128,255)"
     id="line552" />
  <line
     x1="228.356934"
     y1="131.795624"
     x2="223.869766"
     y2="134.487915"
     stroke="rgb(0,128,255)"
     id="line554" />
  <line
     x1="138.613342"
     y1="131.795624"
     x2="210.408218"
     y2="131.795624"
     stroke="rgb(0,128,255)"
     id="line556" />
  <text
     x="124.254356"
     y="134.945618"
     text-anchor="middle"
     id="text558">BS&gt;0</text>
  <text
     x="294.7702"
     y="75.313766"
     text-anchor="middle"
     id="text560">RA-2*HA (1/cos2x)</text>
  <line
     x1="241.230774"
     y1="85.7282104"
     x2="232.256409"
     y2="101.272247"
     stroke="rgb(0,128,255)"
     id="line562" />
  <line
     x1="232.256409"
     y1="101.272247"
     x2="236.831604"
     y2="98.7323914"
     stroke="rgb(0,128,255)"
     id="line564" />
  <line
     x1="232.256409"
     y1="101.272247"
     x2="232.168381"
     y2="96.0400696"
     stroke="rgb(0,128,255)"
     id="line566" />
  <line
     x1="229.743576"
     y1="83.9908447"
     x2="235.327026"
     y2="87.2820129"
     stroke="rgb(0,128,255)"
     id="line568" />
  <line
     x1="235.327026"
     y1="87.2820129"
     x2="240.850128"
     y2="90.6734619"
     stroke="rgb(0,128,255)"
     id="line570" />
  <line
     x1="240.850128"
     y1="90.6734619"
     x2="246.311111"
     y2="94.1640320"
     stroke="rgb(0,128,255)"
     id="line572" />
  <line
     x1="246.311111"
     y1="94.1640320"
     x2="251.708176"
     y2="97.7526550"
     stroke="rgb(0,128,255)"
     id="line574" />
  <line
     x1="251.708176"
     y1="97.7526550"
     x2="257.039581"
     y2="101.438141"
     stroke="rgb(0,128,255)"
     id="line576" />
  <line
     x1="257.039581"
     y1="101.438141"
     x2="262.303558"
     y2="105.219238"
     stroke="rgb(0,128,255)"
     id="line578" />
  <line
     x1="262.303558"
     y1="105.219238"
     x2="267.498413"
     y2="109.094788"
     stroke="rgb(0,128,255)"
     id="line580" />
  <line
     x1="267.498413"
     y1="109.094788"
     x2="272.622498"
     y2="113.063477"
     stroke="rgb(0,128,255)"
     id="line582" />
  <line
     x1="272.622498"
     y1="113.063477"
     x2="277.674042"
     y2="117.124023"
     stroke="rgb(0,128,255)"
     id="line584" />
  <line
     x1="277.674042"
     y1="117.124023"
     x2="282.651489"
     y2="121.275146"
     stroke="rgb(0,128,255)"
     id="line586" />
  <line
     x1="282.651489"
     y1="121.275146"
     x2="287.553162"
     y2="125.515442"
     stroke="rgb(0,128,255)"
     id="line588" />
  <line
     x1="287.553162"
     y1="125.515442"
     x2="292.377502"
     y2="129.843536"
     stroke="rgb(0,128,255)"
     id="line590" />
  <line
     x1="292.377502"
     y1="129.843536"
     x2="297.122894"
     y2="134.258026"
     stroke="rgb(0,128,255)"
     id="line592" />
  <line
     x1="297.122894"
     y1="134.258026"
     x2="301.787811"
     y2="138.757477"
     stroke="rgb(0,128,255)"
     id="line594" />
  <line
     x1="301.787811"
     y1="138.757477"
     x2="306.370728"
     y2="143.340393"
     stroke="rgb(0,128,255)"
     id="line596" />
  <line
     x1="306.370728"
     y1="143.340393"
     x2="310.870178"
     y2="148.005310"
     stroke="rgb(0,128,255)"
     id="line598" />
  <line
     x1="310.870178"
     y1="148.005310"
     x2="315.284668"
     y2="152.750671"
     stroke="rgb(0,128,255)"
     id="line600" />
  <line
     x1="315.284668"
     y1="152.750671"
     x2="319.612762"
     y2="157.575012"
     stroke="rgb(0,128,255)"
     id="line602" />
  <line
     x1="319.612762"
     y1="157.575012"
     x2="323.853058"
     y2="162.476685"
     stroke="rgb(0,128,255)"
     id="line604" />
  <line
     x1="323.853058"
     y1="162.476685"
     x2="328.004150"
     y2="167.454132"
     stroke="rgb(0,128,255)"
     id="line606" />
  <line
     x1="328.004150"
     y1="167.454132"
     x2="332.064728"
     y2="172.505707"
     stroke="rgb(0,128,255)"
     id="line608" />
  <line
     x1="332.064728"
     y1="172.505707"
     x2="336.033417"
     y2="177.629761"
     stroke="rgb(0,128,255)"
     id="line610" />
  <line
     x1="336.033417"
     y1="177.629761"
     x2="339.908966"
     y2="182.824631"
     stroke="rgb(0,128,255)"
     id="line612" />
  <line
     x1="339.908966"
     y1="182.824631"
     x2="343.690063"
     y2="188.088623"
     stroke="rgb(0,128,255)"
     id="line614" />
  <line
     x1="343.690063"
     y1="188.088623"
     x2="347.375549"
     y2="193.420013"
     stroke="rgb(0,128,255)"
     id="line616" />
  <line
     x1="347.375549"
     y1="193.420013"
     x2="350.964142"
     y2="198.817078"
     stroke="rgb(0,128,255)"
     id="line618" />
  <line
     x1="350.964142"
     y1="198.817078"
     x2="354.454742"
     y2="204.278061"
     stroke="rgb(0,128,255)"
     id="line620" />
  <line
     x1="354.454742"
     y1="204.278061"
     x2="357.846161"
     y2="209.801163"
     stroke="rgb(0,128,255)"
     id="line622" />
  <line
     x1="357.846161"
     y1="209.801163"
     x2="361.137329"
     y2="215.384613"
     stroke="rgb(0,128,255)"
     id="line624" />
  <line
     x1="229.743576"
     y1="83.9908447"
     x2="228.957184"
     y2="83.5381470"
     stroke="rgb(0,128,255)"
     id="line626" />
  <line
     x1="228.957184"
     y1="83.5381470"
     x2="228.169647"
     y2="83.0874634"
     stroke="rgb(0,128,255)"
     id="line628" />
  <line
     x1="228.169647"
     y1="83.0874634"
     x2="227.380981"
     y2="82.6387329"
     stroke="rgb(0,128,255)"
     id="line630" />
  <line
     x1="227.380981"
     y1="82.6387329"
     x2="226.591187"
     y2="82.1920166"
     stroke="rgb(0,128,255)"
     id="line632" />
  <line
     x1="226.591187"
     y1="82.1920166"
     x2="225.800247"
     y2="81.7472839"
     stroke="rgb(0,128,255)"
     id="line634" />
  <line
     x1="225.800247"
     y1="81.7472839"
     x2="225.008209"
     y2="81.3045654"
     stroke="rgb(0,128,255)"
     id="line636" />
  <line
     x1="225.008209"
     y1="81.3045654"
     x2="224.215042"
     y2="80.8638306"
     stroke="rgb(0,128,255)"
     id="line638" />
  <line
     x1="224.215042"
     y1="80.8638306"
     x2="223.420761"
     y2="80.4251099"
     stroke="rgb(0,128,255)"
     id="line640" />
  <line
     x1="223.420761"
     y1="80.4251099"
     x2="222.625366"
     y2="79.9884033"
     stroke="rgb(0,128,255)"
     id="line642" />
  <line
     x1="222.625366"
     y1="79.9884033"
     x2="221.828873"
     y2="79.5537109"
     stroke="rgb(0,128,255)"
     id="line644" />
  <line
     x1="221.828873"
     y1="79.5537109"
     x2="221.031296"
     y2="79.1210632"
     stroke="rgb(0,128,255)"
     id="line646" />
  <line
     x1="221.031296"
     y1="79.1210632"
     x2="220.232620"
     y2="78.6903687"
     stroke="rgb(0,128,255)"
     id="line648" />
  <line
     x1="220.232620"
     y1="78.6903687"
     x2="219.432861"
     y2="78.2617493"
     stroke="rgb(0,128,255)"
     id="line650" />
  <line
     x1="219.432861"
     y1="78.2617493"
     x2="218.632019"
     y2="77.8351135"
     stroke="rgb(0,128,255)"
     id="line652" />
  <line
     x1="218.632019"
     y1="77.8351135"
     x2="217.830093"
     y2="77.4105225"
     stroke="rgb(0,128,255)"
     id="line654" />
  <line
     x1="217.830093"
     y1="77.4105225"
     x2="217.027115"
     y2="76.9879456"
     stroke="rgb(0,128,255)"
     id="line656" />
  <line
     x1="217.027115"
     y1="76.9879456"
     x2="216.223053"
     y2="76.5674438"
     stroke="rgb(0,128,255)"
     id="line658" />
  <line
     x1="216.223053"
     y1="76.5674438"
     x2="215.417938"
     y2="76.1489258"
     stroke="rgb(0,128,255)"
     id="line660" />
  <line
     x1="215.417938"
     y1="76.1489258"
     x2="214.611771"
     y2="75.7324524"
     stroke="rgb(0,128,255)"
     id="line662" />
  <line
     x1="214.611771"
     y1="75.7324524"
     x2="213.804550"
     y2="75.3180237"
     stroke="rgb(0,128,255)"
     id="line664" />
  <line
     x1="213.804550"
     y1="75.3180237"
     x2="212.996292"
     y2="74.9056396"
     stroke="rgb(0,128,255)"
     id="line666" />
  <line
     x1="212.996292"
     y1="74.9056396"
     x2="212.186981"
     y2="74.4953003"
     stroke="rgb(0,128,255)"
     id="line668" />
  <line
     x1="212.186981"
     y1="74.4953003"
     x2="211.376648"
     y2="74.0870361"
     stroke="rgb(0,128,255)"
     id="line670" />
  <line
     x1="211.376648"
     y1="74.0870361"
     x2="210.565277"
     y2="73.6807861"
     stroke="rgb(0,128,255)"
     id="line672" />
  <line
     x1="210.565277"
     y1="73.6807861"
     x2="209.752884"
     y2="73.2765808"
     stroke="rgb(0,128,255)"
     id="line674" />
  <line
     x1="209.752884"
     y1="73.2765808"
     x2="208.939468"
     y2="72.8744812"
     stroke="rgb(0,128,255)"
     id="line676" />
  <line
     x1="208.939468"
     y1="72.8744812"
     x2="208.125046"
     y2="72.4743958"
     stroke="rgb(0,128,255)"
     id="line678" />
  <line
     x1="208.125046"
     y1="72.4743958"
     x2="207.309616"
     y2="72.0763550"
     stroke="rgb(0,128,255)"
     id="line680" />
  <line
     x1="207.309616"
     y1="72.0763550"
     x2="206.493179"
     y2="71.6804199"
     stroke="rgb(0,128,255)"
     id="line682" />
</svg>
