<?xml version="1.0" encoding="UTF-8" standalone="no"?>
<svg
   encoding="UTF-8"
   width="340"
   height="300"
   viewBox="60 80 400 380"
   version="1.1"
   id="svg784"
   xmlns="http://www.w3.org/2000/svg"
   xmlns:svg="http://www.w3.org/2000/svg">
  <defs
     id="defs4">
    <style
       type="text/css"
       id="style2"><![CDATA[text { font-family:monospace;font-size:8;} svg { font-size:8;}
]]></style>
  </defs>
  <g
     stroke-with="1"
     stroke="rgb(0,0,0)"
     id="g468">
    <line
       x1="197.368423"
       y1="178.066849"
       x2="94.7368469"
       y2="355.829956"
       id="line6" />
    <line
       x1="126.315804"
       y1="410.526306"
       x2="125.888748"
       y2="403.194122"
       id="line8" />
    <line
       x1="125.888748"
       y1="403.194122"
       x2="124.613373"
       y2="395.961090"
       id="line10" />
    <line
       x1="124.613373"
       y1="395.961090"
       x2="122.506912"
       y2="388.925049"
       id="line12" />
    <line
       x1="122.506912"
       y1="388.925049"
       x2="119.597862"
       y2="382.181091"
       id="line14" />
    <line
       x1="119.597862"
       y1="382.181091"
       x2="115.925560"
       y2="375.820496"
       id="line16" />
    <line
       x1="115.925560"
       y1="375.820496"
       x2="111.539658"
       y2="369.929199"
       id="line18" />
    <line
       x1="111.539658"
       y1="369.929199"
       x2="106.499481"
       y2="364.586914"
       id="line20" />
    <line
       x1="106.499481"
       y1="364.586914"
       x2="100.873184"
       y2="359.865906"
       id="line22" />
    <line
       x1="100.873184"
       y1="359.865906"
       x2="94.7368469"
       y2="355.829956"
       id="line24" />
    <line
       x1="241.651031"
       y1="280.125122"
       x2="179.491150"
       y2="303.768036"
       id="line26" />
    <line
       x1="179.491150"
       y1="303.768036"
       x2="154.110870"
       y2="347.727997"
       id="line28" />
    <line
       x1="126.315804"
       y1="410.526306"
       x2="331.578979"
       y2="410.526306"
       id="line30" />
    <line
       x1="163.019318"
       y1="363.157898"
       x2="213.779907"
       y2="363.157898"
       id="line32" />
    <line
       x1="213.779907"
       y1="363.157898"
       x2="265.335236"
       y2="321.147339"
       id="line34" />
    <line
       x1="265.335236"
       y1="321.147339"
       x2="264.312378"
       y2="318.868530"
       id="line36" />
    <line
       x1="264.312378"
       y1="318.868530"
       x2="263.263855"
       y2="316.601379"
       id="line38" />
    <line
       x1="263.263855"
       y1="316.601379"
       x2="262.189728"
       y2="314.346252"
       id="line40" />
    <line
       x1="262.189728"
       y1="314.346252"
       x2="261.090240"
       y2="312.103424"
       id="line42" />
    <line
       x1="261.090240"
       y1="312.103424"
       x2="259.965454"
       y2="309.873138"
       id="line44" />
    <line
       x1="259.965454"
       y1="309.873138"
       x2="258.815552"
       y2="307.655701"
       id="line46" />
    <line
       x1="258.815552"
       y1="307.655701"
       x2="257.640656"
       y2="305.451416"
       id="line48" />
    <line
       x1="257.640656"
       y1="305.451416"
       x2="256.440918"
       y2="303.260559"
       id="line50" />
    <line
       x1="256.440918"
       y1="303.260559"
       x2="255.216522"
       y2="301.083344"
       id="line52" />
    <line
       x1="255.216522"
       y1="301.083344"
       x2="253.967590"
       y2="298.920166"
       id="line54" />
    <line
       x1="253.967590"
       y1="298.920166"
       x2="252.694290"
       y2="296.771179"
       id="line56" />
    <line
       x1="252.694290"
       y1="296.771179"
       x2="251.396820"
       y2="294.636780"
       id="line58" />
    <line
       x1="251.396820"
       y1="294.636780"
       x2="250.075287"
       y2="292.517120"
       id="line60" />
    <line
       x1="250.075287"
       y1="292.517120"
       x2="248.729889"
       y2="290.412567"
       id="line62" />
    <line
       x1="248.729889"
       y1="290.412567"
       x2="247.360794"
       y2="288.323334"
       id="line64" />
    <line
       x1="247.360794"
       y1="288.323334"
       x2="245.968185"
       y2="286.249695"
       id="line66" />
    <line
       x1="245.968185"
       y1="286.249695"
       x2="244.552231"
       y2="284.191956"
       id="line68" />
    <line
       x1="244.552231"
       y1="284.191956"
       x2="243.113113"
       y2="282.150330"
       id="line70" />
    <line
       x1="243.113113"
       y1="282.150330"
       x2="241.651031"
       y2="280.125122"
       id="line72" />
    <line
       x1="163.019318"
       y1="363.157898"
       x2="162.613403"
       y2="362.311462"
       id="line74" />
    <line
       x1="162.613403"
       y1="362.311462"
       x2="162.200287"
       y2="361.468475"
       id="line76" />
    <line
       x1="162.200287"
       y1="361.468475"
       x2="161.780060"
       y2="360.629028"
       id="line78" />
    <line
       x1="161.780060"
       y1="360.629028"
       x2="161.352707"
       y2="359.793213"
       id="line80" />
    <line
       x1="161.352707"
       y1="359.793213"
       x2="160.918274"
       y2="358.961029"
       id="line82" />
    <line
       x1="160.918274"
       y1="358.961029"
       x2="160.476791"
       y2="358.132568"
       id="line84" />
    <line
       x1="160.476791"
       y1="358.132568"
       x2="160.028290"
       y2="357.307922"
       id="line86" />
    <line
       x1="160.028290"
       y1="357.307922"
       x2="159.572784"
       y2="356.487061"
       id="line88" />
    <line
       x1="159.572784"
       y1="356.487061"
       x2="159.110336"
       y2="355.670135"
       id="line90" />
    <line
       x1="159.110336"
       y1="355.670135"
       x2="158.640961"
       y2="354.857147"
       id="line92" />
    <line
       x1="158.640961"
       y1="354.857147"
       x2="158.164703"
       y2="354.048187"
       id="line94" />
    <line
       x1="158.164703"
       y1="354.048187"
       x2="157.681580"
       y2="353.243317"
       id="line96" />
    <line
       x1="157.681580"
       y1="353.243317"
       x2="157.191650"
       y2="352.442566"
       id="line98" />
    <line
       x1="157.191650"
       y1="352.442566"
       x2="156.694931"
       y2="351.645996"
       id="line100" />
    <line
       x1="156.694931"
       y1="351.645996"
       x2="156.191467"
       y2="350.853668"
       id="line102" />
    <line
       x1="156.191467"
       y1="350.853668"
       x2="155.681305"
       y2="350.065643"
       id="line104" />
    <line
       x1="155.681305"
       y1="350.065643"
       x2="155.164444"
       y2="349.281982"
       id="line106" />
    <line
       x1="155.164444"
       y1="349.281982"
       x2="154.640961"
       y2="348.502747"
       id="line108" />
    <line
       x1="154.640961"
       y1="348.502747"
       x2="154.110870"
       y2="347.727997"
       id="line110" />
    <line
       x1="374.660614"
       y1="358.669891"
       x2="372.481476"
       y2="346.949921"
       id="line112" />
    <line
       x1="372.481476"
       y1="346.949921"
       x2="369.861542"
       y2="335.320557"
       id="line114" />
    <line
       x1="369.861542"
       y1="335.320557"
       x2="366.804535"
       y2="323.798340"
       id="line116" />
    <line
       x1="366.804535"
       y1="323.798340"
       x2="363.314850"
       y2="312.399719"
       id="line118" />
    <line
       x1="363.314850"
       y1="312.399719"
       x2="359.397430"
       y2="301.140961"
       id="line120" />
    <line
       x1="359.397430"
       y1="301.140961"
       x2="355.057892"
       y2="290.038055"
       id="line122" />
    <line
       x1="355.057892"
       y1="290.038055"
       x2="350.302338"
       y2="279.106842"
       id="line124" />
    <line
       x1="350.302338"
       y1="279.106842"
       x2="345.137665"
       y2="268.362915"
       id="line126" />
    <line
       x1="345.137665"
       y1="268.362915"
       x2="339.571136"
       y2="257.821564"
       id="line128" />
    <line
       x1="339.571136"
       y1="257.821564"
       x2="333.610718"
       y2="247.497803"
       id="line130" />
    <line
       x1="333.610718"
       y1="247.497803"
       x2="327.264893"
       y2="237.406387"
       id="line132" />
    <line
       x1="327.264893"
       y1="237.406387"
       x2="320.542725"
       y2="227.561646"
       id="line134" />
    <line
       x1="320.542725"
       y1="227.561646"
       x2="313.453796"
       y2="217.977646"
       id="line136" />
    <line
       x1="313.453796"
       y1="217.977646"
       x2="306.008179"
       y2="208.668030"
       id="line138" />
    <line
       x1="306.008179"
       y1="208.668030"
       x2="298.216461"
       y2="199.646072"
       id="line140" />
    <line
       x1="298.216461"
       y1="199.646072"
       x2="290.089813"
       y2="190.924606"
       id="line142" />
    <line
       x1="290.089813"
       y1="190.924606"
       x2="281.639801"
       y2="182.516068"
       id="line144" />
    <line
       x1="281.639801"
       y1="182.516068"
       x2="272.878418"
       y2="174.432449"
       id="line146" />
    <line
       x1="272.878418"
       y1="174.432449"
       x2="263.818207"
       y2="166.685287"
       id="line148" />
    <line
       x1="330.108551"
       y1="382.468689"
       x2="328.612366"
       y2="370.729218"
       id="line150" />
    <line
       x1="328.612366"
       y1="370.729218"
       x2="326.600159"
       y2="359.067139"
       id="line152" />
    <line
       x1="326.600159"
       y1="359.067139"
       x2="324.075897"
       y2="347.505066"
       id="line154" />
    <line
       x1="324.075897"
       y1="347.505066"
       x2="321.044434"
       y2="336.065521"
       id="line156" />
    <line
       x1="321.044434"
       y1="336.065521"
       x2="317.511688"
       y2="324.770691"
       id="line158" />
    <line
       x1="317.511688"
       y1="324.770691"
       x2="313.484497"
       y2="313.642578"
       id="line160" />
    <line
       x1="313.484497"
       y1="313.642578"
       x2="308.970764"
       y2="302.702789"
       id="line162" />
    <line
       x1="308.970764"
       y1="302.702789"
       x2="303.979187"
       y2="291.972595"
       id="line164" />
    <line
       x1="303.979187"
       y1="291.972595"
       x2="298.519470"
       y2="281.472839"
       id="line166" />
    <line
       x1="298.519470"
       y1="281.472839"
       x2="292.602295"
       y2="271.223938"
       id="line168" />
    <line
       x1="292.602295"
       y1="271.223938"
       x2="286.239075"
       y2="261.245819"
       id="line170" />
    <line
       x1="286.239075"
       y1="261.245819"
       x2="279.442261"
       y2="251.557892"
       id="line172" />
    <line
       x1="279.442261"
       y1="251.557892"
       x2="272.224976"
       y2="242.178970"
       id="line174" />
    <line
       x1="272.224976"
       y1="242.178970"
       x2="264.601318"
       y2="233.127274"
       id="line176" />
    <line
       x1="264.601318"
       y1="233.127274"
       x2="256.586121"
       y2="224.420425"
       id="line178" />
    <line
       x1="256.586121"
       y1="224.420425"
       x2="248.194885"
       y2="216.075333"
       id="line180" />
    <line
       x1="248.194885"
       y1="216.075333"
       x2="239.443985"
       y2="208.108200"
       id="line182" />
    <line
       x1="239.443985"
       y1="208.108200"
       x2="230.350418"
       y2="200.534561"
       id="line184" />
    <line
       x1="230.350418"
       y1="200.534561"
       x2="220.931839"
       y2="193.369110"
       id="line186" />
    <line
       x1="220.931839"
       y1="193.369110"
       x2="219.732574"
       y2="192.502823"
       id="line188" />
    <line
       x1="219.732574"
       y1="192.502823"
       x2="218.528549"
       y2="191.643173"
       id="line190" />
    <line
       x1="218.528549"
       y1="191.643173"
       x2="217.319809"
       y2="190.790161"
       id="line192" />
    <line
       x1="217.319809"
       y1="190.790161"
       x2="216.106384"
       y2="189.943832"
       id="line194" />
    <line
       x1="216.106384"
       y1="189.943832"
       x2="214.888306"
       y2="189.104202"
       id="line196" />
    <line
       x1="214.888306"
       y1="189.104202"
       x2="213.665634"
       y2="188.271286"
       id="line198" />
    <line
       x1="213.665634"
       y1="188.271286"
       x2="212.438385"
       y2="187.445145"
       id="line200" />
    <line
       x1="212.438385"
       y1="187.445145"
       x2="211.206589"
       y2="186.625778"
       id="line202" />
    <line
       x1="211.206589"
       y1="186.625778"
       x2="209.970306"
       y2="185.813187"
       id="line204" />
    <line
       x1="209.970306"
       y1="185.813187"
       x2="208.729553"
       y2="185.007431"
       id="line206" />
    <line
       x1="208.729553"
       y1="185.007431"
       x2="207.484390"
       y2="184.208542"
       id="line208" />
    <line
       x1="207.484390"
       y1="184.208542"
       x2="206.234848"
       y2="183.416504"
       id="line210" />
    <line
       x1="206.234848"
       y1="183.416504"
       x2="204.980942"
       y2="182.631393"
       id="line212" />
    <line
       x1="204.980942"
       y1="182.631393"
       x2="203.722748"
       y2="181.853180"
       id="line214" />
    <line
       x1="203.722748"
       y1="181.853180"
       x2="202.460266"
       y2="181.081924"
       id="line216" />
    <line
       x1="202.460266"
       y1="181.081924"
       x2="201.193558"
       y2="180.317642"
       id="line218" />
    <line
       x1="201.193558"
       y1="180.317642"
       x2="199.922653"
       y2="179.560364"
       id="line220" />
    <line
       x1="199.922653"
       y1="179.560364"
       x2="198.647598"
       y2="178.810074"
       id="line222" />
    <line
       x1="198.647598"
       y1="178.810074"
       x2="197.368423"
       y2="178.066849"
       id="line224" />
    <line
       x1="331.578979"
       y1="410.526306"
       x2="331.574921"
       y2="409.046906"
       id="line226" />
    <line
       x1="331.574921"
       y1="409.046906"
       x2="331.562683"
       y2="407.567535"
       id="line228" />
    <line
       x1="331.562683"
       y1="407.567535"
       x2="331.542297"
       y2="406.088257"
       id="line230" />
    <line
       x1="331.542297"
       y1="406.088257"
       x2="331.513763"
       y2="404.609100"
       id="line232" />
    <line
       x1="331.513763"
       y1="404.609100"
       x2="331.477051"
       y2="403.130157"
       id="line234" />
    <line
       x1="331.477051"
       y1="403.130157"
       x2="331.432220"
       y2="401.651398"
       id="line236" />
    <line
       x1="331.432220"
       y1="401.651398"
       x2="331.379211"
       y2="400.172943"
       id="line238" />
    <line
       x1="331.379211"
       y1="400.172943"
       x2="331.318085"
       y2="398.694794"
       id="line240" />
    <line
       x1="331.318085"
       y1="398.694794"
       x2="331.248810"
       y2="397.216980"
       id="line242" />
    <line
       x1="331.248810"
       y1="397.216980"
       x2="331.171387"
       y2="395.739594"
       id="line244" />
    <line
       x1="331.171387"
       y1="395.739594"
       x2="331.085815"
       y2="394.262665"
       id="line246" />
    <line
       x1="331.085815"
       y1="394.262665"
       x2="330.992126"
       y2="392.786194"
       id="line248" />
    <line
       x1="330.992126"
       y1="392.786194"
       x2="330.890259"
       y2="391.310303"
       id="line250" />
    <line
       x1="330.890259"
       y1="391.310303"
       x2="330.780304"
       y2="389.834961"
       id="line252" />
    <line
       x1="330.780304"
       y1="389.834961"
       x2="330.662170"
       y2="388.360291"
       id="line254" />
    <line
       x1="330.662170"
       y1="388.360291"
       x2="330.535950"
       y2="386.886261"
       id="line256" />
    <line
       x1="330.535950"
       y1="386.886261"
       x2="330.401611"
       y2="385.412964"
       id="line258" />
    <line
       x1="330.401611"
       y1="385.412964"
       x2="330.259125"
       y2="383.940399"
       id="line260" />
    <line
       x1="330.259125"
       y1="383.940399"
       x2="330.108551"
       y2="382.468689"
       id="line262" />
    <line
       x1="374.660614"
       y1="358.669891"
       x2="330.108551"
       y2="382.468689"
       id="line264" />
    <line
       x1="220.931839"
       y1="193.369110"
       x2="263.818207"
       y2="166.685287"
       id="line266" />
    <line
       x1="378.947418"
       y1="410.526306"
       x2="378.935486"
       y2="407.784637"
       id="line268" />
    <line
       x1="378.935486"
       y1="407.784637"
       x2="378.899811"
       y2="405.043182"
       id="line270" />
    <line
       x1="378.899811"
       y1="405.043182"
       x2="378.840302"
       y2="402.302124"
       id="line272" />
    <line
       x1="378.840302"
       y1="402.302124"
       x2="378.756989"
       y2="399.561707"
       id="line274" />
    <line
       x1="378.756989"
       y1="399.561707"
       x2="378.649902"
       y2="396.822113"
       id="line276" />
    <line
       x1="378.649902"
       y1="396.822113"
       x2="378.519043"
       y2="394.083527"
       id="line278" />
    <line
       x1="378.519043"
       y1="394.083527"
       x2="378.364410"
       y2="391.346222"
       id="line280" />
    <line
       x1="378.364410"
       y1="391.346222"
       x2="378.186005"
       y2="388.610321"
       id="line282" />
    <line
       x1="378.186005"
       y1="388.610321"
       x2="377.983856"
       y2="385.876099"
       id="line284" />
    <line
       x1="377.983856"
       y1="385.876099"
       x2="377.757996"
       y2="383.143738"
       id="line286" />
    <line
       x1="377.757996"
       y1="383.143738"
       x2="377.508392"
       y2="380.413422"
       id="line288" />
    <line
       x1="377.508392"
       y1="380.413422"
       x2="377.235107"
       y2="377.685364"
       id="line290" />
    <line
       x1="377.235107"
       y1="377.685364"
       x2="376.938141"
       y2="374.959808"
       id="line292" />
    <line
       x1="376.938141"
       y1="374.959808"
       x2="376.617523"
       y2="372.236938"
       id="line294" />
    <line
       x1="376.617523"
       y1="372.236938"
       x2="376.273285"
       y2="369.516907"
       id="line296" />
    <line
       x1="376.273285"
       y1="369.516907"
       x2="375.905457"
       y2="366.800018"
       id="line298" />
    <line
       x1="375.905457"
       y1="366.800018"
       x2="375.514038"
       y2="364.086426"
       id="line300" />
    <line
       x1="375.514038"
       y1="364.086426"
       x2="375.099091"
       y2="361.376282"
       id="line302" />
    <line
       x1="375.099091"
       y1="361.376282"
       x2="374.660614"
       y2="358.669891"
       id="line304" />
    <line
       x1="263.818207"
       y1="166.685287"
       x2="261.693634"
       y2="164.952347"
       id="line306" />
    <line
       x1="261.693634"
       y1="164.952347"
       x2="259.554077"
       y2="163.237915"
       id="line308" />
    <line
       x1="259.554077"
       y1="163.237915"
       x2="257.399719"
       y2="161.542145"
       id="line310" />
    <line
       x1="257.399719"
       y1="161.542145"
       x2="255.230743"
       y2="159.865143"
       id="line312" />
    <line
       x1="255.230743"
       y1="159.865143"
       x2="253.047287"
       y2="158.207001"
       id="line314" />
    <line
       x1="253.047287"
       y1="158.207001"
       x2="250.849503"
       y2="156.567902"
       id="line316" />
    <line
       x1="250.849503"
       y1="156.567902"
       x2="248.637573"
       y2="154.947968"
       id="line318" />
    <line
       x1="248.637573"
       y1="154.947968"
       x2="246.411667"
       y2="153.347260"
       id="line320" />
    <line
       x1="246.411667"
       y1="153.347260"
       x2="244.171936"
       y2="151.765930"
       id="line322" />
    <line
       x1="244.171936"
       y1="151.765930"
       x2="241.918579"
       y2="150.204132"
       id="line324" />
    <line
       x1="241.918579"
       y1="150.204132"
       x2="239.651733"
       y2="148.661957"
       id="line326" />
    <line
       x1="239.651733"
       y1="148.661957"
       x2="237.371597"
       y2="147.139526"
       id="line328" />
    <line
       x1="237.371597"
       y1="147.139526"
       x2="235.078323"
       y2="145.636932"
       id="line330" />
    <line
       x1="235.078323"
       y1="145.636932"
       x2="232.772079"
       y2="144.154327"
       id="line332" />
    <line
       x1="232.772079"
       y1="144.154327"
       x2="230.453064"
       y2="142.691772"
       id="line334" />
    <line
       x1="230.453064"
       y1="142.691772"
       x2="228.121445"
       y2="141.249420"
       id="line336" />
    <line
       x1="228.121445"
       y1="141.249420"
       x2="225.777374"
       y2="139.827362"
       id="line338" />
    <line
       x1="225.777374"
       y1="139.827362"
       x2="223.421036"
       y2="138.425720"
       id="line340" />
    <line
       x1="223.421036"
       y1="138.425720"
       x2="221.052643"
       y2="137.044556"
       id="line342" />
    <line
       x1="197.368423"
       y1="178.066849"
       x2="221.052643"
       y2="137.044556"
       id="line344" />
    <line
       x1="378.947418"
       y1="410.526306"
       x2="331.578979"
       y2="410.526306"
       id="line346" />
  </g>
  <!-- <text x="195.140823" y="125.400574" font-size="1.57500017" text-anchor="middle">2/3 AIRGAP</text> -->
  <g
     stroke="rgb(0,128,255)"
     stroke-width="1"
     id="g614">
    <line
       x1="347.578888"
       y1="246.315781"
       x2="336.639618"
       y2="252.631561"
       id="line602" />
    <line
       x1="336.639618"
       y1="252.631561"
       x2="340.321808"
       y2="252.693512"
       id="line604" />
    <line
       x1="336.639618"
       y1="252.631561"
       x2="338.427094"
       y2="249.411728"
       id="line606" />
    <line
       x1="284.678101"
       y1="282.631592"
       x2="295.617371"
       y2="276.315796"
       id="line608" />
    <line
       x1="295.617371"
       y1="276.315796"
       x2="291.935181"
       y2="276.253845"
       id="line610" />
    <line
       x1="295.617371"
       y1="276.315796"
       x2="293.829895"
       y2="279.535614"
       id="line612" />
  </g>
  <text
     x="316.128479"
     y="267.623657"
     text-anchor="middle"
     id="text616">HM</text>
  <g
     stroke="rgb(0,128,255)"
     stroke-width="1"
     id="g632">
    <line
       x1="263.818207"
       y1="166.685287"
       x2="314.344543"
       y2="137.513885"
       id="line618" />
    <line
       x1="374.660614"
       y1="358.669891"
       x2="425.186920"
       y2="329.498505"
       id="line620" />
    <line
       x1="418.871124"
       y1="333.144958"
       x2="308.028748"
       y2="141.160309"
       id="line622" />
    <line
       x1="308.028748"
       y1="141.160309"
       x2="307.966797"
       y2="144.842529"
       id="line624" />
    <line
       x1="308.028748"
       y1="141.160309"
       x2="311.248566"
       y2="142.947754"
       id="line626" />
    <line
       x1="418.871124"
       y1="333.144958"
       x2="415.651306"
       y2="331.357483"
       id="line628" />
    <line
       x1="418.871124"
       y1="333.144958"
       x2="418.933075"
       y2="329.462769"
       id="line630" />
  </g>
  <text
     x="375.461578"
     y="233.367691"
     text-anchor="middle"
     id="text634">BM</text>
  <g
     stroke="rgb(0,128,255)"
     stroke-width="1"
     id="g752">
    <line
       x1="178.421051"
       y1="167.127579"
       x2="197.368423"
       y2="178.066849"
       id="line648" />
    <line
       x1="241.651031"
       y1="280.125122"
       x2="238.751602"
       y2="276.246307"
       id="line650" />
    <line
       x1="238.751602"
       y1="276.246307"
       x2="235.767914"
       y2="272.431946"
       id="line652" />
    <line
       x1="235.767914"
       y1="272.431946"
       x2="232.701385"
       y2="268.683868"
       id="line654" />
    <line
       x1="232.701385"
       y1="268.683868"
       x2="229.553482"
       y2="265.003845"
       id="line656" />
    <line
       x1="229.553482"
       y1="265.003845"
       x2="226.325714"
       y2="261.393677"
       id="line658" />
    <line
       x1="226.325714"
       y1="261.393677"
       x2="223.019623"
       y2="257.855103"
       id="line660" />
    <line
       x1="223.019623"
       y1="257.855103"
       x2="219.636826"
       y2="254.389786"
       id="line662" />
    <line
       x1="219.636826"
       y1="254.389786"
       x2="216.178940"
       y2="250.999405"
       id="line664" />
    <line
       x1="216.178940"
       y1="250.999405"
       x2="212.647598"
       y2="247.685593"
       id="line666" />
    <line
       x1="212.647598"
       y1="247.685593"
       x2="209.044510"
       y2="244.449921"
       id="line668" />
    <line
       x1="209.044510"
       y1="244.449921"
       x2="205.371414"
       y2="241.293961"
       id="line670" />
    <line
       x1="205.371414"
       y1="241.293961"
       x2="201.630051"
       y2="238.219223"
       id="line672" />
    <line
       x1="201.630051"
       y1="238.219223"
       x2="197.822250"
       y2="235.227188"
       id="line674" />
    <line
       x1="197.822250"
       y1="235.227188"
       x2="193.949799"
       y2="232.319275"
       id="line676" />
    <line
       x1="193.949799"
       y1="232.319275"
       x2="190.014587"
       y2="229.496887"
       id="line678" />
    <line
       x1="190.014587"
       y1="229.496887"
       x2="186.018494"
       y2="226.761383"
       id="line680" />
    <line
       x1="186.018494"
       y1="226.761383"
       x2="181.963425"
       y2="224.114090"
       id="line682" />
    <line
       x1="181.963425"
       y1="224.114090"
       x2="177.851349"
       y2="221.556244"
       id="line684" />
    <line
       x1="177.851349"
       y1="221.556244"
       x2="173.684235"
       y2="219.089111"
       id="line686" />
    <line
       x1="154.736847"
       y1="208.149841"
       x2="173.684235"
       y2="219.089111"
       id="line688" />
    <line
       x1="158.526337"
       y1="210.337677"
       x2="182.210541"
       y2="169.315430"
       id="line690" />
    <line
       x1="182.210541"
       y1="169.315430"
       x2="178.990692"
       y2="171.102890"
       id="line692" />
    <line
       x1="182.210541"
       y1="169.315430"
       x2="182.272491"
       y2="172.997604"
       id="line694" />
    <line
       x1="158.526337"
       y1="210.337677"
       x2="158.464386"
       y2="206.655502"
       id="line696" />
    <line
       x1="158.526337"
       y1="210.337677"
       x2="161.746170"
       y2="208.550217"
       id="line698" />
    <line
       x1="75.7894745"
       y1="344.890686"
       x2="94.7368469"
       y2="355.829956"
       id="line700" />
    <line
       x1="154.110870"
       y1="347.727997"
       x2="152.622391"
       y2="345.625031"
       id="line702" />
    <line
       x1="152.622391"
       y1="345.625031"
       x2="151.085297"
       y2="343.557343"
       id="line704" />
    <line
       x1="151.085297"
       y1="343.557343"
       x2="149.500427"
       y2="341.526031"
       id="line706" />
    <line
       x1="149.500427"
       y1="341.526031"
       x2="147.868652"
       y2="339.532227"
       id="line708" />
    <line
       x1="147.868652"
       y1="339.532227"
       x2="146.190826"
       y2="337.576996"
       id="line710" />
    <line
       x1="146.190826"
       y1="337.576996"
       x2="144.467896"
       y2="335.661407"
       id="line712" />
    <line
       x1="144.467896"
       y1="335.661407"
       x2="142.700775"
       y2="333.786499"
       id="line714" />
    <line
       x1="142.700775"
       y1="333.786499"
       x2="140.890442"
       y2="331.953278"
       id="line716" />
    <line
       x1="140.890442"
       y1="331.953278"
       x2="139.037872"
       y2="330.162750"
       id="line718" />
    <line
       x1="139.037872"
       y1="330.162750"
       x2="137.144043"
       y2="328.415894"
       id="line720" />
    <line
       x1="137.144043"
       y1="328.415894"
       x2="135.210037"
       y2="326.713654"
       id="line722" />
    <line
       x1="135.210037"
       y1="326.713654"
       x2="133.236877"
       y2="325.056976"
       id="line724" />
    <line
       x1="133.236877"
       y1="325.056976"
       x2="131.225632"
       y2="323.446716"
       id="line726" />
    <line
       x1="131.225632"
       y1="323.446716"
       x2="129.177399"
       y2="321.883789"
       id="line728" />
    <line
       x1="129.177399"
       y1="321.883789"
       x2="127.093292"
       y2="320.369019"
       id="line730" />
    <line
       x1="127.093292"
       y1="320.369019"
       x2="124.974442"
       y2="318.903259"
       id="line732" />
    <line
       x1="124.974442"
       y1="318.903259"
       x2="122.822014"
       y2="317.487244"
       id="line734" />
    <line
       x1="122.822014"
       y1="317.487244"
       x2="120.637154"
       y2="316.121826"
       id="line736" />
    <line
       x1="120.637154"
       y1="316.121826"
       x2="118.421066"
       y2="314.807678"
       id="line738" />
    <line
       x1="99.4736938"
       y1="303.868439"
       x2="118.421066"
       y2="314.807678"
       id="line740" />
    <line
       x1="103.263168"
       y1="306.056274"
       x2="79.5789490"
       y2="347.078552"
       id="line742" />
    <line
       x1="79.5789490"
       y1="347.078552"
       x2="82.7987823"
       y2="345.291107"
       id="line744" />
    <line
       x1="79.5789490"
       y1="347.078552"
       x2="79.5170059"
       y2="343.396362"
       id="line746" />
    <line
       x1="103.263168"
       y1="306.056274"
       x2="103.325119"
       y2="309.738464"
       id="line748" />
    <line
       x1="103.263168"
       y1="306.056274"
       x2="100.043335"
       y2="307.843719"
       id="line750" />
  </g>
  <text
     x="162.701340"
     y="190.098053"
     text-anchor="middle"
     id="text754">BH</text>
  <text
     x="81.2133789"
     y="328.731873"
     text-anchor="middle"
     id="text756">BH</text>
  <g
     stroke="rgb(0,128,255)"
     stroke-width="1"
     id="g770">
    <line
       x1="179.491150"
       y1="303.768036"
       x2="196.252350"
       y2="274.736816"
       id="line758" />
    <line
       x1="190.782715"
       y1="284.210510"
       x2="150.053909"
       y2="260.018005"
       id="line760" />
    <line
       x1="150.053909"
       y1="260.018005"
       x2="151.801331"
       y2="263.259735"
       id="line762" />
    <line
       x1="150.053909"
       y1="260.018005"
       x2="153.736572"
       y2="260.001678"
       id="line764" />
    <line
       x1="190.782715"
       y1="284.210510"
       x2="187.100037"
       y2="284.226837"
       id="line766" />
    <line
       x1="190.782715"
       y1="284.210510"
       x2="189.035294"
       y2="280.968811"
       id="line768" />
  </g>
  <text
     x="179.412247"
     y="267.265259"
     text-anchor="middle"
     id="text772">BW</text>
  <text
     x="214.177277"
     y="379.489471"
     text-anchor="middle"
     id="text774">BW&gt;0,BH&gt;0</text>
  <g
     stroke="rgb(0,128,255)"
     stroke-width="1"
     id="g782">
    <line
       x1="214.177261"
       y1="367.497375"
       x2="214.177261"
       y2="344.760498"
       id="line776" />
    <line
       x1="214.177261"
       y1="344.760498"
       x2="210.766739"
       y2="350.444733"
       id="line778" />
    <line
       x1="214.177261"
       y1="344.760498"
       x2="217.587784"
       y2="350.444733"
       id="line780" />
  </g>
  <!--
<text x="221.052658" y="42.7946777" font-size="2.45000029" text-anchor="middle">Magnet Sector</text>
 <text x="221.052658" y="53.6731262" font-size="2.20500016" text-anchor="middle">Generate as Stator magnet: RI > RA</text>
 <text x="221.052658" y="63.7783508" font-size="2.20500016" text-anchor="middle">Generate as  Rotor magnet: RI < RA</text>
 <text x="221.052658" y="75.1467896" font-size="2.20500016" text-anchor="middle">Magnet shown: Arc parallel: Input 2</text>
 <text x="268.178162" y="86.5152283" font-size="2.20500016" text-anchor="middle">Magnet types: Arc:1, Rectangle:3, Rectangle with curve: 4</text>
-->
</svg>
