<?xml version="1.0" encoding="UTF-8" standalone="no"?>
<svg
   encoding="UTF-8"
   width="250"
   height="450"
   viewBox="80 50 200 380"
   version="1.1"
   id="svg380"
   sodipodi:docname="magnetIron4.svg"
   inkscape:version="1.1.2 (0a00cf5339, 2022-02-04)"
   xmlns:inkscape="http://www.inkscape.org/namespaces/inkscape"
   xmlns:sodipodi="http://sodipodi.sourceforge.net/DTD/sodipodi-0.dtd"
   xmlns="http://www.w3.org/2000/svg"
   xmlns:svg="http://www.w3.org/2000/svg">
  <sodipodi:namedview
     id="namedview146"
     pagecolor="#ffffff"
     bordercolor="#666666"
     borderopacity="1.0"
     inkscape:pageshadow="2"
     inkscape:pageopacity="0.0"
     inkscape:pagecheckerboard="0"
     showgrid="false"
     inkscape:zoom="1.9736136"
     inkscape:cx="360.25289"
     inkscape:cy="214.58101"
     inkscape:window-width="1920"
     inkscape:window-height="1127"
     inkscape:window-x="0"
     inkscape:window-y="0"
     inkscape:window-maximized="1"
     inkscape:current-layer="g378" />
  <defs
     id="defs4">
    <style
       type="text/css"
       id="style2"><![CDATA[text { font-family:monospace;font-size:8;} svg { font-size:8;}
]]></style>
  </defs>
  <g
     stroke="rgb(0,0,0)"
     stroke-width="1"
     id="g244">
    <line
       x1="130.819824"
       y1="399.344269"
       x2="245.900024"
       y2="399.344269"
       id="line6" />
    <line
       x1="245.900024"
       y1="399.344269"
       x2="256.356506"
       y2="399.344269"
       id="line8" />
    <line
       x1="256.356506"
       y1="399.344269"
       x2="275.409973"
       y2="399.344269"
       id="line10" />
    <line
       x1="130.819824"
       y1="399.344269"
       x2="130.740356"
       y2="384.175323"
       id="line12" />
    <line
       x1="130.740356"
       y1="384.175323"
       x2="130.365173"
       y2="369.009491"
       id="line14" />
    <line
       x1="130.365173"
       y1="369.009491"
       x2="129.694397"
       y2="353.852509"
       id="line16" />
    <line
       x1="129.694397"
       y1="353.852509"
       x2="128.728027"
       y2="338.710144"
       id="line18" />
    <line
       x1="128.728027"
       y1="338.710144"
       x2="127.466675"
       y2="323.588196"
       id="line20" />
    <line
       x1="127.466675"
       y1="323.588196"
       x2="125.910522"
       y2="308.492371"
       id="line22" />
    <line
       x1="125.910522"
       y1="308.492371"
       x2="124.060303"
       y2="293.428436"
       id="line24" />
    <line
       x1="124.060303"
       y1="293.428436"
       x2="121.916504"
       y2="278.402100"
       id="line26" />
    <line
       x1="121.916504"
       y1="278.402100"
       x2="119.479919"
       y2="263.419128"
       id="line28" />
    <line
       x1="119.479919"
       y1="263.419128"
       x2="116.751587"
       y2="248.485168"
       id="line30" />
    <line
       x1="116.751587"
       y1="248.485168"
       x2="113.732300"
       y2="233.605927"
       id="line32" />
    <line
       x1="113.732300"
       y1="233.605927"
       x2="110.423218"
       y2="218.787048"
       id="line34" />
    <line
       x1="110.423218"
       y1="218.787048"
       x2="106.825500"
       y2="204.034241"
       id="line36" />
    <line
       x1="106.825500"
       y1="204.034241"
       x2="102.940613"
       y2="189.353088"
       id="line38" />
    <line
       x1="102.940613"
       y1="189.353088"
       x2="98.7697754"
       y2="174.749146"
       id="line40" />
    <line
       x1="98.7697754"
       y1="174.749146"
       x2="94.3147583"
       y2="160.228058"
       id="line42" />
    <line
       x1="94.3147583"
       y1="160.228058"
       x2="89.5770264"
       y2="145.795288"
       id="line44" />
    <line
       x1="89.5770264"
       y1="145.795288"
       x2="84.5582886"
       y2="131.456360"
       id="line46" />
    <line
       x1="84.5582886"
       y1="131.456360"
       x2="79.2606201"
       y2="117.216766"
       id="line48" />
    <line
       x1="275.409973"
       y1="399.344269"
       x2="275.196655"
       y2="382.079773"
       id="line50" />
    <line
       x1="275.196655"
       y1="382.079773"
       x2="274.660339"
       y2="364.823273"
       id="line52" />
    <line
       x1="274.660339"
       y1="364.823273"
       x2="273.801147"
       y2="347.580811"
       id="line54" />
    <line
       x1="273.801147"
       y1="347.580811"
       x2="272.619629"
       y2="330.358398"
       id="line56" />
    <line
       x1="272.619629"
       y1="330.358398"
       x2="271.116028"
       y2="313.162048"
       id="line58" />
    <line
       x1="271.116028"
       y1="313.162048"
       x2="269.291016"
       y2="295.997864"
       id="line60" />
    <line
       x1="269.291016"
       y1="295.997864"
       x2="267.145203"
       y2="278.871765"
       id="line62" />
    <line
       x1="267.145203"
       y1="278.871765"
       x2="264.679443"
       y2="261.789795"
       id="line64" />
    <line
       x1="264.679443"
       y1="261.789795"
       x2="261.894592"
       y2="244.757904"
       id="line66" />
    <line
       x1="261.894592"
       y1="244.757904"
       x2="258.791687"
       y2="227.782074"
       id="line68" />
    <line
       x1="258.791687"
       y1="227.782074"
       x2="255.371887"
       y2="210.868225"
       id="line70" />
    <line
       x1="255.371887"
       y1="210.868225"
       x2="251.636292"
       y2="194.022278"
       id="line72" />
    <line
       x1="251.636292"
       y1="194.022278"
       x2="247.586365"
       y2="177.250153"
       id="line74" />
    <line
       x1="247.586365"
       y1="177.250153"
       x2="243.223511"
       y2="160.557678"
       id="line76" />
    <line
       x1="243.223511"
       y1="160.557678"
       x2="238.549316"
       y2="143.950684"
       id="line78" />
    <line
       x1="238.549316"
       y1="143.950684"
       x2="233.565491"
       y2="127.435028"
       id="line80" />
    <line
       x1="233.565491"
       y1="127.435028"
       x2="228.273743"
       y2="111.016418"
       id="line82" />
    <line
       x1="228.273743"
       y1="111.016418"
       x2="222.675964"
       y2="94.7006531"
       id="line84" />
    <line
       x1="222.675964"
       y1="94.7006531"
       x2="216.774109"
       y2="78.4934082"
       id="line86" />
    <line
       x1="79.2606201"
       y1="117.216766"
       x2="188.715332"
       y2="86.3946533"
       id="line88" />
    <line
       x1="188.715332"
       y1="86.3946533"
       x2="198.660034"
       y2="83.5942383"
       id="line90" />
    <line
       x1="198.660034"
       y1="83.5942383"
       x2="216.774109"
       y2="78.4934082"
       id="line92" />
    <line
       x1="181.573730"
       y1="101.696960"
       x2="184.997559"
       y2="120.431549"
       id="line94" />
    <line
       x1="182.957397"
       y1="120.711578"
       x2="198.036804"
       y2="203.224030"
       id="line96" />
    <line
       x1="198.036804"
       y1="203.224030"
       x2="213.116028"
       y2="285.736481"
       id="line98" />
    <line
       x1="213.116028"
       y1="285.736481"
       x2="228.195251"
       y2="368.248962"
       id="line100" />
    <line
       x1="230.235291"
       y1="367.968933"
       x2="233.659119"
       y2="386.703491"
       id="line102" />
    <line
       x1="216.000305"
       y1="95.5363464"
       x2="219.679993"
       y2="115.670807"
       id="line104" />
    <line
       x1="219.679993"
       y1="115.670807"
       x2="234.759338"
       y2="198.183258"
       id="line106" />
    <line
       x1="234.759338"
       y1="198.183258"
       x2="249.838440"
       y2="280.695740"
       id="line108" />
    <line
       x1="249.838440"
       y1="280.695740"
       x2="264.917786"
       y2="363.208191"
       id="line110" />
    <line
       x1="264.917786"
       y1="363.208191"
       x2="268.597351"
       y2="383.342651"
       id="line112" />
    <line
       x1="178.877136"
       y1="121.271637"
       x2="193.956421"
       y2="203.784119"
       id="line114" />
    <line
       x1="193.956421"
       y1="203.784119"
       x2="209.035645"
       y2="286.296570"
       id="line116" />
    <line
       x1="209.035645"
       y1="286.296570"
       x2="224.114868"
       y2="368.809052"
       id="line118" />
    <line
       x1="182.957397"
       y1="120.711578"
       x2="184.997559"
       y2="120.431549"
       id="line120" />
    <line
       x1="184.997559"
       y1="120.431549"
       x2="219.679993"
       y2="115.670807"
       id="line122" />
    <line
       x1="182.957397"
       y1="120.711578"
       x2="178.877136"
       y2="121.271637"
       id="line124" />
    <line
       x1="198.036804"
       y1="203.224030"
       x2="234.759338"
       y2="198.183258"
       id="line126" />
    <line
       x1="213.116028"
       y1="285.736481"
       x2="249.838440"
       y2="280.695740"
       id="line128" />
    <line
       x1="228.195251"
       y1="368.248962"
       x2="230.235291"
       y2="367.968933"
       id="line130" />
    <line
       x1="230.235291"
       y1="367.968933"
       x2="264.917786"
       y2="363.208191"
       id="line132" />
    <line
       x1="228.195251"
       y1="368.248962"
       x2="224.114868"
       y2="368.809052"
       id="line134" />
    <line
       x1="245.900024"
       y1="395.763947"
       x2="256.356506"
       y2="395.763947"
       id="line136" />
    <line
       x1="233.659119"
       y1="386.703491"
       x2="237.082947"
       y2="389.723633"
       id="line138" />
    <line
       x1="237.082947"
       y1="389.723633"
       x2="239.779602"
       y2="392.743774"
       id="line140" />
    <line
       x1="239.779602"
       y1="392.743774"
       x2="245.900024"
       y2="395.763947"
       id="line142" />
    <line
       x1="268.597351"
       y1="383.342651"
       x2="264.917786"
       y2="387.483093"
       id="line144" />
    <line
       x1="264.917786"
       y1="387.483093"
       x2="262.476929"
       y2="391.623505"
       id="line146" />
    <line
       x1="262.476929"
       y1="391.623505"
       x2="256.356506"
       y2="395.763947"
       id="line148" />
    <line
       x1="181.573730"
       y1="101.696960"
       x2="184.997559"
       y2="97.7318726"
       id="line150" />
    <line
       x1="184.997559"
       y1="97.7318726"
       x2="185.779358"
       y2="93.7668152"
       id="line152" />
    <line
       x1="185.779358"
       y1="93.7668152"
       x2="189.984924"
       y2="89.8017273"
       id="line154" />
    <line
       x1="216.000305"
       y1="95.5363464"
       x2="212.320557"
       y2="92.6913147"
       id="line156" />
    <line
       x1="212.320557"
       y1="92.6913147"
       x2="207.965027"
       y2="89.8462830"
       id="line158" />
    <line
       x1="207.965027"
       y1="89.8462830"
       x2="199.929810"
       y2="87.0012512"
       id="line160" />
    <line
       x1="189.984924"
       y1="89.8017273"
       x2="199.929810"
       y2="87.0012512"
       id="line162" />
  </g>
  <text
     x="185.174683"
     y="250.430695"
     text-anchor="middle"
     id="text270">BM</text>
  <text
     x="217.577271"
     y="214.614227"
     text-anchor="middle"
     id="text284">DE_M</text>
  <text
     x="230.755920"
     y="272.384003"
     text-anchor="middle"
     id="text298">HM</text>
  <text
     x="212"
     y="389"
     text-anchor="middle"
     id="text312">H_air</text>
  <text
     x="251.938293"
     y="240"
     text-anchor="middle"
     id="text326">DM</text>
  <text
     x="263"
     y="313.012756"
     text-anchor="middle"
     id="text354">HA</text>
  <text
     x="201.949890"
     y="74.3739319"
     text-anchor="middle"
     id="text368">BFE</text>
  <text
     x="205"
     y="112"
     text-anchor="middle"
     id="text376">R1</text>
  <g
     stroke="rgb(0,128,255)"
     stroke-width="1"
     id="g378">
    <line
       x1="162.555969"
       y1="123.511993"
       x2="178.877136"
       y2="121.271637"
       id="line254" />
    <line
       x1="207.793396"
       y1="371.049377"
       x2="224.114868"
       y2="368.809052"
       id="line256" />
    <line
       x1="170.847473"
       y1="143.536011"
       x2="167.996399"
       y2="122.765228"
       id="line258" />
    <line
       x1="167.996399"
       y1="122.765228"
       x2="165.593567"
       y2="128.385590"
       id="line260" />
    <line
       x1="167.996399"
       y1="122.765228"
       x2="171.824768"
       y2="127.530243"
       id="line262" />
    <line
       x1="210.382751"
       y1="349.531799"
       x2="213.233887"
       y2="370.302612"
       id="line264" />
    <line
       x1="213.233887"
       y1="370.302612"
       x2="215.636780"
       y2="364.682251"
       id="line266" />
    <line
       x1="213.233887"
       y1="370.302612"
       x2="209.405518"
       y2="365.537567"
       id="line268" />
    <line
       x1="183.125061"
       y1="222.187378"
       x2="196.972229"
       y2="220.286621"
       id="line272" />
    <line
       x1="196.972229"
       y1="220.286621"
       x2="193.225342"
       y2="218.684723"
       id="line274" />
    <line
       x1="196.972229"
       y1="220.286621"
       x2="193.795593"
       y2="222.838898"
       id="line276" />
    <line
       x1="214.899841"
       y1="217.825745"
       x2="201.052612"
       y2="219.726501"
       id="line278" />
    <line
       x1="201.052612"
       y1="219.726501"
       x2="204.799500"
       y2="221.328400"
       id="line280" />
    <line
       x1="201.052612"
       y1="219.726501"
       x2="204.229309"
       y2="217.174225"
       id="line282" />
    <line
       x1="260.669861"
       y1="262.292480"
       x2="246.822632"
       y2="264.193237"
       id="line286" />
    <line
       x1="246.822632"
       y1="264.193237"
       x2="250.569519"
       y2="265.795135"
       id="line288" />
    <line
       x1="246.822632"
       y1="264.193237"
       x2="249.999329"
       y2="261.640961"
       id="line290" />
    <line
       x1="196.252991"
       y1="271.134735"
       x2="210.100220"
       y2="269.233978"
       id="line292" />
    <line
       x1="210.100220"
       y1="269.233978"
       x2="206.353333"
       y2="267.632111"
       id="line294" />
    <line
       x1="210.100220"
       y1="269.233978"
       x2="206.923523"
       y2="271.786255"
       id="line296" />
    <line
       x1="280.604797"
       y1="371.374664"
       x2="266.757568"
       y2="373.275421"
       id="line300" />
    <line
       x1="266.757568"
       y1="373.275421"
       x2="270.504456"
       y2="374.877319"
       id="line302" />
    <line
       x1="266.757568"
       y1="373.275421"
       x2="269.934265"
       y2="370.723145"
       id="line304" />
    <line
       x1="218.100037"
       y1="379.236969"
       x2="231.947205"
       y2="377.336212"
       id="line306" />
    <line
       x1="231.947205"
       y1="377.336212"
       x2="228.200317"
       y2="375.734314"
       id="line308" />
    <line
       x1="231.947205"
       y1="377.336212"
       x2="228.770569"
       y2="379.888489"
       id="line310" />
    <line
       x1="274.714111"
       y1="234.274902"
       x2="260.866882"
       y2="236.175629"
       id="line314" />
    <line
       x1="260.866882"
       y1="236.175629"
       x2="264.613770"
       y2="237.777527"
       id="line316" />
    <line
       x1="260.866882"
       y1="236.175629"
       x2="264.043579"
       y2="233.623383"
       id="line318" />
    <line
       x1="228.451660"
       y1="241.340240"
       x2="242.298889"
       y2="239.439484"
       id="line320" />
    <line
       x1="242.298889"
       y1="239.439484"
       x2="238.552002"
       y2="237.837585"
       id="line322" />
    <line
       x1="242.298889"
       y1="239.439484"
       x2="239.122192"
       y2="241.991760"
       id="line324" />
    <line
       x1="258.608337"
       y1="319.337280"
       x2="272.455505"
       y2="317.436523"
       id="line348" />
    <line
       x1="272.455505"
       y1="317.436523"
       x2="268.708679"
       y2="315.834656"
       id="line350" />
    <line
       x1="272.455505"
       y1="317.436523"
       x2="269.278870"
       y2="319.988800"
       id="line352" />
    <line
       x1="198.745972"
       y1="103.255524"
       x2="194.957397"
       y2="89.8017273"
       id="line356" />
    <line
       x1="194.957397"
       y1="89.8017273"
       x2="193.886414"
       y2="93.7334290"
       id="line358" />
    <line
       x1="194.957397"
       y1="89.8017273"
       x2="197.922668"
       y2="92.5968933"
       id="line360" />
    <line
       x1="189.899048"
       y1="71.5406494"
       x2="193.687622"
       y2="84.9944458"
       id="line362" />
    <line
       x1="193.687622"
       y1="84.9944458"
       x2="194.758606"
       y2="81.0627136"
       id="line364" />
    <line
       x1="193.687622"
       y1="84.9944458"
       x2="190.722412"
       y2="82.1992798"
       id="line366" />
    <line
       x1="203.209229"
       y1="102.674805"
       x2="208.653564"
       y2="89.8017273"
       id="line370" />
    <line
       x1="208.653564"
       y1="89.8017273"
       x2="205.361511"
       y2="92.2033386"
       id="line372" />
    <line
       x1="208.653564"
       y1="89.8017273"
       x2="209.223450"
       y2="93.8366394"
       id="line374" />
  </g>
</svg>
