<?xml version="1.0" encoding="UTF-8" standalone="no"?>
<svg
   encoding="UTF-8"
   width="300"
   height="400"
   viewBox="50 110 250 270"
   version="1.1"
   id="svg420"
   sodipodi:docname="magnetIron5.svg"
   inkscape:version="1.1.2 (0a00cf5339, 2022-02-04)"
   xmlns:inkscape="http://www.inkscape.org/namespaces/inkscape"
   xmlns:sodipodi="http://sodipodi.sourceforge.net/DTD/sodipodi-0.dtd"
   xmlns="http://www.w3.org/2000/svg"
   xmlns:svg="http://www.w3.org/2000/svg">
  <sodipodi:namedview
     id="namedview160"
     pagecolor="#ffffff"
     bordercolor="#666666"
     borderopacity="1.0"
     inkscape:pageshadow="2"
     inkscape:pageopacity="0.0"
     inkscape:pagecheckerboard="0"
     showgrid="false"
     inkscape:zoom="3.14"
     inkscape:cx="148.40764"
     inkscape:cy="179.4586"
     inkscape:window-width="1920"
     inkscape:window-height="1127"
     inkscape:window-x="0"
     inkscape:window-y="0"
     inkscape:window-maximized="1"
     inkscape:current-layer="g396" />
  <defs
     id="defs4">
    <style
       type="text/css"
       id="style2"><![CDATA[text { font-family:monospace;font-size:8;} svg { font-size:8;}
]]></style>
  </defs>
  <g
     stroke="rgb(0,0,0)"
     stroke-width="1"
     id="g260">
    <line
       x1="116.343506"
       y1="372.299164"
       x2="202.350281"
       y2="372.299164"
       id="line6" />
    <line
       x1="116.343506"
       y1="372.299164"
       x2="116.293274"
       y2="359.736481"
       id="line12" />
    <line
       x1="116.293274"
       y1="359.736481"
       x2="115.996460"
       y2="347.175781"
       id="line14" />
    <line
       x1="115.996460"
       y1="347.175781"
       x2="115.452942"
       y2="334.621887"
       id="line16" />
    <line
       x1="115.452942"
       y1="334.621887"
       x2="114.663025"
       y2="322.079651"
       id="line18" />
    <line
       x1="114.663025"
       y1="322.079651"
       x2="113.626953"
       y2="309.553925"
       id="line20" />
    <line
       x1="113.626953"
       y1="309.553925"
       x2="112.345093"
       y2="297.049500"
       id="line22" />
    <line
       x1="112.345093"
       y1="297.049500"
       x2="110.817749"
       y2="284.571259"
       id="line24" />
    <line
       x1="110.817749"
       y1="284.571259"
       x2="109.045593"
       y2="272.123962"
       id="line26" />
    <line
       x1="109.045593"
       y1="272.123962"
       x2="107.029175"
       y2="259.712463"
       id="line28" />
    <line
       x1="107.029175"
       y1="259.712463"
       x2="104.769226"
       y2="247.341476"
       id="line30" />
    <line
       x1="104.769226"
       y1="247.341476"
       x2="102.266541"
       y2="235.015869"
       id="line32" />
    <line
       x1="102.266541"
       y1="235.015869"
       x2="99.5220947"
       y2="222.740356"
       id="line34" />
    <line
       x1="99.5220947"
       y1="222.740356"
       x2="96.5368652"
       y2="210.519699"
       id="line36" />
    <line
       x1="96.5368652"
       y1="210.519699"
       x2="93.3119507"
       y2="198.358612"
       id="line38" />
    <line
       x1="93.3119507"
       y1="198.358612"
       x2="89.8485107"
       y2="186.261780"
       id="line40" />
    <line
       x1="89.8485107"
       y1="186.261780"
       x2="86.1478271"
       y2="174.233917"
       id="line42" />
    <line
       x1="86.1478271"
       y1="174.233917"
       x2="82.2113647"
       y2="162.279663"
       id="line44" />
    <line
       x1="82.2113647"
       y1="162.279663"
       x2="78.0404053"
       y2="150.403625"
       id="line46" />
    <line
       x1="78.0404053"
       y1="150.403625"
       x2="73.6366577"
       y2="138.610413"
       id="line48" />
    <line
       x1="73.6366577"
       y1="138.610443"
       x2="155.433899"
       y2="115.576538"
       id="line50" />
    <line
       x1="155.433899"
       y1="115.576538"
       x2="160.693970"
       y2="130.055634"
       id="line56" />
    <line
       x1="160.693970"
       y1="130.055634"
       x2="189.996338"
       y2="126.033417"
       id="line58" />
    <line
       x1="189.996338"
       y1="126.033417"
       x2="208.351501"
       y2="123.513855"
       id="line60" />
    <line
       x1="249.847778"
       y1="350.578217"
       x2="249.373779"
       y2="338.388306"
       id="line62" />
    <line
       x1="249.373779"
       y1="338.388306"
       x2="248.707642"
       y2="326.207916"
       id="line64" />
    <line
       x1="248.707642"
       y1="326.207916"
       x2="247.849548"
       y2="314.040100"
       id="line66" />
    <line
       x1="247.849548"
       y1="314.040100"
       x2="246.799805"
       y2="301.887909"
       id="line68" />
    <line
       x1="246.799805"
       y1="301.887909"
       x2="245.558655"
       y2="289.754333"
       id="line70" />
    <line
       x1="245.558655"
       y1="289.754333"
       x2="244.126343"
       y2="277.642395"
       id="line72" />
    <line
       x1="244.126343"
       y1="277.642395"
       x2="242.503296"
       y2="265.555054"
       id="line74" />
    <line
       x1="242.503296"
       y1="265.555054"
       x2="240.690063"
       y2="253.495392"
       id="line76" />
    <line
       x1="240.690063"
       y1="253.495392"
       x2="238.686890"
       y2="241.466370"
       id="line78" />
    <line
       x1="238.686890"
       y1="241.466370"
       x2="236.494446"
       y2="229.470978"
       id="line80" />
    <line
       x1="236.494446"
       y1="229.470978"
       x2="234.113281"
       y2="217.512192"
       id="line82" />
    <line
       x1="234.113281"
       y1="217.512192"
       x2="231.543945"
       y2="205.592987"
       id="line84" />
    <line
       x1="231.543945"
       y1="205.592987"
       x2="228.787109"
       y2="193.716324"
       id="line86" />
    <line
       x1="228.787109"
       y1="193.716324"
       x2="225.843506"
       y2="181.885117"
       id="line88" />
    <line
       x1="225.843506"
       y1="181.885117"
       x2="222.713867"
       y2="170.102371"
       id="line90" />
    <line
       x1="222.713867"
       y1="170.102371"
       x2="219.398987"
       y2="158.370941"
       id="line92" />
    <line
       x1="219.398987"
       y1="158.370941"
       x2="215.899719"
       y2="146.693787"
       id="line94" />
    <line
       x1="215.899719"
       y1="146.693787"
       x2="212.216858"
       y2="135.073822"
       id="line96" />
    <line
       x1="212.216858"
       y1="135.073822"
       x2="208.351501"
       y2="123.513855"
       id="line98" />
    <line
       x1="249.847778"
       y1="350.578217"
       x2="231.492615"
       y2="353.097778"
       id="line100" />
    <line
       x1="231.492615"
       y1="353.097778"
       x2="202.190308"
       y2="357.119995"
       id="line102" />
    <line
       x1="202.190308"
       y1="357.119995"
       x2="202.350281"
       y2="372.299164"
       id="line104" />
    <line
       x1="162.877930"
       y1="142.006439"
       x2="165.062073"
       y2="153.957184"
       id="line106" />
    <line
       x1="151.272583"
       y1="155.850006"
       x2="162.192871"
       y2="215.603745"
       id="line108" />
    <line
       x1="162.192871"
       y1="215.603745"
       x2="173.112854"
       y2="275.357544"
       id="line110" />
    <line
       x1="173.112854"
       y1="275.357544"
       x2="184.032959"
       y2="335.111298"
       id="line112" />
    <line
       x1="197.822266"
       y1="333.218506"
       x2="200.006287"
       y2="345.169250"
       id="line114" />
    <line
       x1="192.180359"
       y1="137.984161"
       x2="194.364319"
       y2="149.934937"
       id="line116" />
    <line
       x1="194.364319"
       y1="149.934937"
       x2="205.284485"
       y2="209.688705"
       id="line118" />
    <line
       x1="205.284485"
       y1="209.688705"
       x2="216.204529"
       y2="269.442505"
       id="line120" />
    <line
       x1="216.204529"
       y1="269.442505"
       x2="227.124573"
       y2="329.196259"
       id="line122" />
    <line
       x1="227.124573"
       y1="329.196259"
       x2="229.308594"
       y2="341.147003"
       id="line124" />
    <line
       x1="144.378052"
       y1="156.796387"
       x2="155.298157"
       y2="216.550156"
       id="line126" />
    <line
       x1="155.298157"
       y1="216.550156"
       x2="166.218201"
       y2="276.303955"
       id="line128" />
    <line
       x1="166.218201"
       y1="276.303955"
       x2="177.138306"
       y2="336.057709"
       id="line130" />
    <line
       x1="151.272583"
       y1="155.850006"
       x2="165.062073"
       y2="153.957184"
       id="line132" />
    <line
       x1="165.062073"
       y1="153.957184"
       x2="194.364319"
       y2="149.934937"
       id="line134" />
    <line
       x1="151.272583"
       y1="155.850006"
       x2="144.378052"
       y2="156.796387"
       id="line136" />
    <line
       x1="162.192871"
       y1="215.603745"
       x2="205.284485"
       y2="209.688705"
       id="line138" />
    <line
       x1="173.112854"
       y1="275.357544"
       x2="216.204529"
       y2="269.442505"
       id="line140" />
    <line
       x1="184.032959"
       y1="335.111298"
       x2="197.822266"
       y2="333.218506"
       id="line142" />
    <line
       x1="197.822266"
       y1="333.218506"
       x2="227.124573"
       y2="329.196259"
       id="line144" />
    <line
       x1="184.032959"
       y1="335.111298"
       x2="177.138306"
       y2="336.057709"
       id="line146" />
    <line
       x1="207.992920"
       y1="350.198212"
       x2="223.505920"
       y2="348.068787"
       id="line148" />
    <line
       x1="200.006287"
       y1="345.169250"
       x2="202.190247"
       y2="346.845581"
       id="line150" />
    <line
       x1="202.190247"
       y1="346.845581"
       x2="203.999573"
       y2="348.521912"
       id="line152" />
    <line
       x1="203.999573"
       y1="348.521912"
       x2="207.992920"
       y2="350.198212"
       id="line154" />
    <line
       x1="229.308594"
       y1="341.147003"
       x2="227.124573"
       y2="343.454285"
       id="line156" />
    <line
       x1="227.124573"
       y1="343.454285"
       x2="226.407227"
       y2="345.761536"
       id="line158" />
    <line
       x1="226.407227"
       y1="345.761536"
       x2="223.505920"
       y2="348.068787"
       id="line160" />
    <line
       x1="162.877930"
       y1="142.006439"
       x2="165.062073"
       y2="139.699158"
       id="line162" />
    <line
       x1="165.062073"
       y1="139.699158"
       x2="165.779297"
       y2="137.391907"
       id="line164" />
    <line
       x1="165.779297"
       y1="137.391907"
       x2="168.680664"
       y2="135.084625"
       id="line166" />
    <line
       x1="192.180359"
       y1="137.984161"
       x2="189.996338"
       y2="136.307831"
       id="line168" />
    <line
       x1="189.996338"
       y1="136.307831"
       x2="188.187012"
       y2="134.631531"
       id="line170" />
    <line
       x1="188.187012"
       y1="134.631531"
       x2="184.193665"
       y2="132.955200"
       id="line172" />
    <line
       x1="168.680664"
       y1="135.084625"
       x2="184.193665"
       y2="132.955200"
       id="line174" />
  </g>
  <g
     stroke="rgb(0,128,255)"
     stroke-width="1"
     id="g396">
    <line
       x1="116.799927"
       y1="160.581909"
       x2="144.378052"
       y2="156.796387"
       id="line268" />
    <line
       x1="149.559631"
       y1="339.843323"
       x2="177.138306"
       y2="336.057709"
       id="line270" />
    <line
       x1="128.470337"
       y1="177.370209"
       x2="125.992676"
       y2="159.320068"
       id="line272" />
    <line
       x1="125.992676"
       y1="159.320068"
       x2="123.904602"
       y2="164.204254"
       id="line274" />
    <line
       x1="125.992676"
       y1="159.320068"
       x2="129.319641"
       y2="163.460968"
       id="line276" />
    <line
       x1="156.274780"
       y1="320.531311"
       x2="158.752502"
       y2="338.581482"
       id="line278" />
    <line
       x1="158.752502"
       y1="338.581482"
       x2="160.840576"
       y2="333.697266"
       id="line280" />
    <line
       x1="158.752502"
       y1="338.581482"
       x2="155.425537"
       y2="334.440582"
       id="line282" />
    <line
       x1="150.926514"
       y1="131.396362"
       x2="160.693970"
       y2="130.055634"
       id="line284" />
    <line
       x1="153.167664"
       y1="137.214050"
       x2="168.680664"
       y2="135.084625"
       id="line286" />
    <line
       x1="152.530518"
       y1="118.916016"
       x2="154.182312"
       y2="130.949463"
       id="line288" />
    <line
       x1="154.182312"
       y1="130.949463"
       x2="155.574341"
       y2="127.693329"
       id="line290" />
    <line
       x1="154.182312"
       y1="130.949463"
       x2="151.964294"
       y2="128.188873"
       id="line292" />
    <line
       x1="157.663574"
       y1="149.701111"
       x2="156.011841"
       y2="137.667694"
       id="line294" />
    <line
       x1="156.011841"
       y1="137.667694"
       x2="154.619812"
       y2="140.923828"
       id="line296" />
    <line
       x1="156.011841"
       y1="137.667694"
       x2="158.229797"
       y2="140.428284"
       id="line298" />
    <line
       x1="192.479919"
       y1="352.327637"
       x2="207.992920"
       y2="350.198212"
       id="line300" />
    <line
       x1="189.275879"
       y1="322.131470"
       x2="190.927612"
       y2="334.164917"
       id="line302" />
    <line
       x1="190.927612"
       y1="334.164917"
       x2="192.319641"
       y2="330.908783"
       id="line304" />
    <line
       x1="190.927612"
       y1="334.164917"
       x2="188.709656"
       y2="331.404297"
       id="line306" />
    <line
       x1="196.394104"
       y1="364.814667"
       x2="194.742371"
       y2="352.781250"
       id="line308" />
    <line
       x1="194.742371"
       y1="352.781250"
       x2="193.350281"
       y2="356.037384"
       id="line310" />
    <line
       x1="194.742371"
       y1="352.781250"
       x2="196.960327"
       y2="355.541840"
       id="line312" />
    <line
       x1="145.448669"
       y1="230.152695"
       x2="157.482117"
       y2="228.500916"
       id="line314" />
    <line
       x1="157.482117"
       y1="228.500916"
       x2="154.225952"
       y2="227.108841"
       id="line316" />
    <line
       x1="157.482117"
       y1="228.500916"
       x2="154.721497"
       y2="230.718872"
       id="line318" />
    <line
       x1="176.410278"
       y1="225.902710"
       x2="164.376831"
       y2="227.554489"
       id="line320" />
    <line
       x1="164.376831"
       y1="227.554489"
       x2="167.632996"
       y2="228.946548"
       id="line322" />
    <line
       x1="164.376831"
       y1="227.554489"
       x2="167.137451"
       y2="225.336533"
       id="line324" />
    <line
       x1="226.054016"
       y1="255.839951"
       x2="214.020569"
       y2="257.491730"
       id="line326" />
    <line
       x1="214.020569"
       y1="257.491730"
       x2="217.276733"
       y2="258.883789"
       id="line328" />
    <line
       x1="214.020569"
       y1="257.491730"
       x2="216.781189"
       y2="255.273773"
       id="line330" />
    <line
       x1="158.895447"
       y1="265.058533"
       x2="170.928894"
       y2="263.406769"
       id="line332" />
    <line
       x1="170.928894"
       y1="263.406769"
       x2="167.672729"
       y2="262.014709"
       id="line334" />
    <line
       x1="170.928894"
       y1="263.406769"
       x2="168.168274"
       y2="265.624725"
       id="line336" />
    <line
       x1="208.742188"
       y1="392.972290"
       x2="200.006287"
       y2="345.169250"
       id="line338" />
    <line
       x1="238.044861"
       y1="388.949982"
       x2="229.308594"
       y2="341.147003"
       id="line340" />
    <line
       x1="194.524780"
       y1="382.673309"
       x2="206.558228"
       y2="381.021515"
       id="line342" />
    <line
       x1="206.558228"
       y1="381.021515"
       x2="203.302063"
       y2="379.629456"
       id="line344" />
    <line
       x1="206.558228"
       y1="381.021515"
       x2="203.797607"
       y2="383.239502"
       id="line346" />
    <line
       x1="247.894226"
       y1="375.347443"
       x2="235.860779"
       y2="376.999237"
       id="line348" />
    <line
       x1="235.860779"
       y1="376.999237"
       x2="239.116943"
       y2="378.391296"
       id="line350" />
    <line
       x1="235.860779"
       y1="376.999237"
       x2="238.621399"
       y2="374.781281"
       id="line352" />
    <line
       x1="248.758789"
       y1="233.914124"
       x2="236.725403"
       y2="235.565887"
       id="line354" />
    <line
       x1="236.725403"
       y1="235.565887"
       x2="239.981506"
       y2="236.957962"
       id="line356" />
    <line
       x1="236.725403"
       y1="235.565887"
       x2="239.485962"
       y2="233.347931"
       id="line358" />
    <line
       x1="198.711121"
       y1="241.217361"
       x2="210.744507"
       y2="239.565598"
       id="line360" />
    <line
       x1="210.744507"
       y1="239.565598"
       x2="207.488342"
       y2="238.173523"
       id="line362" />
    <line
       x1="210.744507"
       y1="239.565598"
       x2="207.983948"
       y2="241.783554"
       id="line364" />
    <line
       x1="233.266357"
       y1="305.311981"
       x2="245.299744"
       y2="303.660217"
       id="line384" />
    <line
       x1="245.299744"
       y1="303.660217"
       x2="242.043640"
       y2="302.268127"
       id="line386" />
    <line
       x1="245.299744"
       y1="303.660217"
       x2="242.539185"
       y2="305.878174"
       id="line388" />
    <line
       x1="184.066040"
       y1="146.283569"
       x2="188.768738"
       y2="135.084625"
       id="line390" />
    <line
       x1="188.768738"
       y1="135.084625"
       x2="185.913208"
       y2="137.178986"
       id="line392" />
    <line
       x1="188.768738"
       y1="135.084625"
       x2="189.272888"
       y2="138.589752"
       id="line394" />
  </g>
  <text
     x="133.179749"
     y="253.362610"
     text-anchor="middle"
     id="text398">BM</text>
  <text
     x="144"
     y="150.125153"
     text-anchor="middle"
     id="text400">BFE</text>
  <text
     x="177.290833"
     y="365.238739"
     text-anchor="middle"
     id="text402">B_air</text>
  <text
     x="178.338135"
     y="223.723862"
     text-anchor="middle"
     id="text404">DE_M</text>
  <text
     x="191"
     y="262"
     text-anchor="middle"
     id="text406">HM</text>
  <text
     x="225"
     y="395"
     text-anchor="middle"
     id="text408">H_air</text>
  <text
     x="177"
     y="149"
     text-anchor="middle"
     id="text412">R1</text>
  <text
     x="237"
     y="300.411316"
     text-anchor="middle"
     id="text416">HA</text>
  <text
     x="224"
     y="240"
     text-anchor="middle"
     id="text418">DM</text>
</svg>
