<?xml version="1.0" encoding="UTF-8" standalone="no"?>
<svg
   encoding="UTF-8"
   width="350"
   height="400"
   viewBox="0 40 350 400"
   version="1.1"
   xmlns="http://www.w3.org/2000/svg">
  <defs
     id="defs4">
    <style
       type="text/css"
       id="style2"><![CDATA[text { font-family:monospace;font-size:8;} svg { font-size:8;}
    ]]></style>
  </defs>
  <g
     stroke="rgb(0,0,0)"
     stroke-width="1"
     id="g652">
    <line
       x1="21.7924500"
       y1="207.498230"
       x2="88.4541016"
       y2="92.0368652"
       id="line6" />
    <line
       x1="88.4541016"
       y1="92.0368652"
       x2="96.7733612"
       y2="77.6275024"
       id="line8" />
    <line
       x1="96.7733612"
       y1="77.6275024"
       x2="100.632141"
       y2="70.9439087"
       id="line10" />
    <line
       x1="116.371475"
       y1="264.986084"
       x2="110.510651"
       y2="254.834839"
       id="line12" />
    <line
       x1="110.510651"
       y1="254.834839"
       x2="96.6972961"
       y2="96.9473572"
       id="line14" />
    <line
       x1="96.6972961"
       y1="96.9473572"
       x2="105.019470"
       y2="82.5328674"
       id="line16" />
    <line
       x1="105.019470"
       y1="82.5328674"
       x2="124.327606"
       y2="94.5300293"
       id="line18" />
    <line
       x1="124.327606"
       y1="94.5300293"
       x2="138.140945"
       y2="252.417496"
       id="line20" />
    <line
       x1="138.140945"
       y1="252.417496"
       x2="116.371475"
       y2="264.986084"
       id="line22" />
    <line
       x1="138.140945"
       y1="252.417496"
       x2="118.404999"
       y2="254.144165"
       id="line24" />
    <line
       x1="118.404999"
       y1="254.144165"
       x2="104.591660"
       y2="96.2566833"
       id="line26" />
    <line
       x1="104.591660"
       y1="96.2566833"
       x2="124.327606"
       y2="94.5300293"
       id="line28" />
    <line
       x1="113.800552"
       y1="201.515015"
       x2="133.536499"
       y2="199.788330"
       id="line30" />
    <line
       x1="109.196106"
       y1="148.885864"
       x2="128.932022"
       y2="147.159180"
       id="line32" />
    <line
       x1="101.558365"
       y1="287.264160"
       x2="99.5603790"
       y2="283.874573"
       id="line34" />
    <line
       x1="99.5603790"
       y1="283.874573"
       x2="97.5015259"
       y2="280.521637"
       id="line36" />
    <line
       x1="97.5015259"
       y1="280.521637"
       x2="95.3824768"
       y2="277.206421"
       id="line38" />
    <line
       x1="95.3824768"
       y1="277.206421"
       x2="93.2039185"
       y2="273.929993"
       id="line40" />
    <line
       x1="93.2039185"
       y1="273.929993"
       x2="90.9665527"
       y2="270.693420"
       id="line42" />
    <line
       x1="90.9665527"
       y1="270.693420"
       x2="88.6711426"
       y2="267.497772"
       id="line44" />
    <line
       x1="88.6711426"
       y1="267.497772"
       x2="86.3183899"
       y2="264.344116"
       id="line46" />
    <line
       x1="86.3183899"
       y1="264.344116"
       x2="83.9090881"
       y2="261.233398"
       id="line48" />
    <line
       x1="83.9090881"
       y1="261.233398"
       x2="81.4440155"
       y2="258.166748"
       id="line50" />
    <line
       x1="81.4440155"
       y1="258.166748"
       x2="78.9239807"
       y2="255.145050"
       id="line52" />
    <line
       x1="78.9239807"
       y1="255.145050"
       x2="76.3498077"
       y2="252.169373"
       id="line54" />
    <line
       x1="76.3498077"
       y1="252.169373"
       x2="73.7223358"
       y2="249.240646"
       id="line56" />
    <line
       x1="73.7223358"
       y1="249.240646"
       x2="71.0424042"
       y2="246.359818"
       id="line58" />
    <line
       x1="71.0424042"
       y1="246.359818"
       x2="68.3108978"
       y2="243.527878"
       id="line60" />
    <line
       x1="68.3108978"
       y1="243.527878"
       x2="65.5287170"
       y2="240.745682"
       id="line62" />
    <line
       x1="65.5287170"
       y1="240.745682"
       x2="62.6967621"
       y2="238.014191"
       id="line64" />
    <line
       x1="62.6967621"
       y1="238.014191"
       x2="59.8159485"
       y2="235.334259"
       id="line66" />
    <line
       x1="59.8159485"
       y1="235.334259"
       x2="56.8872070"
       y2="232.706787"
       id="line68" />
    <line
       x1="56.8872070"
       y1="232.706787"
       x2="53.9115295"
       y2="230.132599"
       id="line70" />
    <line
       x1="53.9115295"
       y1="230.132599"
       x2="50.8898621"
       y2="227.612564"
       id="line72" />
    <line
       x1="50.8898621"
       y1="227.612564"
       x2="47.8231659"
       y2="225.147507"
       id="line74" />
    <line
       x1="47.8231659"
       y1="225.147507"
       x2="44.7124939"
       y2="222.738205"
       id="line76" />
    <line
       x1="44.7124939"
       y1="222.738205"
       x2="41.5588074"
       y2="220.385452"
       id="line78" />
    <line
       x1="41.5588074"
       y1="220.385452"
       x2="38.3631668"
       y2="218.090027"
       id="line80" />
    <line
       x1="38.3631668"
       y1="218.090027"
       x2="35.1266098"
       y2="215.852676"
       id="line82" />
    <line
       x1="35.1266098"
       y1="215.852676"
       x2="31.8501816"
       y2="213.674118"
       id="line84" />
    <line
       x1="31.8501816"
       y1="213.674118"
       x2="28.5349503"
       y2="211.555054"
       id="line86" />
    <line
       x1="28.5349503"
       y1="211.555054"
       x2="25.1820068"
       y2="209.496201"
       id="line88" />
    <line
       x1="25.1820068"
       y1="209.496201"
       x2="21.7924423"
       y2="207.498230"
       id="line90" />
    <line
       x1="129.188263"
       y1="83.6824341"
       x2="128.450043"
       y2="83.3619690"
       id="line92" />
    <line
       x1="128.450043"
       y1="83.3619690"
       x2="127.711411"
       y2="83.0432434"
       id="line94" />
    <line
       x1="127.711411"
       y1="83.0432434"
       x2="126.972397"
       y2="82.7262268"
       id="line96" />
    <line
       x1="126.972397"
       y1="82.7262268"
       x2="126.232986"
       y2="82.4109192"
       id="line98" />
    <line
       x1="126.232986"
       y1="82.4109192"
       x2="125.493195"
       y2="82.0973511"
       id="line100" />
    <line
       x1="125.493195"
       y1="82.0973511"
       x2="124.753036"
       y2="81.7854919"
       id="line102" />
    <line
       x1="124.753036"
       y1="81.7854919"
       x2="124.012482"
       y2="81.4753418"
       id="line104" />
    <line
       x1="124.012482"
       y1="81.4753418"
       x2="123.271561"
       y2="81.1669312"
       id="line106" />
    <line
       x1="123.271561"
       y1="81.1669312"
       x2="122.530258"
       y2="80.8601990"
       id="line108" />
    <line
       x1="122.530258"
       y1="80.8601990"
       x2="121.788605"
       y2="80.5552368"
       id="line110" />
    <line
       x1="121.788605"
       y1="80.5552368"
       x2="121.046585"
       y2="80.2519836"
       id="line112" />
    <line
       x1="121.046585"
       y1="80.2519836"
       x2="120.304199"
       y2="79.9504395"
       id="line114" />
    <line
       x1="120.304199"
       y1="79.9504395"
       x2="119.561478"
       y2="79.6506042"
       id="line116" />
    <line
       x1="119.561478"
       y1="79.6506042"
       x2="118.818390"
       y2="79.3525085"
       id="line118" />
    <line
       x1="118.818390"
       y1="79.3525085"
       x2="118.074966"
       y2="79.0561218"
       id="line120" />
    <line
       x1="118.074966"
       y1="79.0561218"
       x2="117.331207"
       y2="78.7614746"
       id="line122" />
    <line
       x1="117.331207"
       y1="78.7614746"
       x2="116.587097"
       y2="78.4685364"
       id="line124" />
    <line
       x1="116.587097"
       y1="78.4685364"
       x2="115.842636"
       y2="78.1773071"
       id="line126" />
    <line
       x1="115.842636"
       y1="78.1773071"
       x2="115.097885"
       y2="77.8878174"
       id="line128" />
    <line
       x1="115.097885"
       y1="77.8878174"
       x2="114.352783"
       y2="77.6000366"
       id="line130" />
    <line
       x1="114.352783"
       y1="77.6000366"
       x2="113.607361"
       y2="77.3139648"
       id="line132" />
    <line
       x1="113.607361"
       y1="77.3139648"
       x2="112.861618"
       y2="77.0296326"
       id="line134" />
    <line
       x1="112.861618"
       y1="77.0296326"
       x2="112.115570"
       y2="76.7470398"
       id="line136" />
    <line
       x1="112.115570"
       y1="76.7470398"
       x2="111.369202"
       y2="76.4661255"
       id="line138" />
    <line
       x1="111.369202"
       y1="76.4661255"
       x2="110.622528"
       y2="76.1869812"
       id="line140" />
    <line
       x1="110.622528"
       y1="76.1869812"
       x2="109.875549"
       y2="75.9095154"
       id="line142" />
    <line
       x1="109.875549"
       y1="75.9095154"
       x2="109.128265"
       y2="75.6337891"
       id="line144" />
    <line
       x1="109.128265"
       y1="75.6337891"
       x2="108.380707"
       y2="75.3598022"
       id="line146" />
    <line
       x1="108.380707"
       y1="75.3598022"
       x2="107.632843"
       y2="75.0875244"
       id="line148" />
    <line
       x1="107.632843"
       y1="75.0875244"
       x2="107.392944"
       y2="74.9421082"
       id="line150" />
    <line
       x1="107.392944"
       y1="74.9421082"
       x2="107.152939"
       y2="74.7968750"
       id="line152" />
    <line
       x1="107.152939"
       y1="74.7968750"
       x2="106.912827"
       y2="74.6518555"
       id="line154" />
    <line
       x1="106.912827"
       y1="74.6518555"
       x2="106.672592"
       y2="74.5069580"
       id="line156" />
    <line
       x1="106.672592"
       y1="74.5069580"
       x2="106.432266"
       y2="74.3622742"
       id="line158" />
    <line
       x1="106.432266"
       y1="74.3622742"
       x2="106.191818"
       y2="74.2177734"
       id="line160" />
    <line
       x1="106.191818"
       y1="74.2177734"
       x2="105.951263"
       y2="74.0734558"
       id="line162" />
    <line
       x1="105.951263"
       y1="74.0734558"
       x2="105.710602"
       y2="73.9293213"
       id="line164" />
    <line
       x1="105.710602"
       y1="73.9293213"
       x2="105.469849"
       y2="73.7853394"
       id="line166" />
    <line
       x1="105.469849"
       y1="73.7853394"
       x2="105.228973"
       y2="73.6415405"
       id="line168" />
    <line
       x1="105.228973"
       y1="73.6415405"
       x2="104.987991"
       y2="73.4979553"
       id="line170" />
    <line
       x1="104.987991"
       y1="73.4979553"
       x2="104.746902"
       y2="73.3545227"
       id="line172" />
    <line
       x1="104.746902"
       y1="73.3545227"
       x2="104.505707"
       y2="73.2112732"
       id="line174" />
    <line
       x1="104.505707"
       y1="73.2112732"
       x2="104.264389"
       y2="73.0682068"
       id="line176" />
    <line
       x1="104.264389"
       y1="73.0682068"
       x2="104.022980"
       y2="72.9253235"
       id="line178" />
    <line
       x1="104.022980"
       y1="72.9253235"
       x2="103.781479"
       y2="72.7825928"
       id="line180" />
    <line
       x1="103.781479"
       y1="72.7825928"
       x2="103.539856"
       y2="72.6401062"
       id="line182" />
    <line
       x1="103.539856"
       y1="72.6401062"
       x2="103.298126"
       y2="72.4977417"
       id="line184" />
    <line
       x1="103.298126"
       y1="72.4977417"
       x2="103.056290"
       y2="72.3555603"
       id="line186" />
    <line
       x1="103.056290"
       y1="72.3555603"
       x2="102.814346"
       y2="72.2135925"
       id="line188" />
    <line
       x1="102.814346"
       y1="72.2135925"
       x2="102.572296"
       y2="72.0717773"
       id="line190" />
    <line
       x1="102.572296"
       y1="72.0717773"
       x2="102.330154"
       y2="71.9301758"
       id="line192" />
    <line
       x1="102.330154"
       y1="71.9301758"
       x2="102.087891"
       y2="71.7887268"
       id="line194" />
    <line
       x1="102.087891"
       y1="71.7887268"
       x2="101.845535"
       y2="71.6474609"
       id="line196" />
    <line
       x1="101.845535"
       y1="71.6474609"
       x2="101.603058"
       y2="71.5064087"
       id="line198" />
    <line
       x1="101.603058"
       y1="71.5064087"
       x2="101.360489"
       y2="71.3655090"
       id="line200" />
    <line
       x1="101.360489"
       y1="71.3655090"
       x2="101.117813"
       y2="71.2247620"
       id="line202" />
    <line
       x1="101.117813"
       y1="71.2247620"
       x2="100.875031"
       y2="71.0842590"
       id="line204" />
    <line
       x1="100.875031"
       y1="71.0842590"
       x2="100.632126"
       y2="70.9438782"
       id="line206" />
    <line
       x1="130.754730"
       y1="396.226410"
       x2="154.722275"
       y2="396.226410"
       id="line208" />
    <line
       x1="154.722275"
       y1="396.226410"
       x2="179.859482"
       y2="396.226410"
       id="line210" />
    <line
       x1="179.859482"
       y1="396.226410"
       x2="288.434082"
       y2="396.226410"
       id="line212" />
    <line
       x1="128.258316"
       y1="285.574646"
       x2="134.119156"
       y2="295.725891"
       id="line214" />
    <line
       x1="134.119156"
       y1="295.725891"
       x2="263.947021"
       y2="386.632355"
       id="line216" />
    <line
       x1="263.947021"
       y1="386.632355"
       x2="280.591431"
       y2="386.632355"
       id="line218" />
    <line
       x1="280.591431"
       y1="386.632355"
       x2="279.855652"
       y2="363.912476"
       id="line220" />
    <line
       x1="279.855652"
       y1="363.912476"
       x2="150.027771"
       y2="273.006042"
       id="line222" />
    <line
       x1="150.027771"
       y1="273.006042"
       x2="128.258316"
       y2="285.574646"
       id="line224" />
    <line
       x1="150.027771"
       y1="273.006042"
       x2="138.664459"
       y2="289.234497"
       id="line226" />
    <line
       x1="138.664459"
       y1="289.234497"
       x2="268.492371"
       y2="380.140961"
       id="line228" />
    <line
       x1="268.492371"
       y1="380.140961"
       x2="279.855652"
       y2="363.912476"
       id="line230" />
    <line
       x1="181.940445"
       y1="319.536652"
       x2="193.303726"
       y2="303.308167"
       id="line232" />
    <line
       x1="225.216385"
       y1="349.838806"
       x2="236.579697"
       y2="333.610352"
       id="line234" />
    <line
       x1="130.754730"
       y1="396.226410"
       x2="130.719208"
       y2="392.291962"
       id="line236" />
    <line
       x1="130.719208"
       y1="392.291962"
       x2="130.612656"
       y2="388.358826"
       id="line238" />
    <line
       x1="130.612656"
       y1="388.358826"
       x2="130.435120"
       y2="384.428223"
       id="line240" />
    <line
       x1="130.435120"
       y1="384.428223"
       x2="130.186646"
       y2="380.501465"
       id="line242" />
    <line
       x1="130.186646"
       y1="380.501465"
       x2="129.867325"
       y2="376.579834"
       id="line244" />
    <line
       x1="129.867325"
       y1="376.579834"
       x2="129.477249"
       y2="372.664612"
       id="line246" />
    <line
       x1="129.477249"
       y1="372.664612"
       x2="129.016541"
       y2="368.757080"
       id="line248" />
    <line
       x1="129.016541"
       y1="368.757080"
       x2="128.485382"
       y2="364.858521"
       id="line250" />
    <line
       x1="128.485382"
       y1="364.858521"
       x2="127.883896"
       y2="360.970154"
       id="line252" />
    <line
       x1="127.883896"
       y1="360.970154"
       x2="127.212326"
       y2="357.093292"
       id="line254" />
    <line
       x1="127.212326"
       y1="357.093292"
       x2="126.470871"
       y2="353.229187"
       id="line256" />
    <line
       x1="126.470871"
       y1="353.229187"
       x2="125.659775"
       y2="349.379089"
       id="line258" />
    <line
       x1="125.659775"
       y1="349.379089"
       x2="124.779282"
       y2="345.544250"
       id="line260" />
    <line
       x1="124.779282"
       y1="345.544250"
       x2="123.829727"
       y2="341.725952"
       id="line262" />
    <line
       x1="123.829727"
       y1="341.725952"
       x2="122.811356"
       y2="337.925415"
       id="line264" />
    <line
       x1="122.811356"
       y1="337.925415"
       x2="121.724564"
       y2="334.143890"
       id="line266" />
    <line
       x1="121.724564"
       y1="334.143890"
       x2="120.569672"
       y2="330.382599"
       id="line268" />
    <line
       x1="120.569672"
       y1="330.382599"
       x2="119.347061"
       y2="326.642761"
       id="line270" />
    <line
       x1="119.347061"
       y1="326.642761"
       x2="118.057129"
       y2="322.925629"
       id="line272" />
    <line
       x1="118.057129"
       y1="322.925629"
       x2="116.700287"
       y2="319.232391"
       id="line274" />
    <line
       x1="116.700287"
       y1="319.232391"
       x2="115.276993"
       y2="315.564240"
       id="line276" />
    <line
       x1="115.276993"
       y1="315.564240"
       x2="113.787720"
       y2="311.922363"
       id="line278" />
    <line
       x1="113.787720"
       y1="311.922363"
       x2="112.232925"
       y2="308.307983"
       id="line280" />
    <line
       x1="112.232925"
       y1="308.307983"
       x2="110.613129"
       y2="304.722290"
       id="line282" />
    <line
       x1="110.613129"
       y1="304.722290"
       x2="108.928879"
       y2="301.166382"
       id="line284" />
    <line
       x1="108.928879"
       y1="301.166382"
       x2="107.180679"
       y2="297.641479"
       id="line286" />
    <line
       x1="107.180679"
       y1="297.641479"
       x2="105.369141"
       y2="294.148743"
       id="line288" />
    <line
       x1="105.369141"
       y1="294.148743"
       x2="103.494827"
       y2="290.689240"
       id="line290" />
    <line
       x1="103.494827"
       y1="290.689240"
       x2="101.558365"
       y2="287.264160"
       id="line292" />
    <line
       x1="291.680298"
       y1="365.126801"
       x2="290.557312"
       y2="353.602661"
       id="line294" />
    <line
       x1="290.557312"
       y1="353.602661"
       x2="289.083923"
       y2="342.118042"
       id="line296" />
    <line
       x1="289.083923"
       y1="342.118042"
       x2="287.261353"
       y2="330.683624"
       id="line298" />
    <line
       x1="287.261353"
       y1="330.683624"
       x2="285.091431"
       y2="319.310028"
       id="line300" />
    <line
       x1="285.091431"
       y1="319.310028"
       x2="282.576111"
       y2="308.007812"
       id="line302" />
    <line
       x1="282.576111"
       y1="308.007812"
       x2="279.717712"
       y2="296.787415"
       id="line304" />
    <line
       x1="279.717712"
       y1="296.787415"
       x2="276.518921"
       y2="285.659302"
       id="line306" />
    <line
       x1="276.518921"
       y1="285.659302"
       x2="272.982666"
       y2="274.633789"
       id="line308" />
    <line
       x1="272.982666"
       y1="274.633789"
       x2="269.112244"
       y2="263.721069"
       id="line310" />
    <line
       x1="269.112244"
       y1="263.721069"
       x2="264.911255"
       y2="252.931290"
       id="line312" />
    <line
       x1="264.911255"
       y1="252.931290"
       x2="260.383606"
       y2="242.274490"
       id="line314" />
    <line
       x1="260.383606"
       y1="242.274490"
       x2="255.533463"
       y2="231.760529"
       id="line316" />
    <line
       x1="255.533463"
       y1="231.760529"
       x2="250.365372"
       y2="221.399139"
       id="line318" />
    <line
       x1="250.365372"
       y1="221.399139"
       x2="244.884079"
       y2="211.199997"
       id="line320" />
    <line
       x1="244.884079"
       y1="211.199997"
       x2="239.094711"
       y2="201.172501"
       id="line322" />
    <line
       x1="239.094711"
       y1="201.172501"
       x2="233.002609"
       y2="191.326004"
       id="line324" />
    <line
       x1="233.002609"
       y1="191.326004"
       x2="226.613449"
       y2="181.669601"
       id="line326" />
    <line
       x1="226.613449"
       y1="181.669601"
       x2="219.933151"
       y2="172.212280"
       id="line328" />
    <line
       x1="219.933151"
       y1="172.212280"
       x2="212.967911"
       y2="162.962830"
       id="line330" />
    <line
       x1="212.967911"
       y1="162.962830"
       x2="205.724197"
       y2="153.929779"
       id="line332" />
    <line
       x1="205.724197"
       y1="153.929779"
       x2="198.208725"
       y2="145.121552"
       id="line334" />
    <line
       x1="198.208725"
       y1="145.121552"
       x2="190.428452"
       y2="136.546295"
       id="line336" />
    <line
       x1="190.428452"
       y1="136.546295"
       x2="182.390640"
       y2="128.211975"
       id="line338" />
    <line
       x1="182.390640"
       y1="128.211975"
       x2="174.102676"
       y2="120.126373"
       id="line340" />
    <line
       x1="174.102676"
       y1="120.126373"
       x2="165.572327"
       y2="112.296906"
       id="line342" />
    <line
       x1="165.572327"
       y1="112.296906"
       x2="156.807480"
       y2="104.730865"
       id="line344" />
    <line
       x1="156.807480"
       y1="104.730865"
       x2="147.816254"
       y2="97.4353333"
       id="line346" />
    <line
       x1="147.816254"
       y1="97.4353333"
       x2="138.607010"
       y2="90.4170227"
       id="line348" />
    <line
       x1="138.607010"
       y1="90.4170227"
       x2="129.188263"
       y2="83.6824341"
       id="line350" />
    <line
       x1="291.680298"
       y1="365.126801"
       x2="291.588684"
       y2="365.926361"
       id="line352" />
    <line
       x1="291.588684"
       y1="365.926361"
       x2="291.495422"
       y2="366.725403"
       id="line354" />
    <line
       x1="291.495422"
       y1="366.725403"
       x2="291.400452"
       y2="367.523895"
       id="line356" />
    <line
       x1="291.400452"
       y1="367.523895"
       x2="291.303772"
       y2="368.321899"
       id="line358" />
    <line
       x1="291.303772"
       y1="368.321899"
       x2="291.205444"
       y2="369.119354"
       id="line360" />
    <line
       x1="291.205444"
       y1="369.119354"
       x2="291.105469"
       y2="369.916290"
       id="line362" />
    <line
       x1="291.105469"
       y1="369.916290"
       x2="291.003784"
       y2="370.712708"
       id="line364" />
    <line
       x1="291.003784"
       y1="370.712708"
       x2="290.900391"
       y2="371.508575"
       id="line366" />
    <line
       x1="290.900391"
       y1="371.508575"
       x2="290.795349"
       y2="372.303894"
       id="line368" />
    <line
       x1="290.795349"
       y1="372.303894"
       x2="290.688660"
       y2="373.098694"
       id="line370" />
    <line
       x1="290.688660"
       y1="373.098694"
       x2="290.580261"
       y2="373.892944"
       id="line372" />
    <line
       x1="290.580261"
       y1="373.892944"
       x2="290.470276"
       y2="374.686615"
       id="line374" />
    <line
       x1="290.470276"
       y1="374.686615"
       x2="290.358521"
       y2="375.479767"
       id="line376" />
    <line
       x1="290.358521"
       y1="375.479767"
       x2="290.245178"
       y2="376.272339"
       id="line378" />
    <line
       x1="290.245178"
       y1="376.272339"
       x2="290.130127"
       y2="377.064362"
       id="line380" />
    <line
       x1="290.130127"
       y1="377.064362"
       x2="290.013428"
       y2="377.855804"
       id="line382" />
    <line
       x1="290.013428"
       y1="377.855804"
       x2="289.895081"
       y2="378.646698"
       id="line384" />
    <line
       x1="289.895081"
       y1="378.646698"
       x2="289.775024"
       y2="379.437012"
       id="line386" />
    <line
       x1="289.775024"
       y1="379.437012"
       x2="289.653320"
       y2="380.226746"
       id="line388" />
    <line
       x1="289.653320"
       y1="380.226746"
       x2="289.530029"
       y2="381.015930"
       id="line390" />
    <line
       x1="289.530029"
       y1="381.015930"
       x2="289.405029"
       y2="381.804504"
       id="line392" />
    <line
       x1="289.405029"
       y1="381.804504"
       x2="289.278442"
       y2="382.592499"
       id="line394" />
    <line
       x1="289.278442"
       y1="382.592499"
       x2="289.150146"
       y2="383.379913"
       id="line396" />
    <line
       x1="289.150146"
       y1="383.379913"
       x2="289.020203"
       y2="384.166718"
       id="line398" />
    <line
       x1="289.020203"
       y1="384.166718"
       x2="288.888672"
       y2="384.952942"
       id="line400" />
    <line
       x1="288.888672"
       y1="384.952942"
       x2="288.755432"
       y2="385.738556"
       id="line402" />
    <line
       x1="288.755432"
       y1="385.738556"
       x2="288.620605"
       y2="386.523590"
       id="line404" />
    <line
       x1="288.620605"
       y1="386.523590"
       x2="288.484131"
       y2="387.307983"
       id="line406" />
    <line
       x1="288.484131"
       y1="387.307983"
       x2="288.345947"
       y2="388.091797"
       id="line408" />
    <line
       x1="288.345947"
       y1="388.091797"
       x2="288.351929"
       y2="388.372253"
       id="line410" />
    <line
       x1="288.351929"
       y1="388.372253"
       x2="288.357666"
       y2="388.652740"
       id="line412" />
    <line
       x1="288.357666"
       y1="388.652740"
       x2="288.363220"
       y2="388.933197"
       id="line414" />
    <line
       x1="288.363220"
       y1="388.933197"
       x2="288.368591"
       y2="389.213684"
       id="line416" />
    <line
       x1="288.368591"
       y1="389.213684"
       x2="288.373718"
       y2="389.494141"
       id="line418" />
    <line
       x1="288.373718"
       y1="389.494141"
       x2="288.378662"
       y2="389.774628"
       id="line420" />
    <line
       x1="288.378662"
       y1="389.774628"
       x2="288.383362"
       y2="390.055115"
       id="line422" />
    <line
       x1="288.383362"
       y1="390.055115"
       x2="288.387878"
       y2="390.335602"
       id="line424" />
    <line
       x1="288.387878"
       y1="390.335602"
       x2="288.392151"
       y2="390.616089"
       id="line426" />
    <line
       x1="288.392151"
       y1="390.616089"
       x2="288.396240"
       y2="390.896606"
       id="line428" />
    <line
       x1="288.396240"
       y1="390.896606"
       x2="288.400146"
       y2="391.177094"
       id="line430" />
    <line
       x1="288.400146"
       y1="391.177094"
       x2="288.403809"
       y2="391.457581"
       id="line432" />
    <line
       x1="288.403809"
       y1="391.457581"
       x2="288.407288"
       y2="391.738098"
       id="line434" />
    <line
       x1="288.407288"
       y1="391.738098"
       x2="288.410522"
       y2="392.018616"
       id="line436" />
    <line
       x1="288.410522"
       y1="392.018616"
       x2="288.413574"
       y2="392.299103"
       id="line438" />
    <line
       x1="288.413574"
       y1="392.299103"
       x2="288.416382"
       y2="392.579620"
       id="line440" />
    <line
       x1="288.416382"
       y1="392.579620"
       x2="288.419006"
       y2="392.860138"
       id="line442" />
    <line
       x1="288.419006"
       y1="392.860138"
       x2="288.421387"
       y2="393.140656"
       id="line444" />
    <line
       x1="288.421387"
       y1="393.140656"
       x2="288.423584"
       y2="393.421173"
       id="line446" />
    <line
       x1="288.423584"
       y1="393.421173"
       x2="288.425598"
       y2="393.701691"
       id="line448" />
    <line
       x1="288.425598"
       y1="393.701691"
       x2="288.427368"
       y2="393.982208"
       id="line450" />
    <line
       x1="288.427368"
       y1="393.982208"
       x2="288.428955"
       y2="394.262726"
       id="line452" />
    <line
       x1="288.428955"
       y1="394.262726"
       x2="288.430298"
       y2="394.543243"
       id="line454" />
    <line
       x1="288.430298"
       y1="394.543243"
       x2="288.431458"
       y2="394.823792"
       id="line456" />
    <line
       x1="288.431458"
       y1="394.823792"
       x2="288.432434"
       y2="395.104309"
       id="line458" />
    <line
       x1="288.432434"
       y1="395.104309"
       x2="288.433167"
       y2="395.384827"
       id="line460" />
    <line
       x1="288.433167"
       y1="395.384827"
       x2="288.433655"
       y2="395.665344"
       id="line462" />
    <line
       x1="288.433655"
       y1="395.665344"
       x2="288.433960"
       y2="395.945862"
       id="line464" />
    <line
       x1="288.433960"
       y1="395.945862"
       x2="288.434082"
       y2="396.226410"
       id="line466" />
  </g>
  <g
     stroke="rgb(0,128,255)"
     stroke-width="1"
     id="g872">
    <line
       x1="280.591431"
       y1="386.632355"
       x2="280.591431"
       y2="416.037750"
       id="line654" />
    <line
       x1="288.434082"
       y1="396.226410"
       x2="288.434082"
       y2="416.037750"
       id="line656" />
    <line
       x1="279.855652"
       y1="363.912476"
       x2="291.218933"
       y2="347.683990"
       id="line658" />
    <line
       x1="150.027771"
       y1="273.006042"
       x2="161.391098"
       y2="256.777557"
       id="line660" />
    <line
       x1="264.742371"
       y1="412.075470"
       x2="280.591431"
       y2="412.075470"
       id="line662" />
    <line
       x1="280.591431"
       y1="412.075470"
       x2="276.629150"
       y2="409.698120"
       id="line664" />
    <line
       x1="280.591431"
       y1="412.075470"
       x2="276.629150"
       y2="414.452820"
       id="line666" />
    <line
       x1="304.283142"
       y1="412.075470"
       x2="288.434082"
       y2="412.075470"
       id="line668" />
    <line
       x1="288.434082"
       y1="412.075470"
       x2="292.396362"
       y2="414.452820"
       id="line670" />
    <line
       x1="288.434082"
       y1="412.075470"
       x2="292.396362"
       y2="409.698120"
       id="line672" />
    <line
       x1="155.709427"
       y1="264.891785"
       x2="285.537292"
       y2="355.798218"
       id="line674" />
    <line
       x1="285.537292"
       y1="355.798218"
       x2="283.655212"
       y2="351.578156"
       id="line676" />
    <line
       x1="285.537292"
       y1="355.798218"
       x2="280.928040"
       y2="355.472992"
       id="line678" />
    <line
       x1="155.709427"
       y1="264.891785"
       x2="160.318710"
       y2="265.217041"
       id="line680" />
    <line
       x1="155.709427"
       y1="264.891785"
       x2="157.591537"
       y2="269.111877"
       id="line682" />
    <line
       x1="212.669083"
       y1="321.704956"
       x2="203.578415"
       y2="334.687744"
       id="line684" />
    <line
       x1="203.578415"
       y1="334.687744"
       x2="207.798508"
       y2="332.805634"
       id="line686" />
    <line
       x1="203.578415"
       y1="334.687744"
       x2="203.903641"
       y2="330.078430"
       id="line688" />
    <line
       x1="189.942398"
       y1="354.161896"
       x2="199.033066"
       y2="341.179108"
       id="line690" />
    <line
       x1="199.033066"
       y1="341.179108"
       x2="194.813004"
       y2="343.061218"
       id="line692" />
    <line
       x1="199.033066"
       y1="341.179108"
       x2="198.707840"
       y2="345.788391"
       id="line694" />
    <line
       x1="131.218491"
       y1="265.564636"
       x2="127.256210"
       y2="258.701782"
       id="line696" />
    <line
       x1="127.256210"
       y1="258.701782"
       x2="127.217346"
       y2="261.011841"
       id="line698" />
    <line
       x1="127.256210"
       y1="258.701782"
       x2="129.276199"
       y2="259.823181"
       id="line700" />
    <line
       x1="135.180756"
       y1="272.427490"
       x2="139.143036"
       y2="279.290344"
       id="line702" />
    <line
       x1="139.143036"
       y1="279.290344"
       x2="139.181900"
       y2="276.980286"
       id="line704" />
    <line
       x1="139.143036"
       y1="279.290344"
       x2="137.123047"
       y2="278.168945"
       id="line706" />
    <line
       x1="94.9421844"
       y1="167.810257"
       x2="110.730927"
       y2="166.428909"
       id="line708" />
    <line
       x1="110.730927"
       y1="166.428909"
       x2="106.576553"
       y2="164.405930"
       id="line710" />
    <line
       x1="110.730927"
       y1="166.428909"
       x2="106.990936"
       y2="169.142563"
       id="line712" />
    <line
       x1="146.255585"
       y1="163.320923"
       x2="130.466843"
       y2="164.702240"
       id="line714" />
    <line
       x1="130.466843"
       y1="164.702240"
       x2="134.621216"
       y2="166.725220"
       id="line716" />
    <line
       x1="130.466843"
       y1="164.702240"
       x2="134.206833"
       y2="161.988586"
       id="line718" />
    <line
       x1="101.136566"
       y1="197.552750"
       x2="121.725082"
       y2="209.439545"
       id="line720" />
    <line
       x1="121.725082"
       y1="209.439545"
       x2="118.360977"
       y2="203.379562"
       id="line722" />
    <line
       x1="121.725082"
       y1="209.439545"
       x2="114.794937"
       y2="209.556122"
       id="line724" />
    <line
       x1="92.3554688"
       y1="78.5706177"
       x2="112.944000"
       y2="90.4573975"
       id="line726" />
    <line
       x1="112.944000"
       y1="90.4573975"
       x2="109.579880"
       y2="84.3973999"
       id="line728" />
    <line
       x1="112.944000"
       y1="90.4573975"
       x2="106.013855"
       y2="90.5739746"
       id="line730" />
    <line
       x1="138.138367"
       y1="118.234985"
       x2="158.726898"
       y2="106.348206"
       id="line750" />
    <line
       x1="158.726898"
       y1="106.348206"
       x2="151.796753"
       y2="106.231628"
       id="line752" />
    <line
       x1="158.726898"
       y1="106.348206"
       x2="155.362793"
       y2="112.408173"
       id="line754" />
    <line
       x1="184.847794"
       y1="222.932068"
       x2="183.401566"
       y2="221.245758"
       id="line756" />
    <line
       x1="183.401566"
       y1="221.245758"
       x2="181.921280"
       y2="219.591827"
       id="line758" />
    <line
       x1="181.921280"
       y1="219.591827"
       x2="180.407700"
       y2="217.970917"
       id="line760" />
    <line
       x1="180.407700"
       y1="217.970917"
       x2="178.861496"
       y2="216.383728"
       id="line762" />
    <line
       x1="178.861496"
       y1="216.383728"
       x2="177.283463"
       y2="214.830917"
       id="line764" />
    <line
       x1="177.283463"
       y1="214.830917"
       x2="175.674362"
       y2="213.313095"
       id="line766" />
    <line
       x1="175.674362"
       y1="213.313095"
       x2="174.034927"
       y2="211.830917"
       id="line768" />
    <line
       x1="174.034927"
       y1="211.830917"
       x2="172.365982"
       y2="210.384964"
       id="line770" />
    <line
       x1="172.365982"
       y1="210.384964"
       x2="170.668350"
       y2="208.975815"
       id="line772" />
    <line
       x1="170.668350"
       y1="208.975815"
       x2="168.942764"
       y2="207.604034"
       id="line774" />
    <line
       x1="168.942764"
       y1="207.604034"
       x2="167.190094"
       y2="206.270187"
       id="line776" />
    <line
       x1="167.190094"
       y1="206.270187"
       x2="165.411179"
       y2="204.974823"
       id="line778" />
    <line
       x1="165.411179"
       y1="204.974823"
       x2="163.606842"
       y2="203.718414"
       id="line780" />
    <line
       x1="163.606842"
       y1="203.718414"
       x2="161.777954"
       y2="202.501480"
       id="line782" />
    <line
       x1="161.777954"
       y1="202.501480"
       x2="159.925339"
       y2="201.324493"
       id="line784" />
    <line
       x1="159.925339"
       y1="201.324493"
       x2="158.049896"
       y2="200.187912"
       id="line786" />
    <line
       x1="158.049896"
       y1="200.187912"
       x2="156.152496"
       y2="199.092178"
       id="line788" />
    <line
       x1="156.152496"
       y1="199.092178"
       x2="154.234039"
       y2="198.037704"
       id="line790" />
    <line
       x1="154.234039"
       y1="198.037704"
       x2="152.295410"
       y2="197.024902"
       id="line792" />
    <line
       x1="152.295410"
       y1="197.024902"
       x2="150.337509"
       y2="196.054138"
       id="line794" />
    <line
       x1="150.337509"
       y1="196.054138"
       x2="148.361252"
       y2="195.125793"
       id="line796" />
    <line
       x1="148.361252"
       y1="195.125793"
       x2="146.367569"
       y2="194.240189"
       id="line798" />
    <line
       x1="146.367569"
       y1="194.240189"
       x2="144.357361"
       y2="193.397644"
       id="line800" />
    <line
       x1="144.357361"
       y1="193.397644"
       x2="142.331573"
       y2="192.598495"
       id="line802" />
    <line
       x1="142.331573"
       y1="192.598495"
       x2="140.291122"
       y2="191.842987"
       id="line804" />
    <line
       x1="140.291122"
       y1="191.842987"
       x2="138.236969"
       y2="191.131409"
       id="line806" />
    <line
       x1="138.236969"
       y1="191.131409"
       x2="136.170029"
       y2="190.464005"
       id="line808" />
    <line
       x1="136.170029"
       y1="190.464005"
       x2="134.091293"
       y2="189.840958"
       id="line810" />
    <line
       x1="134.091293"
       y1="189.840958"
       x2="132.001678"
       y2="189.262497"
       id="line812" />
    <line
       x1="201.958908"
       y1="309.368591"
       x2="202.481430"
       y2="307.281464"
       id="line814" />
    <line
       x1="202.481430"
       y1="307.281464"
       x2="202.960526"
       y2="305.182129"
       id="line816" />
    <line
       x1="202.960526"
       y1="305.182129"
       x2="203.395950"
       y2="303.071503"
       id="line818" />
    <line
       x1="203.395950"
       y1="303.071503"
       x2="203.787369"
       y2="300.950500"
       id="line820" />
    <line
       x1="203.787369"
       y1="300.950500"
       x2="204.134598"
       y2="298.820068"
       id="line822" />
    <line
       x1="204.134598"
       y1="298.820068"
       x2="204.437393"
       y2="296.681061"
       id="line824" />
    <line
       x1="204.437393"
       y1="296.681061"
       x2="204.695572"
       y2="294.534454"
       id="line826" />
    <line
       x1="204.695572"
       y1="294.534454"
       x2="204.908920"
       y2="292.381165"
       id="line828" />
    <line
       x1="204.908920"
       y1="292.381165"
       x2="205.077255"
       y2="290.222137"
       id="line830" />
    <line
       x1="205.077255"
       y1="290.222137"
       x2="205.200485"
       y2="288.058289"
       id="line832" />
    <line
       x1="205.200485"
       y1="288.058289"
       x2="205.278458"
       y2="285.890625"
       id="line834" />
    <line
       x1="205.278458"
       y1="285.890625"
       x2="205.311050"
       y2="283.720001"
       id="line836" />
    <line
       x1="205.311050"
       y1="283.720001"
       x2="205.298172"
       y2="281.547424"
       id="line838" />
    <line
       x1="205.298172"
       y1="281.547424"
       x2="205.239792"
       y2="279.373840"
       id="line840" />
    <line
       x1="205.239792"
       y1="279.373840"
       x2="205.135818"
       y2="277.200226"
       id="line842" />
    <line
       x1="205.135818"
       y1="277.200226"
       x2="204.986252"
       y2="275.027496"
       id="line844" />
    <line
       x1="204.986252"
       y1="275.027496"
       x2="204.791061"
       y2="272.856628"
       id="line846" />
    <line
       x1="204.791061"
       y1="272.856628"
       x2="204.550278"
       y2="270.688599"
       id="line848" />
    <line
       x1="204.550278"
       y1="270.688599"
       x2="204.263962"
       y2="268.524292"
       id="line850" />
    <line
       x1="204.263962"
       y1="268.524292"
       x2="203.932114"
       y2="266.364746"
       id="line852" />
    <line
       x1="203.932114"
       y1="266.364746"
       x2="203.554825"
       y2="264.210938"
       id="line854" />
    <line
       x1="203.554825"
       y1="264.210938"
       x2="203.132248"
       y2="262.063721"
       id="line856" />
    <line
       x1="203.132248"
       y1="262.063721"
       x2="202.664352"
       y2="259.924103"
       id="line858" />
    <line
       x1="202.664352"
       y1="259.924103"
       x2="202.151413"
       y2="257.793091"
       id="line860" />
    <line
       x1="202.151413"
       y1="257.793091"
       x2="201.593521"
       y2="255.671539"
       id="line862" />
    <line
       x1="201.593521"
       y1="255.671539"
       x2="200.990860"
       y2="253.560455"
       id="line864" />
    <line
       x1="200.990860"
       y1="253.560455"
       x2="200.343613"
       y2="251.460785"
       id="line866" />
    <line
       x1="200.343613"
       y1="251.460785"
       x2="199.652023"
       y2="249.373444"
       id="line868" />
    <line
       x1="199.652023"
       y1="249.373444"
       x2="198.916275"
       y2="247.299408"
       id="line870" />
  </g>
  <text
     x="142.877853"
     y="109.498199"
     text-anchor="middle"
     id="text874">HA</text>
  <text
     x="192.147873"
     y="238.112259"
     text-anchor="middle"
     id="text876">ALPHA</text>
  <text
     x="85.2081604"
     y="77.7583618"
     text-anchor="middle"
     id="text882">BS</text>
  <text
     x="93.9892273"
     y="196.740463"
     text-anchor="middle"
     id="text884">NM</text>
  <text
     x="142.353622"
     y="159.927734"
     text-anchor="middle"
     id="text886">HM</text>
  <text
     x="135.180771"
     y="274.515808"
     text-anchor="middle"
     id="text888">HS</text>
  <text
     x="185.319595"
     y="367.404724"
     text-anchor="middle"
     id="text890">DE_FEM</text>
  <text
     x="220.623367"
     y="303.189240"
     text-anchor="middle"
     id="text892">BM</text>
  <text
     x="298.339722"
     y="407.300934"
     text-anchor="middle"
     id="text896">BR</text>
</svg>
