<?xml version="1.0" encoding="UTF-8" standalone="no"?>
<svg
   encoding="UTF-8"
   viewBox="170 20 300 300"
   version="1.1"
   id="svg770"
   xmlns="http://www.w3.org/2000/svg"
   xmlns:svg="http://www.w3.org/2000/svg">
  <defs
     id="defs4">
    <style
       type="text/css"
       id="style2"><![CDATA[text { font-family:monospace;font-size:10;} svg { font-size:8;}
]]></style>
  </defs>
  <g
     stroke="rgb(0,0,0)"
     stroke-width="0.1"
     id="g444">
    <line
       x1="330.952850"
       y1="293.060669"
       x2="327.428864"
       y2="292.168304"
       id="line6" />
    <line
       x1="327.428864"
       y1="292.168304"
       x2="323.881653"
       y2="291.373352"
       id="line8" />
    <line
       x1="323.881653"
       y1="291.373352"
       x2="320.313904"
       y2="290.676453"
       id="line10" />
    <line
       x1="320.313904"
       y1="290.676453"
       x2="316.728271"
       y2="290.078125"
       id="line12" />
    <line
       x1="316.728271"
       y1="290.078125"
       x2="313.127533"
       y2="289.578796"
       id="line14" />
    <line
       x1="313.127533"
       y1="289.578796"
       x2="309.514404"
       y2="289.178894"
       id="line16" />
    <line
       x1="309.514404"
       y1="289.178894"
       x2="305.891602"
       y2="288.878723"
       id="line18" />
    <line
       x1="305.891602"
       y1="288.878723"
       x2="302.261932"
       y2="288.678467"
       id="line20" />
    <line
       x1="302.261932"
       y1="288.678467"
       x2="298.628113"
       y2="288.578278"
       id="line22" />
    <line
       x1="298.628113"
       y1="288.578278"
       x2="294.992920"
       y2="288.578278"
       id="line24" />
    <line
       x1="294.992920"
       y1="288.578278"
       x2="291.359100"
       y2="288.678467"
       id="line26" />
    <line
       x1="291.359100"
       y1="288.678467"
       x2="287.729401"
       y2="288.878723"
       id="line28" />
    <line
       x1="287.729401"
       y1="288.878723"
       x2="284.106628"
       y2="289.178894"
       id="line30" />
    <line
       x1="284.106628"
       y1="289.178894"
       x2="280.493500"
       y2="289.578796"
       id="line32" />
    <line
       x1="280.493500"
       y1="289.578796"
       x2="276.892761"
       y2="290.078125"
       id="line34" />
    <line
       x1="276.892761"
       y1="290.078125"
       x2="273.307129"
       y2="290.676453"
       id="line36" />
    <line
       x1="273.307129"
       y1="290.676453"
       x2="269.739349"
       y2="291.373352"
       id="line38" />
    <line
       x1="269.739349"
       y1="291.373352"
       x2="266.192139"
       y2="292.168304"
       id="line40" />
    <line
       x1="266.192139"
       y1="292.168304"
       x2="262.668182"
       y2="293.060669"
       id="line42" />
    <line
       x1="382.166321"
       y1="101.929382"
       x2="378.254333"
       y2="100.899414"
       id="line44" />
    <line
       x1="378.254333"
       y1="100.899414"
       x2="374.329956"
       y2="99.9175110"
       id="line46" />
    <line
       x1="374.329956"
       y1="99.9175110"
       x2="370.393738"
       y2="98.9837952"
       id="line48" />
    <line
       x1="370.393738"
       y1="98.9837952"
       x2="366.446259"
       y2="98.0984192"
       id="line50" />
    <line
       x1="366.446259"
       y1="98.0984192"
       x2="362.488129"
       y2="97.2614746"
       id="line52" />
    <line
       x1="362.488129"
       y1="97.2614746"
       x2="358.519958"
       y2="96.4731750"
       id="line54" />
    <line
       x1="358.519958"
       y1="96.4731750"
       x2="354.542328"
       y2="95.7335510"
       id="line56" />
    <line
       x1="354.542328"
       y1="95.7335510"
       x2="350.555847"
       y2="95.0427856"
       id="line58" />
    <line
       x1="350.555847"
       y1="95.0427856"
       x2="346.561096"
       y2="94.4009399"
       id="line60" />
    <line
       x1="346.561096"
       y1="94.4009399"
       x2="342.558685"
       y2="93.8081665"
       id="line62" />
    <line
       x1="342.558685"
       y1="93.8081665"
       x2="338.549194"
       y2="93.2644653"
       id="line64" />
    <line
       x1="338.549194"
       y1="93.2644653"
       x2="334.533295"
       y2="92.7699890"
       id="line66" />
    <line
       x1="334.533295"
       y1="92.7699890"
       x2="330.511505"
       y2="92.3248291"
       id="line68" />
    <line
       x1="330.511505"
       y1="92.3248291"
       x2="326.484497"
       y2="91.9289856"
       id="line70" />
    <line
       x1="326.484497"
       y1="91.9289856"
       x2="322.452850"
       y2="91.5825806"
       id="line72" />
    <line
       x1="322.452850"
       y1="91.5825806"
       x2="318.417145"
       y2="91.2856445"
       id="line74" />
    <line
       x1="318.417145"
       y1="91.2856445"
       x2="314.378021"
       y2="91.0382080"
       id="line76" />
    <line
       x1="314.378021"
       y1="91.0382080"
       x2="310.336090"
       y2="90.8403625"
       id="line78" />
    <line
       x1="310.336090"
       y1="90.8403625"
       x2="306.291931"
       y2="90.6920776"
       id="line80" />
    <line
       x1="211.454681"
       y1="101.929382"
       x2="215.366653"
       y2="100.899445"
       id="line82" />
    <line
       x1="215.366653"
       y1="100.899445"
       x2="219.291046"
       y2="99.9175110"
       id="line84" />
    <line
       x1="219.291046"
       y1="99.9175110"
       x2="223.227280"
       y2="98.9837952"
       id="line86" />
    <line
       x1="223.227280"
       y1="98.9837952"
       x2="227.174744"
       y2="98.0984192"
       id="line88" />
    <line
       x1="227.174744"
       y1="98.0984192"
       x2="231.132874"
       y2="97.2614746"
       id="line90" />
    <line
       x1="231.132874"
       y1="97.2614746"
       x2="235.101044"
       y2="96.4731750"
       id="line92" />
    <line
       x1="235.101044"
       y1="96.4731750"
       x2="239.078674"
       y2="95.7335510"
       id="line94" />
    <line
       x1="239.078674"
       y1="95.7335510"
       x2="243.065170"
       y2="95.0427856"
       id="line96" />
    <line
       x1="243.065170"
       y1="95.0427856"
       x2="247.059921"
       y2="94.4009705"
       id="line98" />
    <line
       x1="247.059921"
       y1="94.4009705"
       x2="251.062332"
       y2="93.8081665"
       id="line100" />
    <line
       x1="251.062332"
       y1="93.8081665"
       x2="255.071793"
       y2="93.2644653"
       id="line102" />
    <line
       x1="255.071793"
       y1="93.2644653"
       x2="259.087708"
       y2="92.7699890"
       id="line104" />
    <line
       x1="259.087708"
       y1="92.7699890"
       x2="263.109497"
       y2="92.3248291"
       id="line106" />
    <line
       x1="263.109497"
       y1="92.3248291"
       x2="267.136505"
       y2="91.9289856"
       id="line108" />
    <line
       x1="267.136505"
       y1="91.9289856"
       x2="271.168152"
       y2="91.5825806"
       id="line110" />
    <line
       x1="271.168152"
       y1="91.5825806"
       x2="275.203857"
       y2="91.2856445"
       id="line112" />
    <line
       x1="275.203857"
       y1="91.2856445"
       x2="279.242981"
       y2="91.0382080"
       id="line114" />
    <line
       x1="279.242981"
       y1="91.0382080"
       x2="283.284912"
       y2="90.8403625"
       id="line116" />
    <line
       x1="283.284912"
       y1="90.8403625"
       x2="287.329071"
       y2="90.6920776"
       id="line118" />
    <line
       x1="382.166321"
       y1="101.929382"
       x2="330.952850"
       y2="293.060669"
       id="line120" />
    <line
       x1="262.668182"
       y1="293.060669"
       x2="211.454681"
       y2="101.929382"
       id="line122" />
    <line
       x1="306.291962"
       y1="90.6920471"
       x2="306.291962"
       y2="98.9367676"
       id="line124" />
    <line
       x1="287.329071"
       y1="90.6920471"
       x2="287.329071"
       y2="98.9367676"
       id="line126" />
    <line
       x1="302.990295"
       y1="251.464432"
       x2="302.340027"
       y2="251.441925"
       id="line128" />
    <line
       x1="302.340027"
       y1="251.441925"
       x2="301.689697"
       y2="251.421906"
       id="line130" />
    <line
       x1="301.689697"
       y1="251.421906"
       x2="301.039276"
       y2="251.404373"
       id="line132" />
    <line
       x1="301.039276"
       y1="251.404373"
       x2="300.388824"
       y2="251.389359"
       id="line134" />
    <line
       x1="300.388824"
       y1="251.389359"
       x2="299.738281"
       y2="251.376846"
       id="line136" />
    <line
       x1="299.738281"
       y1="251.376846"
       x2="299.087708"
       y2="251.366821"
       id="line138" />
    <line
       x1="299.087708"
       y1="251.366821"
       x2="298.437103"
       y2="251.359314"
       id="line140" />
    <line
       x1="298.437103"
       y1="251.359314"
       x2="297.786499"
       y2="251.354309"
       id="line142" />
    <line
       x1="297.786499"
       y1="251.354309"
       x2="297.135834"
       y2="251.351807"
       id="line144" />
    <line
       x1="297.135834"
       y1="251.351807"
       x2="296.485199"
       y2="251.351807"
       id="line146" />
    <line
       x1="296.485199"
       y1="251.351807"
       x2="295.834564"
       y2="251.354309"
       id="line148" />
    <line
       x1="295.834564"
       y1="251.354309"
       x2="295.183929"
       y2="251.359314"
       id="line150" />
    <line
       x1="295.183929"
       y1="251.359314"
       x2="294.533325"
       y2="251.366821"
       id="line152" />
    <line
       x1="294.533325"
       y1="251.366821"
       x2="293.882751"
       y2="251.376846"
       id="line154" />
    <line
       x1="293.882751"
       y1="251.376846"
       x2="293.232208"
       y2="251.389359"
       id="line156" />
    <line
       x1="293.232208"
       y1="251.389359"
       x2="292.581757"
       y2="251.404373"
       id="line158" />
    <line
       x1="292.581757"
       y1="251.404373"
       x2="291.931335"
       y2="251.421906"
       id="line160" />
    <line
       x1="291.931335"
       y1="251.421906"
       x2="291.281006"
       y2="251.441925"
       id="line162" />
    <line
       x1="291.281006"
       y1="251.441925"
       x2="290.630737"
       y2="251.464432"
       id="line164" />
    <line
       x1="266.178833"
       y1="230.456604"
       x2="266.525208"
       y2="232.271408"
       id="line166" />
    <line
       x1="266.525208"
       y1="232.271408"
       x2="267.006073"
       y2="234.055298"
       id="line168" />
    <line
       x1="267.006073"
       y1="234.055298"
       x2="267.618744"
       y2="235.798309"
       id="line170" />
    <line
       x1="267.618744"
       y1="235.798309"
       x2="268.359833"
       y2="237.490723"
       id="line172" />
    <line
       x1="268.359833"
       y1="237.490723"
       x2="269.225189"
       y2="239.123108"
       id="line174" />
    <line
       x1="269.225189"
       y1="239.123108"
       x2="270.209961"
       y2="240.686325"
       id="line176" />
    <line
       x1="270.209961"
       y1="240.686325"
       x2="271.308655"
       y2="242.171692"
       id="line178" />
    <line
       x1="271.308655"
       y1="242.171692"
       x2="272.515198"
       y2="243.570892"
       id="line180" />
    <line
       x1="272.515198"
       y1="243.570892"
       x2="273.822784"
       y2="244.876144"
       id="line182" />
    <line
       x1="273.822784"
       y1="244.876144"
       x2="275.224182"
       y2="246.080139"
       id="line184" />
    <line
       x1="275.224182"
       y1="246.080139"
       x2="276.711517"
       y2="247.176178"
       id="line186" />
    <line
       x1="276.711517"
       y1="247.176178"
       x2="278.276520"
       y2="248.158112"
       id="line188" />
    <line
       x1="278.276520"
       y1="248.158112"
       x2="279.910461"
       y2="249.020523"
       id="line190" />
    <line
       x1="279.910461"
       y1="249.020523"
       x2="281.604218"
       y2="249.758530"
       id="line192" />
    <line
       x1="281.604218"
       y1="249.758530"
       x2="283.348328"
       y2="250.368073"
       id="line194" />
    <line
       x1="283.348328"
       y1="250.368073"
       x2="285.133087"
       y2="250.845718"
       id="line196" />
    <line
       x1="285.133087"
       y1="250.845718"
       x2="286.948517"
       y2="251.188812"
       id="line198" />
    <line
       x1="286.948517"
       y1="251.188812"
       x2="288.784485"
       y2="251.395432"
       id="line200" />
    <line
       x1="288.784485"
       y1="251.395432"
       x2="290.630737"
       y2="251.464432"
       id="line202" />
    <line
       x1="302.990295"
       y1="251.464432"
       x2="304.836578"
       y2="251.395432"
       id="line204" />
    <line
       x1="304.836578"
       y1="251.395432"
       x2="306.672546"
       y2="251.188812"
       id="line206" />
    <line
       x1="306.672546"
       y1="251.188812"
       x2="308.487976"
       y2="250.845718"
       id="line208" />
    <line
       x1="308.487976"
       y1="250.845718"
       x2="310.272705"
       y2="250.368073"
       id="line210" />
    <line
       x1="310.272705"
       y1="250.368073"
       x2="312.016846"
       y2="249.758530"
       id="line212" />
    <line
       x1="312.016846"
       y1="249.758530"
       x2="313.710571"
       y2="249.020508"
       id="line214" />
    <line
       x1="313.710571"
       y1="249.020508"
       x2="315.344513"
       y2="248.158112"
       id="line216" />
    <line
       x1="315.344513"
       y1="248.158112"
       x2="316.909515"
       y2="247.176163"
       id="line218" />
    <line
       x1="316.909515"
       y1="247.176163"
       x2="318.396881"
       y2="246.080124"
       id="line220" />
    <line
       x1="318.396881"
       y1="246.080124"
       x2="319.798248"
       y2="244.876144"
       id="line222" />
    <line
       x1="319.798248"
       y1="244.876144"
       x2="321.105865"
       y2="243.570892"
       id="line224" />
    <line
       x1="321.105865"
       y1="243.570892"
       x2="322.312378"
       y2="242.171692"
       id="line226" />
    <line
       x1="322.312378"
       y1="242.171692"
       x2="323.411102"
       y2="240.686325"
       id="line228" />
    <line
       x1="323.411102"
       y1="240.686325"
       x2="324.395874"
       y2="239.123093"
       id="line230" />
    <line
       x1="324.395874"
       y1="239.123093"
       x2="325.261200"
       y2="237.490723"
       id="line232" />
    <line
       x1="325.261200"
       y1="237.490723"
       x2="326.002289"
       y2="235.798294"
       id="line234" />
    <line
       x1="326.002289"
       y1="235.798294"
       x2="326.614960"
       y2="234.055298"
       id="line236" />
    <line
       x1="326.614960"
       y1="234.055298"
       x2="327.095825"
       y2="232.271408"
       id="line238" />
    <line
       x1="327.095825"
       y1="232.271408"
       x2="327.442200"
       y2="230.456604"
       id="line240" />
    <line
       x1="342.156555"
       y1="136.547791"
       x2="341.980865"
       y2="135.603851"
       id="line242" />
    <line
       x1="341.980865"
       y1="135.603851"
       x2="341.769196"
       y2="134.667938"
       id="line244" />
    <line
       x1="341.769196"
       y1="134.667938"
       x2="341.521881"
       y2="133.741333"
       id="line246" />
    <line
       x1="341.521881"
       y1="133.741333"
       x2="341.239349"
       y2="132.825500"
       id="line248" />
    <line
       x1="341.239349"
       y1="132.825500"
       x2="340.922028"
       y2="131.921722"
       id="line250" />
    <line
       x1="340.922028"
       y1="131.921722"
       x2="340.570465"
       y2="131.031281"
       id="line252" />
    <line
       x1="340.570465"
       y1="131.031281"
       x2="340.185211"
       y2="130.155548"
       id="line254" />
    <line
       x1="340.185211"
       y1="130.155548"
       x2="339.766846"
       y2="129.295746"
       id="line256" />
    <line
       x1="339.766846"
       y1="129.295746"
       x2="339.316040"
       y2="128.453125"
       id="line258" />
    <line
       x1="339.316040"
       y1="128.453125"
       x2="338.833527"
       y2="127.628937"
       id="line260" />
    <line
       x1="338.833527"
       y1="127.628937"
       x2="338.320007"
       y2="126.824371"
       id="line262" />
    <line
       x1="338.320007"
       y1="126.824371"
       x2="337.776306"
       y2="126.040527"
       id="line264" />
    <line
       x1="337.776306"
       y1="126.040527"
       x2="337.203247"
       y2="125.278625"
       id="line266" />
    <line
       x1="337.203247"
       y1="125.278625"
       x2="336.601746"
       y2="124.539734"
       id="line268" />
    <line
       x1="336.601746"
       y1="124.539734"
       x2="335.972656"
       y2="123.824860"
       id="line270" />
    <line
       x1="335.972656"
       y1="123.824860"
       x2="335.316956"
       y2="123.135101"
       id="line272" />
    <line
       x1="335.316956"
       y1="123.135101"
       x2="334.635681"
       y2="122.471436"
       id="line274" />
    <line
       x1="334.635681"
       y1="122.471436"
       x2="333.929871"
       y2="121.834778"
       id="line276" />
    <line
       x1="333.929871"
       y1="121.834778"
       x2="333.200562"
       y2="121.226044"
       id="line278" />
    <line
       x1="260.420502"
       y1="121.226044"
       x2="259.691162"
       y2="121.834778"
       id="line280" />
    <line
       x1="259.691162"
       y1="121.834778"
       x2="258.985352"
       y2="122.471405"
       id="line282" />
    <line
       x1="258.985352"
       y1="122.471405"
       x2="258.304077"
       y2="123.135101"
       id="line284" />
    <line
       x1="258.304077"
       y1="123.135101"
       x2="257.648407"
       y2="123.824860"
       id="line286" />
    <line
       x1="257.648407"
       y1="123.824860"
       x2="257.019318"
       y2="124.539734"
       id="line288" />
    <line
       x1="257.019318"
       y1="124.539734"
       x2="256.417786"
       y2="125.278625"
       id="line290" />
    <line
       x1="256.417786"
       y1="125.278625"
       x2="255.844727"
       y2="126.040527"
       id="line292" />
    <line
       x1="255.844727"
       y1="126.040527"
       x2="255.301025"
       y2="126.824371"
       id="line294" />
    <line
       x1="255.301025"
       y1="126.824371"
       x2="254.787506"
       y2="127.628937"
       id="line296" />
    <line
       x1="254.787506"
       y1="127.628937"
       x2="254.304993"
       y2="128.453125"
       id="line298" />
    <line
       x1="254.304993"
       y1="128.453125"
       x2="253.854187"
       y2="129.295746"
       id="line300" />
    <line
       x1="253.854187"
       y1="129.295746"
       x2="253.435837"
       y2="130.155548"
       id="line302" />
    <line
       x1="253.435837"
       y1="130.155548"
       x2="253.050568"
       y2="131.031281"
       id="line304" />
    <line
       x1="253.050568"
       y1="131.031281"
       x2="252.699005"
       y2="131.921722"
       id="line306" />
    <line
       x1="252.699005"
       y1="131.921722"
       x2="252.381699"
       y2="132.825500"
       id="line308" />
    <line
       x1="252.381699"
       y1="132.825500"
       x2="252.099152"
       y2="133.741333"
       id="line310" />
    <line
       x1="252.099152"
       y1="133.741333"
       x2="251.851852"
       y2="134.667938"
       id="line312" />
    <line
       x1="251.851852"
       y1="134.667938"
       x2="251.640167"
       y2="135.603851"
       id="line314" />
    <line
       x1="251.640167"
       y1="135.603851"
       x2="251.464478"
       y2="136.547791"
       id="line316" />
    <line
       x1="306.291962"
       y1="98.9367676"
       x2="333.200531"
       y2="121.226044"
       id="line318" />
    <line
       x1="287.329071"
       y1="98.9367676"
       x2="260.420502"
       y2="121.226044"
       id="line320" />
    <line
       x1="327.442200"
       y1="230.456604"
       x2="342.156555"
       y2="136.547791"
       id="line322" />
    <line
       x1="266.178833"
       y1="230.456604"
       x2="251.464462"
       y2="136.547791"
       id="line324" />
    <line
       x1="306.291931"
       y1="90.6920776"
       x2="305.294128"
       y2="90.6649170"
       id="line402" />
    <line
       x1="305.294128"
       y1="90.6649170"
       x2="304.296234"
       y2="90.6407471"
       id="line404" />
    <line
       x1="304.296234"
       y1="90.6407471"
       x2="303.298279"
       y2="90.6195984"
       id="line406" />
    <line
       x1="303.298279"
       y1="90.6195984"
       x2="302.300262"
       y2="90.6014709"
       id="line408" />
    <line
       x1="302.300262"
       y1="90.6014709"
       x2="301.302185"
       y2="90.5863953"
       id="line410" />
    <line
       x1="301.302185"
       y1="90.5863953"
       x2="300.304077"
       y2="90.5743103"
       id="line412" />
    <line
       x1="300.304077"
       y1="90.5743103"
       x2="299.305939"
       y2="90.5652466"
       id="line414" />
    <line
       x1="299.305939"
       y1="90.5652466"
       x2="298.307770"
       y2="90.5592346"
       id="line416" />
    <line
       x1="298.307770"
       y1="90.5592346"
       x2="297.309601"
       y2="90.5561829"
       id="line418" />
    <line
       x1="297.309601"
       y1="90.5561829"
       x2="296.311401"
       y2="90.5561829"
       id="line420" />
    <line
       x1="296.311401"
       y1="90.5561829"
       x2="295.313232"
       y2="90.5592346"
       id="line422" />
    <line
       x1="295.313232"
       y1="90.5592346"
       x2="294.315063"
       y2="90.5652466"
       id="line424" />
    <line
       x1="294.315063"
       y1="90.5652466"
       x2="293.316925"
       y2="90.5743103"
       id="line426" />
    <line
       x1="293.316925"
       y1="90.5743103"
       x2="292.318817"
       y2="90.5863953"
       id="line428" />
    <line
       x1="292.318817"
       y1="90.5863953"
       x2="291.320740"
       y2="90.6014709"
       id="line430" />
    <line
       x1="291.320740"
       y1="90.6014709"
       x2="290.322723"
       y2="90.6195984"
       id="line432" />
    <line
       x1="290.322723"
       y1="90.6195984"
       x2="289.324768"
       y2="90.6407471"
       id="line434" />
    <line
       x1="289.324768"
       y1="90.6407471"
       x2="288.326874"
       y2="90.6649170"
       id="line436" />
    <line
       x1="288.326874"
       y1="90.6649170"
       x2="287.329071"
       y2="90.6920776"
       id="line438" />
  </g>
  <g
     stroke="rgb(0,128,255)"
     stroke-width="0.1"
     id="g460">
    <line
       x1="306.291962"
       y1="65.1883545"
       x2="306.291962"
       y2="90.6920471"
       id="line446" />
    <line
       x1="287.329071"
       y1="65.1883545"
       x2="287.329071"
       y2="90.6920471"
       id="line448" />
    <line
       x1="306.291962"
       y1="69.5415649"
       x2="287.329071"
       y2="69.5415649"
       id="line450" />
    <line
       x1="287.329071"
       y1="69.5415649"
       x2="290.956757"
       y2="71.7182007"
       id="line452" />
    <line
       x1="287.329071"
       y1="69.5415649"
       x2="290.956757"
       y2="67.3649597"
       id="line454" />
    <line
       x1="306.291962"
       y1="69.5415649"
       x2="302.664276"
       y2="71.7182007"
       id="line456" />
    <line
       x1="306.291962"
       y1="69.5415649"
       x2="302.664276"
       y2="67.3649597"
       id="line458" />
  </g>
  <text
     x="296.810516"
     y="69.5983582"
     font-size="0.979999840"
     text-anchor="middle"
     id="text462">SW</text>
  <g
     stroke="rgb(0,128,255)"
     stroke-width="0.1"
     id="g478">
    <line
       x1="342.156555"
       y1="50.6776123"
       x2="342.156555"
       y2="136.547791"
       id="line464" />
    <line
       x1="251.464462"
       y1="50.6776123"
       x2="251.464462"
       y2="136.547791"
       id="line466" />
    <line
       x1="342.156555"
       y1="55.0308228"
       x2="251.464462"
       y2="55.0308228"
       id="line468" />
    <line
       x1="251.464462"
       y1="55.0308228"
       x2="255.092148"
       y2="57.2074280"
       id="line470" />
    <line
       x1="251.464462"
       y1="55.0308228"
       x2="255.092148"
       y2="52.8542175"
       id="line472" />
    <line
       x1="342.156555"
       y1="55.0308228"
       x2="338.528870"
       y2="57.2074280"
       id="line474" />
    <line
       x1="342.156555"
       y1="55.0308228"
       x2="338.528870"
       y2="52.8542175"
       id="line476" />
  </g>
  <text
     x="296.810516"
     y="55.0876160"
     font-size="0.979999840"
     text-anchor="middle"
     id="text480">B</text>
  <g
     stroke="rgb(0,128,255)"
     stroke-width="0.1"
     id="g496">
    <line
       x1="306.291962"
       y1="90.6920471"
       x2="428.543732"
       y2="90.6920471"
       id="line482" />
    <line
       x1="306.291962"
       y1="98.9367676"
       x2="393.717957"
       y2="98.9367676"
       id="line484" />
    <line
       x1="389.364746"
       y1="98.9367676"
       x2="389.364746"
       y2="90.6920471"
       id="line486" />
    <line
       x1="389.364746"
       y1="90.6920471"
       x2="387.188110"
       y2="94.3197632"
       id="line488" />
    <line
       x1="389.364746"
       y1="90.6920471"
       x2="391.541351"
       y2="94.3197632"
       id="line490" />
    <line
       x1="389.364746"
       y1="98.9367676"
       x2="387.188110"
       y2="95.3090820"
       id="line492" />
    <line
       x1="389.364746"
       y1="98.9367676"
       x2="391.541351"
       y2="95.3090820"
       id="line494" />
  </g>
  <text
     x="398.071228"
     y="100.598572"
     font-size="0.979999840"
     text-anchor="middle"
     id="text498">H1</text>
  <g
     stroke="rgb(0,128,255)"
     stroke-width="0.1"
     id="g516">
    <line
       x1="344.333191"
       y1="122.656403"
       x2="334.799377"
       y2="183.502197"
       id="line500" />
    <line
       x1="349.162354"
       y1="134.447723"
       x2="319.746246"
       y2="110.081421"
       id="line502" />
    <line
       x1="343.252655"
       y1="129.552521"
       x2="412.581909"
       y2="129.552521"
       id="line504" />
    <line
       x1="408.228699"
       y1="129.552521"
       x2="408.228699"
       y2="90.6920471"
       id="line506" />
    <line
       x1="408.228699"
       y1="90.6920471"
       x2="406.052063"
       y2="94.3197632"
       id="line508" />
    <line
       x1="408.228699"
       y1="90.6920471"
       x2="410.405304"
       y2="94.3197632"
       id="line510" />
    <line
       x1="408.228699"
       y1="129.552521"
       x2="406.052063"
       y2="125.924835"
       id="line512" />
    <line
       x1="408.228699"
       y1="129.552521"
       x2="410.405304"
       y2="125.924835"
       id="line514" />
  </g>
  <text
     x="415.484070"
     y="114.532288"
     font-size="0.979999840"
     text-anchor="middle"
     id="text518">H2</text>
  <g
     stroke="rgb(0,128,255)"
     stroke-width="0.1"
     id="g532">
    <line
       x1="296.810516"
       y1="251.464432"
       x2="428.543732"
       y2="251.464432"
       id="line520" />
    <line
       x1="424.190491"
       y1="251.464432"
       x2="424.190491"
       y2="90.6920471"
       id="line522" />
    <line
       x1="424.190491"
       y1="90.6920471"
       x2="422.013885"
       y2="94.3197327"
       id="line524" />
    <line
       x1="424.190491"
       y1="90.6920471"
       x2="426.367096"
       y2="94.3197327"
       id="line526" />
    <line
       x1="424.190491"
       y1="251.464432"
       x2="422.013885"
       y2="247.836761"
       id="line528" />
    <line
       x1="424.190491"
       y1="251.464432"
       x2="426.367126"
       y2="247.836761"
       id="line530" />
  </g>
  <text
     x="429.994843"
     y="175.488266"
     font-size="0.979999840"
     text-anchor="middle"
     id="text534">H</text>
  <g
     stroke="rgb(0,128,255)"
     stroke-width="0.1"
     id="g544">
    <line
       x1="337.432739"
       y1="125.735748"
       x2="317.422363"
       y2="140.274170"
       id="line536" />
    <line
       x1="325.693329"
       y1="134.264954"
       x2="337.432739"
       y2="125.735748"
       id="line538" />
    <line
       x1="337.432739"
       y1="125.735748"
       x2="333.218506"
       y2="126.107147"
       id="line540" />
    <line
       x1="337.432739"
       y1="125.735748"
       x2="335.777283"
       y2="129.628967"
       id="line542" />
  </g>
  <text
     x="313.794678"
     y="154.116150"
     font-size="0.979999840"
     text-anchor="middle"
     id="text546">R1</text>
  <g
     stroke="rgb(0,128,255)"
     stroke-width="0.1"
     id="g556">
    <line
       x1="320.480011"
       y1="244.219955"
       x2="302.990295"
       y2="226.730225"
       id="line548" />
    <line
       x1="310.219391"
       y1="233.959305"
       x2="320.480011"
       y2="244.219955"
       id="line550" />
    <line
       x1="320.480011"
       y1="244.219955"
       x2="319.453949"
       y2="240.115692"
       id="line552" />
    <line
       x1="320.480011"
       y1="244.219955"
       x2="316.375763"
       y2="243.193878"
       id="line554" />
  </g>
  <text
     x="302.990295"
     y="223.159302"
     font-size="0.979999840"
     text-anchor="middle"
     id="text558">R2</text>
  <g
     stroke="rgb(0,128,255)"
     stroke-width="0.1"
     id="g766">
    <line
       x1="262.591644"
       y1="181.325592"
       x2="258.821655"
       y2="183.502197"
       id="line704" />
    <line
       x1="258.821655"
       y1="183.502197"
       x2="260.090637"
       y2="183.523544"
       id="line706" />
    <line
       x1="258.821655"
       y1="183.502197"
       x2="259.437653"
       y2="182.392548"
       id="line708" />
    <line
       x1="262.591644"
       y1="185.678818"
       x2="258.821655"
       y2="183.502197"
       id="line710" />
    <line
       x1="258.821655"
       y1="183.502197"
       x2="259.437653"
       y2="184.611847"
       id="line712" />
    <line
       x1="258.821655"
       y1="183.502197"
       x2="260.090637"
       y2="183.480850"
       id="line714" />
    <line
       x1="331.029388"
       y1="181.325592"
       x2="334.799377"
       y2="183.502197"
       id="line716" />
    <line
       x1="334.799377"
       y1="183.502197"
       x2="334.183380"
       y2="182.392548"
       id="line718" />
    <line
       x1="334.799377"
       y1="183.502197"
       x2="333.530396"
       y2="183.523544"
       id="line720" />
    <line
       x1="331.029388"
       y1="185.678818"
       x2="334.799377"
       y2="183.502197"
       id="line722" />
    <line
       x1="334.799377"
       y1="183.502197"
       x2="333.530396"
       y2="183.480850"
       id="line724" />
    <line
       x1="334.799377"
       y1="183.502197"
       x2="334.183380"
       y2="184.611847"
       id="line726" />
    <line
       x1="334.799377"
       y1="183.502197"
       x2="330.829163"
       y2="182.899780"
       id="line728" />
    <line
       x1="330.829163"
       y1="182.899780"
       x2="326.849426"
       y2="182.363861"
       id="line730" />
    <line
       x1="326.849426"
       y1="182.363861"
       x2="322.861267"
       y2="181.894608"
       id="line732" />
    <line
       x1="322.861267"
       y1="181.894608"
       x2="318.865784"
       y2="181.492157"
       id="line734" />
    <line
       x1="318.865784"
       y1="181.492157"
       x2="314.864166"
       y2="181.156601"
       id="line736" />
    <line
       x1="314.864166"
       y1="181.156601"
       x2="310.857483"
       y2="180.888046"
       id="line738" />
    <line
       x1="310.857483"
       y1="180.888046"
       x2="306.846893"
       y2="180.686569"
       id="line740" />
    <line
       x1="306.846893"
       y1="180.686569"
       x2="302.833466"
       y2="180.552216"
       id="line742" />
    <line
       x1="302.833466"
       y1="180.552216"
       x2="298.818359"
       y2="180.485016"
       id="line744" />
    <line
       x1="298.818359"
       y1="180.485016"
       x2="294.802673"
       y2="180.485016"
       id="line746" />
    <line
       x1="294.802673"
       y1="180.485016"
       x2="290.787567"
       y2="180.552216"
       id="line748" />
    <line
       x1="290.787567"
       y1="180.552216"
       x2="286.774170"
       y2="180.686569"
       id="line750" />
    <line
       x1="286.774170"
       y1="180.686569"
       x2="282.763550"
       y2="180.888031"
       id="line752" />
    <line
       x1="282.763550"
       y1="180.888031"
       x2="278.756866"
       y2="181.156601"
       id="line754" />
    <line
       x1="278.756866"
       y1="181.156601"
       x2="274.755249"
       y2="181.492157"
       id="line756" />
    <line
       x1="274.755249"
       y1="181.492157"
       x2="270.759796"
       y2="181.894608"
       id="line758" />
    <line
       x1="270.759796"
       y1="181.894608"
       x2="266.771637"
       y2="182.363861"
       id="line760" />
    <line
       x1="266.771637"
       y1="182.363861"
       x2="262.791870"
       y2="182.899780"
       id="line762" />
    <line
       x1="262.791870"
       y1="182.899780"
       x2="258.821655"
       y2="183.502197"
       id="line764" />
  </g>
  <text
     x="296.810516"
     y="178.433029"
     font-size="0.979999840"
     text-anchor="middle"
     id="text768">ALPHA</text>
</svg>
