<?xml version="1.0" encoding="UTF-8" standalone="no"?>
<svg
   encoding="UTF-8"
   width="420"
   height="420"
   viewBox="0 100 420 300"
   version="1.1"
   id="svg684"
   sodipodi:docname="stator4.svg"
   inkscape:version="1.1.2 (0a00cf5339, 2022-02-04)"
   xmlns:inkscape="http://www.inkscape.org/namespaces/inkscape"
   xmlns:sodipodi="http://sodipodi.sourceforge.net/DTD/sodipodi-0.dtd"
   xmlns="http://www.w3.org/2000/svg"
   xmlns:svg="http://www.w3.org/2000/svg">
  <sodipodi:namedview
     id="namedview686"
     pagecolor="#ffffff"
     bordercolor="#666666"
     borderopacity="1.0"
     inkscape:pageshadow="2"
     inkscape:pageopacity="0.0"
     inkscape:pagecheckerboard="0"
     showgrid="false"
     inkscape:zoom="2.9904762"
     inkscape:cx="221.70382"
     inkscape:cy="169.03662"
     inkscape:window-width="1920"
     inkscape:window-height="1127"
     inkscape:window-x="0"
     inkscape:window-y="0"
     inkscape:window-maximized="1"
     inkscape:current-layer="g658" />
  <defs
     id="defs4">
    <style
       type="text/css"
       id="style2"><![CDATA[text { font-family:monospace;font-size:8;} svg { font-size:8;}
]]></style>
  </defs>
  <g
     stroke="rgb(0,0,0)"
     stroke-width="1"
     id="g270">
    <line
       x1="248.108917"
       y1="348.709229"
       x2="258.516754"
       y2="309.866669"
       id="line6" />
    <line
       x1="109.337852"
       y1="348.709229"
       x2="98.9300308"
       y2="309.866669"
       id="line8" />
    <line
       x1="232.340408"
       y1="309.191437"
       x2="223.404236"
       y2="299.361664"
       id="line10" />
    <line
       x1="125.106369"
       y1="309.191437"
       x2="134.042542"
       y2="299.361664"
       id="line12" />
    <line
       x1="205.531891"
       y1="160.850983"
       x2="202.712814"
       y2="160.690796"
       id="line14" />
    <line
       x1="202.712814"
       y1="160.690796"
       x2="199.892776"
       y2="160.548340"
       id="line16" />
    <line
       x1="199.892776"
       y1="160.548340"
       x2="197.071899"
       y2="160.423706"
       id="line18" />
    <line
       x1="197.071899"
       y1="160.423706"
       x2="194.250290"
       y2="160.316833"
       id="line20" />
    <line
       x1="194.250290"
       y1="160.316833"
       x2="191.428055"
       y2="160.227783"
       id="line22" />
    <line
       x1="191.428055"
       y1="160.227783"
       x2="188.605316"
       y2="160.156555"
       id="line24" />
    <line
       x1="188.605316"
       y1="160.156555"
       x2="185.782196"
       y2="160.103119"
       id="line26" />
    <line
       x1="185.782196"
       y1="160.103119"
       x2="182.958786"
       y2="160.067505"
       id="line28" />
    <line
       x1="182.958786"
       y1="160.067505"
       x2="180.135208"
       y2="160.049683"
       id="line30" />
    <line
       x1="180.135208"
       y1="160.049683"
       x2="177.311584"
       y2="160.049683"
       id="line32" />
    <line
       x1="177.311584"
       y1="160.049683"
       x2="174.488007"
       y2="160.067505"
       id="line34" />
    <line
       x1="174.488007"
       y1="160.067505"
       x2="171.664597"
       y2="160.103119"
       id="line36" />
    <line
       x1="171.664597"
       y1="160.103119"
       x2="168.841476"
       y2="160.156555"
       id="line38" />
    <line
       x1="168.841476"
       y1="160.156555"
       x2="166.018738"
       y2="160.227783"
       id="line40" />
    <line
       x1="166.018738"
       y1="160.227783"
       x2="163.196503"
       y2="160.316833"
       id="line42" />
    <line
       x1="163.196503"
       y1="160.316833"
       x2="160.374893"
       y2="160.423706"
       id="line44" />
    <line
       x1="160.374893"
       y1="160.423706"
       x2="157.554016"
       y2="160.548340"
       id="line46" />
    <line
       x1="157.554016"
       y1="160.548340"
       x2="154.733978"
       y2="160.690765"
       id="line48" />
    <line
       x1="154.733978"
       y1="160.690765"
       x2="151.914902"
       y2="160.850983"
       id="line50" />
    <line
       x1="305.930206"
       y1="132.917297"
       x2="292.800720"
       y2="129.592438"
       id="line52" />
    <line
       x1="292.800720"
       y1="129.592438"
       x2="279.584564"
       y2="126.630646"
       id="line54" />
    <line
       x1="279.584564"
       y1="126.630646"
       x2="266.291840"
       y2="124.034088"
       id="line56" />
    <line
       x1="266.291840"
       y1="124.034088"
       x2="252.932587"
       y2="121.804840"
       id="line58" />
    <line
       x1="252.932587"
       y1="121.804840"
       x2="239.517014"
       y2="119.944550"
       id="line60" />
    <line
       x1="239.517014"
       y1="119.944550"
       x2="226.055267"
       y2="118.454590"
       id="line62" />
    <line
       x1="226.055267"
       y1="118.454590"
       x2="212.557571"
       y2="117.336121"
       id="line64" />
    <line
       x1="212.557571"
       y1="117.336121"
       x2="199.034180"
       y2="116.590027"
       id="line66" />
    <line
       x1="199.034180"
       y1="116.590027"
       x2="185.495377"
       y2="116.216827"
       id="line68" />
    <line
       x1="185.495377"
       y1="116.216827"
       x2="171.951416"
       y2="116.216827"
       id="line70" />
    <line
       x1="171.951416"
       y1="116.216827"
       x2="158.412613"
       y2="116.590027"
       id="line72" />
    <line
       x1="158.412613"
       y1="116.590027"
       x2="144.889221"
       y2="117.336121"
       id="line74" />
    <line
       x1="144.889221"
       y1="117.336121"
       x2="131.391525"
       y2="118.454590"
       id="line76" />
    <line
       x1="131.391525"
       y1="118.454590"
       x2="117.929779"
       y2="119.944550"
       id="line78" />
    <line
       x1="117.929779"
       y1="119.944550"
       x2="104.514198"
       y2="121.804840"
       id="line80" />
    <line
       x1="104.514198"
       y1="121.804840"
       x2="91.1549683"
       y2="124.034088"
       id="line82" />
    <line
       x1="91.1549683"
       y1="124.034088"
       x2="77.8622360"
       y2="126.630585"
       id="line84" />
    <line
       x1="77.8622360"
       y1="126.630585"
       x2="64.6460953"
       y2="129.592438"
       id="line86" />
    <line
       x1="64.6460953"
       y1="129.592438"
       x2="51.5165863"
       y2="132.917236"
       id="line88" />
    <line
       x1="248.108917"
       y1="348.709229"
       x2="246.361938"
       y2="348.247406"
       id="line90" />
    <line
       x1="246.361938"
       y1="348.247406"
       x2="244.611862"
       y2="347.797394"
       id="line92" />
    <line
       x1="244.611862"
       y1="347.797394"
       x2="242.858795"
       y2="347.359192"
       id="line94" />
    <line
       x1="242.858795"
       y1="347.359192"
       x2="241.102829"
       y2="346.932800"
       id="line96" />
    <line
       x1="241.102829"
       y1="346.932800"
       x2="239.344009"
       y2="346.518280"
       id="line98" />
    <line
       x1="239.344009"
       y1="346.518280"
       x2="237.582458"
       y2="346.115601"
       id="line100" />
    <line
       x1="237.582458"
       y1="346.115601"
       x2="235.818207"
       y2="345.724823"
       id="line102" />
    <line
       x1="235.818207"
       y1="345.724823"
       x2="234.051376"
       y2="345.345917"
       id="line104" />
    <line
       x1="234.051376"
       y1="345.345917"
       x2="232.282043"
       y2="344.978943"
       id="line106" />
    <line
       x1="232.282043"
       y1="344.978943"
       x2="230.510254"
       y2="344.623901"
       id="line108" />
    <line
       x1="230.510254"
       y1="344.623901"
       x2="228.736130"
       y2="344.280823"
       id="line110" />
    <line
       x1="228.736130"
       y1="344.280823"
       x2="226.959717"
       y2="343.949707"
       id="line112" />
    <line
       x1="226.959717"
       y1="343.949707"
       x2="225.181122"
       y2="343.630585"
       id="line114" />
    <line
       x1="225.181122"
       y1="343.630585"
       x2="223.400421"
       y2="343.323425"
       id="line116" />
    <line
       x1="223.400421"
       y1="343.323425"
       x2="221.617676"
       y2="343.028290"
       id="line118" />
    <line
       x1="221.617676"
       y1="343.028290"
       x2="219.833008"
       y2="342.745178"
       id="line120" />
    <line
       x1="219.833008"
       y1="342.745178"
       x2="218.046448"
       y2="342.474091"
       id="line122" />
    <line
       x1="218.046448"
       y1="342.474091"
       x2="216.258102"
       y2="342.215057"
       id="line124" />
    <line
       x1="216.258102"
       y1="342.215057"
       x2="214.468063"
       y2="341.968109"
       id="line126" />
    <line
       x1="142.978699"
       y1="341.968109"
       x2="141.188660"
       y2="342.215057"
       id="line128" />
    <line
       x1="141.188660"
       y1="342.215057"
       x2="139.400314"
       y2="342.474091"
       id="line130" />
    <line
       x1="139.400314"
       y1="342.474091"
       x2="137.613770"
       y2="342.745178"
       id="line132" />
    <line
       x1="137.613770"
       y1="342.745178"
       x2="135.829071"
       y2="343.028290"
       id="line134" />
    <line
       x1="135.829071"
       y1="343.028290"
       x2="134.046341"
       y2="343.323425"
       id="line136" />
    <line
       x1="134.046341"
       y1="343.323425"
       x2="132.265640"
       y2="343.630585"
       id="line138" />
    <line
       x1="132.265640"
       y1="343.630585"
       x2="130.487045"
       y2="343.949707"
       id="line140" />
    <line
       x1="130.487045"
       y1="343.949707"
       x2="128.710632"
       y2="344.280823"
       id="line142" />
    <line
       x1="128.710632"
       y1="344.280823"
       x2="126.936508"
       y2="344.623901"
       id="line144" />
    <line
       x1="126.936508"
       y1="344.623901"
       x2="125.164734"
       y2="344.978943"
       id="line146" />
    <line
       x1="125.164734"
       y1="344.978943"
       x2="123.395393"
       y2="345.345917"
       id="line148" />
    <line
       x1="123.395393"
       y1="345.345917"
       x2="121.628555"
       y2="345.724823"
       id="line150" />
    <line
       x1="121.628555"
       y1="345.724823"
       x2="119.864319"
       y2="346.115601"
       id="line152" />
    <line
       x1="119.864319"
       y1="346.115601"
       x2="118.102768"
       y2="346.518280"
       id="line154" />
    <line
       x1="118.102768"
       y1="346.518280"
       x2="116.343948"
       y2="346.932800"
       id="line156" />
    <line
       x1="116.343948"
       y1="346.932800"
       x2="114.587975"
       y2="347.359192"
       id="line158" />
    <line
       x1="114.587975"
       y1="347.359192"
       x2="112.834915"
       y2="347.797394"
       id="line160" />
    <line
       x1="112.834915"
       y1="347.797394"
       x2="111.084854"
       y2="348.247406"
       id="line162" />
    <line
       x1="111.084854"
       y1="348.247406"
       x2="109.337860"
       y2="348.709229"
       id="line164" />
    <line
       x1="232.340408"
       y1="309.191437"
       x2="232.340408"
       y2="317.234009"
       id="line166" />
    <line
       x1="125.106369"
       y1="309.191437"
       x2="125.106369"
       y2="317.234009"
       id="line168" />
    <line
       x1="232.340408"
       y1="317.234009"
       x2="214.468079"
       y2="326.170197"
       id="line170" />
    <line
       x1="125.106369"
       y1="317.234009"
       x2="142.978699"
       y2="326.170197"
       id="line172" />
    <line
       x1="142.978699"
       y1="326.170197"
       x2="142.978699"
       y2="341.968109"
       id="line174" />
    <line
       x1="214.468079"
       y1="326.170197"
       x2="214.468079"
       y2="341.968109"
       id="line176" />
    <line
       x1="240.714478"
       y1="202.909912"
       x2="241.145844"
       y2="199.650269"
       id="line178" />
    <line
       x1="241.145844"
       y1="199.650269"
       x2="241.275848"
       y2="196.364777"
       id="line180" />
    <line
       x1="241.275848"
       y1="196.364777"
       x2="241.103394"
       y2="193.081268"
       id="line182" />
    <line
       x1="241.103394"
       y1="193.081268"
       x2="240.629959"
       y2="189.827454"
       id="line184" />
    <line
       x1="240.629959"
       y1="189.827454"
       x2="239.859528"
       y2="186.630920"
       id="line186" />
    <line
       x1="239.859528"
       y1="186.630920"
       x2="238.798645"
       y2="183.518707"
       id="line188" />
    <line
       x1="238.798645"
       y1="183.518707"
       x2="237.456253"
       y2="180.517181"
       id="line190" />
    <line
       x1="237.456253"
       y1="180.517181"
       x2="235.843719"
       y2="177.651642"
       id="line192" />
    <line
       x1="235.843719"
       y1="177.651642"
       x2="233.974716"
       y2="174.946442"
       id="line194" />
    <line
       x1="233.974716"
       y1="174.946442"
       x2="231.865021"
       y2="172.424438"
       id="line196" />
    <line
       x1="231.865021"
       y1="172.424438"
       x2="229.532532"
       y2="170.106934"
       id="line198" />
    <line
       x1="229.532532"
       y1="170.106934"
       x2="226.996933"
       y2="168.013611"
       id="line200" />
    <line
       x1="226.996933"
       y1="168.013611"
       x2="224.279709"
       y2="166.162109"
       id="line202" />
    <line
       x1="224.279709"
       y1="166.162109"
       x2="221.403839"
       y2="164.568115"
       id="line204" />
    <line
       x1="221.403839"
       y1="164.568115"
       x2="218.393677"
       y2="163.245148"
       id="line206" />
    <line
       x1="218.393677"
       y1="163.245148"
       x2="215.274689"
       y2="162.204407"
       id="line208" />
    <line
       x1="215.274689"
       y1="162.204407"
       x2="212.073257"
       y2="161.454620"
       id="line210" />
    <line
       x1="212.073257"
       y1="161.454620"
       x2="208.816467"
       y2="161.002197"
       id="line212" />
    <line
       x1="208.816467"
       y1="161.002197"
       x2="205.531891"
       y2="160.850983"
       id="line214" />
    <line
       x1="258.516754"
       y1="309.866669"
       x2="284.701843"
       y2="212.142517"
       id="line216" />
    <line
       x1="98.9300308"
       y1="309.866669"
       x2="72.7449188"
       y2="212.142517"
       id="line218" />
    <line
       x1="284.701843"
       y1="212.142517"
       x2="305.930206"
       y2="132.917297"
       id="line220" />
    <line
       x1="72.7449188"
       y1="212.142517"
       x2="51.5165787"
       y2="132.917297"
       id="line222" />
    <line
       x1="240.714462"
       y1="202.909912"
       x2="236.531677"
       y2="226.216217"
       id="line224" />
    <line
       x1="116.732315"
       y1="202.909912"
       x2="120.915100"
       y2="226.216217"
       id="line226" />
    <line
       x1="151.914902"
       y1="160.850983"
       x2="148.630310"
       y2="161.002197"
       id="line228" />
    <line
       x1="148.630310"
       y1="161.002197"
       x2="145.373535"
       y2="161.454620"
       id="line230" />
    <line
       x1="145.373535"
       y1="161.454620"
       x2="142.172089"
       y2="162.204407"
       id="line232" />
    <line
       x1="142.172089"
       y1="162.204407"
       x2="139.053101"
       y2="163.245148"
       id="line234" />
    <line
       x1="139.053101"
       y1="163.245148"
       x2="136.042938"
       y2="164.568115"
       id="line236" />
    <line
       x1="136.042938"
       y1="164.568115"
       x2="133.167068"
       y2="166.162109"
       id="line238" />
    <line
       x1="133.167068"
       y1="166.162109"
       x2="130.449844"
       y2="168.013611"
       id="line240" />
    <line
       x1="130.449844"
       y1="168.013611"
       x2="127.914261"
       y2="170.106934"
       id="line242" />
    <line
       x1="127.914261"
       y1="170.106934"
       x2="125.581749"
       y2="172.424438"
       id="line244" />
    <line
       x1="125.581749"
       y1="172.424438"
       x2="123.472061"
       y2="174.946442"
       id="line246" />
    <line
       x1="123.472061"
       y1="174.946442"
       x2="121.603058"
       y2="177.651642"
       id="line248" />
    <line
       x1="121.603058"
       y1="177.651642"
       x2="119.990532"
       y2="180.517181"
       id="line250" />
    <line
       x1="119.990532"
       y1="180.517181"
       x2="118.648148"
       y2="183.518707"
       id="line252" />
    <line
       x1="118.648148"
       y1="183.518707"
       x2="117.587250"
       y2="186.630920"
       id="line254" />
    <line
       x1="117.587250"
       y1="186.630920"
       x2="116.816818"
       y2="189.827454"
       id="line256" />
    <line
       x1="116.816818"
       y1="189.827454"
       x2="116.343384"
       y2="193.081268"
       id="line258" />
    <line
       x1="116.343384"
       y1="193.081268"
       x2="116.170937"
       y2="196.364807"
       id="line260" />
    <line
       x1="116.170937"
       y1="196.364807"
       x2="116.300949"
       y2="199.650269"
       id="line262" />
    <line
       x1="116.300949"
       y1="199.650269"
       x2="116.732315"
       y2="202.909912"
       id="line264" />
    <line
       x1="120.915100"
       y1="226.216217"
       x2="134.042542"
       y2="299.361664"
       id="line266" />
    <line
       x1="236.531677"
       y1="226.216217"
       x2="223.404236"
       y2="299.361664"
       id="line268" />
  </g>
  <g
     stroke="rgb(0,128,255)"
     stroke-width="1"
     id="g658">
    <line
       x1="214.468079"
       y1="341.968109"
       x2="213.673737"
       y2="374.347931"
       id="line410" />
    <line
       x1="142.978699"
       y1="341.968109"
       x2="143.773026"
       y2="374.347931"
       id="line412" />
    <line
       x1="214.468079"
       y1="366.382935"
       x2="142.978699"
       y2="366.382935"
       id="line414" />
    <line
       x1="142.978699"
       y1="366.382935"
       x2="147.893600"
       y2="369.331909"
       id="line416" />
    <line
       x1="142.978699"
       y1="366.382935"
       x2="147.893600"
       y2="363.434021"
       id="line418" />
    <line
       x1="214.468079"
       y1="366.382935"
       x2="209.553177"
       y2="369.331879"
       id="line420" />
    <line
       x1="214.468079"
       y1="366.382935"
       x2="209.553177"
       y2="363.434021"
       id="line422" />
    <line
       x1="214.468063"
       y1="341.968109"
       x2="210.724503"
       y2="341.491272"
       id="line424" />
    <line
       x1="210.724503"
       y1="341.491272"
       x2="206.974609"
       y2="341.067169"
       id="line426" />
    <line
       x1="206.974609"
       y1="341.067169"
       x2="203.219101"
       y2="340.695892"
       id="line428" />
    <line
       x1="203.219101"
       y1="340.695892"
       x2="199.458755"
       y2="340.377533"
       id="line430" />
    <line
       x1="199.458755"
       y1="340.377533"
       x2="195.694290"
       y2="340.112122"
       id="line432" />
    <line
       x1="195.694290"
       y1="340.112122"
       x2="191.926468"
       y2="339.899750"
       id="line434" />
    <line
       x1="191.926468"
       y1="339.899750"
       x2="188.156021"
       y2="339.740448"
       id="line436" />
    <line
       x1="188.156021"
       y1="339.740448"
       x2="184.383713"
       y2="339.634186"
       id="line438" />
    <line
       x1="184.383713"
       y1="339.634186"
       x2="180.610275"
       y2="339.581085"
       id="line440" />
    <line
       x1="180.610275"
       y1="339.581085"
       x2="176.836472"
       y2="339.581085"
       id="line442" />
    <line
       x1="176.836472"
       y1="339.581085"
       x2="173.063049"
       y2="339.634186"
       id="line444" />
    <line
       x1="173.063049"
       y1="339.634186"
       x2="169.290726"
       y2="339.740448"
       id="line446" />
    <line
       x1="169.290726"
       y1="339.740448"
       x2="165.520294"
       y2="339.899750"
       id="line448" />
    <line
       x1="165.520294"
       y1="339.899750"
       x2="161.752472"
       y2="340.112122"
       id="line450" />
    <line
       x1="161.752472"
       y1="340.112122"
       x2="157.988007"
       y2="340.377533"
       id="line452" />
    <line
       x1="157.988007"
       y1="340.377533"
       x2="154.227646"
       y2="340.695892"
       id="line454" />
    <line
       x1="154.227646"
       y1="340.695892"
       x2="150.472153"
       y2="341.067169"
       id="line456" />
    <line
       x1="150.472153"
       y1="341.067169"
       x2="146.722260"
       y2="341.491272"
       id="line458" />
    <line
       x1="146.722260"
       y1="341.491272"
       x2="142.978699"
       y2="341.968109"
       id="line460" />
    <line
       x1="178.723389"
       y1="339.574432"
       x2="379.742981"
       y2="339.574432"
       id="line542" />
    <line
       x1="214.468079"
       y1="326.170197"
       x2="293.106384"
       y2="326.170197"
       id="line544" />
    <line
       x1="284.701843"
       y1="339.574432"
       x2="284.701843"
       y2="326.170197"
       id="line546" />
    <line
       x1="284.701843"
       y1="326.170197"
       x2="281.752930"
       y2="331.085083"
       id="line548" />
    <line
       x1="284.701843"
       y1="326.170197"
       x2="287.650818"
       y2="331.085083"
       id="line550" />
    <line
       x1="284.701843"
       y1="339.574432"
       x2="281.752930"
       y2="334.659546"
       id="line552" />
    <line
       x1="284.701843"
       y1="339.574432"
       x2="287.650818"
       y2="334.659546"
       id="line554" />
    <line
       x1="232.340408"
       y1="317.234009"
       x2="310.978699"
       y2="317.234009"
       id="line556" />
    <line
       x1="305.930176"
       y1="339.574432"
       x2="305.930176"
       y2="317.234009"
       id="line558" />
    <line
       x1="305.930176"
       y1="317.234009"
       x2="302.981262"
       y2="322.148865"
       id="line560" />
    <line
       x1="305.930176"
       y1="317.234009"
       x2="308.879150"
       y2="322.148865"
       id="line562" />
    <line
       x1="305.930176"
       y1="339.574432"
       x2="302.981262"
       y2="334.659546"
       id="line564" />
    <line
       x1="305.930176"
       y1="339.574432"
       x2="308.879150"
       y2="334.659546"
       id="line566" />
    <line
       x1="232.340408"
       y1="309.191437"
       x2="336.536133"
       y2="309.191437"
       id="line568" />
    <line
       x1="327.377014"
       y1="339.574432"
       x2="327.377014"
       y2="309.191437"
       id="line570" />
    <line
       x1="327.377014"
       y1="309.191437"
       x2="324.428070"
       y2="314.106323"
       id="line572" />
    <line
       x1="327.377014"
       y1="309.191437"
       x2="330.325928"
       y2="314.106323"
       id="line574" />
    <line
       x1="327.377014"
       y1="339.574432"
       x2="324.428070"
       y2="334.659546"
       id="line576" />
    <line
       x1="327.377014"
       y1="339.574432"
       x2="330.325928"
       y2="334.659546"
       id="line578" />
    <line
       x1="223.404236"
       y1="299.361664"
       x2="361.021240"
       y2="299.361664"
       id="line580" />
    <line
       x1="348.823792"
       y1="339.574432"
       x2="348.823792"
       y2="299.361664"
       id="line582" />
    <line
       x1="348.823792"
       y1="299.361664"
       x2="345.874878"
       y2="304.276581"
       id="line584" />
    <line
       x1="348.823792"
       y1="299.361664"
       x2="351.772736"
       y2="304.276581"
       id="line586" />
    <line
       x1="348.823792"
       y1="339.574432"
       x2="345.874878"
       y2="334.659546"
       id="line588" />
    <line
       x1="348.823792"
       y1="339.574432"
       x2="351.772736"
       y2="334.659546"
       id="line590" />
    <line
       x1="178.723389"
       y1="159.063812"
       x2="379.742981"
       y2="159.063812"
       id="line592" />
    <line
       x1="373.845093"
       y1="339.574432"
       x2="373.845093"
       y2="159.063812"
       id="line594" />
    <line
       x1="373.845093"
       y1="159.063812"
       x2="370.896118"
       y2="163.978729"
       id="line596" />
    <line
       x1="373.845093"
       y1="159.063812"
       x2="376.794006"
       y2="163.978729"
       id="line598" />
    <line
       x1="373.845093"
       y1="339.574432"
       x2="370.896149"
       y2="334.659546"
       id="line600" />
    <line
       x1="373.845093"
       y1="339.574432"
       x2="376.794006"
       y2="334.659546"
       id="line602" />
    <line
       x1="134.042542"
       y1="299.361664"
       x2="134.042511"
       y2="395.157104"
       id="line604" />
    <line
       x1="223.404236"
       y1="299.361664"
       x2="223.404236"
       y2="395.157104"
       id="line606" />
    <line
       x1="223.404236"
       y1="387.829773"
       x2="134.042542"
       y2="387.829773"
       id="line608" />
    <line
       x1="134.042542"
       y1="387.829773"
       x2="138.957428"
       y2="390.778687"
       id="line610" />
    <line
       x1="134.042542"
       y1="387.829773"
       x2="138.957428"
       y2="384.880829"
       id="line612" />
    <line
       x1="223.404236"
       y1="387.829773"
       x2="218.489349"
       y2="390.778687"
       id="line614" />
    <line
       x1="223.404236"
       y1="387.829773"
       x2="218.489349"
       y2="384.880829"
       id="line616" />
    <line
       x1="232.340424"
       y1="417.216431"
       x2="232.340408"
       y2="313.212738"
       id="line618" />
    <line
       x1="125.106361"
       y1="417.216431"
       x2="125.106369"
       y2="313.212738"
       id="line620" />
    <line
       x1="232.340408"
       y1="409.276550"
       x2="125.106369"
       y2="409.276581"
       id="line622" />
    <line
       x1="125.106369"
       y1="409.276581"
       x2="130.021271"
       y2="412.225525"
       id="line624" />
    <line
       x1="125.106369"
       y1="409.276581"
       x2="130.021271"
       y2="406.327637"
       id="line626" />
    <line
       x1="232.340408"
       y1="409.276550"
       x2="227.425507"
       y2="412.225494"
       id="line628" />
    <line
       x1="232.340408"
       y1="409.276550"
       x2="227.425507"
       y2="406.327637"
       id="line630" />
    <line
       x1="151.914886"
       y1="196.595703"
       x2="151.914871"
       y2="94.5295410"
       id="line632" />
    <line
       x1="205.531891"
       y1="196.595703"
       x2="205.531860"
       y2="94.5295410"
       id="line634" />
    <line
       x1="185.872330"
       y1="102.765930"
       x2="205.531891"
       y2="102.765930"
       id="line636" />
    <line
       x1="205.531891"
       y1="102.765930"
       x2="200.617004"
       y2="99.8169861"
       id="line638" />
    <line
       x1="205.531891"
       y1="102.765930"
       x2="200.617004"
       y2="105.714874"
       id="line640" />
    <line
       x1="171.574448"
       y1="102.765930"
       x2="151.914886"
       y2="102.765930"
       id="line642" />
    <line
       x1="151.914886"
       y1="102.765930"
       x2="156.829773"
       y2="105.714874"
       id="line644" />
    <line
       x1="151.914886"
       y1="102.765930"
       x2="156.829773"
       y2="99.8169861"
       id="line646" />
    <line
       x1="171.574448"
       y1="102.765930"
       x2="185.872330"
       y2="102.765930"
       id="line648" />
    <line
       x1="230.807205"
       y1="171.320404"
       x2="205.531891"
       y2="196.595703"
       id="line650" />
    <line
       x1="216.905792"
       y1="185.221832"
       x2="230.807205"
       y2="171.320404"
       id="line652" />
    <line
       x1="230.807205"
       y1="171.320404"
       x2="225.246643"
       y2="172.710541"
       id="line654" />
    <line
       x1="230.807205"
       y1="171.320404"
       x2="229.417053"
       y2="176.880951"
       id="line656" />
  </g>
  <text
     x="360.619568"
     y="336.022308"
     text-anchor="middle"
     id="text662">H4</text>
  <text
     x="385.640808"
     y="253.362701"
     text-anchor="middle"
     id="text664">H</text>
  <text
     x="178.723389"
     y="387.047821"
     text-anchor="middle"
     id="text666">B2</text>
  <text
     x="178.723389"
     y="408.494629"
     text-anchor="middle"
     id="text668">B1</text>
  <text
     x="178.723389"
     y="101.984009"
     text-anchor="middle"
     id="text670">B3</text>
  <text
     x="215.361694"
     y="181.873322"
     text-anchor="middle"
     id="text672">R1</text>
  <text
     x="339.172699"
     y="336.022308"
     text-anchor="middle"
     id="text674">H3</text>
  <text
     x="317.725922"
     y="336.022308"
     text-anchor="middle"
     id="text676">H2</text>
  <text
     x="296.497620"
     y="336.022308"
     text-anchor="middle"
     id="text678">H1</text>
  <text
     x="178.723389"
     y="365.601044"
     text-anchor="middle"
     id="text680">SW</text>
</svg>
