<?xml version="1.0" encoding="UTF-8" standalone="no"?>
<svg
   encoding="UTF-8"
   width="380"
   height="320"
   viewBox="50 90 380 300"
   version="1.1"
   id="svg692"
   xmlns="http://www.w3.org/2000/svg">
  <defs
     id="defs4">
    <style
       type="text/css"
       id="style2"><![CDATA[text { font-family:monospace;font-size:8;} svg { font-size:8;}
    ]]></style>
  </defs>
  <g
     stroke="rgb(0,0,0)"
     stroke-width="1"
     id="g330">
    <line
       x1="379.744568"
       y1="136.667480"
       x2="363.811066"
       y2="131.780151"
       id="line6" />
    <line
       x1="363.811066"
       y1="131.780151"
       x2="347.724670"
       y2="127.422241"
       id="line8" />
    <line
       x1="347.724670"
       y1="127.422241"
       x2="331.503021"
       y2="123.598633"
       id="line10" />
    <line
       x1="331.503021"
       y1="123.598633"
       x2="315.163788"
       y2="120.313477"
       id="line12" />
    <line
       x1="315.163788"
       y1="120.313477"
       x2="298.724884"
       y2="117.570251"
       id="line14" />
    <line
       x1="298.724884"
       y1="117.570251"
       x2="282.204254"
       y2="115.372131"
       id="line16" />
    <line
       x1="282.204254"
       y1="115.372131"
       x2="265.619995"
       y2="113.721375"
       id="line18" />
    <line
       x1="265.619995"
       y1="113.721375"
       x2="248.990204"
       y2="112.619934"
       id="line20" />
    <line
       x1="248.990204"
       y1="112.619934"
       x2="232.333099"
       y2="112.068909"
       id="line22" />
    <line
       x1="232.333099"
       y1="112.068909"
       x2="215.666885"
       y2="112.068909"
       id="line24" />
    <line
       x1="215.666885"
       y1="112.068909"
       x2="199.009781"
       y2="112.619934"
       id="line26" />
    <line
       x1="199.009781"
       y1="112.619934"
       x2="182.380005"
       y2="113.721375"
       id="line28" />
    <line
       x1="182.380005"
       y1="113.721375"
       x2="165.795731"
       y2="115.372131"
       id="line30" />
    <line
       x1="165.795731"
       y1="115.372131"
       x2="149.275116"
       y2="117.570251"
       id="line32" />
    <line
       x1="149.275116"
       y1="117.570251"
       x2="132.836197"
       y2="120.313477"
       id="line34" />
    <line
       x1="132.836197"
       y1="120.313477"
       x2="116.496971"
       y2="123.598633"
       id="line36" />
    <line
       x1="116.496971"
       y1="123.598633"
       x2="100.275291"
       y2="127.422241"
       id="line38" />
    <line
       x1="100.275291"
       y1="127.422241"
       x2="84.1889191"
       y2="131.780151"
       id="line40" />
    <line
       x1="84.1889191"
       y1="131.780151"
       x2="68.2554169"
       y2="136.667480"
       id="line42" />
    <line
       x1="210.017731"
       y1="336.699951"
       x2="206.135178"
       y2="336.902954"
       id="line44" />
    <line
       x1="206.135178"
       y1="336.902954"
       x2="202.255569"
       y2="337.159912"
       id="line46" />
    <line
       x1="202.255569"
       y1="337.159912"
       x2="198.379654"
       y2="337.470764"
       id="line48" />
    <line
       x1="198.379654"
       y1="337.470764"
       x2="194.508179"
       y2="337.835510"
       id="line50" />
    <line
       x1="194.508179"
       y1="337.835510"
       x2="190.641907"
       y2="338.254089"
       id="line52" />
    <line
       x1="190.641907"
       y1="338.254089"
       x2="186.781555"
       y2="338.726379"
       id="line54" />
    <line
       x1="186.781555"
       y1="338.726379"
       x2="182.927887"
       y2="339.252319"
       id="line56" />
    <line
       x1="182.927887"
       y1="339.252319"
       x2="179.081665"
       y2="339.831848"
       id="line58" />
    <line
       x1="179.081665"
       y1="339.831848"
       x2="175.243607"
       y2="340.464844"
       id="line60" />
    <line
       x1="175.243607"
       y1="340.464844"
       x2="171.414474"
       y2="341.151123"
       id="line62" />
    <line
       x1="171.414474"
       y1="341.151123"
       x2="167.595001"
       y2="341.890686"
       id="line64" />
    <line
       x1="167.595001"
       y1="341.890686"
       x2="163.785919"
       y2="342.683289"
       id="line66" />
    <line
       x1="163.785919"
       y1="342.683289"
       x2="159.987976"
       y2="343.528809"
       id="line68" />
    <line
       x1="159.987976"
       y1="343.528809"
       x2="156.201904"
       y2="344.427124"
       id="line70" />
    <line
       x1="156.201904"
       y1="344.427124"
       x2="152.428436"
       y2="345.378052"
       id="line72" />
    <line
       x1="152.428436"
       y1="345.378052"
       x2="148.668320"
       y2="346.381409"
       id="line74" />
    <line
       x1="148.668320"
       y1="346.381409"
       x2="144.922272"
       y2="347.437073"
       id="line76" />
    <line
       x1="144.922272"
       y1="347.437073"
       x2="141.190994"
       y2="348.544678"
       id="line78" />
    <line
       x1="141.190994"
       y1="348.544678"
       x2="137.475235"
       y2="349.704163"
       id="line80" />
    <line
       x1="237.982285"
       y1="336.699951"
       x2="241.864838"
       y2="336.902954"
       id="line82" />
    <line
       x1="241.864838"
       y1="336.902954"
       x2="245.744431"
       y2="337.159912"
       id="line84" />
    <line
       x1="245.744431"
       y1="337.159912"
       x2="249.620346"
       y2="337.470764"
       id="line86" />
    <line
       x1="249.620346"
       y1="337.470764"
       x2="253.491821"
       y2="337.835510"
       id="line88" />
    <line
       x1="253.491821"
       y1="337.835510"
       x2="257.358093"
       y2="338.254089"
       id="line90" />
    <line
       x1="257.358093"
       y1="338.254089"
       x2="261.218445"
       y2="338.726379"
       id="line92" />
    <line
       x1="261.218445"
       y1="338.726379"
       x2="265.072113"
       y2="339.252319"
       id="line94" />
    <line
       x1="265.072113"
       y1="339.252319"
       x2="268.918335"
       y2="339.831848"
       id="line96" />
    <line
       x1="268.918335"
       y1="339.831848"
       x2="272.756409"
       y2="340.464844"
       id="line98" />
    <line
       x1="272.756409"
       y1="340.464844"
       x2="276.585541"
       y2="341.151123"
       id="line100" />
    <line
       x1="276.585541"
       y1="341.151123"
       x2="280.405029"
       y2="341.890686"
       id="line102" />
    <line
       x1="280.405029"
       y1="341.890686"
       x2="284.214081"
       y2="342.683289"
       id="line104" />
    <line
       x1="284.214081"
       y1="342.683289"
       x2="288.012024"
       y2="343.528809"
       id="line106" />
    <line
       x1="288.012024"
       y1="343.528809"
       x2="291.798096"
       y2="344.427124"
       id="line108" />
    <line
       x1="291.798096"
       y1="344.427124"
       x2="295.571564"
       y2="345.378052"
       id="line110" />
    <line
       x1="295.571564"
       y1="345.378052"
       x2="299.331696"
       y2="346.381409"
       id="line112" />
    <line
       x1="299.331696"
       y1="346.381409"
       x2="303.077759"
       y2="347.437012"
       id="line114" />
    <line
       x1="303.077759"
       y1="347.437012"
       x2="306.809021"
       y2="348.544678"
       id="line116" />
    <line
       x1="306.809021"
       y1="348.544678"
       x2="310.524780"
       y2="349.704163"
       id="line118" />
    <line
       x1="143.507004"
       y1="232.353195"
       x2="147.687592"
       y2="231.499771"
       id="line120" />
    <line
       x1="147.687592"
       y1="231.499771"
       x2="151.877213"
       y2="230.691940"
       id="line122" />
    <line
       x1="151.877213"
       y1="230.691940"
       x2="156.075394"
       y2="229.929733"
       id="line124" />
    <line
       x1="156.075394"
       y1="229.929733"
       x2="160.281616"
       y2="229.213303"
       id="line126" />
    <line
       x1="160.281616"
       y1="229.213303"
       x2="164.495392"
       y2="228.542648"
       id="line128" />
    <line
       x1="164.495392"
       y1="228.542648"
       x2="168.716202"
       y2="227.917923"
       id="line130" />
    <line
       x1="168.716202"
       y1="227.917923"
       x2="172.943573"
       y2="227.339157"
       id="line132" />
    <line
       x1="172.943573"
       y1="227.339157"
       x2="177.177002"
       y2="226.806473"
       id="line134" />
    <line
       x1="177.177002"
       y1="226.806473"
       x2="181.415955"
       y2="226.319870"
       id="line136" />
    <line
       x1="181.415955"
       y1="226.319870"
       x2="185.659973"
       y2="225.879440"
       id="line138" />
    <line
       x1="185.659973"
       y1="225.879440"
       x2="189.908524"
       y2="225.485245"
       id="line140" />
    <line
       x1="189.908524"
       y1="225.485245"
       x2="194.161118"
       y2="225.137314"
       id="line142" />
    <line
       x1="194.161118"
       y1="225.137314"
       x2="198.417252"
       y2="224.835709"
       id="line144" />
    <line
       x1="198.417252"
       y1="224.835709"
       x2="202.676407"
       y2="224.580399"
       id="line146" />
    <line
       x1="202.676407"
       y1="224.580399"
       x2="206.938095"
       y2="224.371506"
       id="line148" />
    <line
       x1="206.938095"
       y1="224.371506"
       x2="211.201797"
       y2="224.209000"
       id="line150" />
    <line
       x1="211.201797"
       y1="224.209000"
       x2="215.467026"
       y2="224.092880"
       id="line152" />
    <line
       x1="215.467026"
       y1="224.092880"
       x2="219.733261"
       y2="224.023239"
       id="line154" />
    <line
       x1="219.733261"
       y1="224.023239"
       x2="224.000000"
       y2="224.000015"
       id="line156" />
    <line
       x1="304.492981"
       y1="232.353195"
       x2="300.312408"
       y2="231.499771"
       id="line158" />
    <line
       x1="300.312408"
       y1="231.499771"
       x2="296.122772"
       y2="230.691940"
       id="line160" />
    <line
       x1="296.122772"
       y1="230.691940"
       x2="291.924622"
       y2="229.929733"
       id="line162" />
    <line
       x1="291.924622"
       y1="229.929733"
       x2="287.718384"
       y2="229.213272"
       id="line164" />
    <line
       x1="287.718384"
       y1="229.213272"
       x2="283.504608"
       y2="228.542648"
       id="line166" />
    <line
       x1="283.504608"
       y1="228.542648"
       x2="279.283783"
       y2="227.917923"
       id="line168" />
    <line
       x1="279.283783"
       y1="227.917923"
       x2="275.056427"
       y2="227.339157"
       id="line170" />
    <line
       x1="275.056427"
       y1="227.339157"
       x2="270.822998"
       y2="226.806473"
       id="line172" />
    <line
       x1="270.822998"
       y1="226.806473"
       x2="266.584045"
       y2="226.319870"
       id="line174" />
    <line
       x1="266.584045"
       y1="226.319870"
       x2="262.340027"
       y2="225.879440"
       id="line176" />
    <line
       x1="262.340027"
       y1="225.879440"
       x2="258.091461"
       y2="225.485245"
       id="line178" />
    <line
       x1="258.091461"
       y1="225.485245"
       x2="253.838882"
       y2="225.137314"
       id="line180" />
    <line
       x1="253.838882"
       y1="225.137314"
       x2="249.582748"
       y2="224.835709"
       id="line182" />
    <line
       x1="249.582748"
       y1="224.835709"
       x2="245.323593"
       y2="224.580399"
       id="line184" />
    <line
       x1="245.323593"
       y1="224.580399"
       x2="241.061905"
       y2="224.371506"
       id="line186" />
    <line
       x1="241.061905"
       y1="224.371506"
       x2="236.798203"
       y2="224.209000"
       id="line188" />
    <line
       x1="236.798203"
       y1="224.209000"
       x2="232.532974"
       y2="224.092880"
       id="line190" />
    <line
       x1="232.532974"
       y1="224.092880"
       x2="228.266739"
       y2="224.023209"
       id="line192" />
    <line
       x1="228.266739"
       y1="224.023209"
       x2="224.000000"
       y2="224.000015"
       id="line194" />
    <line
       x1="379.744568"
       y1="136.667480"
       x2="310.524780"
       y2="349.704163"
       id="line196" />
    <line
       x1="68.2554169"
       y1="136.667480"
       x2="137.475235"
       y2="349.704163"
       id="line198" />
    <line
       x1="278.343811"
       y1="312.832092"
       x2="304.492981"
       y2="232.353195"
       id="line200" />
    <line
       x1="169.656189"
       y1="312.832153"
       x2="143.507004"
       y2="232.353195"
       id="line202" />
    <line
       x1="169.656189"
       y1="312.832153"
       x2="210.015732"
       y2="322.666687"
       id="line204" />
    <line
       x1="278.343811"
       y1="312.832092"
       x2="237.984268"
       y2="322.666687"
       id="line206" />
    <line
       x1="210.015732"
       y1="322.666687"
       x2="210.017731"
       y2="336.699951"
       id="line208" />
    <line
       x1="237.982285"
       y1="336.699951"
       x2="237.984268"
       y2="322.666687"
       id="line210" />
    <line
       x1="237.982285"
       y1="336.699951"
       x2="236.511505"
       y2="336.630249"
       id="line292" />
    <line
       x1="236.511505"
       y1="336.630249"
       x2="235.040375"
       y2="336.568237"
       id="line294" />
    <line
       x1="235.040375"
       y1="336.568237"
       x2="233.568939"
       y2="336.513977"
       id="line296" />
    <line
       x1="233.568939"
       y1="336.513977"
       x2="232.097260"
       y2="336.467468"
       id="line298" />
    <line
       x1="232.097260"
       y1="336.467468"
       x2="230.625336"
       y2="336.428711"
       id="line300" />
    <line
       x1="230.625336"
       y1="336.428711"
       x2="229.153229"
       y2="336.397705"
       id="line302" />
    <line
       x1="229.153229"
       y1="336.397705"
       x2="227.680984"
       y2="336.374451"
       id="line304" />
    <line
       x1="227.680984"
       y1="336.374451"
       x2="226.208633"
       y2="336.358948"
       id="line306" />
    <line
       x1="226.208633"
       y1="336.358948"
       x2="224.736221"
       y2="336.351196"
       id="line308" />
    <line
       x1="224.736221"
       y1="336.351196"
       x2="223.263794"
       y2="336.351196"
       id="line310" />
    <line
       x1="223.263794"
       y1="336.351196"
       x2="221.791382"
       y2="336.358948"
       id="line312" />
    <line
       x1="221.791382"
       y1="336.358948"
       x2="220.319031"
       y2="336.374451"
       id="line314" />
    <line
       x1="220.319031"
       y1="336.374451"
       x2="218.846786"
       y2="336.397705"
       id="line316" />
    <line
       x1="218.846786"
       y1="336.397705"
       x2="217.374680"
       y2="336.428711"
       id="line318" />
    <line
       x1="217.374680"
       y1="336.428711"
       x2="215.902756"
       y2="336.467468"
       id="line320" />
    <line
       x1="215.902756"
       y1="336.467468"
       x2="214.431061"
       y2="336.513977"
       id="line322" />
    <line
       x1="214.431061"
       y1="336.513977"
       x2="212.959625"
       y2="336.568237"
       id="line324" />
    <line
       x1="212.959625"
       y1="336.568237"
       x2="211.488510"
       y2="336.630249"
       id="line326" />
    <line
       x1="211.488510"
       y1="336.630249"
       x2="210.017731"
       y2="336.699951"
       id="line328" />
  </g>
  <text
     x="87.7230682"
     y="294.782715"
     text-anchor="middle"
     id="text334">RF1</text>
  <text
     x="119.202980"
     y="387.948792"
     text-anchor="middle"
     id="text338">RH1</text>
  <text
     x="83.7304382"
     y="381.109436"
     text-anchor="middle"
     id="text340">RH2</text>
  <text
     x="224.000015"
     y="368.200012"
     text-anchor="middle"
     id="text342">SW</text>
  <text
     x="409.839264"
     y="217.373947"
     text-anchor="middle"
     id="text344">1/2 TW</text>
  <g
     stroke="rgb(0,128,255)"
     stroke-width="1"
     id="g690">
    <line
       x1="224.000000"
       y1="224.000015"
       x2="217.518692"
       y2="224.053604"
       id="line390" />
    <line
       x1="217.518692"
       y1="224.053604"
       x2="211.039154"
       y2="224.214340"
       id="line392" />
    <line
       x1="211.039154"
       y1="224.214340"
       x2="204.563171"
       y2="224.482162"
       id="line394" />
    <line
       x1="204.563171"
       y1="224.482162"
       x2="198.092484"
       y2="224.857040"
       id="line396" />
    <line
       x1="198.092484"
       y1="224.857040"
       x2="191.628891"
       y2="225.338882"
       id="line398" />
    <line
       x1="191.628891"
       y1="225.338882"
       x2="185.174149"
       y2="225.927505"
       id="line400" />
    <line
       x1="185.174149"
       y1="225.927505"
       x2="178.730011"
       y2="226.622787"
       id="line402" />
    <line
       x1="178.730011"
       y1="226.622787"
       x2="172.298264"
       y2="227.424484"
       id="line404" />
    <line
       x1="172.298264"
       y1="227.424484"
       x2="165.880646"
       y2="228.332443"
       id="line406" />
    <line
       x1="165.880646"
       y1="228.332443"
       x2="159.478912"
       y2="229.346359"
       id="line408" />
    <line
       x1="159.478912"
       y1="229.346359"
       x2="153.094818"
       y2="230.466019"
       id="line410" />
    <line
       x1="153.094818"
       y1="230.466019"
       x2="146.730118"
       y2="231.691055"
       id="line412" />
    <line
       x1="146.730118"
       y1="231.691055"
       x2="140.386536"
       y2="233.021164"
       id="line414" />
    <line
       x1="140.386536"
       y1="233.021164"
       x2="134.065811"
       y2="234.455978"
       id="line416" />
    <line
       x1="134.065811"
       y1="234.455978"
       x2="127.769684"
       y2="235.995102"
       id="line418" />
    <line
       x1="127.769684"
       y1="235.995102"
       x2="121.499855"
       y2="237.638107"
       id="line420" />
    <line
       x1="121.499855"
       y1="237.638107"
       x2="115.258057"
       y2="239.384567"
       id="line422" />
    <line
       x1="115.258057"
       y1="239.384567"
       x2="109.045975"
       y2="241.233963"
       id="line424" />
    <line
       x1="109.045975"
       y1="241.233963"
       x2="102.865334"
       y2="243.185867"
       id="line426" />
    <line
       x1="66.4653320"
       y1="255.012955"
       x2="102.865334"
       y2="243.185867"
       id="line428" />
    <line
       x1="80.7178040"
       y1="279.822998"
       x2="72.0653229"
       y2="253.193405"
       id="line430" />
    <line
       x1="72.0653229"
       y1="253.193405"
       x2="70.2340240"
       y2="261.148682"
       id="line432" />
    <line
       x1="72.0653229"
       y1="253.193405"
       x2="78.2228851"
       y2="258.552917"
       id="line434" />
    <line
       x1="210.015732"
       y1="322.666687"
       x2="205.901443"
       y2="322.874146"
       id="line480" />
    <line
       x1="205.901443"
       y1="322.874146"
       x2="201.790222"
       y2="323.139404"
       id="line482" />
    <line
       x1="201.790222"
       y1="323.139404"
       x2="197.682877"
       y2="323.462219"
       id="line484" />
    <line
       x1="197.682877"
       y1="323.462219"
       x2="193.580215"
       y2="323.842712"
       id="line486" />
    <line
       x1="193.580215"
       y1="323.842712"
       x2="189.483063"
       y2="324.280701"
       id="line488" />
    <line
       x1="189.483063"
       y1="324.280701"
       x2="185.392197"
       y2="324.776184"
       id="line490" />
    <line
       x1="185.392197"
       y1="324.776184"
       x2="181.308456"
       y2="325.329041"
       id="line492" />
    <line
       x1="181.308456"
       y1="325.329041"
       x2="177.232620"
       y2="325.939087"
       id="line494" />
    <line
       x1="177.232620"
       y1="325.939087"
       x2="173.165497"
       y2="326.606384"
       id="line496" />
    <line
       x1="173.165497"
       y1="326.606384"
       x2="169.107895"
       y2="327.330688"
       id="line498" />
    <line
       x1="169.107895"
       y1="327.330688"
       x2="165.060608"
       y2="328.111816"
       id="line500" />
    <line
       x1="165.060608"
       y1="328.111816"
       x2="161.024445"
       y2="328.949768"
       id="line502" />
    <line
       x1="161.024445"
       y1="328.949768"
       x2="157.000183"
       y2="329.844238"
       id="line504" />
    <line
       x1="157.000183"
       y1="329.844238"
       x2="152.988617"
       y2="330.795166"
       id="line506" />
    <line
       x1="152.988617"
       y1="330.795166"
       x2="148.990570"
       y2="331.802368"
       id="line508" />
    <line
       x1="148.990570"
       y1="331.802368"
       x2="145.006790"
       y2="332.865540"
       id="line510" />
    <line
       x1="145.006790"
       y1="332.865540"
       x2="141.038086"
       y2="333.984619"
       id="line512" />
    <line
       x1="141.038086"
       y1="333.984619"
       x2="137.085220"
       y2="335.159302"
       id="line514" />
    <line
       x1="137.085220"
       y1="335.159302"
       x2="133.148987"
       y2="336.389404"
       id="line516" />
    <line
       x1="96.7490005"
       y1="348.216431"
       x2="133.148987"
       y2="336.389404"
       id="line518" />
    <line
       x1="111.001465"
       y1="373.026489"
       x2="102.348991"
       y2="346.396912"
       id="line520" />
    <line
       x1="102.348991"
       y1="346.396912"
       x2="100.517677"
       y2="354.352173"
       id="line522" />
    <line
       x1="102.348991"
       y1="346.396912"
       x2="108.506546"
       y2="351.756470"
       id="line524" />
    <line
       x1="169.656189"
       y1="312.832153"
       x2="167.474976"
       y2="313.231201"
       id="line526" />
    <line
       x1="167.474976"
       y1="313.231201"
       x2="165.296692"
       y2="313.646057"
       id="line528" />
    <line
       x1="165.296692"
       y1="313.646057"
       x2="163.121429"
       y2="314.076477"
       id="line530" />
    <line
       x1="163.121429"
       y1="314.076477"
       x2="160.949341"
       y2="314.522583"
       id="line532" />
    <line
       x1="160.949341"
       y1="314.522583"
       x2="158.780518"
       y2="314.984375"
       id="line534" />
    <line
       x1="158.780518"
       y1="314.984375"
       x2="156.615082"
       y2="315.461670"
       id="line536" />
    <line
       x1="156.615082"
       y1="315.461670"
       x2="154.453125"
       y2="315.954590"
       id="line538" />
    <line
       x1="154.453125"
       y1="315.954590"
       x2="152.294785"
       y2="316.463074"
       id="line540" />
    <line
       x1="152.294785"
       y1="316.463074"
       x2="150.140167"
       y2="316.987061"
       id="line542" />
    <line
       x1="150.140167"
       y1="316.987061"
       x2="147.989349"
       y2="317.526611"
       id="line544" />
    <line
       x1="147.989349"
       y1="317.526611"
       x2="145.842499"
       y2="318.081543"
       id="line546" />
    <line
       x1="145.842499"
       y1="318.081543"
       x2="143.699677"
       y2="318.651917"
       id="line548" />
    <line
       x1="143.699677"
       y1="318.651917"
       x2="141.561035"
       y2="319.237732"
       id="line550" />
    <line
       x1="141.561035"
       y1="319.237732"
       x2="139.426666"
       y2="319.838989"
       id="line552" />
    <line
       x1="139.426666"
       y1="319.838989"
       x2="137.296677"
       y2="320.455505"
       id="line554" />
    <line
       x1="137.296677"
       y1="320.455505"
       x2="135.171173"
       y2="321.087402"
       id="line556" />
    <line
       x1="135.171173"
       y1="321.087402"
       x2="133.050293"
       y2="321.734558"
       id="line558" />
    <line
       x1="133.050293"
       y1="321.734558"
       x2="130.934113"
       y2="322.396973"
       id="line560" />
    <line
       x1="130.934113"
       y1="322.396973"
       x2="128.822754"
       y2="323.074585"
       id="line562" />
    <line
       x1="64.4227600"
       y1="343.999451"
       x2="128.822754"
       y2="323.074585"
       id="line564" />
    <line
       x1="78.6752319"
       y1="368.809448"
       x2="70.0227509"
       y2="342.179871"
       id="line566" />
    <line
       x1="70.0227509"
       y1="342.179871"
       x2="68.1914368"
       y2="350.135132"
       id="line568" />
    <line
       x1="70.0227509"
       y1="342.179871"
       x2="76.1803131"
       y2="347.539429"
       id="line570" />
    <line
       x1="237.982285"
       y1="336.699951"
       x2="237.688904"
       y2="369.980530"
       id="line572" />
    <line
       x1="210.017731"
       y1="336.699951"
       x2="210.311111"
       y2="369.980530"
       id="line574" />
    <line
       x1="266.000000"
       y1="364.000000"
       x2="238.000015"
       y2="364.000000"
       id="line576" />
    <line
       x1="238.000015"
       y1="364.000000"
       x2="245.000015"
       y2="368.200012"
       id="line578" />
    <line
       x1="238.000015"
       y1="364.000000"
       x2="245.000015"
       y2="359.799988"
       id="line580" />
    <line
       x1="182.000015"
       y1="364.000000"
       x2="210.000015"
       y2="364.000000"
       id="line582" />
    <line
       x1="210.000015"
       y1="364.000000"
       x2="203.000015"
       y2="359.799988"
       id="line584" />
    <line
       x1="210.000015"
       y1="364.000000"
       x2="203.000015"
       y2="368.200012"
       id="line586" />
    <line
       x1="321.292999"
       y1="180.648087"
       x2="304.492981"
       y2="232.353195"
       id="line588" />
    <line
       x1="291.863403"
       y1="180.613113"
       x2="318.492981"
       y2="189.265579"
       id="line590" />
    <line
       x1="318.492981"
       y1="189.265579"
       x2="313.133484"
       y2="183.108047"
       id="line592" />
    <line
       x1="318.492981"
       y1="189.265579"
       x2="310.537720"
       y2="191.096878"
       id="line594" />
    <line
       x1="385.692017"
       y1="208.973099"
       x2="359.062439"
       y2="200.320633"
       id="line596" />
    <line
       x1="359.062439"
       y1="200.320633"
       x2="364.421936"
       y2="206.478165"
       id="line598" />
    <line
       x1="359.062439"
       y1="200.320633"
       x2="367.017700"
       y2="198.489304"
       id="line600" />
  </g>
</svg>
