<?xml version="1.0" encoding="UTF-8" standalone="no"?>
<svg
   encoding="UTF-8"
   width="310"
   height="300"
   viewBox="70 50 200 340"
   version="1.1"
   id="svg938"
   xmlns="http://www.w3.org/2000/svg"
   xmlns:svg="http://www.w3.org/2000/svg">
  <defs
     id="defs4">
    <style
       type="text/css"
       id="style2"><![CDATA[text { font-family:monospace;font-size:10;}]]></style>
  </defs>
  <g
     font-size="1"
     text-anchor="middle"
     id="g22">
    <text
       x="220.096512"
       y="288"
       id="text6">o</text>
    <text
       x="206.726944"
       y="304"
       id="text8">o</text>
    <text
       x="213.371948"
       y="159"
       id="text10">o</text>
    <text
       x="243.133942"
       y="203"
       id="text12">o</text>
    <text
       x="195.258423"
       y="283"
       id="text14">*</text>
    <text
       x="210.016479"
       y="195"
       id="text16">*</text>
    <text
       x="147.598724"
       y="283"
       id="text18">*</text>
    <text
       x="132.840668"
       y="195"
       id="text20">*</text>
  </g>
  <g
     stroke="rgb(0,0,0)"
     stroke-width="1"
     id="g506">
    <line
       x1="241.309723"
       y1="322.057129"
       x2="249.074280"
       y2="293.079346"
       id="line24" />
    <line
       x1="101.547432"
       y1="322.057129"
       x2="93.7828598"
       y2="293.079346"
       id="line26" />
    <line
       x1="237.982056"
       y1="334.476196"
       x2="241.309723"
       y2="322.057129"
       id="line28" />
    <line
       x1="104.875099"
       y1="334.476196"
       x2="101.547432"
       y2="322.057129"
       id="line30" />
    <line
       x1="213.371964"
       y1="156.343018"
       x2="208.968872"
       y2="155.932983"
       id="line32" />
    <line
       x1="208.968872"
       y1="155.932983"
       x2="204.561768"
       y2="155.568359"
       id="line34" />
    <line
       x1="204.561768"
       y1="155.568359"
       x2="200.151154"
       y2="155.249207"
       id="line36" />
    <line
       x1="200.151154"
       y1="155.249207"
       x2="195.737473"
       y2="154.975647"
       id="line38" />
    <line
       x1="195.737473"
       y1="154.975647"
       x2="191.321198"
       y2="154.747559"
       id="line40" />
    <line
       x1="191.321198"
       y1="154.747559"
       x2="186.902817"
       y2="154.565125"
       id="line42" />
    <line
       x1="186.902817"
       y1="154.565125"
       x2="182.482788"
       y2="154.428223"
       id="line44" />
    <line
       x1="182.482788"
       y1="154.428223"
       x2="178.061569"
       y2="154.336975"
       id="line46" />
    <line
       x1="178.061569"
       y1="154.336975"
       x2="173.639664"
       y2="154.291382"
       id="line48" />
    <line
       x1="173.639664"
       y1="154.291382"
       x2="169.217499"
       y2="154.291382"
       id="line50" />
    <line
       x1="169.217499"
       y1="154.291382"
       x2="164.795593"
       y2="154.336975"
       id="line52" />
    <line
       x1="164.795593"
       y1="154.336975"
       x2="160.374374"
       y2="154.428223"
       id="line54" />
    <line
       x1="160.374374"
       y1="154.428223"
       x2="155.954346"
       y2="154.565125"
       id="line56" />
    <line
       x1="155.954346"
       y1="154.565125"
       x2="151.535965"
       y2="154.747559"
       id="line58" />
    <line
       x1="151.535965"
       y1="154.747559"
       x2="147.119690"
       y2="154.975647"
       id="line60" />
    <line
       x1="147.119690"
       y1="154.975647"
       x2="142.706009"
       y2="155.249207"
       id="line62" />
    <line
       x1="142.706009"
       y1="155.249207"
       x2="138.295395"
       y2="155.568359"
       id="line64" />
    <line
       x1="138.295395"
       y1="155.568359"
       x2="133.888290"
       y2="155.932983"
       id="line66" />
    <line
       x1="133.888290"
       y1="155.932983"
       x2="129.485199"
       y2="156.343018"
       id="line68" />
    <line
       x1="293.443298"
       y1="127.492065"
       x2="280.849670"
       y2="124.302917"
       id="line70" />
    <line
       x1="280.849670"
       y1="124.302917"
       x2="268.172974"
       y2="121.462036"
       id="line72" />
    <line
       x1="268.172974"
       y1="121.462036"
       x2="255.422791"
       y2="118.971497"
       id="line74" />
    <line
       x1="255.422791"
       y1="118.971497"
       x2="242.608841"
       y2="116.833191"
       id="line76" />
    <line
       x1="242.608841"
       y1="116.833191"
       x2="229.740829"
       y2="115.048828"
       id="line78" />
    <line
       x1="229.740829"
       y1="115.048828"
       x2="216.828537"
       y2="113.619690"
       id="line80" />
    <line
       x1="216.828537"
       y1="113.619690"
       x2="203.881775"
       y2="112.546875"
       id="line82" />
    <line
       x1="203.881775"
       y1="112.546875"
       x2="190.910355"
       y2="111.831238"
       id="line84" />
    <line
       x1="190.910355"
       y1="111.831238"
       x2="177.924149"
       y2="111.473267"
       id="line86" />
    <line
       x1="177.924149"
       y1="111.473267"
       x2="164.933014"
       y2="111.473267"
       id="line88" />
    <line
       x1="164.933014"
       y1="111.473267"
       x2="151.946808"
       y2="111.831238"
       id="line90" />
    <line
       x1="151.946808"
       y1="111.831238"
       x2="138.975388"
       y2="112.546875"
       id="line92" />
    <line
       x1="138.975388"
       y1="112.546875"
       x2="126.028625"
       y2="113.619690"
       id="line94" />
    <line
       x1="126.028625"
       y1="113.619690"
       x2="113.116333"
       y2="115.048828"
       id="line96" />
    <line
       x1="113.116333"
       y1="115.048828"
       x2="100.248322"
       y2="116.833191"
       id="line98" />
    <line
       x1="100.248322"
       y1="116.833191"
       x2="87.4343643"
       y2="118.971497"
       id="line100" />
    <line
       x1="87.4343643"
       y1="118.971497"
       x2="74.6841965"
       y2="121.461975"
       id="line102" />
    <line
       x1="74.6841965"
       y1="121.461975"
       x2="62.0074844"
       y2="124.302917"
       id="line104" />
    <line
       x1="62.0074844"
       y1="124.302917"
       x2="49.4138794"
       y2="127.492065"
       id="line106" />
    <line
       x1="158.571426"
       y1="326.035889"
       x2="156.385452"
       y2="326.154663"
       id="line108" />
    <line
       x1="156.385452"
       y1="326.154663"
       x2="154.200577"
       y2="326.292053"
       id="line110" />
    <line
       x1="154.200577"
       y1="326.292053"
       x2="152.016937"
       y2="326.447998"
       id="line112" />
    <line
       x1="152.016937"
       y1="326.447998"
       x2="149.834717"
       y2="326.622559"
       id="line114" />
    <line
       x1="149.834717"
       y1="326.622559"
       x2="147.654053"
       y2="326.815674"
       id="line116" />
    <line
       x1="147.654053"
       y1="326.815674"
       x2="145.475128"
       y2="327.027344"
       id="line118" />
    <line
       x1="145.475128"
       y1="327.027344"
       x2="143.298065"
       y2="327.257568"
       id="line120" />
    <line
       x1="143.298065"
       y1="327.257568"
       x2="141.123047"
       y2="327.506348"
       id="line122" />
    <line
       x1="141.123047"
       y1="327.506348"
       x2="138.950226"
       y2="327.773621"
       id="line124" />
    <line
       x1="138.950226"
       y1="327.773621"
       x2="136.779755"
       y2="328.059326"
       id="line126" />
    <line
       x1="136.779755"
       y1="328.059326"
       x2="134.611801"
       y2="328.363586"
       id="line128" />
    <line
       x1="134.611801"
       y1="328.363586"
       x2="132.446518"
       y2="328.686218"
       id="line130" />
    <line
       x1="132.446518"
       y1="328.686218"
       x2="130.284058"
       y2="329.027283"
       id="line132" />
    <line
       x1="130.284058"
       y1="329.027283"
       x2="128.124573"
       y2="329.386780"
       id="line134" />
    <line
       x1="128.124573"
       y1="329.386780"
       x2="125.968231"
       y2="329.764648"
       id="line136" />
    <line
       x1="125.968231"
       y1="329.764648"
       x2="123.815193"
       y2="330.160828"
       id="line138" />
    <line
       x1="123.815193"
       y1="330.160828"
       x2="121.665596"
       y2="330.575348"
       id="line140" />
    <line
       x1="121.665596"
       y1="330.575348"
       x2="119.519608"
       y2="331.008148"
       id="line142" />
    <line
       x1="119.519608"
       y1="331.008148"
       x2="117.377380"
       y2="331.459167"
       id="line144" />
    <line
       x1="225.479736"
       y1="331.459167"
       x2="223.337524"
       y2="331.008118"
       id="line146" />
    <line
       x1="223.337524"
       y1="331.008118"
       x2="221.191528"
       y2="330.575317"
       id="line148" />
    <line
       x1="221.191528"
       y1="330.575317"
       x2="219.041931"
       y2="330.160828"
       id="line150" />
    <line
       x1="219.041931"
       y1="330.160828"
       x2="216.888901"
       y2="329.764648"
       id="line152" />
    <line
       x1="216.888901"
       y1="329.764648"
       x2="214.732559"
       y2="329.386780"
       id="line154" />
    <line
       x1="214.732559"
       y1="329.386780"
       x2="212.573074"
       y2="329.027283"
       id="line156" />
    <line
       x1="212.573074"
       y1="329.027283"
       x2="210.410614"
       y2="328.686218"
       id="line158" />
    <line
       x1="210.410614"
       y1="328.686218"
       x2="208.245331"
       y2="328.363586"
       id="line160" />
    <line
       x1="208.245331"
       y1="328.363586"
       x2="206.077377"
       y2="328.059326"
       id="line162" />
    <line
       x1="206.077377"
       y1="328.059326"
       x2="203.906921"
       y2="327.773590"
       id="line164" />
    <line
       x1="203.906921"
       y1="327.773590"
       x2="201.734100"
       y2="327.506348"
       id="line166" />
    <line
       x1="201.734100"
       y1="327.506348"
       x2="199.559082"
       y2="327.257568"
       id="line168" />
    <line
       x1="199.559082"
       y1="327.257568"
       x2="197.382019"
       y2="327.027344"
       id="line170" />
    <line
       x1="197.382019"
       y1="327.027344"
       x2="195.203094"
       y2="326.815674"
       id="line172" />
    <line
       x1="195.203094"
       y1="326.815674"
       x2="193.022430"
       y2="326.622559"
       id="line174" />
    <line
       x1="193.022430"
       y1="326.622559"
       x2="190.840210"
       y2="326.447998"
       id="line176" />
    <line
       x1="190.840210"
       y1="326.447998"
       x2="188.656570"
       y2="326.292053"
       id="line178" />
    <line
       x1="188.656570"
       y1="326.292053"
       x2="186.471695"
       y2="326.154663"
       id="line180" />
    <line
       x1="186.471695"
       y1="326.154663"
       x2="184.285721"
       y2="326.035889"
       id="line182" />
    <line
       x1="228.738434"
       y1="325.535828"
       x2="227.306030"
       y2="327.306152"
       id="line196" />
    <line
       x1="237.982056"
       y1="334.476196"
       x2="237.327911"
       y2="334.301849"
       id="line220" />
    <line
       x1="237.327911"
       y1="334.301849"
       x2="236.673325"
       y2="334.129211"
       id="line222" />
    <line
       x1="236.673325"
       y1="334.129211"
       x2="236.018280"
       y2="333.958313"
       id="line224" />
    <line
       x1="236.018280"
       y1="333.958313"
       x2="235.362778"
       y2="333.789124"
       id="line226" />
    <line
       x1="235.362778"
       y1="333.789124"
       x2="234.706848"
       y2="333.621674"
       id="line228" />
    <line
       x1="234.706848"
       y1="333.621674"
       x2="234.050476"
       y2="333.455933"
       id="line230" />
    <line
       x1="234.050476"
       y1="333.455933"
       x2="233.393661"
       y2="333.291931"
       id="line232" />
    <line
       x1="233.393661"
       y1="333.291931"
       x2="232.736420"
       y2="333.129669"
       id="line234" />
    <line
       x1="232.736420"
       y1="333.129669"
       x2="232.078751"
       y2="332.969116"
       id="line236" />
    <line
       x1="232.078751"
       y1="332.969116"
       x2="231.420670"
       y2="332.810333"
       id="line238" />
    <line
       x1="231.420670"
       y1="332.810333"
       x2="230.762177"
       y2="332.653259"
       id="line240" />
    <line
       x1="230.762177"
       y1="332.653259"
       x2="230.103256"
       y2="332.497925"
       id="line242" />
    <line
       x1="230.103256"
       y1="332.497925"
       x2="229.443939"
       y2="332.344299"
       id="line244" />
    <line
       x1="229.443939"
       y1="332.344299"
       x2="228.784210"
       y2="332.192444"
       id="line246" />
    <line
       x1="228.784210"
       y1="332.192444"
       x2="228.124100"
       y2="332.042297"
       id="line248" />
    <line
       x1="228.124100"
       y1="332.042297"
       x2="227.463593"
       y2="331.893921"
       id="line250" />
    <line
       x1="227.463593"
       y1="331.893921"
       x2="226.802689"
       y2="331.747253"
       id="line252" />
    <line
       x1="226.802689"
       y1="331.747253"
       x2="226.141403"
       y2="331.602356"
       id="line254" />
    <line
       x1="226.141403"
       y1="331.602356"
       x2="225.479736"
       y2="331.459167"
       id="line256" />
    <line
       x1="117.377380"
       y1="331.459167"
       x2="116.715729"
       y2="331.602356"
       id="line258" />
    <line
       x1="116.715729"
       y1="331.602356"
       x2="116.054443"
       y2="331.747253"
       id="line260" />
    <line
       x1="116.054443"
       y1="331.747253"
       x2="115.393539"
       y2="331.893921"
       id="line262" />
    <line
       x1="115.393539"
       y1="331.893921"
       x2="114.733032"
       y2="332.042297"
       id="line264" />
    <line
       x1="114.733032"
       y1="332.042297"
       x2="114.072922"
       y2="332.192444"
       id="line266" />
    <line
       x1="114.072922"
       y1="332.192444"
       x2="113.413193"
       y2="332.344299"
       id="line268" />
    <line
       x1="113.413193"
       y1="332.344299"
       x2="112.753876"
       y2="332.497925"
       id="line270" />
    <line
       x1="112.753876"
       y1="332.497925"
       x2="112.094971"
       y2="332.653259"
       id="line272" />
    <line
       x1="112.094971"
       y1="332.653259"
       x2="111.436478"
       y2="332.810333"
       id="line274" />
    <line
       x1="111.436478"
       y1="332.810333"
       x2="110.778389"
       y2="332.969147"
       id="line276" />
    <line
       x1="110.778389"
       y1="332.969147"
       x2="110.120728"
       y2="333.129669"
       id="line278" />
    <line
       x1="110.120728"
       y1="333.129669"
       x2="109.463486"
       y2="333.291931"
       id="line280" />
    <line
       x1="109.463486"
       y1="333.291931"
       x2="108.806679"
       y2="333.455933"
       id="line282" />
    <line
       x1="108.806679"
       y1="333.455933"
       x2="108.150299"
       y2="333.621674"
       id="line284" />
    <line
       x1="108.150299"
       y1="333.621674"
       x2="107.494370"
       y2="333.789124"
       id="line286" />
    <line
       x1="107.494370"
       y1="333.789124"
       x2="106.838875"
       y2="333.958313"
       id="line288" />
    <line
       x1="106.838875"
       y1="333.958313"
       x2="106.183830"
       y2="334.129211"
       id="line290" />
    <line
       x1="106.183830"
       y1="334.129211"
       x2="105.529236"
       y2="334.301819"
       id="line292" />
    <line
       x1="105.529236"
       y1="334.301819"
       x2="104.875107"
       y2="334.476196"
       id="line294" />
    <line
       x1="206.726959"
       y1="301.674622"
       x2="207.740875"
       y2="301.140869"
       id="line296" />
    <line
       x1="207.740875"
       y1="301.140869"
       x2="208.729996"
       y2="300.562439"
       id="line298" />
    <line
       x1="208.729996"
       y1="300.562439"
       x2="209.692368"
       y2="299.940552"
       id="line300" />
    <line
       x1="209.692368"
       y1="299.940552"
       x2="210.626099"
       y2="299.276428"
       id="line302" />
    <line
       x1="210.626099"
       y1="299.276428"
       x2="211.529297"
       y2="298.571350"
       id="line304" />
    <line
       x1="211.529297"
       y1="298.571350"
       x2="212.400192"
       y2="297.826721"
       id="line306" />
    <line
       x1="212.400192"
       y1="297.826721"
       x2="213.237061"
       y2="297.044067"
       id="line308" />
    <line
       x1="213.237061"
       y1="297.044067"
       x2="214.038208"
       y2="296.224854"
       id="line310" />
    <line
       x1="214.038208"
       y1="296.224854"
       x2="214.802094"
       y2="295.370789"
       id="line312" />
    <line
       x1="214.802094"
       y1="295.370789"
       x2="215.527161"
       y2="294.483582"
       id="line314" />
    <line
       x1="215.527161"
       y1="294.483582"
       x2="216.211975"
       y2="293.564941"
       id="line316" />
    <line
       x1="216.211975"
       y1="293.564941"
       x2="216.855194"
       y2="292.616638"
       id="line318" />
    <line
       x1="216.855194"
       y1="292.616638"
       x2="217.455536"
       y2="291.640747"
       id="line320" />
    <line
       x1="217.455536"
       y1="291.640747"
       x2="218.011795"
       y2="290.638977"
       id="line322" />
    <line
       x1="218.011795"
       y1="290.638977"
       x2="218.522888"
       y2="289.613464"
       id="line324" />
    <line
       x1="218.522888"
       y1="289.613464"
       x2="218.987778"
       y2="288.566162"
       id="line326" />
    <line
       x1="218.987778"
       y1="288.566162"
       x2="219.405548"
       y2="287.499207"
       id="line328" />
    <line
       x1="219.405548"
       y1="287.499207"
       x2="219.775375"
       y2="286.414734"
       id="line330" />
    <line
       x1="219.775375"
       y1="286.414734"
       x2="220.096527"
       y2="285.314819"
       id="line332" />
    <line
       x1="184.285721"
       y1="312.857117"
       x2="206.726944"
       y2="301.674622"
       id="line334" />
    <line
       x1="184.285721"
       y1="312.857117"
       x2="184.285721"
       y2="326.035889"
       id="line336" />
    <line
       x1="243.133942"
       y1="199.337997"
       x2="243.805023"
       y2="196.281845"
       id="line338" />
    <line
       x1="243.805023"
       y1="196.281845"
       x2="244.194702"
       y2="193.177200"
       id="line340" />
    <line
       x1="244.194702"
       y1="193.177200"
       x2="244.299713"
       y2="190.050003"
       id="line342" />
    <line
       x1="244.299713"
       y1="190.050003"
       x2="244.119186"
       y2="186.926254"
       id="line344" />
    <line
       x1="244.119186"
       y1="186.926254"
       x2="243.654633"
       y2="183.831985"
       id="line346" />
    <line
       x1="243.654633"
       y1="183.831985"
       x2="242.909912"
       y2="180.792923"
       id="line348" />
    <line
       x1="242.909912"
       y1="180.792923"
       x2="241.891235"
       y2="177.834396"
       id="line350" />
    <line
       x1="241.891235"
       y1="177.834396"
       x2="240.607086"
       y2="174.981094"
       id="line352" />
    <line
       x1="240.607086"
       y1="174.981094"
       x2="239.068161"
       y2="172.256760"
       id="line354" />
    <line
       x1="239.068161"
       y1="172.256760"
       x2="237.287262"
       y2="169.684036"
       id="line356" />
    <line
       x1="237.287262"
       y1="169.684036"
       x2="235.279251"
       y2="167.284378"
       id="line358" />
    <line
       x1="235.279251"
       y1="167.284378"
       x2="233.060837"
       y2="165.077774"
       id="line360" />
    <line
       x1="233.060837"
       y1="165.077774"
       x2="230.650482"
       y2="163.082642"
       id="line362" />
    <line
       x1="230.650482"
       y1="163.082642"
       x2="228.068268"
       y2="161.315552"
       id="line364" />
    <line
       x1="228.068268"
       y1="161.315552"
       x2="225.335724"
       y2="159.791199"
       id="line366" />
    <line
       x1="225.335724"
       y1="159.791199"
       x2="222.475586"
       y2="158.522339"
       id="line368" />
    <line
       x1="222.475586"
       y1="158.522339"
       x2="219.511673"
       y2="157.519531"
       id="line370" />
    <line
       x1="219.511673"
       y1="157.519531"
       x2="216.468689"
       y2="156.791016"
       id="line372" />
    <line
       x1="216.468689"
       y1="156.791016"
       x2="213.371964"
       y2="156.343018"
       id="line374" />
    <line
       x1="249.074280"
       y1="293.079346"
       x2="272.111694"
       y2="207.102554"
       id="line376" />
    <line
       x1="272.111694"
       y1="207.102554"
       x2="293.443268"
       y2="127.492065"
       id="line378" />
    <line
       x1="243.133942"
       y1="199.337997"
       x2="220.096512"
       y2="285.314819"
       id="line380" />
    <line
       x1="158.571426"
       y1="326.035889"
       x2="155.709702"
       y2="326.195129"
       id="line382" />
    <line
       x1="155.709702"
       y1="326.195129"
       x2="152.849915"
       y2="326.386292"
       id="line384" />
    <line
       x1="152.849915"
       y1="326.386292"
       x2="149.992447"
       y2="326.609314"
       id="line386" />
    <line
       x1="149.992447"
       y1="326.609314"
       x2="147.137634"
       y2="326.864166"
       id="line388" />
    <line
       x1="147.137634"
       y1="326.864166"
       x2="144.285843"
       y2="327.150818"
       id="line390" />
    <line
       x1="144.285843"
       y1="327.150818"
       x2="141.437424"
       y2="327.469238"
       id="line392" />
    <line
       x1="141.437424"
       y1="327.469238"
       x2="138.592743"
       y2="327.819397"
       id="line394" />
    <line
       x1="138.592743"
       y1="327.819397"
       x2="135.752121"
       y2="328.201202"
       id="line396" />
    <line
       x1="135.752121"
       y1="328.201202"
       x2="132.915939"
       y2="328.614685"
       id="line398" />
    <line
       x1="132.915939"
       y1="328.614685"
       x2="130.084549"
       y2="329.059723"
       id="line400" />
    <line
       x1="130.084549"
       y1="329.059723"
       x2="127.258286"
       y2="329.536316"
       id="line402" />
    <line
       x1="127.258286"
       y1="329.536316"
       x2="124.437515"
       y2="330.044373"
       id="line404" />
    <line
       x1="124.437515"
       y1="330.044373"
       x2="121.622581"
       y2="330.583832"
       id="line406" />
    <line
       x1="121.622581"
       y1="330.583832"
       x2="118.813835"
       y2="331.154663"
       id="line408" />
    <line
       x1="118.813835"
       y1="331.154663"
       x2="116.011627"
       y2="331.756714"
       id="line410" />
    <line
       x1="116.011627"
       y1="331.756714"
       x2="113.216293"
       y2="332.389984"
       id="line412" />
    <line
       x1="113.216293"
       y1="332.389984"
       x2="110.428207"
       y2="333.054382"
       id="line414" />
    <line
       x1="110.428207"
       y1="333.054382"
       x2="107.647690"
       y2="333.749817"
       id="line416" />
    <line
       x1="107.647690"
       y1="333.749817"
       x2="104.875107"
       y2="334.476196"
       id="line418" />
    <line
       x1="122.760628"
       y1="285.314819"
       x2="123.081779"
       y2="286.414734"
       id="line420" />
    <line
       x1="123.081779"
       y1="286.414734"
       x2="123.451614"
       y2="287.499207"
       id="line422" />
    <line
       x1="123.451614"
       y1="287.499207"
       x2="123.869385"
       y2="288.566162"
       id="line424" />
    <line
       x1="123.869385"
       y1="288.566162"
       x2="124.334274"
       y2="289.613464"
       id="line426" />
    <line
       x1="124.334274"
       y1="289.613464"
       x2="124.845360"
       y2="290.638977"
       id="line428" />
    <line
       x1="124.845360"
       y1="290.638977"
       x2="125.401627"
       y2="291.640747"
       id="line430" />
    <line
       x1="125.401627"
       y1="291.640747"
       x2="126.001953"
       y2="292.616699"
       id="line432" />
    <line
       x1="126.001953"
       y1="292.616699"
       x2="126.645172"
       y2="293.564941"
       id="line434" />
    <line
       x1="126.645172"
       y1="293.564941"
       x2="127.330002"
       y2="294.483582"
       id="line436" />
    <line
       x1="127.330002"
       y1="294.483582"
       x2="128.055069"
       y2="295.370789"
       id="line438" />
    <line
       x1="128.055069"
       y1="295.370789"
       x2="128.818939"
       y2="296.224854"
       id="line440" />
    <line
       x1="128.818939"
       y1="296.224854"
       x2="129.620117"
       y2="297.044067"
       id="line442" />
    <line
       x1="129.620117"
       y1="297.044067"
       x2="130.456970"
       y2="297.826721"
       id="line444" />
    <line
       x1="130.456970"
       y1="297.826721"
       x2="131.327881"
       y2="298.571350"
       id="line446" />
    <line
       x1="131.327881"
       y1="298.571350"
       x2="132.231079"
       y2="299.276428"
       id="line448" />
    <line
       x1="132.231079"
       y1="299.276428"
       x2="133.164795"
       y2="299.940552"
       id="line450" />
    <line
       x1="133.164795"
       y1="299.940552"
       x2="134.127167"
       y2="300.562439"
       id="line452" />
    <line
       x1="134.127167"
       y1="300.562439"
       x2="135.116302"
       y2="301.140869"
       id="line454" />
    <line
       x1="135.116302"
       y1="301.140869"
       x2="136.130203"
       y2="301.674622"
       id="line456" />
    <line
       x1="158.571426"
       y1="312.857117"
       x2="158.571426"
       y2="326.035889"
       id="line458" />
    <line
       x1="158.571426"
       y1="312.857117"
       x2="136.130203"
       y2="301.674622"
       id="line460" />
    <line
       x1="93.7828598"
       y1="293.079346"
       x2="70.7454376"
       y2="207.102554"
       id="line462" />
    <line
       x1="70.7454376"
       y1="207.102554"
       x2="49.4138718"
       y2="127.492065"
       id="line464" />
    <line
       x1="129.485199"
       y1="156.343018"
       x2="126.388474"
       y2="156.791016"
       id="line466" />
    <line
       x1="126.388474"
       y1="156.791016"
       x2="123.345482"
       y2="157.519531"
       id="line468" />
    <line
       x1="123.345482"
       y1="157.519531"
       x2="120.381577"
       y2="158.522339"
       id="line470" />
    <line
       x1="120.381577"
       y1="158.522339"
       x2="117.521423"
       y2="159.791199"
       id="line472" />
    <line
       x1="117.521423"
       y1="159.791199"
       x2="114.788879"
       y2="161.315552"
       id="line474" />
    <line
       x1="114.788879"
       y1="161.315552"
       x2="112.206673"
       y2="163.082642"
       id="line476" />
    <line
       x1="112.206673"
       y1="163.082642"
       x2="109.796318"
       y2="165.077774"
       id="line478" />
    <line
       x1="109.796318"
       y1="165.077774"
       x2="107.577896"
       y2="167.284378"
       id="line480" />
    <line
       x1="107.577896"
       y1="167.284378"
       x2="105.569878"
       y2="169.684036"
       id="line482" />
    <line
       x1="105.569878"
       y1="169.684036"
       x2="103.788994"
       y2="172.256760"
       id="line484" />
    <line
       x1="103.788994"
       y1="172.256760"
       x2="102.250061"
       y2="174.981094"
       id="line486" />
    <line
       x1="102.250061"
       y1="174.981094"
       x2="100.965912"
       y2="177.834427"
       id="line488" />
    <line
       x1="100.965912"
       y1="177.834427"
       x2="99.9472427"
       y2="180.792923"
       id="line490" />
    <line
       x1="99.9472427"
       y1="180.792923"
       x2="99.2025299"
       y2="183.831985"
       id="line492" />
    <line
       x1="99.2025299"
       y1="183.831985"
       x2="98.7379684"
       y2="186.926254"
       id="line494" />
    <line
       x1="98.7379684"
       y1="186.926254"
       x2="98.5574493"
       y2="190.050003"
       id="line496" />
    <line
       x1="98.5574493"
       y1="190.050003"
       x2="98.6624603"
       y2="193.177231"
       id="line498" />
    <line
       x1="98.6624603"
       y1="193.177231"
       x2="99.0521240"
       y2="196.281845"
       id="line500" />
    <line
       x1="99.0521240"
       y1="196.281845"
       x2="99.7232132"
       y2="199.337997"
       id="line502" />
    <line
       x1="99.7232132"
       y1="199.337997"
       x2="122.760635"
       y2="285.314819"
       id="line504" />
  </g>
  <g
     stroke="rgb(0,128,255)"
     stroke-width="1"
     id="g682">
    <line
       x1="184.285721"
       y1="326.035889"
       x2="184.000000"
       y2="356.920868"
       id="line664" />
    <line
       x1="158.571426"
       y1="326.035889"
       x2="158.857132"
       y2="356.920868"
       id="line666" />
    <line
       x1="165.428574"
       y1="351.428558"
       x2="184.285721"
       y2="351.428558"
       id="line668" />
    <line
       x1="184.285721"
       y1="351.428558"
       x2="179.571426"
       y2="348.599976"
       id="line670" />
    <line
       x1="184.285721"
       y1="351.428558"
       x2="179.571426"
       y2="354.257111"
       id="line672" />
    <line
       x1="177.428574"
       y1="351.428558"
       x2="158.571426"
       y2="351.428558"
       id="line674" />
    <line
       x1="158.571426"
       y1="351.428558"
       x2="163.285721"
       y2="354.257111"
       id="line676" />
    <line
       x1="158.571426"
       y1="351.428558"
       x2="163.285721"
       y2="348.599976"
       id="line678" />
  </g>
  <g
     stroke="rgb(0,0,0)"
     stroke-width="1"
     id="g802">
    <line
       x1="184.285721"
       y1="326.035889"
       x2="182.933304"
       y2="325.971741"
       id="line684" />
    <line
       x1="182.933304"
       y1="325.971741"
       x2="181.580551"
       y2="325.914734"
       id="line686" />
    <line
       x1="181.580551"
       y1="325.914734"
       x2="180.227524"
       y2="325.864868"
       id="line688" />
    <line
       x1="180.227524"
       y1="325.864868"
       x2="178.874252"
       y2="325.822083"
       id="line690" />
    <line
       x1="178.874252"
       y1="325.822083"
       x2="177.520782"
       y2="325.786438"
       id="line692" />
    <line
       x1="177.520782"
       y1="325.786438"
       x2="176.167130"
       y2="325.757935"
       id="line694" />
    <line
       x1="176.167130"
       y1="325.757935"
       x2="174.813354"
       y2="325.736572"
       id="line696" />
    <line
       x1="174.813354"
       y1="325.736572"
       x2="173.459473"
       y2="325.722290"
       id="line698" />
    <line
       x1="173.459473"
       y1="325.722290"
       x2="172.105545"
       y2="325.715149"
       id="line700" />
    <line
       x1="172.105545"
       y1="325.715149"
       x2="170.751602"
       y2="325.715149"
       id="line702" />
    <line
       x1="170.751602"
       y1="325.715149"
       x2="169.397675"
       y2="325.722290"
       id="line704" />
    <line
       x1="169.397675"
       y1="325.722290"
       x2="168.043808"
       y2="325.736572"
       id="line706" />
    <line
       x1="168.043808"
       y1="325.736572"
       x2="166.690033"
       y2="325.757935"
       id="line708" />
    <line
       x1="166.690033"
       y1="325.757935"
       x2="165.336380"
       y2="325.786438"
       id="line710" />
    <line
       x1="165.336380"
       y1="325.786438"
       x2="163.982895"
       y2="325.822083"
       id="line712" />
    <line
       x1="163.982895"
       y1="325.822083"
       x2="162.629639"
       y2="325.864868"
       id="line714" />
    <line
       x1="162.629639"
       y1="325.864868"
       x2="161.276611"
       y2="325.914734"
       id="line716" />
    <line
       x1="161.276611"
       y1="325.914734"
       x2="159.923859"
       y2="325.971741"
       id="line718" />
    <line
       x1="159.923859"
       y1="325.971741"
       x2="158.571426"
       y2="326.035889"
       id="line720" />
  </g>
  <g
     stroke="rgb(0,128,255)"
     stroke-width="1"
     id="g812">
    <line
       x1="171.428574"
       y1="325.714233"
       x2="322.586121"
       y2="325.714233"
       id="line804" />
    <line
       x1="184.285721"
       y1="312.857117"
       x2="277.328979"
       y2="312.857117"
       id="line806" />
    <line
       x1="195.258423"
       y1="278.659424"
       x2="299.957550"
       y2="278.659424"
       id="line808" />
    <line
       x1="171.428574"
       y1="154.285645"
       x2="322.586121"
       y2="154.285645"
       id="line810" />
  </g>
  <text
     x="281.540283"
     y="304.824585"
     text-anchor="middle"
     id="text814">H1</text>
  <g
     stroke="rgb(0,128,255)"
     stroke-width="1"
     id="g828">
    <line
       x1="272.111694"
       y1="344.571411"
       x2="272.111694"
       y2="325.714233"
       id="line816" />
    <line
       x1="272.111694"
       y1="325.714233"
       x2="269.283142"
       y2="330.428528"
       id="line818" />
    <line
       x1="272.111694"
       y1="325.714233"
       x2="274.940277"
       y2="330.428528"
       id="line820" />
    <line
       x1="272.111694"
       y1="294.000000"
       x2="272.111694"
       y2="312.857117"
       id="line822" />
    <line
       x1="272.111694"
       y1="312.857117"
       x2="274.940277"
       y2="308.142883"
       id="line824" />
    <line
       x1="272.111694"
       y1="312.857117"
       x2="269.283142"
       y2="308.142883"
       id="line826" />
  </g>
  <text
     x="302.871857"
     y="304.824585"
     text-anchor="middle"
     id="text830">H2</text>
  <g
     stroke="rgb(0,128,255)"
     stroke-width="1"
     id="g852">
    <line
       x1="293.443268"
       y1="325.714233"
       x2="293.443268"
       y2="278.659424"
       id="line832" />
    <line
       x1="293.443268"
       y1="278.659424"
       x2="290.614685"
       y2="283.373718"
       id="line834" />
    <line
       x1="293.443268"
       y1="278.659424"
       x2="296.271851"
       y2="283.373718"
       id="line836" />
    <line
       x1="293.443268"
       y1="325.714233"
       x2="290.614685"
       y2="321.000000"
       id="line838" />
    <line
       x1="293.443268"
       y1="325.714233"
       x2="296.271851"
       y2="321.000000"
       id="line840" />
    <line
       x1="316.586121"
       y1="325.714233"
       x2="316.586121"
       y2="154.285645"
       id="line842" />
    <line
       x1="316.586121"
       y1="154.285645"
       x2="313.757538"
       y2="158.999939"
       id="line844" />
    <line
       x1="316.586121"
       y1="154.285645"
       x2="319.414673"
       y2="158.999939"
       id="line846" />
    <line
       x1="316.586121"
       y1="325.714233"
       x2="313.757568"
       y2="321.000000"
       id="line848" />
    <line
       x1="316.586121"
       y1="325.714233"
       x2="319.414673"
       y2="321.000000"
       id="line850" />
  </g>
  <text
     x="326.014709"
     y="243.310806"
     text-anchor="middle"
     id="text854">H</text>
  <g
     stroke="rgb(0,128,255)"
     stroke-width="1"
     id="g874">
    <line
       x1="147.598724"
       y1="278.659424"
       x2="147.598709"
       y2="378.527710"
       id="line856" />
    <line
       x1="195.258423"
       y1="278.659424"
       x2="195.258423"
       y2="378.527710"
       id="line858" />
    <line
       x1="176.401276"
       y1="371.999969"
       x2="195.258423"
       y2="371.999969"
       id="line860" />
    <line
       x1="195.258423"
       y1="371.999969"
       x2="190.544128"
       y2="369.171417"
       id="line862" />
    <line
       x1="195.258423"
       y1="371.999969"
       x2="190.544128"
       y2="374.828552"
       id="line864" />
    <line
       x1="166.455872"
       y1="371.999969"
       x2="147.598724"
       y2="371.999969"
       id="line866" />
    <line
       x1="147.598724"
       y1="371.999969"
       x2="152.313019"
       y2="374.828552"
       id="line868" />
    <line
       x1="147.598724"
       y1="371.999969"
       x2="152.313019"
       y2="369.171417"
       id="line870" />
    <line
       x1="166.455872"
       y1="371.999969"
       x2="176.401276"
       y2="371.999969"
       id="line872" />
  </g>
  <text
     x="171.428574"
     y="350.807129"
     text-anchor="middle"
     id="text680">SW</text>
  <text
     x="171.428574"
     y="371.378540"
     text-anchor="middle"
     id="text876">B1</text>
  <g
     stroke="rgb(0,128,255)"
     stroke-width="1"
     id="g896">
    <line
       x1="132.840668"
       y1="190.464157"
       x2="132.840637"
       y2="91.5128784"
       id="line878" />
    <line
       x1="210.016479"
       y1="190.464157"
       x2="210.016449"
       y2="91.5128784"
       id="line880" />
    <line
       x1="191.159332"
       y1="98.5714111"
       x2="210.016479"
       y2="98.5714111"
       id="line882" />
    <line
       x1="210.016479"
       y1="98.5714111"
       x2="205.302185"
       y2="95.7427979"
       id="line884" />
    <line
       x1="210.016479"
       y1="98.5714111"
       x2="205.302185"
       y2="101.399963"
       id="line886" />
    <line
       x1="151.697815"
       y1="98.5714111"
       x2="132.840668"
       y2="98.5714111"
       id="line888" />
    <line
       x1="132.840668"
       y1="98.5714111"
       x2="137.554962"
       y2="101.399963"
       id="line890" />
    <line
       x1="132.840668"
       y1="98.5714111"
       x2="137.554962"
       y2="95.7427979"
       id="line892" />
    <line
       x1="151.697815"
       y1="98.5714111"
       x2="191.159332"
       y2="98.5714111"
       id="line894" />
  </g>
  <text
     x="171.428574"
     y="96"
     text-anchor="middle"
     id="text898">B2</text>
  <g
     stroke="rgb(0,128,255)"
     stroke-width="1"
     id="g912">
    <line
       x1="129.456528"
       y1="237.445816"
       x2="111.241928"
       y2="242.326431"
       id="line900" />
    <line
       x1="111.241928"
       y1="242.326431"
       x2="116.527664"
       y2="243.838455"
       id="line902" />
    <line
       x1="111.241928"
       y1="242.326431"
       x2="115.063492"
       y2="238.374100"
       id="line904" />
    <line
       x1="64.0495529"
       y1="254.971573"
       x2="82.2641525"
       y2="250.090958"
       id="line906" />
    <line
       x1="82.2641525"
       y1="250.090958"
       x2="76.9784164"
       y2="248.578934"
       id="line908" />
    <line
       x1="82.2641525"
       y1="250.090958"
       x2="78.4425888"
       y2="254.043289"
       id="line910" />
  </g>
  <text
     x="43.7958374"
     y="259.896301"
     text-anchor="middle"
     id="text914">1/2 TW</text>
  <text
     x="204.359329"
     y="206.814163"
     text-anchor="middle"
     id="text916">R2</text>
  <text
     x="193.306015"
     y="272.828674"
     text-anchor="middle"
     id="text918">R1</text>
  <g
     stroke="rgb(0,128,255)"
     stroke-width="1"
     id="g936">
    <line
       x1="234.260132"
       y1="166.220505"
       x2="210.016479"
       y2="190.464157"
       id="line920" />
    <line
       x1="220.926117"
       y1="179.554520"
       x2="234.260132"
       y2="166.220505"
       id="line922" />
    <line
       x1="234.260132"
       y1="166.220505"
       x2="228.926529"
       y2="167.553909"
       id="line924" />
    <line
       x1="234.260132"
       y1="166.220505"
       x2="232.926743"
       y2="171.554092"
       id="line926" />
    <line
       x1="213.441162"
       y1="296.842224"
       x2="195.258423"
       y2="278.659424"
       id="line928" />
    <line
       x1="200.107147"
       y1="283.508179"
       x2="213.441162"
       y2="296.842224"
       id="line930" />
    <line
       x1="213.441162"
       y1="296.842224"
       x2="212.107758"
       y2="291.508606"
       id="line932" />
    <line
       x1="213.441162"
       y1="296.842224"
       x2="208.107559"
       y2="295.508789"
       id="line934" />
  </g>
</svg>
