<?xml version="1.0" encoding="UTF-8" standalone="no"?>
<svg
   viewBox="-1.25000000 -35.7500000 68.0000000 57.0000000"
   version="1.1"
   id="svg171"
   sodipodi:docname="S1R1.svg"
   inkscape:version="1.2.2 (b0a8486541, 2022-12-01)"
   xmlns:inkscape="http://www.inkscape.org/namespaces/inkscape"
   xmlns:sodipodi="http://sodipodi.sourceforge.net/DTD/sodipodi-0.dtd"
   xmlns="http://www.w3.org/2000/svg"
   xmlns:svg="http://www.w3.org/2000/svg">
  <defs
     id="defs175" />
  <sodipodi:namedview
     id="namedview173"
     pagecolor="#ffffff"
     bordercolor="#666666"
     borderopacity="1.0"
     inkscape:showpageshadow="2"
     inkscape:pageopacity="0.0"
     inkscape:pagecheckerboard="0"
     inkscape:deskcolor="#d1d1d1"
     showgrid="false"
     inkscape:zoom="256"
     inkscape:cx="64.433594"
     inkscape:cy="41.21875"
     inkscape:window-width="2560"
     inkscape:window-height="1411"
     inkscape:window-x="1920"
     inkscape:window-y="0"
     inkscape:window-maximized="1"
     inkscape:current-layer="g169" />
  <path
     vector-effect="non-scaling-stroke"
     d="M0.646382689,7.30000019   L -3.24531409E-16,7.30000019   L -1.05931941E-15,19.3000011   L 32.3191376,19.3000011   L 32.3191376,7.30000019   L 31.6727543,7.30000019   L 0.646382689,7.30000019  "
     style="stroke:#000;fill:skyblue;stroke-width:0.0;"
     id="18" />
  <path
     vector-effect="non-scaling-stroke"
     d="M32.3191376,7.30000019   L 32.3191376,19.3000011   L 64.6382751,19.3000011   L 64.6382751,7.30000019   L 63.9918900,7.30000019   L 32.9655190,7.30000019   L 32.3191376,7.30000019  "
     style="stroke:#000;fill:skyblue;stroke-width:0.0;"
     id="20" />
  <path
     vector-effect="non-scaling-stroke"
     d="M21.5460854,-34.5000000   L 21.5460892,-9.41809503E-07   L 28.3191357,-0.00000000   L 28.3191357,-22.5000000   L 32.3191376,-22.5000000   L 32.3191376,-34.5000000   L 21.5460854,-34.5000000  "
     style="stroke:#000;fill:skyblue;stroke-width:0.0;"
     id="6" />
  <path
     vector-effect="non-scaling-stroke"
     d="M43.0921745,-34.5000000   L 43.0921783,-9.41809503E-07   L 49.8652229,-0.00000000   L 49.8652229,-22.5000000   L 53.8652229,-22.5000000   L 53.8652229,-34.5000000   L 43.0921745,-34.5000000  "
     style="stroke:#000;fill:skyblue;stroke-width:0.0;"
     id="10" />
  <path
     vector-effect="non-scaling-stroke"
     d="M53.8652229,-34.5000000   L 53.8652229,-22.5000000   L 57.8652229,-22.5000019   L 57.8652229,-3.49691106E-07   L 64.6382751,-9.41809503E-07   L 64.6382675,-34.5000000   L 53.8652229,-34.5000000  "
     style="stroke:#000;fill:skyblue;stroke-width:0.0;"
     id="11" />
  <path
     vector-effect="non-scaling-stroke"
     d="M0.00000000,-0.00000000   L 6.77304459,-0.00000000   L 6.77304459,-22.5000000   L 10.7730446,-22.5000000   L 10.7730446,-34.5000000   L 2.11251563E-15,-34.5000000   L 0.00000000,-0.00000000  "
     style="stroke:#000;fill:skyblue;stroke-width:0.0;"
     id="1" />
  <path
     vector-effect="non-scaling-stroke"
     d="M10.7730446,-34.5000000   L 10.7730446,-22.5000000   L 14.7730427,-22.5000019   L 14.7730446,-3.49691106E-07   L 21.5460892,-9.41809503E-07   L 21.5460854,-34.5000000   L 10.7730446,-34.5000000  "
     style="stroke:#000;fill:skyblue;stroke-width:0.0;"
     id="4" />
  <path
     vector-effect="non-scaling-stroke"
     d="M32.3191376,-34.5000000   L 32.3191376,-22.5000000   L 36.3191338,-22.5000019   L 36.3191376,-3.49691106E-07   L 43.0921783,-9.41809503E-07   L 43.0921745,-34.5000000   L 32.3191376,-34.5000000  "
     style="stroke:#000;fill:skyblue;stroke-width:0.0;"
     id="7" />
  <path
     vector-effect="non-scaling-stroke"
     d="M31.6727543,2.00000000   L 0.646382689,2.00000000   L 0.646382689,7.30000019   L 31.6727543,7.30000019   L 31.6727543,2.00000000  "
     style="stroke:#000;fill:green;stroke-width:0.0;"
     id="16" />
  <path
     vector-effect="non-scaling-stroke"
     d="M32.9655190,7.30000019   L 63.9918900,7.30000019   L 63.9918900,2.00000000   L 32.9655190,2.00000000   L 32.9655190,7.30000019  "
     style="stroke:#000;fill:red;stroke-width:0.0;"
     id="21" />
  <path
     vector-effect="non-scaling-stroke"
     d="M32.3191376,-22.5000000   L 28.3191357,-22.5000000   L 28.3191357,-0.00000000   L 32.3191376,-0.00000000   L 32.3191376,-22.5000000  "
     style="stroke:#000;fill:white;stroke-width:0.0;"
     id="8" />
  <path
     vector-effect="non-scaling-stroke"
     d="M32.3191376,-22.5000000   L 32.3191376,-0.00000000   L 36.3191376,-3.49691106E-07   L 36.3191338,-22.5000019   L 32.3191376,-22.5000000  "
     style="stroke:#000;fill:white;stroke-width:0.0;"
     id="9" />
  <path
     vector-effect="non-scaling-stroke"
     d="M53.8652229,-22.5000000   L 49.8652229,-22.5000000   L 49.8652229,-0.00000000   L 53.8652229,-0.00000000   L 53.8652229,-22.5000000  "
     style="stroke:#000;fill:white;stroke-width:0.0;"
     id="12" />
  <path
     vector-effect="non-scaling-stroke"
     d="M53.8652229,-22.5000000   L 53.8652229,-0.00000000   L 57.8652229,-3.49691106E-07   L 57.8652229,-22.5000019   L 53.8652229,-22.5000000  "
     style="stroke:#000;fill:white;stroke-width:0.0;"
     id="13" />
  <path
     vector-effect="non-scaling-stroke"
     d="M6.77304459,-22.5000000   L 6.77304459,-0.00000000   L 10.7730446,-0.00000000   L 10.7730446,-22.5000000   L 6.77304459,-22.5000000  "
     style="stroke:#000;fill:white;stroke-width:0.0;"
     id="3" />
  <path
     vector-effect="non-scaling-stroke"
     d="M10.7730446,-22.5000000   L 10.7730446,-0.00000000   L 14.7730446,-3.49691106E-07   L 14.7730427,-22.5000019   L 10.7730446,-22.5000000  "
     style="stroke:#000;fill:white;stroke-width:0.0;"
     id="5" />
  <path
     vector-effect="non-scaling-stroke"
     d="M6.77304459,-0.00000000   L 0.00000000,-0.00000000   L 0.00000000,0.666666687   L 64.6382751,0.666666687   L 64.6382751,-9.41809503E-07   L 57.8652229,-3.49691106E-07   L 53.8652229,-0.00000000   L 49.8652229,-0.00000000   L 43.0921783,-9.41809503E-07   L 36.3191376,-3.49691106E-07   L 32.3191376,-0.00000000   L 28.3191357,-0.00000000   L 21.5460892,-9.41809503E-07   L 14.7730446,-3.49691106E-07   L 10.7730446,-0.00000000   L 6.77304459,-0.00000000  "
     style="stroke:#000;fill:ivory;stroke-width:0.0;"
     id="2" />
  <path
     vector-effect="non-scaling-stroke"
     d="M0.00000000,2.00000000   L 0.646382689,2.00000000   L 31.6727543,2.00000000   L 32.3191376,2.00000000   L 32.9655190,2.00000000   L 63.9918900,2.00000000   L 64.6382751,2.00000000   L 64.6382751,1.33333337   L 0.00000000,1.33333337   L 0.00000000,2.00000000  "
     style="stroke:#000;fill:ivory;stroke-width:0.0;"
     id="14" />
  <path
     vector-effect="non-scaling-stroke"
     d="M64.6382751,0.666666687   L 0.00000000,0.666666687   L 0.00000000,1.33333337   L 64.6382751,1.33333337   L 64.6382751,0.666666687  "
     style="stroke:#000;fill:ivory;stroke-width:0.0;"
     id="23" />
  <path
     vector-effect="non-scaling-stroke"
     d="M0.646382689,2.00000000   L 0.00000000,2.00000000   L -3.24531409E-16,7.30000019   L 0.646382689,7.30000019   L 0.646382689,2.00000000  "
     style="stroke:#000;fill:ivory;stroke-width:0.0;"
     id="15" />
  <path
     vector-effect="non-scaling-stroke"
     d="M32.3191376,2.00000000   L 31.6727543,2.00000000   L 31.6727543,7.30000019   L 32.3191376,7.30000019   L 32.3191376,2.00000000  "
     style="stroke:#000;fill:ivory;stroke-width:0.0;"
     id="17" />
  <path
     vector-effect="non-scaling-stroke"
     d="M32.3191376,2.00000000   L 32.3191376,7.30000019   L 32.9655190,7.30000019   L 32.9655190,2.00000000   L 32.3191376,2.00000000  "
     style="stroke:#000;fill:ivory;stroke-width:0.0;"
     id="19" />
  <path
     vector-effect="non-scaling-stroke"
     d="M63.9918900,7.30000019   L 64.6382751,7.30000019   L 64.6382751,2.00000000   L 63.9918900,2.00000000   L 63.9918900,7.30000019  "
     style="stroke:#000;fill:ivory;stroke-width:0.0;"
     id="22" />
  <g
     vector-effect="non-scaling-stroke"
     style="stroke:#000;fill:none;stroke-width:1;"
     id="g169">
    <line
       x1="0.00000000"
       y1="-0.00000000"
       x2="6.77304459"
       y2="-0.00000000"
       inx="1"
       style="stroke-width:1;"
       vector-effect="non-scaling-stroke"
       id="line25" />
    <line
       x1="6.77304459"
       y1="-0.00000000"
       x2="6.77304459"
       y2="-22.5000000"
       inx="2"
       style="stroke-width:1;"
       vector-effect="non-scaling-stroke"
       id="line27" />
    <line
       x1="6.77304459"
       y1="-22.5000000"
       x2="10.7730446"
       y2="-22.5000000"
       inx="3"
       style="stroke-width:1;"
       vector-effect="non-scaling-stroke"
       id="line29" />
    <line
       x1="10.7730446"
       y1="-34.5000000"
       x2="2.11251563E-15"
       y2="-34.5000000"
       inx="5"
       style="stroke-width:1;"
       vector-effect="non-scaling-stroke"
       id="line33" />
    <line
       x1="2.11251563E-15"
       y1="-34.5000000"
       x2="0.00000000"
       y2="-0.00000000"
       inx="6"
       style="stroke-width:1;"
       vector-effect="non-scaling-stroke"
       id="line35" />
    <line
       x1="6.77304459"
       y1="-0.00000000"
       x2="10.7730446"
       y2="-0.00000000"
       inx="7"
       style="stroke-width:1;"
       vector-effect="non-scaling-stroke"
       id="line37" />
    <line
       x1="14.7730427"
       y1="-22.5000019"
       x2="10.7730446"
       y2="-22.5000000"
       inx="9"
       style="stroke-width:1;"
       vector-effect="non-scaling-stroke"
       id="line41" />
    <line
       x1="14.7730446"
       y1="-3.49691106E-07"
       x2="14.7730427"
       y2="-22.5000019"
       inx="10"
       style="stroke-width:1;"
       vector-effect="non-scaling-stroke"
       id="line43" />
    <line
       x1="21.5460892"
       y1="-9.41809503E-07"
       x2="14.7730446"
       y2="-3.49691106E-07"
       inx="11"
       style="stroke-width:1;"
       vector-effect="non-scaling-stroke"
       id="line45" />
    <line
       x1="10.7730446"
       y1="-34.5000000"
       x2="21.5460854"
       y2="-34.5000000"
       inx="13"
       style="stroke-width:1;"
       vector-effect="non-scaling-stroke"
       id="line49" />
    <line
       x1="14.7730446"
       y1="-3.49691106E-07"
       x2="10.7730446"
       y2="-0.00000000"
       inx="14"
       style="stroke-width:1;"
       vector-effect="non-scaling-stroke"
       id="line51" />
    <line
       x1="28.3191357"
       y1="-22.5000000"
       x2="32.3191376"
       y2="-22.5000000"
       inx="16"
       style="stroke-width:1;"
       vector-effect="non-scaling-stroke"
       id="line55" />
    <line
       x1="28.3191357"
       y1="-0.00000000"
       x2="28.3191357"
       y2="-22.5000000"
       inx="17"
       style="stroke-width:1;"
       vector-effect="non-scaling-stroke"
       id="line57" />
    <line
       x1="21.5460892"
       y1="-9.41809503E-07"
       x2="28.3191357"
       y2="-0.00000000"
       inx="18"
       style="stroke-width:1;"
       vector-effect="non-scaling-stroke"
       id="line59" />
    <line
       x1="32.3191376"
       y1="-34.5000000"
       x2="21.5460854"
       y2="-34.5000000"
       inx="19"
       style="stroke-width:1;"
       vector-effect="non-scaling-stroke"
       id="line61" />
    <line
       x1="28.3191357"
       y1="-0.00000000"
       x2="32.3191376"
       y2="-0.00000000"
       inx="21"
       style="stroke-width:1;"
       vector-effect="non-scaling-stroke"
       id="line65" />
    <line
       x1="36.3191338"
       y1="-22.5000019"
       x2="32.3191376"
       y2="-22.5000000"
       inx="22"
       style="stroke-width:1;"
       vector-effect="non-scaling-stroke"
       id="line67" />
    <line
       x1="36.3191376"
       y1="-3.49691106E-07"
       x2="36.3191338"
       y2="-22.5000019"
       inx="23"
       style="stroke-width:1;"
       vector-effect="non-scaling-stroke"
       id="line69" />
    <line
       x1="43.0921783"
       y1="-9.41809503E-07"
       x2="36.3191376"
       y2="-3.49691106E-07"
       inx="24"
       style="stroke-width:1;"
       vector-effect="non-scaling-stroke"
       id="line71" />
    <line
       x1="32.3191376"
       y1="-34.5000000"
       x2="43.0921745"
       y2="-34.5000000"
       inx="26"
       style="stroke-width:1;"
       vector-effect="non-scaling-stroke"
       id="line75" />
    <line
       x1="36.3191376"
       y1="-3.49691106E-07"
       x2="32.3191376"
       y2="-0.00000000"
       inx="27"
       style="stroke-width:1;"
       vector-effect="non-scaling-stroke"
       id="line77" />
    <line
       x1="49.8652229"
       y1="-22.5000000"
       x2="53.8652229"
       y2="-22.5000000"
       inx="29"
       style="stroke-width:1;"
       vector-effect="non-scaling-stroke"
       id="line81" />
    <line
       x1="49.8652229"
       y1="-0.00000000"
       x2="49.8652229"
       y2="-22.5000000"
       inx="30"
       style="stroke-width:1;"
       vector-effect="non-scaling-stroke"
       id="line83" />
    <line
       x1="43.0921783"
       y1="-9.41809503E-07"
       x2="49.8652229"
       y2="-0.00000000"
       inx="31"
       style="stroke-width:1;"
       vector-effect="non-scaling-stroke"
       id="line85" />
    <line
       x1="53.8652229"
       y1="-34.5000000"
       x2="43.0921745"
       y2="-34.5000000"
       inx="32"
       style="stroke-width:1;"
       vector-effect="non-scaling-stroke"
       id="line87" />
    <line
       x1="49.8652229"
       y1="-0.00000000"
       x2="53.8652229"
       y2="-0.00000000"
       inx="34"
       style="stroke-width:1;"
       vector-effect="non-scaling-stroke"
       id="line91" />
    <line
       x1="57.8652229"
       y1="-22.5000019"
       x2="53.8652229"
       y2="-22.5000000"
       inx="35"
       style="stroke-width:1;"
       vector-effect="non-scaling-stroke"
       id="line93" />
    <line
       x1="57.8652229"
       y1="-3.49691106E-07"
       x2="57.8652229"
       y2="-22.5000019"
       inx="36"
       style="stroke-width:1;"
       vector-effect="non-scaling-stroke"
       id="line95" />
    <line
       x1="64.6382751"
       y1="-9.41809503E-07"
       x2="57.8652229"
       y2="-3.49691106E-07"
       inx="37"
       style="stroke-width:1;"
       vector-effect="non-scaling-stroke"
       id="line97" />
    <line
       x1="64.6382675"
       y1="-34.5000000"
       x2="64.6382751"
       y2="-9.41809503E-07"
       inx="38"
       style="stroke-width:1;"
       vector-effect="non-scaling-stroke"
       id="line99" />
    <line
       x1="53.8652229"
       y1="-34.5000000"
       x2="64.6382675"
       y2="-34.5000000"
       inx="39"
       style="stroke-width:1;"
       vector-effect="non-scaling-stroke"
       id="line101" />
    <line
       x1="57.8652229"
       y1="-3.49691106E-07"
       x2="53.8652229"
       y2="-0.00000000"
       inx="40"
       style="stroke-width:1;"
       vector-effect="non-scaling-stroke"
       id="line103" />
    <line
       x1="0.00000000"
       y1="2.00000000"
       x2="0.646382689"
       y2="2.00000000"
       inx="41"
       style="stroke-width:1;"
       vector-effect="non-scaling-stroke"
       id="line105" />
    <line
       x1="0.646382689"
       y1="2.00000000"
       x2="31.6727543"
       y2="2.00000000"
       inx="42"
       style="stroke-width:1;"
       vector-effect="non-scaling-stroke"
       id="line107" />
    <line
       x1="31.6727543"
       y1="2.00000000"
       x2="32.3191376"
       y2="2.00000000"
       inx="43"
       style="stroke-width:1;"
       vector-effect="non-scaling-stroke"
       id="line109" />
    <line
       x1="-3.24531409E-16"
       y1="7.30000019"
       x2="0.646382689"
       y2="7.30000019"
       inx="44"
       style="stroke-width:1;"
       vector-effect="non-scaling-stroke"
       id="line111" />
    <line
       x1="0.646382689"
       y1="7.30000019"
       x2="31.6727543"
       y2="7.30000019"
       inx="45"
       style="stroke-width:1;"
       vector-effect="non-scaling-stroke"
       id="line113" />
    <line
       x1="31.6727543"
       y1="7.30000019"
       x2="32.3191376"
       y2="7.30000019"
       inx="46"
       style="stroke-width:1;"
       vector-effect="non-scaling-stroke"
       id="line115" />
    <line
       x1="0.64638269"
       y1="2"
       x2="0.64638269"
       y2="7.3000002"
       inx="48"
       style="stroke-width:1"
       vector-effect="non-scaling-stroke"
       id="line119" />
    <line
       x1="31.6727543"
       y1="2.00000000"
       x2="31.6727543"
       y2="7.30000019"
       inx="49"
       style="stroke-width:1;"
       vector-effect="non-scaling-stroke"
       id="line121" />
    <line
       x1="-1.05931941E-15"
       y1="19.3000011"
       x2="32.3191376"
       y2="19.3000011"
       inx="51"
       style="stroke-width:1;"
       vector-effect="non-scaling-stroke"
       id="line125" />
    <line
       x1="-3.24531409E-16"
       y1="7.30000019"
       x2="-1.05931941E-15"
       y2="19.3000011"
       inx="52"
       style="stroke-width:1;"
       vector-effect="non-scaling-stroke"
       id="line127" />
    <line
       x1="32.3191376"
       y1="2.00000000"
       x2="32.9655190"
       y2="2.00000000"
       inx="54"
       style="stroke-width:1;"
       vector-effect="non-scaling-stroke"
       id="line131" />
    <line
       x1="32.3191376"
       y1="7.30000019"
       x2="32.9655190"
       y2="7.30000019"
       inx="55"
       style="stroke-width:1;"
       vector-effect="non-scaling-stroke"
       id="line133" />
    <line
       x1="32.9655190"
       y1="7.30000019"
       x2="63.9918900"
       y2="7.30000019"
       inx="56"
       style="stroke-width:1;"
       vector-effect="non-scaling-stroke"
       id="line135" />
    <line
       x1="63.9918900"
       y1="7.30000019"
       x2="64.6382751"
       y2="7.30000019"
       inx="57"
       style="stroke-width:1;"
       vector-effect="non-scaling-stroke"
       id="line137" />
    <line
       x1="63.9918900"
       y1="2.00000000"
       x2="64.6382751"
       y2="2.00000000"
       inx="59"
       style="stroke-width:1;"
       vector-effect="non-scaling-stroke"
       id="line141" />
    <line
       x1="32.9655190"
       y1="2.00000000"
       x2="63.9918900"
       y2="2.00000000"
       inx="60"
       style="stroke-width:1;"
       vector-effect="non-scaling-stroke"
       id="line143" />
    <line
       x1="32.9655190"
       y1="2.00000000"
       x2="32.9655190"
       y2="7.30000019"
       inx="61"
       style="stroke-width:1;"
       vector-effect="non-scaling-stroke"
       id="line145" />
    <line
       x1="63.9918900"
       y1="2.00000000"
       x2="63.9918900"
       y2="7.30000019"
       inx="62"
       style="stroke-width:1;"
       vector-effect="non-scaling-stroke"
       id="line147" />
    <line
       x1="64.6382751"
       y1="7.30000019"
       x2="64.6382751"
       y2="19.3000011"
       inx="63"
       style="stroke-width:1;"
       vector-effect="non-scaling-stroke"
       id="line149" />
    <line
       x1="32.3191376"
       y1="19.3000011"
       x2="64.6382751"
       y2="19.3000011"
       inx="64"
       style="stroke-width:1;"
       vector-effect="non-scaling-stroke"
       id="line151" />
    <line
       x1="0.00000000"
       y1="0.666666687"
       x2="0.00000000"
       y2="-0.00000000"
       inx="66"
       style="stroke-width:1;"
       vector-effect="non-scaling-stroke"
       id="line155" />
    <line
       x1="64.6382751"
       y1="0.666666687"
       x2="64.6382751"
       y2="-9.41809503E-07"
       inx="67"
       style="stroke-width:1;"
       vector-effect="non-scaling-stroke"
       id="line157" />
    <line
       x1="0.00000000"
       y1="1.33333337"
       x2="0.00000000"
       y2="2.00000000"
       inx="69"
       style="stroke-width:1;"
       vector-effect="non-scaling-stroke"
       id="line161" />
    <line
       x1="64.6382751"
       y1="1.33333337"
       x2="64.6382751"
       y2="2.00000000"
       inx="70"
       style="stroke-width:1;"
       vector-effect="non-scaling-stroke"
       id="line163" />
    <line
       x1="0.00000000"
       y1="0.666666687"
       x2="0.00000000"
       y2="1.33333337"
       inx="71"
       style="stroke-width:1;"
       vector-effect="non-scaling-stroke"
       id="line165" />
    <line
       x1="64.6382751"
       y1="0.666666687"
       x2="64.6382751"
       y2="1.33333337"
       inx="72"
       style="stroke-width:1;"
       vector-effect="non-scaling-stroke"
       id="line167" />
  </g>
</svg>
