<?xml version="1.0" encoding="UTF-8" standalone="no"?>
<svg
   viewBox="-1.25000000 -25.7500019 68.0000000 61.0000000"
   version="1.1"
   id="svg302"
   sodipodi:docname="S2R1.svg"
   inkscape:version="1.2.2 (b0a8486541, 2022-12-01)"
   xmlns:inkscape="http://www.inkscape.org/namespaces/inkscape"
   xmlns:sodipodi="http://sodipodi.sourceforge.net/DTD/sodipodi-0.dtd"
   xmlns="http://www.w3.org/2000/svg"
   xmlns:svg="http://www.w3.org/2000/svg">
  <defs
     id="defs306" />
  <sodipodi:namedview
     id="namedview304"
     pagecolor="#ffffff"
     bordercolor="#666666"
     borderopacity="1.0"
     inkscape:showpageshadow="2"
     inkscape:pageopacity="0.0"
     inkscape:pagecheckerboard="0"
     inkscape:deskcolor="#d1d1d1"
     showgrid="false"
     inkscape:zoom="16"
     inkscape:cx="25"
     inkscape:cy="33.9375"
     inkscape:window-width="2560"
     inkscape:window-height="1411"
     inkscape:window-x="1920"
     inkscape:window-y="0"
     inkscape:window-maximized="1"
     inkscape:current-layer="g300" />
  <path
     vector-effect="non-scaling-stroke"
     d="M21.5460873,-24.5000019   L 21.5460892,-9.41809503E-07   L 28.3191357,-0.00000000   L 28.3191357,-12.5000000   L 32.3191376,-12.5000000   L 32.3191376,-24.5000000   L 21.5460873,-24.5000019  "
     style="stroke:#000;fill:skyblue;stroke-width:0.0;"
     id="6" />
  <path
     vector-effect="non-scaling-stroke"
     d="M43.0921745,-24.5000019   L 43.0921783,-9.41809503E-07   L 49.8652229,-0.00000000   L 49.8652229,-12.5000000   L 53.8652229,-12.5000000   L 53.8652229,-24.5000000   L 43.0921745,-24.5000019  "
     style="stroke:#000;fill:skyblue;stroke-width:0.0;"
     id="10" />
  <path
     vector-effect="non-scaling-stroke"
     d="M53.8652229,-24.5000000   L 53.8652229,-12.5000000   L 57.8652229,-12.5000000   L 57.8652229,-3.49691106E-07   L 64.6382751,-9.41809503E-07   L 64.6382751,-24.5000019   L 53.8652229,-24.5000000  "
     style="stroke:#000;fill:skyblue;stroke-width:0.0;"
     id="11" />
  <path
     vector-effect="non-scaling-stroke"
     d="M64.6382751,9.30000019   L 57.8652229,9.30000019   L 57.8652229,21.8000011   L 53.8652229,21.8000011   L 53.8652229,33.7999992   L 64.6382751,33.8000031   L 64.6382751,9.30000019  "
     style="stroke:#000;fill:skyblue;stroke-width:0.0;"
     id="31" />
  <path
     vector-effect="non-scaling-stroke"
     d="M10.7730446,-24.5000000   L 10.7730446,-12.5000000   L 14.7730446,-12.5000000   L 14.7730446,-3.49691106E-07   L 21.5460892,-9.41809503E-07   L 21.5460873,-24.5000019   L 10.7730446,-24.5000000  "
     style="stroke:#000;fill:skyblue;stroke-width:0.0;"
     id="4" />
  <path
     vector-effect="non-scaling-stroke"
     d="M32.3191376,33.7999992   L 32.3191376,21.8000011   L 28.3191357,21.8000011   L 28.3191357,9.30000019   L 21.5460892,9.30000114   L 21.5460892,33.7999992   L 32.3191376,33.7999992  "
     style="stroke:#000;fill:skyblue;stroke-width:0.0;"
     id="36" />
  <path
     vector-effect="non-scaling-stroke"
     d="M21.5460892,33.7999992   L 21.5460892,9.30000114   L 14.7730446,9.30000019   L 14.7730446,21.8000011   L 10.7730436,21.8000011   L 10.7730446,33.7999992   L 21.5460892,33.7999992  "
     style="stroke:#000;fill:skyblue;stroke-width:0.0;"
     id="37" />
  <path
     vector-effect="non-scaling-stroke"
     d="M0.00000000,-0.00000000   L 6.77304459,-0.00000000   L 6.77304459,-12.5000000   L 10.7730446,-12.5000000   L 10.7730446,-24.5000000   L 1.50019233E-15,-24.5000000   L 0.00000000,-0.00000000  "
     style="stroke:#000;fill:skyblue;stroke-width:0.0;"
     id="1" />
  <path
     vector-effect="non-scaling-stroke"
     d="M32.3191376,-24.5000000   L 32.3191376,-12.5000000   L 36.3191376,-12.5000000   L 36.3191376,-3.49691106E-07   L 43.0921783,-9.41809503E-07   L 43.0921745,-24.5000019   L 32.3191376,-24.5000000  "
     style="stroke:#000;fill:skyblue;stroke-width:0.0;"
     id="7" />
  <path
     vector-effect="non-scaling-stroke"
     d="M10.7730436,21.8000011   L 6.77304459,21.8000011   L 6.77304459,9.30000019   L 0.00000000,9.30000019   L 1.50019233E-15,33.7999992   L 10.7730446,33.7999992   L 10.7730436,21.8000011  "
     style="stroke:#000;fill:skyblue;stroke-width:0.0;"
     id="40" />
  <path
     vector-effect="non-scaling-stroke"
     d="M53.8652229,33.7999992   L 53.8652229,21.8000011   L 49.8652229,21.8000011   L 49.8652229,9.30000019   L 43.0921783,9.30000114   L 43.0921783,33.7999992   L 53.8652229,33.7999992  "
     style="stroke:#000;fill:skyblue;stroke-width:0.0;"
     id="33" />
  <path
     vector-effect="non-scaling-stroke"
     d="M43.0921783,33.7999992   L 43.0921783,9.30000114   L 36.3191376,9.30000019   L 36.3191376,21.8000011   L 32.3191376,21.8000011   L 32.3191376,33.7999992   L 43.0921783,33.7999992  "
     style="stroke:#000;fill:skyblue;stroke-width:0.0;"
     id="34" />
  <path
     vector-effect="non-scaling-stroke"
     d="M31.6727543,2.00000000   L 0.646382689,2.00000000   L 0.646382689,4.65000010   L 31.6727543,4.65000010   L 31.6727543,2.00000000  "
     style="stroke:#000;fill:green;stroke-width:0.0;"
     id="16" />
  <path
     vector-effect="non-scaling-stroke"
     d="M32.9655190,4.65000010   L 63.9918900,4.65000010   L 63.9918900,2.00000000   L 32.9655190,2.00000000   L 32.9655190,4.65000010  "
     style="stroke:#000;fill:red;stroke-width:0.0;"
     id="23" />
  <path
     vector-effect="non-scaling-stroke"
     d="M31.6727543,4.65000010   L 0.646382689,4.65000010   L 0.646382689,7.29999971   L 31.6727543,7.29999971   L 31.6727543,4.65000010  "
     style="stroke:#000;fill:green;stroke-width:0.0;"
     id="19" />
  <path
     vector-effect="non-scaling-stroke"
     d="M63.9918900,4.65000010   L 32.9655190,4.65000010   L 32.9655190,7.29999971   L 63.9918900,7.29999971   L 63.9918900,4.65000010  "
     style="stroke:#000;fill:red;stroke-width:0.0;"
     id="24" />
  <path
     vector-effect="non-scaling-stroke"
     d="M32.3191376,-12.5000000   L 28.3191357,-12.5000000   L 28.3191357,-0.00000000   L 32.3191376,-0.00000000   L 32.3191376,-12.5000000  "
     style="stroke:#000;fill:white;stroke-width:0.0;"
     id="8" />
  <path
     vector-effect="non-scaling-stroke"
     d="M32.3191376,-12.5000000   L 32.3191376,-0.00000000   L 36.3191376,-3.49691106E-07   L 36.3191376,-12.5000000   L 32.3191376,-12.5000000  "
     style="stroke:#000;fill:white;stroke-width:0.0;"
     id="9" />
  <path
     vector-effect="non-scaling-stroke"
     d="M53.8652229,-12.5000000   L 49.8652229,-12.5000000   L 49.8652229,-0.00000000   L 53.8652229,-0.00000000   L 53.8652229,-12.5000000  "
     style="stroke:#000;fill:white;stroke-width:0.0;"
     id="12" />
  <path
     vector-effect="non-scaling-stroke"
     d="M53.8652229,-12.5000000   L 53.8652229,-0.00000000   L 57.8652229,-3.49691106E-07   L 57.8652229,-12.5000000   L 53.8652229,-12.5000000  "
     style="stroke:#000;fill:white;stroke-width:0.0;"
     id="13" />
  <path
     vector-effect="non-scaling-stroke"
     d="M57.8652229,21.8000011   L 57.8652229,9.30000019   L 53.8652229,9.30000019   L 53.8652229,21.8000011   L 57.8652229,21.8000011  "
     style="stroke:#000;fill:white;stroke-width:0.0;"
     id="32" />
  <path
     vector-effect="non-scaling-stroke"
     d="M36.3191376,21.8000011   L 36.3191376,9.30000019   L 32.3191376,9.30000019   L 32.3191376,21.8000011   L 36.3191376,21.8000011  "
     style="stroke:#000;fill:white;stroke-width:0.0;"
     id="35" />
  <path
     vector-effect="non-scaling-stroke"
     d="M14.7730446,21.8000011   L 14.7730446,9.30000019   L 10.7730446,9.30000019   L 10.7730436,21.8000011   L 14.7730446,21.8000011  "
     style="stroke:#000;fill:white;stroke-width:0.0;"
     id="38" />
  <path
     vector-effect="non-scaling-stroke"
     d="M28.3191357,9.30000019   L 28.3191357,21.8000011   L 32.3191376,21.8000011   L 32.3191376,9.30000019   L 28.3191357,9.30000019  "
     style="stroke:#000;fill:white;stroke-width:0.0;"
     id="41" />
  <path
     vector-effect="non-scaling-stroke"
     d="M49.8652229,9.30000019   L 49.8652229,21.8000011   L 53.8652229,21.8000011   L 53.8652229,9.30000019   L 49.8652229,9.30000019  "
     style="stroke:#000;fill:white;stroke-width:0.0;"
     id="42" />
  <path
     vector-effect="non-scaling-stroke"
     d="M6.77304459,-12.5000000   L 6.77304459,-0.00000000   L 10.7730446,-0.00000000   L 10.7730446,-12.5000000   L 6.77304459,-12.5000000  "
     style="stroke:#000;fill:white;stroke-width:0.0;"
     id="3" />
  <path
     vector-effect="non-scaling-stroke"
     d="M10.7730446,-12.5000000   L 10.7730446,-0.00000000   L 14.7730446,-3.49691106E-07   L 14.7730446,-12.5000000   L 10.7730446,-12.5000000  "
     style="stroke:#000;fill:white;stroke-width:0.0;"
     id="5" />
  <path
     vector-effect="non-scaling-stroke"
     d="M6.77304459,21.8000011   L 10.7730436,21.8000011   L 10.7730446,9.30000019   L 6.77304459,9.30000019   L 6.77304459,21.8000011  "
     style="stroke:#000;fill:white;stroke-width:0.0;"
     id="39" />
  <path
     vector-effect="non-scaling-stroke"
     d="M64.6382751,8.63333321   L 0.00000000,8.63333321   L 0.00000000,9.30000019   L 6.77304459,9.30000019   L 10.7730446,9.30000019   L 14.7730446,9.30000019   L 21.5460892,9.30000114   L 28.3191357,9.30000019   L 32.3191376,9.30000019   L 36.3191376,9.30000019   L 43.0921783,9.30000114   L 49.8652229,9.30000019   L 53.8652229,9.30000019   L 57.8652229,9.30000019   L 64.6382751,9.30000019   L 64.6382751,8.63333321  "
     style="stroke:#000;fill:ivory;stroke-width:0.0;"
     id="30" />
  <path
     vector-effect="non-scaling-stroke"
     d="M6.77304459,-0.00000000   L 0.00000000,-0.00000000   L 0.00000000,0.666666687   L 64.6382751,0.666666687   L 64.6382751,-9.41809503E-07   L 57.8652229,-3.49691106E-07   L 53.8652229,-0.00000000   L 49.8652229,-0.00000000   L 43.0921783,-9.41809503E-07   L 36.3191376,-3.49691106E-07   L 32.3191376,-0.00000000   L 28.3191357,-0.00000000   L 21.5460892,-9.41809503E-07   L 14.7730446,-3.49691106E-07   L 10.7730446,-0.00000000   L 6.77304459,-0.00000000  "
     style="stroke:#000;fill:ivory;stroke-width:0.0;"
     id="2" />
  <path
     vector-effect="non-scaling-stroke"
     d="M0.00000000,2.00000000   L 0.646382689,2.00000000   L 31.6727543,2.00000000   L 32.3191376,2.00000000   L 32.9655190,2.00000000   L 63.9918900,2.00000000   L 64.6382751,2.00000000   L 64.6382751,1.33333337   L 0.00000000,1.33333337   L 0.00000000,2.00000000  "
     style="stroke:#000;fill:ivory;stroke-width:0.0;"
     id="14" />
  <path
     vector-effect="non-scaling-stroke"
     d="M0.646382689,7.29999971   L 0.00000000,7.29999971   L 0.00000000,7.96666670   L 64.6382751,7.96666670   L 64.6382751,7.29999971   L 63.9918900,7.29999971   L 32.9655190,7.29999971   L 32.3191376,7.29999971   L 31.6727543,7.29999971   L 0.646382689,7.29999971  "
     style="stroke:#000;fill:ivory;stroke-width:0.0;"
     id="28" />
  <path
     vector-effect="non-scaling-stroke"
     d="M64.6382751,7.96666670   L 0.00000000,7.96666670   L 0.00000000,8.63333321   L 64.6382751,8.63333321   L 64.6382751,7.96666670  "
     style="stroke:#000;fill:ivory;stroke-width:0.0;"
     id="29" />
  <path
     vector-effect="non-scaling-stroke"
     d="M64.6382751,0.666666687   L 0.00000000,0.666666687   L 0.00000000,1.33333337   L 64.6382751,1.33333337   L 64.6382751,0.666666687  "
     style="stroke:#000;fill:ivory;stroke-width:0.0;"
     id="27" />
  <path
     vector-effect="non-scaling-stroke"
     d="M0.646382689,2.00000000   L 0.00000000,2.00000000   L -1.62265705E-16,4.65000010   L 0.646382689,4.65000010   L 0.646382689,2.00000000  "
     style="stroke:#000;fill:ivory;stroke-width:0.0;"
     id="15" />
  <path
     vector-effect="non-scaling-stroke"
     d="M0.646382689,4.65000010   L -1.62265705E-16,4.65000010   L 0.00000000,7.29999971   L 0.646382689,7.29999971   L 0.646382689,4.65000010  "
     style="stroke:#000;fill:ivory;stroke-width:0.0;"
     id="18" />
  <path
     vector-effect="non-scaling-stroke"
     d="M32.3191376,2.00000000   L 31.6727543,2.00000000   L 31.6727543,4.65000010   L 32.3191376,4.65000010   L 32.3191376,2.00000000  "
     style="stroke:#000;fill:ivory;stroke-width:0.0;"
     id="17" />
  <path
     vector-effect="non-scaling-stroke"
     d="M32.3191376,2.00000000   L 32.3191376,4.65000010   L 32.9655190,4.65000010   L 32.9655190,2.00000000   L 32.3191376,2.00000000  "
     style="stroke:#000;fill:ivory;stroke-width:0.0;"
     id="21" />
  <path
     vector-effect="non-scaling-stroke"
     d="M63.9918900,4.65000010   L 64.6382751,4.65000010   L 64.6382751,2.00000000   L 63.9918900,2.00000000   L 63.9918900,4.65000010  "
     style="stroke:#000;fill:ivory;stroke-width:0.0;"
     id="25" />
  <path
     vector-effect="non-scaling-stroke"
     d="M32.3191376,4.65000010   L 31.6727543,4.65000010   L 31.6727543,7.29999971   L 32.3191376,7.29999971   L 32.3191376,4.65000010  "
     style="stroke:#000;fill:ivory;stroke-width:0.0;"
     id="20" />
  <path
     vector-effect="non-scaling-stroke"
     d="M32.9655190,4.65000010   L 32.3191376,4.65000010   L 32.3191376,7.29999971   L 32.9655190,7.29999971   L 32.9655190,4.65000010  "
     style="stroke:#000;fill:ivory;stroke-width:0.0;"
     id="22" />
  <path
     vector-effect="non-scaling-stroke"
     d="M64.6382751,4.65000010   L 63.9918900,4.65000010   L 63.9918900,7.29999971   L 64.6382751,7.29999971   L 64.6382751,4.65000010  "
     style="stroke:#000;fill:ivory;stroke-width:0.0;"
     id="26" />
  <g
     vector-effect="non-scaling-stroke"
     style="stroke:#000;fill:none;stroke-width:1;"
     id="g300">
    <line
       x1="0.00000000"
       y1="-0.00000000"
       x2="6.77304459"
       y2="-0.00000000"
       inx="1"
       style="stroke-width:1;"
       vector-effect="non-scaling-stroke"
       id="line44" />
    <line
       x1="6.77304459"
       y1="-0.00000000"
       x2="6.77304459"
       y2="-12.5000000"
       inx="2"
       style="stroke-width:1;"
       vector-effect="non-scaling-stroke"
       id="line46" />
    <line
       x1="6.77304459"
       y1="-12.5000000"
       x2="10.7730446"
       y2="-12.5000000"
       inx="3"
       style="stroke-width:1;"
       vector-effect="non-scaling-stroke"
       id="line48" />
    <line
       x1="10.7730446"
       y1="-24.5000000"
       x2="1.50019233E-15"
       y2="-24.5000000"
       inx="5"
       style="stroke-width:1;"
       vector-effect="non-scaling-stroke"
       id="line52" />
    <line
       x1="1.50019233E-15"
       y1="-24.5000000"
       x2="0.00000000"
       y2="-0.00000000"
       inx="6"
       style="stroke-width:1;"
       vector-effect="non-scaling-stroke"
       id="line54" />
    <line
       x1="6.77304459"
       y1="-0.00000000"
       x2="10.7730446"
       y2="-0.00000000"
       inx="7"
       style="stroke-width:1;"
       vector-effect="non-scaling-stroke"
       id="line56" />
    <line
       x1="14.7730446"
       y1="-12.5000000"
       x2="10.7730446"
       y2="-12.5000000"
       inx="9"
       style="stroke-width:1;"
       vector-effect="non-scaling-stroke"
       id="line60" />
    <line
       x1="14.7730446"
       y1="-3.49691106E-07"
       x2="14.7730446"
       y2="-12.5000000"
       inx="10"
       style="stroke-width:1;"
       vector-effect="non-scaling-stroke"
       id="line62" />
    <line
       x1="21.5460892"
       y1="-9.41809503E-07"
       x2="14.7730446"
       y2="-3.49691106E-07"
       inx="11"
       style="stroke-width:1;"
       vector-effect="non-scaling-stroke"
       id="line64" />
    <line
       x1="10.7730446"
       y1="-24.5000000"
       x2="21.5460873"
       y2="-24.5000019"
       inx="13"
       style="stroke-width:1;"
       vector-effect="non-scaling-stroke"
       id="line68" />
    <line
       x1="14.7730446"
       y1="-3.49691106E-07"
       x2="10.7730446"
       y2="-0.00000000"
       inx="14"
       style="stroke-width:1;"
       vector-effect="non-scaling-stroke"
       id="line70" />
    <line
       x1="28.3191357"
       y1="-12.5000000"
       x2="32.3191376"
       y2="-12.5000000"
       inx="16"
       style="stroke-width:1;"
       vector-effect="non-scaling-stroke"
       id="line74" />
    <line
       x1="28.3191357"
       y1="-0.00000000"
       x2="28.3191357"
       y2="-12.5000000"
       inx="17"
       style="stroke-width:1;"
       vector-effect="non-scaling-stroke"
       id="line76" />
    <line
       x1="21.5460892"
       y1="-9.41809503E-07"
       x2="28.3191357"
       y2="-0.00000000"
       inx="18"
       style="stroke-width:1;"
       vector-effect="non-scaling-stroke"
       id="line78" />
    <line
       x1="32.3191376"
       y1="-24.5000000"
       x2="21.5460873"
       y2="-24.5000019"
       inx="19"
       style="stroke-width:1;"
       vector-effect="non-scaling-stroke"
       id="line80" />
    <line
       x1="28.3191357"
       y1="-0.00000000"
       x2="32.3191376"
       y2="-0.00000000"
       inx="21"
       style="stroke-width:1;"
       vector-effect="non-scaling-stroke"
       id="line84" />
    <line
       x1="36.3191376"
       y1="-12.5000000"
       x2="32.3191376"
       y2="-12.5000000"
       inx="22"
       style="stroke-width:1;"
       vector-effect="non-scaling-stroke"
       id="line86" />
    <line
       x1="36.3191376"
       y1="-3.49691106E-07"
       x2="36.3191376"
       y2="-12.5000000"
       inx="23"
       style="stroke-width:1;"
       vector-effect="non-scaling-stroke"
       id="line88" />
    <line
       x1="43.0921783"
       y1="-9.41809503E-07"
       x2="36.3191376"
       y2="-3.49691106E-07"
       inx="24"
       style="stroke-width:1;"
       vector-effect="non-scaling-stroke"
       id="line90" />
    <line
       x1="32.3191376"
       y1="-24.5000000"
       x2="43.0921745"
       y2="-24.5000019"
       inx="26"
       style="stroke-width:1;"
       vector-effect="non-scaling-stroke"
       id="line94" />
    <line
       x1="36.3191376"
       y1="-3.49691106E-07"
       x2="32.3191376"
       y2="-0.00000000"
       inx="27"
       style="stroke-width:1;"
       vector-effect="non-scaling-stroke"
       id="line96" />
    <line
       x1="49.8652229"
       y1="-12.5000000"
       x2="53.8652229"
       y2="-12.5000000"
       inx="29"
       style="stroke-width:1;"
       vector-effect="non-scaling-stroke"
       id="line100" />
    <line
       x1="49.8652229"
       y1="-0.00000000"
       x2="49.8652229"
       y2="-12.5000000"
       inx="30"
       style="stroke-width:1;"
       vector-effect="non-scaling-stroke"
       id="line102" />
    <line
       x1="43.0921783"
       y1="-9.41809503E-07"
       x2="49.8652229"
       y2="-0.00000000"
       inx="31"
       style="stroke-width:1;"
       vector-effect="non-scaling-stroke"
       id="line104" />
    <line
       x1="53.8652229"
       y1="-24.5000000"
       x2="43.0921745"
       y2="-24.5000019"
       inx="32"
       style="stroke-width:1;"
       vector-effect="non-scaling-stroke"
       id="line106" />
    <line
       x1="49.8652229"
       y1="-0.00000000"
       x2="53.8652229"
       y2="-0.00000000"
       inx="34"
       style="stroke-width:1;"
       vector-effect="non-scaling-stroke"
       id="line110" />
    <line
       x1="57.8652229"
       y1="-12.5000000"
       x2="53.8652229"
       y2="-12.5000000"
       inx="35"
       style="stroke-width:1;"
       vector-effect="non-scaling-stroke"
       id="line112" />
    <line
       x1="57.8652229"
       y1="-3.49691106E-07"
       x2="57.8652229"
       y2="-12.5000000"
       inx="36"
       style="stroke-width:1;"
       vector-effect="non-scaling-stroke"
       id="line114" />
    <line
       x1="64.6382751"
       y1="-9.41809503E-07"
       x2="57.8652229"
       y2="-3.49691106E-07"
       inx="37"
       style="stroke-width:1;"
       vector-effect="non-scaling-stroke"
       id="line116" />
    <line
       x1="64.6382751"
       y1="-24.5000019"
       x2="64.6382751"
       y2="-9.41809503E-07"
       inx="38"
       style="stroke-width:1;"
       vector-effect="non-scaling-stroke"
       id="line118" />
    <line
       x1="53.8652229"
       y1="-24.5000000"
       x2="64.6382751"
       y2="-24.5000019"
       inx="39"
       style="stroke-width:1;"
       vector-effect="non-scaling-stroke"
       id="line120" />
    <line
       x1="57.8652229"
       y1="-3.49691106E-07"
       x2="53.8652229"
       y2="-0.00000000"
       inx="40"
       style="stroke-width:1;"
       vector-effect="non-scaling-stroke"
       id="line122" />
    <line
       x1="0.00000000"
       y1="2.00000000"
       x2="0.646382689"
       y2="2.00000000"
       inx="41"
       style="stroke-width:1;"
       vector-effect="non-scaling-stroke"
       id="line124" />
    <line
       x1="0.646382689"
       y1="2.00000000"
       x2="31.6727543"
       y2="2.00000000"
       inx="42"
       style="stroke-width:1;"
       vector-effect="non-scaling-stroke"
       id="line126" />
    <line
       x1="31.6727543"
       y1="2.00000000"
       x2="32.3191376"
       y2="2.00000000"
       inx="43"
       style="stroke-width:1;"
       vector-effect="non-scaling-stroke"
       id="line128" />
    <line
       x1="0.646382689"
       y1="2.00000000"
       x2="0.646382689"
       y2="4.65000010"
       inx="48"
       style="stroke-width:1;"
       vector-effect="non-scaling-stroke"
       id="line138" />
    <line
       x1="31.6727543"
       y1="2.00000000"
       x2="31.6727543"
       y2="4.65000010"
       inx="49"
       style="stroke-width:1;"
       vector-effect="non-scaling-stroke"
       id="line140" />
    <line
       x1="32.3191376"
       y1="2.00000000"
       x2="32.9655190"
       y2="2.00000000"
       inx="51"
       style="stroke-width:1;"
       vector-effect="non-scaling-stroke"
       id="line144" />
    <line
       x1="63.9918900"
       y1="2.00000000"
       x2="64.6382751"
       y2="2.00000000"
       inx="56"
       style="stroke-width:1;"
       vector-effect="non-scaling-stroke"
       id="line154" />
    <line
       x1="32.9655190"
       y1="2.00000000"
       x2="63.9918900"
       y2="2.00000000"
       inx="57"
       style="stroke-width:1;"
       vector-effect="non-scaling-stroke"
       id="line156" />
    <line
       x1="32.9655190"
       y1="2.00000000"
       x2="32.9655190"
       y2="4.65000010"
       inx="58"
       style="stroke-width:1;"
       vector-effect="non-scaling-stroke"
       id="line158" />
    <line
       x1="63.9918900"
       y1="2.00000000"
       x2="63.9918900"
       y2="4.65000010"
       inx="59"
       style="stroke-width:1;"
       vector-effect="non-scaling-stroke"
       id="line160" />
    <line
       x1="0.00000000"
       y1="0.666666687"
       x2="0.00000000"
       y2="-0.00000000"
       inx="61"
       style="stroke-width:1;"
       vector-effect="non-scaling-stroke"
       id="line164" />
    <line
       x1="64.6382751"
       y1="0.666666687"
       x2="64.6382751"
       y2="-9.41809503E-07"
       inx="62"
       style="stroke-width:1;"
       vector-effect="non-scaling-stroke"
       id="line166" />
    <line
       x1="0.00000000"
       y1="1.33333337"
       x2="0.00000000"
       y2="2.00000000"
       inx="64"
       style="stroke-width:1;"
       vector-effect="non-scaling-stroke"
       id="line170" />
    <line
       x1="64.6382751"
       y1="1.33333337"
       x2="64.6382751"
       y2="2.00000000"
       inx="65"
       style="stroke-width:1;"
       vector-effect="non-scaling-stroke"
       id="line172" />
    <line
       x1="0.00000000"
       y1="0.666666687"
       x2="0.00000000"
       y2="1.33333337"
       inx="66"
       style="stroke-width:1;"
       vector-effect="non-scaling-stroke"
       id="line174" />
    <line
       x1="64.6382751"
       y1="0.666666687"
       x2="64.6382751"
       y2="1.33333337"
       inx="67"
       style="stroke-width:1;"
       vector-effect="non-scaling-stroke"
       id="line176" />
    <line
       x1="0.00000000"
       y1="7.29999971"
       x2="0.646382689"
       y2="7.29999971"
       inx="69"
       style="stroke-width:1;"
       vector-effect="non-scaling-stroke"
       id="line180" />
    <line
       x1="0.646382689"
       y1="7.29999971"
       x2="31.6727543"
       y2="7.29999971"
       inx="70"
       style="stroke-width:1;"
       vector-effect="non-scaling-stroke"
       id="line182" />
    <line
       x1="31.6727543"
       y1="7.29999971"
       x2="32.3191376"
       y2="7.29999971"
       inx="71"
       style="stroke-width:1;"
       vector-effect="non-scaling-stroke"
       id="line184" />
    <line
       x1="0.646382689"
       y1="7.29999971"
       x2="0.646382689"
       y2="4.65000010"
       inx="73"
       style="stroke-width:1;"
       vector-effect="non-scaling-stroke"
       id="line188" />
    <line
       x1="31.6727543"
       y1="7.29999971"
       x2="31.6727543"
       y2="4.65000010"
       inx="74"
       style="stroke-width:1;"
       vector-effect="non-scaling-stroke"
       id="line190" />
    <line
       x1="32.3191376"
       y1="7.29999971"
       x2="32.9655190"
       y2="7.29999971"
       inx="75"
       style="stroke-width:1;"
       vector-effect="non-scaling-stroke"
       id="line192" />
    <line
       x1="32.9655190"
       y1="7.29999971"
       x2="63.9918900"
       y2="7.29999971"
       inx="76"
       style="stroke-width:1;"
       vector-effect="non-scaling-stroke"
       id="line194" />
    <line
       x1="63.9918900"
       y1="7.29999971"
       x2="64.6382751"
       y2="7.29999971"
       inx="77"
       style="stroke-width:1;"
       vector-effect="non-scaling-stroke"
       id="line196" />
    <line
       x1="32.9655190"
       y1="7.29999971"
       x2="32.9655190"
       y2="4.65000010"
       inx="79"
       style="stroke-width:1;"
       vector-effect="non-scaling-stroke"
       id="line200" />
    <line
       x1="63.9918900"
       y1="7.29999971"
       x2="63.9918900"
       y2="4.65000010"
       inx="80"
       style="stroke-width:1;"
       vector-effect="non-scaling-stroke"
       id="line202" />
    <line
       x1="64.6382751"
       y1="7.96666670"
       x2="64.6382751"
       y2="7.29999971"
       inx="81"
       style="stroke-width:1;"
       vector-effect="non-scaling-stroke"
       id="line204" />
    <line
       x1="0.00000000"
       y1="7.96666670"
       x2="0.00000000"
       y2="7.29999971"
       inx="83"
       style="stroke-width:1;"
       vector-effect="non-scaling-stroke"
       id="line208" />
    <line
       x1="0.00000000"
       y1="8.63333321"
       x2="0.00000000"
       y2="7.96666670"
       inx="84"
       style="stroke-width:1;"
       vector-effect="non-scaling-stroke"
       id="line210" />
    <line
       x1="64.6382751"
       y1="8.63333321"
       x2="64.6382751"
       y2="9.30000019"
       inx="86"
       style="stroke-width:1;"
       vector-effect="non-scaling-stroke"
       id="line214" />
    <line
       x1="64.6382751"
       y1="9.30000019"
       x2="57.8652229"
       y2="9.30000019"
       inx="87"
       style="stroke-width:1;"
       vector-effect="non-scaling-stroke"
       id="line216" />
    <line
       x1="57.8652229"
       y1="9.30000019"
       x2="57.8652229"
       y2="21.8000011"
       inx="88"
       style="stroke-width:1;"
       vector-effect="non-scaling-stroke"
       id="line218" />
    <line
       x1="57.8652229"
       y1="21.8000011"
       x2="53.8652229"
       y2="21.8000011"
       inx="89"
       style="stroke-width:1;"
       vector-effect="non-scaling-stroke"
       id="line220" />
    <line
       x1="53.8652229"
       y1="33.7999992"
       x2="43.0921783"
       y2="33.7999992"
       inx="91"
       style="stroke-width:1;"
       vector-effect="non-scaling-stroke"
       id="line224" />
    <line
       x1="43.0921783"
       y1="9.30000114"
       x2="36.3191376"
       y2="9.30000019"
       inx="93"
       style="stroke-width:1;"
       vector-effect="non-scaling-stroke"
       id="line228" />
    <line
       x1="36.3191376"
       y1="9.30000019"
       x2="36.3191376"
       y2="21.8000011"
       inx="94"
       style="stroke-width:1;"
       vector-effect="non-scaling-stroke"
       id="line230" />
    <line
       x1="36.3191376"
       y1="21.8000011"
       x2="32.3191376"
       y2="21.8000011"
       inx="95"
       style="stroke-width:1;"
       vector-effect="non-scaling-stroke"
       id="line232" />
    <line
       x1="32.3191376"
       y1="33.7999992"
       x2="21.5460892"
       y2="33.7999992"
       inx="97"
       style="stroke-width:1;"
       vector-effect="non-scaling-stroke"
       id="line236" />
    <line
       x1="21.5460892"
       y1="9.30000114"
       x2="14.7730446"
       y2="9.30000019"
       inx="99"
       style="stroke-width:1;"
       vector-effect="non-scaling-stroke"
       id="line240" />
    <line
       x1="14.7730446"
       y1="9.30000019"
       x2="14.7730446"
       y2="21.8000011"
       inx="100"
       style="stroke-width:1;"
       vector-effect="non-scaling-stroke"
       id="line242" />
    <line
       x1="14.7730446"
       y1="21.8000011"
       x2="10.7730436"
       y2="21.8000011"
       inx="101"
       style="stroke-width:1;"
       vector-effect="non-scaling-stroke"
       id="line244" />
    <line
       x1="6.77304459"
       y1="21.8000011"
       x2="10.7730436"
       y2="21.8000011"
       inx="102"
       style="stroke-width:1;"
       vector-effect="non-scaling-stroke"
       id="line246" />
    <line
       x1="6.77304459"
       y1="9.30000019"
       x2="6.77304459"
       y2="21.8000011"
       inx="103"
       style="stroke-width:1;"
       vector-effect="non-scaling-stroke"
       id="line248" />
    <line
       x1="0.00000000"
       y1="9.30000019"
       x2="6.77304459"
       y2="9.30000019"
       inx="104"
       style="stroke-width:1;"
       vector-effect="non-scaling-stroke"
       id="line250" />
    <line
       x1="1.50019233E-15"
       y1="33.7999992"
       x2="0.00000000"
       y2="9.30000019"
       inx="105"
       style="stroke-width:1;"
       vector-effect="non-scaling-stroke"
       id="line252" />
    <line
       x1="10.7730446"
       y1="33.7999992"
       x2="1.50019233E-15"
       y2="33.7999992"
       inx="106"
       style="stroke-width:1;"
       vector-effect="non-scaling-stroke"
       id="line254" />
    <line
       x1="6.77304459"
       y1="9.30000019"
       x2="10.7730446"
       y2="9.30000019"
       inx="109"
       style="stroke-width:1;"
       vector-effect="non-scaling-stroke"
       id="line260" />
    <line
       x1="10.7730446"
       y1="33.7999992"
       x2="21.5460892"
       y2="33.7999992"
       inx="110"
       style="stroke-width:1;"
       vector-effect="non-scaling-stroke"
       id="line262" />
    <line
       x1="21.5460892"
       y1="9.30000114"
       x2="28.3191357"
       y2="9.30000019"
       inx="111"
       style="stroke-width:1;"
       vector-effect="non-scaling-stroke"
       id="line264" />
    <line
       x1="28.3191357"
       y1="9.30000019"
       x2="28.3191357"
       y2="21.8000011"
       inx="112"
       style="stroke-width:1;"
       vector-effect="non-scaling-stroke"
       id="line266" />
    <line
       x1="28.3191357"
       y1="21.8000011"
       x2="32.3191376"
       y2="21.8000011"
       inx="113"
       style="stroke-width:1;"
       vector-effect="non-scaling-stroke"
       id="line268" />
    <line
       x1="28.3191357"
       y1="9.30000019"
       x2="32.3191376"
       y2="9.30000019"
       inx="115"
       style="stroke-width:1;"
       vector-effect="non-scaling-stroke"
       id="line272" />
    <line
       x1="32.3191376"
       y1="33.7999992"
       x2="43.0921783"
       y2="33.7999992"
       inx="116"
       style="stroke-width:1;"
       vector-effect="non-scaling-stroke"
       id="line274" />
    <line
       x1="43.0921783"
       y1="9.30000114"
       x2="49.8652229"
       y2="9.30000019"
       inx="117"
       style="stroke-width:1;"
       vector-effect="non-scaling-stroke"
       id="line276" />
    <line
       x1="49.8652229"
       y1="9.30000019"
       x2="49.8652229"
       y2="21.8000011"
       inx="118"
       style="stroke-width:1;"
       vector-effect="non-scaling-stroke"
       id="line278" />
    <line
       x1="49.8652229"
       y1="21.8000011"
       x2="53.8652229"
       y2="21.8000011"
       inx="119"
       style="stroke-width:1;"
       vector-effect="non-scaling-stroke"
       id="line280" />
    <line
       x1="49.8652229"
       y1="9.30000019"
       x2="53.8652229"
       y2="9.30000019"
       inx="121"
       style="stroke-width:1;"
       vector-effect="non-scaling-stroke"
       id="line284" />
    <line
       x1="53.8652229"
       y1="33.7999992"
       x2="64.6382751"
       y2="33.8000031"
       inx="122"
       style="stroke-width:1;"
       vector-effect="non-scaling-stroke"
       id="line286" />
    <line
       x1="64.6382751"
       y1="33.8000031"
       x2="64.6382751"
       y2="9.30000019"
       inx="123"
       style="stroke-width:1;"
       vector-effect="non-scaling-stroke"
       id="line288" />
    <line
       x1="57.8652229"
       y1="9.30000019"
       x2="53.8652229"
       y2="9.30000019"
       inx="124"
       style="stroke-width:1;"
       vector-effect="non-scaling-stroke"
       id="line290" />
    <line
       x1="36.3191376"
       y1="9.30000019"
       x2="32.3191376"
       y2="9.30000019"
       inx="125"
       style="stroke-width:1;"
       vector-effect="non-scaling-stroke"
       id="line292" />
    <line
       x1="14.7730446"
       y1="9.30000019"
       x2="10.7730446"
       y2="9.30000019"
       inx="126"
       style="stroke-width:1;"
       vector-effect="non-scaling-stroke"
       id="line294" />
    <line
       x1="0.00000000"
       y1="8.63333321"
       x2="0.00000000"
       y2="9.30000019"
       inx="127"
       style="stroke-width:1;"
       vector-effect="non-scaling-stroke"
       id="line296" />
    <line
       x1="64.6382751"
       y1="8.63333321"
       x2="64.6382751"
       y2="7.96666670"
       inx="128"
       style="stroke-width:1;"
       vector-effect="non-scaling-stroke"
       id="line298" />
  </g>
</svg>
