999
dxfrw 0.6.3
  0
SECTION
  2
HEADER
  9
$ACADVER
  1
AC1021
  9
$DWGCODEPAGE
  3
ANSI_1252
  9
$INSBASE
 10
0
 20
0
 30
0
  9
$EXTMIN
 10
-2.937995281653993e-05
 20
-1.31130025208894e-05
 30
0
  9
$EXTMAX
 10
110.0000076293945
 20
110.0000076293945
 30
0
  9
$LIMMIN
 10
0
 20
0
  9
$LIMMAX
 10
420
 20
297
  9
$ORTHOMODE
 70
    0
  9
$REGENMODE
 70
    1
  9
$FILLMODE
 70
    1
  9
$QTEXTMODE
 70
    0
  9
$MIRRTEXT
 70
    0
  9
$LTSCALE
 40
1
  9
$ATTMODE
 70
    0
  9
$TEXTSIZE
 40
2.5
  9
$TRACEWID
 40
15.68
  9
$TEXTSTYLE
  7
STANDARD
  9
$CLAYER
  8
0
  9
$CELTYPE
  6
BYLAYER
  9
$CECOLOR
 62
  256
  9
$CELTSCALE
 40
1
  9
$DISPSILH
 70
    0
  9
$DIMSCALE
 40
2.5
  9
$DIMASZ
 40
2.5
  9
$DIMEXO
 40
0.625
  9
$DIMDLI
 40
3.75
  9
$DIMRND
 40
0
  9
$DIMDLE
 40
0
  9
$DIMEXE
 40
1.25
  9
$DIMTP
 40
0
  9
$DIMTM
 40
0
  9
$DIMTXT
 40
2.5
  9
$DIMCEN
 40
2.5
  9
$DIMTSZ
 40
0
  9
$DIMTOL
 70
    0
  9
$DIMLIM
 70
    0
  9
$DIMTIH
 70
    0
  9
$DIMTOH
 70
    0
  9
$DIMSE1
 70
    0
  9
$DIMSE2
 70
    0
  9
$DIMTAD
 70
    1
  9
$DIMZIN
 70
    8
  9
$DIMBLK
  1

  9
$DIMASO
 70
    1
  9
$DIMSHO
 70
    1
  9
$DIMPOST
  1

  9
$DIMAPOST
  1

  9
$DIMALT
 70
    0
  9
$DIMALTD
 70
    3
  9
$DIMALTF
 40
0.03937
  9
$DIMLFAC
 40
1
  9
$DIMTOFL
 70
    1
  9
$DIMTVP
 40
0
  9
$DIMTIX
 70
    0
  9
$DIMSOXD
 70
    0
  9
$DIMSAH
 70
    0
  9
$DIMBLK1
  1

  9
$DIMBLK2
  1

  9
$DIMSTYLE
  2
Standard
  9
$DIMCLRD
 70
    0
  9
$DIMCLRE
 70
    0
  9
$DIMCLRT
 70
    0
  9
$DIMTFAC
 40
1
  9
$DIMGAP
 40
0.625
  9
$DIMJUST
 70
    0
  9
$DIMSD1
 70
    0
  9
$DIMSD2
 70
    0
  9
$DIMTOLJ
 70
    0
  9
$DIMTZIN
 70
    8
  9
$DIMALTZ
 70
    0
  9
$DIMALTTZ
 70
    0
  9
$DIMUPT
 70
    0
  9
$DIMDEC
 70
    2
  9
$DIMTDEC
 70
    2
  9
$DIMALTU
 70
    2
  9
$DIMALTTD
 70
    3
  9
$DIMTXSTY
  7
STANDARD
  9
$DIMAUNIT
 70
    0
  9
$DIMADEC
 70
    0
  9
$DIMALTRND
 40
0
  9
$DIMAZIN
 70
    0
  9
$DIMDSEP
 70
   44
  9
$DIMATFIT
 70
    3
  9
$DIMFRAC
 70
    0
  9
$DIMLDRBLK
  1
STANDARD
  9
$DIMLUNIT
 70
    2
  9
$DIMLWD
 70
   -2
  9
$DIMLWE
 70
   -2
  9
$DIMTMOVE
 70
    0
  9
$DIMFXL
 40
1
  9
$DIMFXLON
 70
    0
  9
$DIMJOGANG
 40
0.7854
  9
$DIMTFILL
 70
    0
  9
$DIMTFILLCLR
 70
    0
  9
$DIMARCSYM
 70
    0
  9
$DIMLTYPE
  6

  9
$DIMLTEX1
  6

  9
$DIMLTEX2
  6

  9
$LUNITS
 70
    2
  9
$LUPREC
 70
    4
  9
$SKETCHINC
 40
1
  9
$FILLETRAD
 40
0
  9
$AUNITS
 70
    0
  9
$AUPREC
 70
    2
  9
$MENU
  1
.
  9
$ELEVATION
 40
0
  9
$PELEVATION
 40
0
  9
$THICKNESS
 40
0
  9
$LIMCHECK
 70
    0
  9
$CHAMFERA
 40
0
  9
$CHAMFERB
 40
0
  9
$CHAMFERC
 40
0
  9
$CHAMFERD
 40
0
  9
$SKPOLY
 70
    0
  9
$USRTIMER
 70
    1
  9
$ANGBASE
 50
0
  9
$ANGDIR
 70
    0
  9
$PDMODE
 70
   34
  9
$PDSIZE
 40
0
  9
$PLINEWID
 40
0
  9
$SPLFRAME
 70
    0
  9
$SPLINETYPE
 70
    2
  9
$SPLINESEGS
 70
    8
  9
$HANDSEED
  5
20000
  9
$SURFTAB1
 70
    6
  9
$SURFTAB2
 70
    6
  9
$SURFTYPE
 70
    6
  9
$SURFU
 70
    6
  9
$SURFV
 70
    6
  9
$UCSBASE
  2

  9
$UCSNAME
  2

  9
$UCSORG
 10
0
 20
0
 30
0
  9
$UCSXDIR
 10
1
 20
0
 30
0
  9
$UCSYDIR
 10
0
 20
1
 30
0
  9
$UCSORTHOREF
  2

  9
$UCSORTHOVIEW
 70
    0
  9
$UCSORGTOP
 10
0
 20
0
 30
0
  9
$UCSORGBOTTOM
 10
0
 20
0
 30
0
  9
$UCSORGLEFT
 10
0
 20
0
 30
0
  9
$UCSORGRIGHT
 10
0
 20
0
 30
0
  9
$UCSORGFRONT
 10
0
 20
0
 30
0
  9
$UCSORGBACK
 10
0
 20
0
 30
0
  9
$PUCSBASE
  2

  9
$PUCSNAME
  2

  9
$PUCSORG
 10
0
 20
0
 30
0
  9
$PUCSXDIR
 10
1
 20
0
 30
0
  9
$PUCSYDIR
 10
0
 20
1
 30
0
  9
$PUCSORTHOREF
  2

  9
$PUCSORTHOVIEW
 70
    0
  9
$PUCSORGTOP
 10
0
 20
0
 30
0
  9
$PUCSORGBOTTOM
 10
0
 20
0
 30
0
  9
$PUCSORGLEFT
 10
0
 20
0
 30
0
  9
$PUCSORGRIGHT
 10
0
 20
0
 30
0
  9
$PUCSORGFRONT
 10
0
 20
0
 30
0
  9
$PUCSORGBACK
 10
0
 20
0
 30
0
  9
$USERI1
 70
    0
  9
$USERI2
 70
    0
  9
$USERI3
 70
    0
  9
$USERI4
 70
    0
  9
$USERI5
 70
    0
  9
$USERR1
 40
0
  9
$USERR2
 40
0
  9
$USERR3
 40
0
  9
$USERR4
 40
0
  9
$USERR5
 40
0
  9
$WORLDVIEW
 70
    1
  9
$SHADEDGE
 70
    3
  9
$SHADEDIF
 70
   70
  9
$TILEMODE
 70
    1
  9
$MAXACTVP
 70
   64
  9
$PINSBASE
 10
0
 20
0
 30
0
  9
$PLIMCHECK
 70
    0
  9
$PEXTMIN
 10
0
 20
0
 30
0
  9
$PEXTMAX
 10
0
 20
0
 30
0
  9
$SNAPSTYLE
 70
    0
  9
$PLIMMIN
 10
0
 20
0
  9
$PLIMMAX
 10
210
 20
297
  9
$UNITMODE
 70
    0
  9
$VISRETAIN
 70
    1
  9
$PLINEGEN
 70
    0
  9
$PSLTSCALE
 70
    1
  9
$TREEDEPTH
 70
 3020
  9
$CMLSTYLE
  2
Standard
  9
$CMLJUST
 70
    0
  9
$CMLSCALE
 40
20
  9
$PROXYGRAPHICS
 70
    1
  9
$MEASUREMENT
 70
    1
  9
$CELWEIGHT
370
   -1
  9
$ENDCAPS
280
    0
  9
$JOINSTYLE
280
    0
  9
$LWDISPLAY
290
    0
  9
$INSUNITS
 70
    4
  9
$HYPERLINKBASE
  1

  9
$STYLESHEET
  1

  9
$XEDIT
290
    1
  9
$CEPSNTYPE
380
    0
  9
$PSTYLEMODE
290
    1
  9
$EXTNAMES
290
    1
  9
$PSVPSCALE
 40
1
  9
$OLESTARTUP
290
    0
  9
$SORTENTS
280
  127
  9
$INDEXCTL
280
    0
  9
$HIDETEXT
280
    1
  9
$XCLIPFRAME
290
    0
  9
$HALOGAP
280
    0
  9
$OBSCOLOR
 70
  257
  9
$OBSLTYPE
280
    0
  9
$INTERSECTIONDISPLAY
280
    0
  9
$INTERSECTIONCOLOR
 70
  257
  9
$DIMASSOC
280
    1
  9
$PROJECTNAME
  1

  9
$CAMERADISPLAY
290
    0
  9
$LENSLENGTH
 40
50
  9
$CAMERAHEIGHT
 40
0
  9
$STEPSPERSEC
 40
2
  9
$STEPSIZE
 40
50
  9
$3DDWFPREC
 40
2
  9
$PSOLWIDTH
 40
5
  9
$PSOLHEIGHT
 40
80
  9
$LOFTANG1
 40
1.570796326794897
  9
$LOFTANG2
 40
1.570796326794897
  9
$LOFTMAG1
 40
0
  9
$LOFTMAG2
 40
0
  9
$LOFTPARAM
 70
    7
  9
$LOFTNORMALS
280
    1
  9
$LATITUDE
 40
1
  9
$LONGITUDE
 40
1
  9
$NORTHDIRECTION
 40
0
  9
$TIMEZONE
 70
-8000
  9
$LIGHTGLYPHDISPLAY
280
    1
  9
$TILEMODELIGHTSYNCH
280
    1
  9
$SOLIDHIST
280
    1
  9
$SHOWHIST
280
    1
  9
$DWFFRAME
280
    2
  9
$DGNFRAME
280
    0
  9
$REALWORLDSCALE
290
    1
  9
$INTERFERECOLOR
 62
    1
  9
$CSHADOW
280
    0
  9
$SHADOWPLANELOCATION
 40
0
  0
ENDSEC
  0
SECTION
  2
CLASSES
  0
ENDSEC
  0
SECTION
  2
TABLES
  0
TABLE
  2
VPORT
  5
8
330
0
100
AcDbSymbolTable
 70
    1
  0
VPORT
  5
31
330
2
100
AcDbSymbolTableRecord
100
AcDbViewportTableRecord
  2
*ACTIVE
 70
    0
 10
0
 20
0
 11
1
 21
1
 12
63.50030985911962
 22
40.76286086362803
 13
0
 23
0
 14
10
 24
10
 15
10
 25
10
 16
0
 26
0
 36
1
 17
0
 27
0
 37
0
 40
89.60349965986491
 41
1.532554257095159
 42
50
 43
0
 44
0
 50
0
 51
0
 71
    0
 72
  100
 73
    1
 74
    3
 75
    0
 76
    1
 77
    0
 78
    0
281
    0
 65
    1
110
0
120
0
130
0
111
1
121
0
131
0
112
0
122
1
132
0
 79
    0
146
0
348
10020
 60
    7
 61
    5
292
1
282
    1
141
0
142
0
 63
  250
421
3358443
  0
ENDTAB
  0
TABLE
  2
LTYPE
  5
5
330
0
100
AcDbSymbolTable
 70
    4
  0
LTYPE
  5
14
330
5
100
AcDbSymbolTableRecord
100
AcDbLinetypeTableRecord
  2
ByBlock
 70
    0
  3

 72
   65
 73
    0
 40
0
  0
LTYPE
  5
15
330
5
100
AcDbSymbolTableRecord
100
AcDbLinetypeTableRecord
  2
ByLayer
 70
    0
  3

 72
   65
 73
    0
 40
0
  0
LTYPE
  5
16
330
5
100
AcDbSymbolTableRecord
100
AcDbLinetypeTableRecord
  2
Continuous
 70
    0
  3
Solid line
 72
   65
 73
    0
 40
0
  0
LTYPE
  5
32
330
5
100
AcDbSymbolTableRecord
100
AcDbLinetypeTableRecord
  2
DOT
 70
    0
  3
Dot . . . . . . . . . . . . . . . . . . . . . .
 72
   65
 73
    2
 40
6.35
 49
0
 74
    0
 49
-6.35
 74
    0
  0
LTYPE
  5
33
330
5
100
AcDbSymbolTableRecord
100
AcDbLinetypeTableRecord
  2
DOTTINY
 70
    0
  3
Dot (.15x) .....................................
 72
   65
 73
    2
 40
0.9525
 49
0
 74
    0
 49
-0.9525
 74
    0
  0
LTYPE
  5
34
330
5
100
AcDbSymbolTableRecord
100
AcDbLinetypeTableRecord
  2
DOT2
 70
    0
  3
Dot (.5x) .....................................
 72
   65
 73
    2
 40
3.175
 49
0
 74
    0
 49
-3.175
 74
    0
  0
LTYPE
  5
35
330
5
100
AcDbSymbolTableRecord
100
AcDbLinetypeTableRecord
  2
DOTX2
 70
    0
  3
Dot (2x) .  .  .  .  .  .  .  .  .  .  .  .  .
 72
   65
 73
    2
 40
12.7
 49
0
 74
    0
 49
-12.7
 74
    0
  0
LTYPE
  5
36
330
5
100
AcDbSymbolTableRecord
100
AcDbLinetypeTableRecord
  2
DASHED
 70
    0
  3
Dashed _ _ _ _ _ _ _ _ _ _ _ _ _ _ _ _ _
 72
   65
 73
    2
 40
19.05
 49
12.7
 74
    0
 49
-6.35
 74
    0
  0
LTYPE
  5
37
330
5
100
AcDbSymbolTableRecord
100
AcDbLinetypeTableRecord
  2
DASHEDTINY
 70
    0
  3
Dashed (.15x) _ _ _ _ _ _ _ _ _ _ _ _ _ _ _ _ _
 72
   65
 73
    2
 40
2.8575
 49
1.905
 74
    0
 49
-0.9525
 74
    0
  0
LTYPE
  5
38
330
5
100
AcDbSymbolTableRecord
100
AcDbLinetypeTableRecord
  2
DASHED2
 70
    0
  3
Dashed (.5x) _ _ _ _ _ _ _ _ _ _ _ _ _ _ _ _ _
 72
   65
 73
    2
 40
9.524999999999999
 49
6.35
 74
    0
 49
-3.175
 74
    0
  0
LTYPE
  5
39
330
5
100
AcDbSymbolTableRecord
100
AcDbLinetypeTableRecord
  2
DASHEDX2
 70
    0
  3
Dashed (2x) ____  ____  ____  ____  ____  ___
 72
   65
 73
    2
 40
38.09999999999999
 49
25.4
 74
    0
 49
-12.7
 74
    0
  0
LTYPE
  5
3A
330
5
100
AcDbSymbolTableRecord
100
AcDbLinetypeTableRecord
  2
DASHDOT
 70
    0
  3
Dash dot __ . __ . __ . __ . __ . __ . __ . __
 72
   65
 73
    4
 40
25.4
 49
12.7
 74
    0
 49
-6.35
 74
    0
 49
0
 74
    0
 49
-6.35
 74
    0
  0
LTYPE
  5
3B
330
5
100
AcDbSymbolTableRecord
100
AcDbLinetypeTableRecord
  2
DASHDOTTINY
 70
    0
  3
Dash dot (.15x) _._._._._._._._._._._._._._._.
 72
   65
 73
    4
 40
3.81
 49
1.905
 74
    0
 49
-0.9525
 74
    0
 49
0
 74
    0
 49
-0.9525
 74
    0
  0
LTYPE
  5
3C
330
5
100
AcDbSymbolTableRecord
100
AcDbLinetypeTableRecord
  2
DASHDOT2
 70
    0
  3
Dash dot (.5x) _._._._._._._._._._._._._._._.
 72
   65
 73
    4
 40
12.7
 49
6.35
 74
    0
 49
-3.175
 74
    0
 49
0
 74
    0
 49
-3.175
 74
    0
  0
LTYPE
  5
3D
330
5
100
AcDbSymbolTableRecord
100
AcDbLinetypeTableRecord
  2
DASHDOTX2
 70
    0
  3
Dash dot (2x) ____  .  ____  .  ____  .  ___
 72
   65
 73
    4
 40
50.8
 49
25.4
 74
    0
 49
-12.7
 74
    0
 49
0
 74
    0
 49
-12.7
 74
    0
  0
LTYPE
  5
3E
330
5
100
AcDbSymbolTableRecord
100
AcDbLinetypeTableRecord
  2
DIVIDE
 70
    0
  3
Divide ____ . . ____ . . ____ . . ____ . . ____
 72
   65
 73
    6
 40
31.75
 49
12.7
 74
    0
 49
-6.35
 74
    0
 49
0
 74
    0
 49
-6.35
 74
    0
 49
0
 74
    0
 49
-6.35
 74
    0
  0
LTYPE
  5
3F
330
5
100
AcDbSymbolTableRecord
100
AcDbLinetypeTableRecord
  2
DIVIDETINY
 70
    0
  3
Divide (.15x) __..__..__..__..__..__..__..__.._
 72
   65
 73
    6
 40
4.7625
 49
1.905
 74
    0
 49
-0.9525
 74
    0
 49
0
 74
    0
 49
-0.9525
 74
    0
 49
0
 74
    0
 49
-0.9525
 74
    0
  0
LTYPE
  5
40
330
5
100
AcDbSymbolTableRecord
100
AcDbLinetypeTableRecord
  2
DIVIDE2
 70
    0
  3
Divide (.5x) __..__..__..__..__..__..__..__.._
 72
   65
 73
    6
 40
15.875
 49
6.35
 74
    0
 49
-3.175
 74
    0
 49
0
 74
    0
 49
-3.175
 74
    0
 49
0
 74
    0
 49
-3.175
 74
    0
  0
LTYPE
  5
41
330
5
100
AcDbSymbolTableRecord
100
AcDbLinetypeTableRecord
  2
DIVIDEX2
 70
    0
  3
Divide (2x) ________  .  .  ________  .  .  _
 72
   65
 73
    6
 40
63.5
 49
25.4
 74
    0
 49
-12.7
 74
    0
 49
0
 74
    0
 49
-12.7
 74
    0
 49
0
 74
    0
 49
-12.7
 74
    0
  0
LTYPE
  5
42
330
5
100
AcDbSymbolTableRecord
100
AcDbLinetypeTableRecord
  2
BORDER
 70
    0
  3
Border __ __ . __ __ . __ __ . __ __ . __ __ .
 72
   65
 73
    6
 40
44.45
 49
12.7
 74
    0
 49
-6.35
 74
    0
 49
12.7
 74
    0
 49
-6.35
 74
    0
 49
0
 74
    0
 49
-6.35
 74
    0
  0
LTYPE
  5
43
330
5
100
AcDbSymbolTableRecord
100
AcDbLinetypeTableRecord
  2
BORDERTINY
 70
    0
  3
Border (.15x) __.__.__.__.__.__.__.__.__.__.__.
 72
   65
 73
    6
 40
6.6675
 49
1.905
 74
    0
 49
-0.9525
 74
    0
 49
1.905
 74
    0
 49
-0.9525
 74
    0
 49
0
 74
    0
 49
-0.9525
 74
    0
  0
LTYPE
  5
44
330
5
100
AcDbSymbolTableRecord
100
AcDbLinetypeTableRecord
  2
BORDER2
 70
    0
  3
Border (.5x) __.__.__.__.__.__.__.__.__.__.__.
 72
   65
 73
    6
 40
22.225
 49
6.35
 74
    0
 49
-3.175
 74
    0
 49
6.35
 74
    0
 49
-3.175
 74
    0
 49
0
 74
    0
 49
-3.175
 74
    0
  0
LTYPE
  5
45
330
5
100
AcDbSymbolTableRecord
100
AcDbLinetypeTableRecord
  2
BORDERX2
 70
    0
  3
Border (2x) ____  ____  .  ____  ____  .  ___
 72
   65
 73
    6
 40
88.89999999999999
 49
25.4
 74
    0
 49
-12.7
 74
    0
 49
25.4
 74
    0
 49
-12.7
 74
    0
 49
0
 74
    0
 49
-12.7
 74
    0
  0
LTYPE
  5
46
330
5
100
AcDbSymbolTableRecord
100
AcDbLinetypeTableRecord
  2
CENTER
 70
    0
  3
Center ____ _ ____ _ ____ _ ____ _ ____ _ ____
 72
   65
 73
    4
 40
50.8
 49
31.75
 74
    0
 49
-6.35
 74
    0
 49
6.35
 74
    0
 49
-6.35
 74
    0
  0
LTYPE
  5
47
330
5
100
AcDbSymbolTableRecord
100
AcDbLinetypeTableRecord
  2
CENTERTINY
 70
    0
  3
Center (.15x) ___ _ ___ _ ___ _ ___ _ ___ _ ___
 72
   65
 73
    4
 40
7.619999999999999
 49
4.7625
 74
    0
 49
-0.9525
 74
    0
 49
0.9525
 74
    0
 49
-0.9525
 74
    0
  0
LTYPE
  5
48
330
5
100
AcDbSymbolTableRecord
100
AcDbLinetypeTableRecord
  2
CENTER2
 70
    0
  3
Center (.5x) ___ _ ___ _ ___ _ ___ _ ___ _ ___
 72
   65
 73
    4
 40
28.575
 49
19.05
 74
    0
 49
-3.175
 74
    0
 49
3.175
 74
    0
 49
-3.175
 74
    0
  0
LTYPE
  5
49
330
5
100
AcDbSymbolTableRecord
100
AcDbLinetypeTableRecord
  2
CENTERX2
 70
    0
  3
Center (2x) ________  __  ________  __  _____
 72
   65
 73
    4
 40
101.6
 49
63.5
 74
    0
 49
-12.7
 74
    0
 49
12.7
 74
    0
 49
-12.7
 74
    0
  0
ENDTAB
  0
TABLE
  2
LAYER
  5
2
330
0
100
AcDbSymbolTable
 70
    1
  0
LAYER
  5
10
330
2
100
AcDbSymbolTableRecord
100
AcDbLayerTableRecord
  2
0
 70
    0
 62
    7
  6
CONTINUOUS
370
    0
390
F
  0
ENDTAB
  0
TABLE
  2
STYLE
  5
3
330
0
100
AcDbSymbolTable
 70
    3
  0
STYLE
  5
4A
330
2
100
AcDbSymbolTableRecord
100
AcDbTextStyleTableRecord
  2
Standard
 70
    0
 40
0
 41
1
 50
0
 71
    0
 42
1
  3
txt
  4

  0
ENDTAB
  0
TABLE
  2
VIEW
  5
6
330
0
100
AcDbSymbolTable
 70
    0
  0
ENDTAB
  0
TABLE
  2
UCS
  5
7
330
0
100
AcDbSymbolTable
 70
    0
  0
ENDTAB
  0
TABLE
  2
APPID
  5
9
330
0
100
AcDbSymbolTable
 70
    1
  0
APPID
  5
12
330
9
100
AcDbSymbolTableRecord
100
AcDbRegAppTableRecord
  2
ACAD
 70
    0
  0
APPID
  5
4B
330
9
100
AcDbSymbolTableRecord
100
AcDbRegAppTableRecord
  2
LibreCad
 70
    0
  0
ENDTAB
  0
TABLE
  2
DIMSTYLE
  5
A
330
0
100
AcDbSymbolTable
 70
    1
100
AcDbDimStyleTable
 71
    1
  0
DIMSTYLE
105
4C
330
A
100
AcDbSymbolTableRecord
100
AcDbDimStyleTableRecord
  2
Standard
 70
    0
 40
1
 41
2.5
 42
0.625
 43
0.38
 44
1.25
 45
0
 46
0
 47
0
 48
0
 49
1
140
2.5
141
0.09
142
2.5
143
25.4
144
1
145
0
146
1
147
0.625
148
0
 71
    0
 72
    0
 73
    0
 74
    1
 75
    0
 76
    0
 77
    0
 78
    1
 79
    0
170
    0
171
    2
172
    0
173
    0
174
    0
175
    0
176
    0
177
    0
178
    0
179
    0
271
    2
272
    4
273
    2
274
    2
275
    0
276
    0
277
    2
278
    0
279
    0
280
    0
281
    0
282
    0
283
    1
284
    0
285
    0
286
    0
288
    0
289
    3
340
standard
341

371
   -2
372
   -2
  0
ENDTAB
  0
TABLE
  2
BLOCK_RECORD
  5
1
330
0
100
AcDbSymbolTable
 70
    2
  0
BLOCK_RECORD
  5
1F
330
1
100
AcDbSymbolTableRecord
100
AcDbBlockTableRecord
  2
*Model_Space
 70
    0
280
    1
281
    0
  0
BLOCK_RECORD
  5
1E
330
1
100
AcDbSymbolTableRecord
100
AcDbBlockTableRecord
  2
*Paper_Space
 70
    0
280
    1
281
    0
  0
ENDTAB
  0
ENDSEC
  0
SECTION
  2
BLOCKS
  0
BLOCK
  5
20
330
1F
100
AcDbEntity
  8
0
100
AcDbBlockBegin
  2
*Model_Space
 70
    0
 10
0
 20
0
 30
0
  3
*Model_Space
  1

  0
ENDBLK
  5
21
330
1F
100
AcDbEntity
  8
0
100
AcDbBlockEnd
  0
BLOCK
  5
1C
330
1B
100
AcDbEntity
  8
0
100
AcDbBlockBegin
  2
*Paper_Space
 70
    0
 10
0
 20
0
 30
0
  3
*Paper_Space
  1

  0
ENDBLK
  5
1D
330
1F
100
AcDbEntity
  8
0
100
AcDbBlockEnd
  0
ENDSEC
  0
SECTION
  2
ENTITIES
  0
LINE
  5
4D
100
AcDbEntity
  8
0
  6
ByLayer
 62
  256
370
   -1
100
AcDbLine
 10
63.14059448242188
 20
2.735445737838745
 11
63.06467819213867
 21
4.133473873138428
  0
LINE
  5
4E
100
AcDbEntity
  8
0
  6
ByLayer
 62
  256
370
   -1
100
AcDbLine
 10
62.44209671020508
 20
2.689663887023926
 11
63.14059448242188
 21
2.735445737838745
  0
LINE
  5
4F
100
AcDbEntity
  8
0
  6
ByLayer
 62
  256
370
   -1
100
AcDbLine
 10
63.39506149291992
 20
2.150836944580078
 11
63.14059448242188
 21
2.735445737838745
  0
ARC
  5
50
100
AcDbEntity
  8
0
  6
ByLayer
 62
  256
370
   -1
100
AcDbCircle
 10
-0.00400841236114502
 20
-0.0001977896317839622
 40
62.50400924682617
100
AcDbArc
 50
0.0001744787878124043
 51
2.466486215591431
  0
LINE
  5
51
100
AcDbEntity
  8
0
  6
ByLayer
 62
  256
370
   -1
100
AcDbLine
 10
63.39506149291992
 20
2.150836944580078
 11
75.31576538085938
 21
2.233573436737061
  0
LINE
  5
52
100
AcDbEntity
  8
0
  6
ByLayer
 62
  256
370
   -1
100
AcDbLine
 10
87.23647308349609
 20
2.316310405731201
 11
75.31576538085938
 21
2.233573436737061
  0
ARC
  5
53
100
AcDbEntity
  8
0
  6
ByLayer
 62
  256
370
   -1
100
AcDbCircle
 10
87.21287536621094
 20
5.716228485107422
 40
3.399996995925903
100
AcDbArc
 50
-89.60235595703125
 51
3.750077247619629
  0
ARC
  5
54
100
AcDbEntity
  8
0
  6
ByLayer
 62
  256
370
   -1
100
AcDbCircle
 10
0.005580484867095947
 20
0.0001534353941679001
 40
109.9944229125977
100
AcDbArc
 50
-8.67545822984539e-05
 51
3.750109910964966
  0
LINE
  5
55
100
AcDbEntity
  8
0
  6
ByLayer
 62
  256
370
   -1
100
AcDbLine
 10
62.95746612548828
 20
5.529460430145264
 11
63.06467819213867
 21
4.133484363555908
  0
LINE
  5
56
100
AcDbEntity
  8
0
  6
ByLayer
 62
  256
370
   -1
100
AcDbLine
 10
62.25896835327148
 20
5.483679294586182
 11
62.95746612548828
 21
5.529460430145264
  0
ARC
  5
57
100
AcDbEntity
  8
0
  6
ByLayer
 62
  256
370
   -1
100
AcDbCircle
 10
-0.003999995533376932
 20
-0.0003262083337176591
 40
62.50400924682617
100
AcDbArc
 50
5.033515930175781
 51
7.49982738494873
  0
LINE
  5
58
100
AcDbEntity
  8
0
  6
ByLayer
 62
  256
370
   -1
100
AcDbLine
 10
63.13344955444336
 20
6.142282962799072
 11
62.95746612548828
 21
5.529460430145264
  0
LINE
  5
59
100
AcDbEntity
  8
0
  6
ByLayer
 62
  256
370
   -1
100
AcDbLine
 10
63.13344955444336
 20
6.142282962799072
 11
74.96297454833984
 21
7.616218090057373
  0
LINE
  5
5A
100
AcDbEntity
  8
0
  6
ByLayer
 62
  256
370
   -1
100
AcDbLine
 10
86.79248809814453
 20
9.090154647827148
 11
74.96297454833984
 21
7.616218090057373
  0
ARC
  5
5B
100
AcDbEntity
  8
0
  6
ByLayer
 62
  256
370
   -1
100
AcDbCircle
 10
87.21287536621094
 20
5.716243267059326
 40
3.399996995925903
100
AcDbArc
 50
3.749921083450317
 51
97.10236358642578
  0
ARC
  5
5C
100
AcDbEntity
  8
0
  6
ByLayer
 62
  256
370
   -1
100
AcDbCircle
 10
0.005552711896598339
 20
0.0005771740106865764
 40
109.9944229125977
100
AcDbArc
 50
3.749892234802246
 51
7.500088214874268
  0
ARC
  5
5D
100
AcDbEntity
  8
0
  6
ByLayer
 62
  256
370
   -1
100
AcDbCircle
 10
-0.003948302939534187
 20
-0.000719300180207938
 40
62.50400924682617
100
AcDbArc
 50
7.50017261505127
 51
9.966482162475586
  0
LINE
  5
5E
100
AcDbEntity
  8
0
  6
ByLayer
 62
  256
370
   -1
100
AcDbLine
 10
61.55682754516602
 20
10.81698131561279
 11
62.24337387084961
 21
10.9535436630249
  0
LINE
  5
5F
100
AcDbEntity
  8
0
  6
ByLayer
 62
  256
370
   -1
100
AcDbLine
 10
62.24337387084961
 20
10.9535436630249
 11
61.98562622070312
 21
12.32970333099365
  0
LINE
  5
60
100
AcDbEntity
  8
0
  6
ByLayer
 62
  256
370
   -1
100
AcDbLine
 10
61.69711685180664
 20
13.69975090026855
 11
61.98562622070312
 21
12.32971382141113
  0
LINE
  5
61
100
AcDbEntity
  8
0
  6
ByLayer
 62
  256
370
   -1
100
AcDbLine
 10
61.01057815551758
 20
13.56319046020508
 11
61.69711685180664
 21
13.69975090026855
  0
ARC
  5
62
100
AcDbEntity
  8
0
  6
ByLayer
 62
  256
370
   -1
100
AcDbCircle
 10
-0.003923196345567703
 20
-0.0008455216302536428
 40
62.50400924682617
100
AcDbArc
 50
12.53351306915283
 51
14.99982643127441
  0
LINE
  5
63
100
AcDbEntity
  8
0
  6
ByLayer
 62
  256
370
   -1
100
AcDbLine
 10
61.79160690307617
 20
14.33030223846436
 11
61.69711685180664
 21
13.69975090026855
  0
LINE
  5
64
100
AcDbEntity
  8
0
  6
ByLayer
 62
  256
370
   -1
100
AcDbLine
 10
61.79160690307617
 20
14.33030223846436
 11
73.32754516601562
 21
17.33569145202637
  0
LINE
  5
65
100
AcDbEntity
  8
0
  6
ByLayer
 62
  256
370
   -1
100
AcDbLine
 10
84.86347198486328
 20
20.34107971191406
 11
73.32754516601562
 21
17.33569145202637
  0
ARC
  5
66
100
AcDbEntity
  8
0
  6
ByLayer
 62
  256
370
   -1
100
AcDbCircle
 10
85.72064208984375
 20
17.0509033203125
 40
3.399996995925903
100
AcDbArc
 50
11.24994945526123
 51
104.6024169921875
  0
ARC
  5
67
100
AcDbEntity
  8
0
  6
ByLayer
 62
  256
370
   -1
100
AcDbCircle
 10
85.72064208984375
 20
17.05088806152344
 40
3.399996995925903
100
AcDbArc
 50
-82.10233306884766
 51
11.25007247924805
  0
LINE
  5
68
100
AcDbEntity
  8
0
  6
ByLayer
 62
  256
370
   -1
100
AcDbLine
 10
86.18782043457031
 20
13.68313694000244
 11
74.37989044189453
 21
12.04514408111572
  0
LINE
  5
69
100
AcDbEntity
  8
0
  6
ByLayer
 62
  256
370
   -1
100
AcDbLine
 10
62.57197189331055
 20
10.40715026855469
 11
74.37989044189453
 21
12.04514408111572
  0
LINE
  5
6A
100
AcDbEntity
  8
0
  6
ByLayer
 62
  256
370
   -1
100
AcDbLine
 10
62.57197189331055
 20
10.40715026855469
 11
62.24337387084961
 21
10.9535436630249
  0
ARC
  5
6B
100
AcDbEntity
  8
0
  6
ByLayer
 62
  256
370
   -1
100
AcDbCircle
 10
0.00551271578297019
 20
0.0008805220713838935
 40
109.9944229125977
100
AcDbArc
 50
7.499912261962891
 51
11.25010871887207
  0
ARC
  5
6C
100
AcDbEntity
  8
0
  6
ByLayer
 62
  256
370
   -1
100
AcDbCircle
 10
0.005429871845990419
 20
0.001297010341659188
 40
109.9944229125977
100
AcDbArc
 50
11.24989032745361
 51
15.00008773803711
  0
ARC
  5
6D
100
AcDbEntity
  8
0
  6
ByLayer
 62
  256
370
   -1
100
AcDbCircle
 10
-0.003820637241005898
 20
-0.001228503417223692
 40
62.50400924682617
100
AcDbArc
 50
15.00017070770264
 51
17.46648406982422
  0
LINE
  5
6E
100
AcDbEntity
  8
0
  6
ByLayer
 62
  256
370
   -1
100
AcDbLine
 10
59.6182975769043
 20
18.75921440124512
 11
60.28114700317383
 21
18.98422050476074
  0
LINE
  5
6F
100
AcDbEntity
  8
0
  6
ByLayer
 62
  256
370
   -1
100
AcDbLine
 10
60.28114700317383
 20
18.98422050476074
 11
59.84598159790039
 21
20.31496620178223
  0
LINE
  5
70
100
AcDbEntity
  8
0
  6
ByLayer
 62
  256
370
   -1
100
AcDbLine
 10
59.38111114501953
 20
21.6356372833252
 11
59.84597778320312
 21
20.31497573852539
  0
LINE
  5
71
100
AcDbEntity
  8
0
  6
ByLayer
 62
  256
370
   -1
100
AcDbLine
 10
58.71826934814453
 20
21.41063117980957
 11
59.38111114501953
 21
21.6356372833252
  0
ARC
  5
72
100
AcDbEntity
  8
0
  6
ByLayer
 62
  256
370
   -1
100
AcDbCircle
 10
-0.003779270220547915
 20
-0.00135036779101938
 40
62.50400924682617
100
AcDbArc
 50
20.03351211547852
 51
22.49982452392578
  0
LINE
  5
73
100
AcDbEntity
  8
0
  6
ByLayer
 62
  256
370
   -1
100
AcDbLine
 10
59.39249038696289
 20
22.27312278747559
 11
59.38111114501953
 21
21.6356372833252
  0
LINE
  5
74
100
AcDbEntity
  8
0
  6
ByLayer
 62
  256
370
   -1
100
AcDbLine
 10
59.39249038696289
 20
22.27312278747559
 11
70.43744659423828
 21
26.75854301452637
  0
LINE
  5
75
100
AcDbEntity
  8
0
  6
ByLayer
 62
  256
370
   -1
100
AcDbLine
 10
81.48240661621094
 20
31.24396133422852
 11
70.43744659423828
 21
26.75854301452637
  0
ARC
  5
76
100
AcDbEntity
  8
0
  6
ByLayer
 62
  256
370
   -1
100
AcDbCircle
 10
82.76169586181641
 20
28.09381484985352
 40
3.399996995925903
100
AcDbArc
 50
18.74992179870605
 51
112.1024017333984
  0
ARC
  5
77
100
AcDbEntity
  8
0
  6
ByLayer
 62
  256
370
   -1
100
AcDbCircle
 10
82.76169586181641
 20
28.09379959106445
 40
3.399996995925903
100
AcDbArc
 50
-74.60231781005859
 51
18.75007057189941
  0
LINE
  5
78
100
AcDbEntity
  8
0
  6
ByLayer
 62
  256
370
   -1
100
AcDbLine
 10
83.66445159912109
 20
24.81583786010742
 11
72.17135620117188
 21
21.65061569213867
  0
LINE
  5
79
100
AcDbEntity
  8
0
  6
ByLayer
 62
  256
370
   -1
100
AcDbLine
 10
60.67824554443359
 20
18.48539352416992
 11
72.17135620117188
 21
21.65061569213867
  0
LINE
  5
7A
100
AcDbEntity
  8
0
  6
ByLayer
 62
  256
370
   -1
100
AcDbLine
 10
60.67824554443359
 20
18.48539352416992
 11
60.28114700317383
 21
18.98422050476074
  0
ARC
  5
7B
100
AcDbEntity
  8
0
  6
ByLayer
 62
  256
370
   -1
100
AcDbCircle
 10
0.005350622348487377
 20
0.00159254262689501
 40
109.9944229125977
100
AcDbArc
 50
14.99991035461426
 51
18.75010871887207
  0
ARC
  5
7C
100
AcDbEntity
  8
0
  6
ByLayer
 62
  256
370
   -1
100
AcDbCircle
 10
0.005214124452322721
 20
0.001994654769077897
 40
109.9944229125977
100
AcDbArc
 50
18.7498893737793
 51
22.50008583068848
  0
ARC
  5
7D
100
AcDbEntity
  8
0
  6
ByLayer
 62
  256
370
   -1
100
AcDbCircle
 10
-0.003627599449828267
 20
-0.001716686529107392
 40
62.50400924682617
100
AcDbArc
 50
22.50016975402832
 51
24.96648216247559
  0
LINE
  5
7E
100
AcDbEntity
  8
0
  6
ByLayer
 62
  256
370
   -1
100
AcDbLine
 10
56.65968704223633
 20
26.38047790527344
 11
57.28749084472656
 21
26.69007682800293
  0
LINE
  5
7F
100
AcDbEntity
  8
0
  6
ByLayer
 62
  256
370
   -1
100
AcDbLine
 10
57.28749084472656
 20
26.69007682800293
 11
56.68235778808594
 21
27.95263481140137
  0
LINE
  5
80
100
AcDbEntity
  8
0
  6
ByLayer
 62
  256
370
   -1
100
AcDbLine
 10
56.0490837097168
 20
29.20133018493652
 11
56.68235397338867
 21
27.95264434814453
  0
LINE
  5
81
100
AcDbEntity
  8
0
  6
ByLayer
 62
  256
370
   -1
100
AcDbLine
 10
55.4212760925293
 20
28.89173126220703
 11
56.0490837097168
 21
29.20133018493652
  0
ARC
  5
82
100
AcDbEntity
  8
0
  6
ByLayer
 62
  256
370
   -1
100
AcDbCircle
 10
-0.003570679575204849
 20
-0.001832108944654465
 40
62.50400924682617
100
AcDbArc
 50
27.53351211547852
 51
29.99982070922852
  0
LINE
  5
83
100
AcDbEntity
  8
0
  6
ByLayer
 62
  256
370
   -1
100
AcDbLine
 10
55.97714996337891
 20
29.8348503112793
 11
56.0490837097168
 21
29.20133018493652
  0
LINE
  5
84
100
AcDbEntity
  8
0
  6
ByLayer
 62
  256
370
   -1
100
AcDbLine
 10
55.97714996337891
 20
29.8348503112793
 11
66.3421630859375
 21
35.72355270385742
  0
LINE
  5
85
100
AcDbEntity
  8
0
  6
ByLayer
 62
  256
370
   -1
100
AcDbLine
 10
76.7071533203125
 20
41.61225128173828
 11
66.3421630859375
 21
35.72355270385742
  0
ARC
  5
86
100
AcDbEntity
  8
0
  6
ByLayer
 62
  256
370
   -1
100
AcDbCircle
 10
78.38668060302734
 20
38.65603637695312
 40
3.399996995925903
100
AcDbArc
 50
26.2498779296875
 51
119.6022644042969
  0
ARC
  5
87
100
AcDbEntity
  8
0
  6
ByLayer
 62
  256
370
   -1
100
AcDbCircle
 10
78.38668823242188
 20
38.65602111816406
 40
3.399996995925903
100
AcDbArc
 50
-67.10240936279297
 51
26.25010299682617
  0
LINE
  5
88
100
AcDbEntity
  8
0
  6
ByLayer
 62
  256
370
   -1
100
AcDbLine
 10
79.70957946777344
 20
35.52394104003906
 11
68.72795104980469
 21
30.88564491271973
  0
LINE
  5
89
100
AcDbEntity
  8
0
  6
ByLayer
 62
  256
370
   -1
100
AcDbLine
 10
57.74631500244141
 20
26.24735069274902
 11
68.72795104980469
 21
30.88564491271973
  0
LINE
  5
8A
100
AcDbEntity
  8
0
  6
ByLayer
 62
  256
370
   -1
100
AcDbLine
 10
57.74631500244141
 20
26.24735069274902
 11
57.28749084472656
 21
26.69007682800293
  0
ARC
  5
8B
100
AcDbEntity
  8
0
  6
ByLayer
 62
  256
370
   -1
100
AcDbCircle
 10
0.005096978973597288
 20
0.00227731466293335
 40
109.9944229125977
100
AcDbArc
 50
22.49990653991699
 51
26.25010299682617
  0
ARC
  5
8C
100
AcDbEntity
  8
0
  6
ByLayer
 62
  256
370
   -1
100
AcDbCircle
 10
0.004909162409603596
 20
0.002658169716596603
 40
109.9944229125977
100
AcDbArc
 50
26.24988555908203
 51
30.00008201599121
  0
ARC
  5
8D
100
AcDbEntity
  8
0
  6
ByLayer
 62
  256
370
   -1
100
AcDbCircle
 10
-0.003372492268681526
 20
-0.002175496658310294
 40
62.50400924682617
100
AcDbArc
 50
30.00016975402832
 51
32.46648025512695
  0
LINE
  5
8E
100
AcDbEntity
  8
0
  6
ByLayer
 62
  256
370
   -1
100
AcDbLine
 10
52.73160934448242
 20
33.55035781860352
 11
53.31364059448242
 21
33.93925476074219
  0
LINE
  5
8F
100
AcDbEntity
  8
0
  6
ByLayer
 62
  256
370
   -1
100
AcDbLine
 10
53.31364059448242
 20
33.93925476074219
 11
52.54888153076172
 21
35.11202621459961
  0
LINE
  5
90
100
AcDbEntity
  8
0
  6
ByLayer
 62
  256
370
   -1
100
AcDbLine
 10
51.75803756713867
 20
36.26737594604492
 11
52.54887390136719
 21
35.11203384399414
  0
LINE
  5
91
100
AcDbEntity
  8
0
  6
ByLayer
 62
  256
370
   -1
100
AcDbLine
 10
51.17601013183594
 20
35.87848663330078
 11
51.75803756713867
 21
36.26737594604492
  0
ARC
  5
92
100
AcDbEntity
  8
0
  6
ByLayer
 62
  256
370
   -1
100
AcDbCircle
 10
-0.003300993470475078
 20
-0.002282501896843314
 40
62.50400924682617
100
AcDbArc
 50
35.03351211547852
 51
37.49982070922852
  0
LINE
  5
93
100
AcDbEntity
  8
0
  6
ByLayer
 62
  256
370
   -1
100
AcDbLine
 10
51.60403442382812
 20
36.88608932495117
 11
51.75803756713867
 21
36.26737594604492
  0
LINE
  5
94
100
AcDbEntity
  8
0
  6
ByLayer
 62
  256
370
   -1
100
AcDbLine
 10
51.60403442382812
 20
36.88608932495117
 11
61.11173629760742
 21
44.07731628417969
  0
LINE
  5
95
100
AcDbEntity
  8
0
  6
ByLayer
 62
  256
370
   -1
100
AcDbLine
 10
70.61942291259766
 20
51.2685432434082
 11
61.11173629760742
 21
44.07731628417969
  0
ARC
  5
96
100
AcDbEntity
  8
0
  6
ByLayer
 62
  256
370
   -1
100
AcDbCircle
 10
72.67044830322266
 20
48.55684280395508
 40
3.399996995925903
100
AcDbArc
 50
33.7498779296875
 51
127.1023712158203
  0
ARC
  5
97
100
AcDbEntity
  8
0
  6
ByLayer
 62
  256
370
   -1
100
AcDbCircle
 10
72.67045593261719
 20
48.55683135986328
 40
3.399996995925903
100
AcDbArc
 50
-59.60227966308593
 51
33.75004959106445
  0
LINE
  5
98
100
AcDbEntity
  8
0
  6
ByLayer
 62
  256
370
   -1
100
AcDbLine
 10
74.39085388183594
 20
45.62421035766602
 11
64.10858154296875
 21
39.59220504760742
  0
LINE
  5
99
100
AcDbEntity
  8
0
  6
ByLayer
 62
  256
370
   -1
100
AcDbLine
 10
53.82631683349609
 20
33.56019973754883
 11
64.10858154296875
 21
39.59220504760742
  0
LINE
  5
9A
100
AcDbEntity
  8
0
  6
ByLayer
 62
  256
370
   -1
100
AcDbLine
 10
53.82631683349609
 20
33.56019973754883
 11
53.31364059448242
 21
33.93925476074219
  0
ARC
  5
9B
100
AcDbEntity
  8
0
  6
ByLayer
 62
  256
370
   -1
100
AcDbCircle
 10
0.004756124224513769
 20
0.00292312097735703
 40
109.9944229125977
100
AcDbArc
 50
29.99990653991699
 51
33.75010299682617
  0
ARC
  5
9C
100
AcDbEntity
  8
0
  6
ByLayer
 62
  256
370
   -1
100
AcDbCircle
 10
0.004520202986896038
 20
0.003276203060522676
 40
109.9944229125977
100
AcDbArc
 50
33.7498893737793
 51
37.50008010864258
  0
ARC
  5
9D
100
AcDbEntity
  8
0
  6
ByLayer
 62
  256
370
   -1
100
AcDbCircle
 10
-0.003059681039303541
 20
-0.002597083570435643
 40
62.50400924682617
100
AcDbArc
 50
37.50016403198242
 51
39.96647644042969
  0
LINE
  5
9E
100
AcDbEntity
  8
0
  6
ByLayer
 62
  256
370
   -1
100
AcDbLine
 10
47.90129089355469
 20
40.14618682861328
 11
48.42757034301758
 21
40.60772323608398
  0
LINE
  5
9F
100
AcDbEntity
  8
0
  6
ByLayer
 62
  256
370
   -1
100
AcDbLine
 10
48.42757034301758
 20
40.60772323608398
 11
47.51628112792969
 21
41.6706428527832
  0
LINE
  5
A0
100
AcDbEntity
  8
0
  6
ByLayer
 62
  256
370
   -1
100
AcDbLine
 10
46.58140182495117
 20
42.71288681030273
 11
47.51627349853516
 21
41.67065048217773
  0
LINE
  5
A1
100
AcDbEntity
  8
0
  6
ByLayer
 62
  256
370
   -1
100
AcDbLine
 10
46.05511474609375
 20
42.25135040283203
 11
46.58140182495117
 21
42.71288681030273
  0
ARC
  5
A2
100
AcDbEntity
  8
0
  6
ByLayer
 62
  256
370
   -1
100
AcDbCircle
 10
-0.002974827075377107
 20
-0.002693841001018882
 40
62.50400924682617
100
AcDbArc
 50
42.53350067138672
 51
44.99982070922852
  0
LINE
  5
A3
100
AcDbEntity
  8
0
  6
ByLayer
 62
  256
370
   -1
100
AcDbLine
 10
46.34795379638672
 20
43.30620193481445
 11
46.58140182495117
 21
42.71288681030273
  0
LINE
  5
A4
100
AcDbEntity
  8
0
  6
ByLayer
 62
  256
370
   -1
100
AcDbLine
 10
46.34795379638672
 20
43.30620193481445
 11
54.83567428588867
 21
51.67691040039062
  0
LINE
  5
A5
100
AcDbEntity
  8
0
  6
ByLayer
 62
  256
370
   -1
100
AcDbLine
 10
63.32338714599609
 20
60.04761505126953
 11
54.83567428588867
 21
51.67691040039062
  0
ARC
  5
A6
100
AcDbEntity
  8
0
  6
ByLayer
 62
  256
370
   -1
100
AcDbCircle
 10
65.71080780029297
 20
57.62682342529297
 40
3.399996995925903
100
AcDbArc
 50
41.24984741210938
 51
134.6023406982422
  0
ARC
  5
A7
100
AcDbEntity
  8
0
  6
ByLayer
 62
  256
370
   -1
100
AcDbCircle
 10
65.71082305908203
 20
57.62681198120117
 40
3.399996995925903
100
AcDbArc
 50
-52.10245132446289
 51
41.25010681152344
  0
LINE
  5
A8
100
AcDbEntity
  8
0
  6
ByLayer
 62
  256
370
   -1
100
AcDbLine
 10
67.79927062988281
 20
54.94384002685547
 11
58.39230728149414
 21
47.62133407592773
  0
LINE
  5
A9
100
AcDbEntity
  8
0
  6
ByLayer
 62
  256
370
   -1
100
AcDbLine
 10
48.98534393310547
 20
40.29883575439453
 11
58.39230728149414
 21
47.62133407592773
  0
LINE
  5
AA
100
AcDbEntity
  8
0
  6
ByLayer
 62
  256
370
   -1
100
AcDbLine
 10
48.98534393310547
 20
40.29883575439453
 11
48.42757034301758
 21
40.60772323608398
  0
ARC
  5
AB
100
AcDbEntity
  8
0
  6
ByLayer
 62
  256
370
   -1
100
AcDbCircle
 10
0.004333891440182924
 20
0.003518911777064204
 40
109.9944229125977
100
AcDbArc
 50
37.49990463256836
 51
41.25010299682617
  0
ARC
  5
AC
100
AcDbEntity
  8
0
  6
ByLayer
 62
  256
370
   -1
100
AcDbCircle
 10
0.004053901880979538
 20
0.003838179167360067
 40
109.9944229125977
100
AcDbArc
 50
41.24988174438477
 51
45.00008010864258
  0
ARC
  5
AD
100
AcDbEntity
  8
0
  6
ByLayer
 62
  256
370
   -1
100
AcDbCircle
 10
-0.002694517374038696
 20
-0.002974233357235789
 40
62.50400924682617
100
AcDbArc
 50
45.00016784667969
 51
47.46648025512695
  0
LINE
  5
AE
100
AcDbEntity
  8
0
  6
ByLayer
 62
  256
370
   -1
100
AcDbLine
 10
42.2513542175293
 20
46.05509948730469
 11
42.71289825439453
 21
46.58138656616211
  0
LINE
  5
AF
100
AcDbEntity
  8
0
  6
ByLayer
 62
  256
370
   -1
100
AcDbLine
 10
42.71289825439453
 20
46.58138656616211
 11
41.67066192626953
 21
47.51626205444336
  0
LINE
  5
B0
100
AcDbEntity
  8
0
  6
ByLayer
 62
  256
370
   -1
100
AcDbLine
 10
40.60773849487305
 20
48.42756271362305
 11
41.670654296875
 21
47.51626586914062
  0
LINE
  5
B1
100
AcDbEntity
  8
0
  6
ByLayer
 62
  256
370
   -1
100
AcDbLine
 10
40.14619827270508
 20
47.90127563476562
 11
40.60773849487305
 21
48.42756271362305
  0
ARC
  5
B2
100
AcDbEntity
  8
0
  6
ByLayer
 62
  256
370
   -1
100
AcDbCircle
 10
-0.002597760409116745
 20
-0.003059087786823511
 40
62.50400924682617
100
AcDbArc
 50
50.03350448608398
 51
52.49981689453125
  0
LINE
  5
B3
100
AcDbEntity
  8
0
  6
ByLayer
 62
  256
370
   -1
100
AcDbLine
 10
40.29884719848633
 20
48.98532867431641
 11
40.60773849487305
 21
48.42756271362305
  0
LINE
  5
B4
100
AcDbEntity
  8
0
  6
ByLayer
 62
  256
370
   -1
100
AcDbLine
 10
40.29884719848633
 20
48.98532867431641
 11
47.62135696411133
 21
58.39229583740234
  0
LINE
  5
B5
100
AcDbEntity
  8
0
  6
ByLayer
 62
  256
370
   -1
100
AcDbLine
 10
54.9438591003418
 20
67.79925537109375
 11
47.62135696411133
 21
58.39229583740234
  0
ARC
  5
B6
100
AcDbEntity
  8
0
  6
ByLayer
 62
  256
370
   -1
100
AcDbCircle
 10
57.6268310546875
 20
65.71080017089844
 40
3.399996995925903
100
AcDbArc
 50
48.7498893737793
 51
142.1023559570312
  0
ARC
  5
B7
100
AcDbEntity
  8
0
  6
ByLayer
 62
  256
370
   -1
100
AcDbCircle
 10
57.62683868408203
 20
65.71079254150391
 40
3.399996995925903
100
AcDbArc
 50
-44.60234832763672
 51
48.75002288818359
  0
LINE
  5
B8
100
AcDbEntity
  8
0
  6
ByLayer
 62
  256
370
   -1
100
AcDbLine
 10
60.04763031005859
 20
63.3233642578125
 11
51.67692184448242
 21
54.83565521240234
  0
LINE
  5
B9
100
AcDbEntity
  8
0
  6
ByLayer
 62
  256
370
   -1
100
AcDbLine
 10
43.30621337890625
 20
46.34794235229492
 11
51.67692184448242
 21
54.83565521240234
  0
LINE
  5
BA
100
AcDbEntity
  8
0
  6
ByLayer
 62
  256
370
   -1
100
AcDbLine
 10
43.30621337890625
 20
46.34794235229492
 11
42.71289825439453
 21
46.58138656616211
  0
ARC
  5
BB
100
AcDbEntity
  8
0
  6
ByLayer
 62
  256
370
   -1
100
AcDbCircle
 10
0.003837504191324115
 20
0.004054493270814419
 40
109.9944229125977
100
AcDbArc
 50
44.99990463256836
 51
48.75009918212891
  0
ARC
  5
BC
100
AcDbEntity
  8
0
  6
ByLayer
 62
  256
370
   -1
100
AcDbCircle
 10
0.003518237266689539
 20
0.004334483295679092
 40
109.9944229125977
100
AcDbArc
 50
48.74988555908203
 51
52.50008010864258
  0
ARC
  5
BD
100
AcDbEntity
  8
0
  6
ByLayer
 62
  256
370
   -1
100
AcDbCircle
 10
-0.002283250214532018
 20
-0.003300493583083153
 40
62.50400924682617
100
AcDbArc
 50
52.50016403198242
 51
54.96647644042969
  0
LINE
  5
BE
100
AcDbEntity
  8
0
  6
ByLayer
 62
  256
370
   -1
100
AcDbLine
 10
35.87849426269531
 20
51.17600250244141
 11
36.26738739013672
 21
51.75802612304688
  0
LINE
  5
BF
100
AcDbEntity
  8
0
  6
ByLayer
 62
  256
370
   -1
100
AcDbLine
 10
36.26738739013672
 20
51.75802612304688
 11
35.11204528808594
 21
52.54886245727539
  0
LINE
  5
C0
100
AcDbEntity
  8
0
  6
ByLayer
 62
  256
370
   -1
100
AcDbLine
 10
33.93927001953125
 20
53.31363296508789
 11
35.11203765869141
 21
52.54887008666992
  0
LINE
  5
C1
100
AcDbEntity
  8
0
  6
ByLayer
 62
  256
370
   -1
100
AcDbLine
 10
33.55037307739258
 20
52.73160171508789
 11
33.93927001953125
 21
53.31363296508789
  0
ARC
  5
C2
100
AcDbEntity
  8
0
  6
ByLayer
 62
  256
370
   -1
100
AcDbCircle
 10
-0.002176244743168354
 20
-0.003371992381289601
 40
62.50400924682617
100
AcDbArc
 50
57.53351211547853
 51
59.99981307983398
  0
LINE
  5
C3
100
AcDbEntity
  8
0
  6
ByLayer
 62
  256
370
   -1
100
AcDbLine
 10
33.56021499633789
 20
53.82630920410156
 11
33.93927001953125
 21
53.31363296508789
  0
LINE
  5
C4
100
AcDbEntity
  8
0
  6
ByLayer
 62
  256
370
   -1
100
AcDbLine
 10
33.56021499633789
 20
53.82630920410156
 11
39.59222412109375
 21
64.10857391357422
  0
LINE
  5
C5
100
AcDbEntity
  8
0
  6
ByLayer
 62
  256
370
   -1
100
AcDbLine
 10
45.62422561645508
 20
74.39084625244141
 11
39.59222412109375
 21
64.10857391357422
  0
ARC
  5
C6
100
AcDbEntity
  8
0
  6
ByLayer
 62
  256
370
   -1
100
AcDbCircle
 10
48.55684661865234
 20
72.67044830322266
 40
3.399996995925903
100
AcDbArc
 50
56.2498779296875
 51
149.6023864746094
  0
ARC
  5
C7
100
AcDbEntity
  8
0
  6
ByLayer
 62
  256
370
   -1
100
AcDbCircle
 10
48.55685806274414
 20
72.67044067382812
 40
3.399996995925903
100
AcDbArc
 50
-37.10237503051758
 51
56.25
  0
LINE
  5
C8
100
AcDbEntity
  8
0
  6
ByLayer
 62
  256
370
   -1
100
AcDbLine
 10
51.26855850219727
 20
70.61942291259766
 11
44.07732772827148
 21
61.11171340942383
  0
LINE
  5
C9
100
AcDbEntity
  8
0
  6
ByLayer
 62
  256
370
   -1
100
AcDbLine
 10
36.88610458374023
 20
51.60402297973633
 11
44.07732772827148
 21
61.11171340942383
  0
LINE
  5
CA
100
AcDbEntity
  8
0
  6
ByLayer
 62
  256
370
   -1
100
AcDbLine
 10
36.88610458374023
 20
51.60402297973633
 11
36.26738739013672
 21
51.75802612304688
  0
ARC
  5
CB
100
AcDbEntity
  8
0
  6
ByLayer
 62
  256
370
   -1
100
AcDbCircle
 10
0.003275456372648478
 20
0.004520701244473457
 40
109.9944229125977
100
AcDbArc
 50
52.49990081787109
 51
56.25009536743164
  0
ARC
  5
CC
100
AcDbEntity
  8
0
  6
ByLayer
 62
  256
370
   -1
100
AcDbCircle
 10
0.002922374755144119
 20
0.004756623413413763
 40
109.9944229125977
100
AcDbArc
 50
56.24988174438477
 51
60.00007629394531
  0
ARC
  5
CD
100
AcDbEntity
  8
0
  6
ByLayer
 62
  256
370
   -1
100
AcDbCircle
 10
-0.001832916052080691
 20
-0.003570281434804201
 40
62.50400924682617
100
AcDbArc
 50
60.00016403198242
 51
62.46647644042969
  0
LINE
  5
CE
100
AcDbEntity
  8
0
  6
ByLayer
 62
  256
370
   -1
100
AcDbLine
 10
28.89174270629883
 20
55.42127227783203
 11
29.20134353637695
 21
56.04907608032227
  0
LINE
  5
CF
100
AcDbEntity
  8
0
  6
ByLayer
 62
  256
370
   -1
100
AcDbLine
 10
29.20134353637695
 20
56.04907608032227
 11
27.95265769958496
 21
56.68235015869141
  0
LINE
  5
D0
100
AcDbEntity
  8
0
  6
ByLayer
 62
  256
370
   -1
100
AcDbLine
 10
26.69009208679199
 20
57.28749084472656
 11
27.9526481628418
 21
56.68235015869141
  0
LINE
  5
D1
100
AcDbEntity
  8
0
  6
ByLayer
 62
  256
370
   -1
100
AcDbLine
 10
26.38049125671387
 20
56.65968322753906
 11
26.69009208679199
 21
57.28749084472656
  0
ARC
  5
D2
100
AcDbEntity
  8
0
  6
ByLayer
 62
  256
370
   -1
100
AcDbCircle
 10
-0.00171749375294894
 20
-0.003627201542258263
 40
62.50400924682617
100
AcDbArc
 50
65.03350067138672
 51
67.49982452392578
  0
LINE
  5
D3
100
AcDbEntity
  8
0
  6
ByLayer
 62
  256
370
   -1
100
AcDbLine
 10
26.24736404418945
 20
57.74631118774414
 11
26.69009208679199
 21
57.28749084472656
  0
LINE
  5
D4
100
AcDbEntity
  8
0
  6
ByLayer
 62
  256
370
   -1
100
AcDbLine
 10
26.24736404418945
 20
57.74631118774414
 11
30.88566207885742
 21
68.72795104980469
  0
LINE
  5
D5
100
AcDbEntity
  8
0
  6
ByLayer
 62
  256
370
   -1
100
AcDbLine
 10
35.52396011352539
 20
79.70957183837891
 11
30.88566207885742
 21
68.72795104980469
  0
ARC
  5
D6
100
AcDbEntity
  8
0
  6
ByLayer
 62
  256
370
   -1
100
AcDbCircle
 10
38.65604019165039
 20
78.38668823242188
 40
3.399996995925903
100
AcDbArc
 50
63.74989700317383
 51
157.1024169921875
  0
ARC
  5
D7
100
AcDbEntity
  8
0
  6
ByLayer
 62
  256
370
   -1
100
AcDbCircle
 10
38.65605545043945
 20
78.38668060302734
 40
3.399996995925903
100
AcDbArc
 50
-29.6025276184082
 51
63.75011444091796
  0
LINE
  5
D8
100
AcDbEntity
  8
0
  6
ByLayer
 62
  256
370
   -1
100
AcDbLine
 10
41.61226654052734
 20
76.70714569091797
 11
35.72356796264648
 21
66.34215545654297
  0
LINE
  5
D9
100
AcDbEntity
  8
0
  6
ByLayer
 62
  256
370
   -1
100
AcDbLine
 10
29.83486366271973
 20
55.97714614868164
 11
35.72356796264648
 21
66.34215545654297
  0
LINE
  5
DA
100
AcDbEntity
  8
0
  6
ByLayer
 62
  256
370
   -1
100
AcDbLine
 10
29.83486366271973
 20
55.97714614868164
 11
29.20134353637695
 21
56.04907608032227
  0
ARC
  5
DB
100
AcDbEntity
  8
0
  6
ByLayer
 62
  256
370
   -1
100
AcDbCircle
 10
0.002657364355400205
 20
0.004909558687359095
 40
109.9944229125977
100
AcDbArc
 50
59.99990081787108
 51
63.75009536743164
  0
ARC
  5
DC
100
AcDbEntity
  8
0
  6
ByLayer
 62
  256
370
   -1
100
AcDbCircle
 10
0.002276509534567595
 20
0.005097376648336649
 40
109.9944229125977
100
AcDbArc
 50
63.74988555908203
 51
67.50008392333984
  0
ARC
  5
DD
100
AcDbEntity
  8
0
  6
ByLayer
 62
  256
370
   -1
100
AcDbCircle
 10
-0.001351220184005797
 20
-0.003778980812057853
 40
62.50400924682617
100
AcDbArc
 50
67.50015258789062
 51
69.96647644042969
  0
LINE
  5
DE
100
AcDbEntity
  8
0
  6
ByLayer
 62
  256
370
   -1
100
AcDbLine
 10
21.41064643859863
 20
58.71826171875
 11
21.63565063476562
 21
59.381103515625
  0
LINE
  5
DF
100
AcDbEntity
  8
0
  6
ByLayer
 62
  256
370
   -1
100
AcDbLine
 10
21.63565063476562
 20
59.381103515625
 11
20.31498908996582
 21
59.84597778320312
  0
LINE
  5
E0
100
AcDbEntity
  8
0
  6
ByLayer
 62
  256
370
   -1
100
AcDbLine
 10
18.98423957824707
 20
60.28114318847656
 11
20.31497955322266
 21
59.84598159790039
  0
LINE
  5
E1
100
AcDbEntity
  8
0
  6
ByLayer
 62
  256
370
   -1
100
AcDbLine
 10
18.75923156738281
 20
59.6182975769043
 11
18.98423957824707
 21
60.28114318847656
  0
ARC
  5
E2
100
AcDbEntity
  8
0
  6
ByLayer
 62
  256
370
   -1
100
AcDbCircle
 10
-0.001229355810210109
 20
-0.003820348298177123
 40
62.50400924682617
100
AcDbArc
 50
72.53350067138672
 51
74.99980926513672
  0
LINE
  5
E3
100
AcDbEntity
  8
0
  6
ByLayer
 62
  256
370
   -1
100
AcDbLine
 10
18.48541069030762
 20
60.67824554443359
 11
18.98423957824707
 21
60.28114318847656
  0
LINE
  5
E4
100
AcDbEntity
  8
0
  6
ByLayer
 62
  256
370
   -1
100
AcDbLine
 10
18.48541069030762
 20
60.67824554443359
 11
21.65063667297363
 21
72.17135620117188
  0
LINE
  5
E5
100
AcDbEntity
  8
0
  6
ByLayer
 62
  256
370
   -1
100
AcDbLine
 10
24.81586265563965
 20
83.66445159912109
 11
21.65063667297363
 21
72.17135620117188
  0
ARC
  5
E6
100
AcDbEntity
  8
0
  6
ByLayer
 62
  256
370
   -1
100
AcDbCircle
 10
28.09382247924805
 20
82.76169586181641
 40
3.399996995925903
100
AcDbArc
 50
71.24985504150391
 51
164.6023101806641
  0
ARC
  5
E7
100
AcDbEntity
  8
0
  6
ByLayer
 62
  256
370
   -1
100
AcDbCircle
 10
28.09383773803711
 20
82.76168823242188
 40
3.399996995925903
100
AcDbArc
 50
-22.10230255126953
 51
71.25004577636719
  0
LINE
  5
E8
100
AcDbEntity
  8
0
  6
ByLayer
 62
  256
370
   -1
100
AcDbLine
 10
31.24398231506348
 20
81.48239898681641
 11
26.75856018066406
 21
70.43743896484375
  0
LINE
  5
E9
100
AcDbEntity
  8
0
  6
ByLayer
 62
  256
370
   -1
100
AcDbLine
 10
22.27313995361328
 20
59.39248657226562
 11
26.75856018066406
 21
70.43743896484375
  0
LINE
  5
EA
100
AcDbEntity
  8
0
  6
ByLayer
 62
  256
370
   -1
100
AcDbLine
 10
22.27313995361328
 20
59.39248657226562
 11
21.63565063476562
 21
59.381103515625
  0
ARC
  5
EB
100
AcDbEntity
  8
0
  6
ByLayer
 62
  256
370
   -1
100
AcDbCircle
 10
0.001993804471567273
 20
0.005214412696659565
 40
109.9944229125977
100
AcDbArc
 50
67.49990081787109
 51
71.25009155273438
  0
ARC
  5
EC
100
AcDbEntity
  8
0
  6
ByLayer
 62
  256
370
   -1
100
AcDbCircle
 10
0.001591693027876318
 20
0.005350911524146795
 40
109.9944229125977
100
AcDbArc
 50
71.24987030029297
 51
75.00007629394531
  0
ARC
  5
ED
100
AcDbEntity
  8
0
  6
ByLayer
 62
  256
370
   -1
100
AcDbCircle
 10
-0.0008464044658467174
 20
-0.003923020325601101
 40
62.50400924682617
100
AcDbArc
 50
75.00016021728516
 51
77.46646881103516
  0
LINE
  5
EE
100
AcDbEntity
  8
0
  6
ByLayer
 62
  256
370
   -1
100
AcDbLine
 10
13.56320476531982
 20
61.01057052612305
 11
13.69976711273193
 21
61.69711303710938
  0
LINE
  5
EF
100
AcDbEntity
  8
0
  6
ByLayer
 62
  256
370
   -1
100
AcDbLine
 10
13.69976711273193
 20
61.69711303710938
 11
12.32972812652588
 21
61.98561859130859
  0
LINE
  5
F0
100
AcDbEntity
  8
0
  6
ByLayer
 62
  256
370
   -1
100
AcDbLine
 10
10.95355987548828
 20
62.24337005615234
 11
12.3297176361084
 21
61.98562240600586
  0
LINE
  5
F1
100
AcDbEntity
  8
0
  6
ByLayer
 62
  256
370
   -1
100
AcDbLine
 10
10.81699562072754
 20
61.55682754516602
 11
10.95355987548828
 21
62.24337005615234
  0
ARC
  5
F2
100
AcDbEntity
  8
0
  6
ByLayer
 62
  256
370
   -1
100
AcDbCircle
 10
-0.0007201830740086734
 20
-0.003948127385228872
 40
62.50400924682617
100
AcDbArc
 50
80.03349304199219
 51
82.49980926513672
  0
LINE
  5
F3
100
AcDbEntity
  8
0
  6
ByLayer
 62
  256
370
   -1
100
AcDbLine
 10
10.40716648101807
 20
62.57196426391602
 11
10.95355987548828
 21
62.24337005615234
  0
LINE
  5
F4
100
AcDbEntity
  8
0
  6
ByLayer
 62
  256
370
   -1
100
AcDbLine
 10
10.40716648101807
 20
62.57196426391602
 11
12.04516410827637
 21
74.37989044189453
  0
LINE
  5
F5
100
AcDbEntity
  8
0
  6
ByLayer
 62
  256
370
   -1
100
AcDbLine
 10
13.68315887451172
 20
86.18781280517578
 11
12.04516410827637
 21
74.37989044189453
  0
ARC
  5
F6
100
AcDbEntity
  8
0
  6
ByLayer
 62
  256
370
   -1
100
AcDbCircle
 10
17.0509090423584
 20
85.72063446044922
 40
3.399996995925903
100
AcDbArc
 50
78.74989318847656
 51
172.1023254394531
  0
ARC
  5
F7
100
AcDbEntity
  8
0
  6
ByLayer
 62
  256
370
   -1
100
AcDbCircle
 10
17.05092430114746
 20
85.72062683105469
 40
3.399996995925903
100
AcDbArc
 50
-14.60229969024658
 51
78.75006866455078
  0
LINE
  5
F8
100
AcDbEntity
  8
0
  6
ByLayer
 62
  256
370
   -1
100
AcDbLine
 10
20.34110069274902
 20
84.86346435546875
 11
17.33570671081543
 21
73.32752990722656
  0
LINE
  5
F9
100
AcDbEntity
  8
0
  6
ByLayer
 62
  256
370
   -1
100
AcDbLine
 10
14.33031749725342
 20
61.79159927368164
 11
17.33570671081543
 21
73.32752990722656
  0
LINE
  5
FA
100
AcDbEntity
  8
0
  6
ByLayer
 62
  256
370
   -1
100
AcDbLine
 10
14.33031749725342
 20
61.79159927368164
 11
13.69976711273193
 21
61.69711303710938
  0
ARC
  5
FB
100
AcDbEntity
  8
0
  6
ByLayer
 62
  256
370
   -1
100
AcDbCircle
 10
0.001296130125410855
 20
0.00543004646897316
 40
109.9944229125977
100
AcDbArc
 50
74.99989318847656
 51
78.75009155273438
  0
ARC
  5
FC
100
AcDbEntity
  8
0
  6
ByLayer
 62
  256
370
   -1
100
AcDbCircle
 10
0.0008796417969278991
 20
0.005512891337275505
 40
109.9944229125977
100
AcDbArc
 50
78.74987030029297
 51
82.50006866455078
  0
ARC
  5
FD
100
AcDbEntity
  8
0
  6
ByLayer
 62
  256
370
   -1
100
AcDbCircle
 10
-0.0003271064779255539
 20
-0.003999936860054731
 40
62.50400924682617
100
AcDbArc
 50
82.50016021728516
 51
84.96646118164062
  0
LINE
  5
FE
100
AcDbEntity
  8
0
  6
ByLayer
 62
  256
370
   -1
100
AcDbLine
 10
5.483694553375244
 20
62.25896453857422
 11
5.529475688934326
 21
62.95745849609375
  0
LINE
  5
FF
100
AcDbEntity
  8
0
  6
ByLayer
 62
  256
370
   -1
100
AcDbLine
 10
5.529475688934326
 20
62.95745849609375
 11
4.133499622344971
 21
63.06467819213867
  0
LINE
  5
100
100
AcDbEntity
  8
0
  6
ByLayer
 62
  256
370
   -1
100
AcDbLine
 10
2.735461950302124
 20
63.14059448242188
 11
4.133489608764648
 21
63.06467819213867
  0
LINE
  5
101
100
AcDbEntity
  8
0
  6
ByLayer
 62
  256
370
   -1
100
AcDbLine
 10
2.68967866897583
 20
62.44210052490234
 11
2.735461950302124
 21
63.14059448242188
  0
ARC
  5
102
100
AcDbEntity
  8
0
  6
ByLayer
 62
  256
370
   -1
100
AcDbCircle
 10
-0.0001986877614399418
 20
-0.004008353687822819
 40
62.50400924682617
100
AcDbArc
 50
87.53349304199219
 51
89.99980926513672
  0
LINE
  5
103
100
AcDbEntity
  8
0
  6
ByLayer
 62
  256
370
   -1
100
AcDbLine
 10
2.150852680206299
 20
63.39506149291992
 11
2.735461950302124
 21
63.14059448242188
  0
LINE
  5
104
100
AcDbEntity
  8
0
  6
ByLayer
 62
  256
370
   -1
100
AcDbLine
 10
2.150852680206299
 20
63.39506149291992
 11
2.233592748641968
 21
75.31576538085938
  0
LINE
  5
105
100
AcDbEntity
  8
0
  6
ByLayer
 62
  256
370
   -1
100
AcDbLine
 10
2.316332340240479
 20
87.23647308349609
 11
2.233592748641968
 21
75.31576538085938
  0
ARC
  5
106
100
AcDbEntity
  8
0
  6
ByLayer
 62
  256
370
   -1
100
AcDbCircle
 10
5.716250419616699
 20
87.21287536621094
 40
3.399996995925903
100
AcDbArc
 50
86.24990844726562
 51
179.6023559570312
  0
ARC
  5
107
100
AcDbEntity
  8
0
  6
ByLayer
 62
  256
370
   -1
100
AcDbCircle
 10
5.716265201568604
 20
87.21286773681641
 40
3.399996995925903
100
AcDbArc
 50
-7.102368831634521
 51
86.25006866455078
  0
LINE
  5
108
100
AcDbEntity
  8
0
  6
ByLayer
 62
  256
370
   -1
100
AcDbLine
 10
9.090175628662109
 20
86.79248046875
 11
7.616237163543701
 21
74.96296691894531
  0
LINE
  5
109
100
AcDbEntity
  8
0
  6
ByLayer
 62
  256
370
   -1
100
AcDbLine
 10
6.142297744750977
 20
63.13344192504883
 11
7.616237163543701
 21
74.96296691894531
  0
LINE
  5
10A
100
AcDbEntity
  8
0
  6
ByLayer
 62
  256
370
   -1
100
AcDbLine
 10
6.142297744750977
 20
63.13344192504883
 11
5.529475688934326
 21
62.95745849609375
  0
ARC
  5
10B
100
AcDbEntity
  8
0
  6
ByLayer
 62
  256
370
   -1
100
AcDbCircle
 10
0.0005762783694081008
 20
0.005552770104259253
 40
109.9944229125977
100
AcDbArc
 50
82.49989318847656
 51
86.25009155273438
  0
ARC
  5
10C
100
AcDbEntity
  8
0
  6
ByLayer
 62
  256
370
   -1
100
AcDbCircle
 10
0.0001525397674413398
 20
0.005580544471740723
 40
109.9944229125977
100
AcDbArc
 50
86.24987030029297
 51
90.00006103515625
  0
LINE
  5
10D
100
AcDbEntity
  8
0
  6
ByLayer
 62
  256
370
   -1
100
AcDbLine
 10
62.5
 20
-2.731961785684689e-06
 11
110.0000076293945
 21
-4.808253379451344e-06
  0
LINE
  5
10E
100
AcDbEntity
  8
0
  6
ByLayer
 62
  256
370
   -1
100
AcDbLine
 10
0
 20
62.5
 11
0
 21
110.0000076293945
  0
LINE
  5
10F
100
AcDbEntity
  8
0
  6
ByLayer
 62
  256
370
   -1
100
AcDbLine
 10
61.34763336181641
 20
4.326616764068604
 11
61.31041717529297
 21
4.825233936309814
  0
LINE
  5
110
100
AcDbEntity
  8
0
  6
ByLayer
 62
  256
370
   -1
100
AcDbLine
 10
61.84609603881836
 20
4.365846633911133
 11
61.34763336181641
 21
4.326616764068604
  0
ARC
  5
111
100
AcDbEntity
  8
0
  6
ByLayer
 62
  256
370
   -1
100
AcDbCircle
 10
59.15476989746094
 20
4.153917789459229
 40
2.199996709823608
100
AcDbArc
 50
-93.64564514160156
 51
4.503070831298828
  0
ARC
  5
112
100
AcDbEntity
  8
0
  6
ByLayer
 62
  256
370
   -1
100
AcDbCircle
 10
-0.001408159732818604
 20
-6.216578185558319e-05
 40
62.00141143798828
100
AcDbArc
 50
5.744767258875073e-05
 51
4.037898540496826
  0
LINE
  5
113
100
AcDbEntity
  8
0
  6
ByLayer
 62
  256
370
   -1
100
AcDbLine
 10
59.0149040222168
 20
1.95872175693512
 11
53.10223007202148
 21
2.339877128601074
  0
LINE
  5
114
100
AcDbEntity
  8
0
  6
ByLayer
 62
  256
370
   -1
100
AcDbLine
 10
47.18955230712891
 20
2.721031904220581
 11
53.10223007202148
 21
2.339877128601074
  0
ARC
  5
115
100
AcDbEntity
  8
0
  6
ByLayer
 62
  256
370
   -1
100
AcDbCircle
 10
47.25387573242188
 20
3.718953132629395
 40
0.9999890923500061
100
AcDbArc
 50
-175.5005340576172
 51
-93.68788909912109
  0
ARC
  5
116
100
AcDbEntity
  8
0
  6
ByLayer
 62
  256
370
   -1
100
AcDbCircle
 10
-0.001201406121253967
 20
-5.040783435106277e-05
 40
28.00120162963867
100
AcDbArc
 50
0.0001031440042424947
 51
4.499912261962891
  0
LINE
  5
117
100
AcDbEntity
  8
0
  6
ByLayer
 62
  256
370
   -1
100
AcDbLine
 10
61.2691764831543
 20
5.323529243469238
 11
61.31041717529297
 21
4.825229167938232
  0
LINE
  5
118
100
AcDbEntity
  8
0
  6
ByLayer
 62
  256
370
   -1
100
AcDbLine
 10
61.76763916015625
 20
5.362759113311768
 11
61.2691764831543
 21
5.323529243469238
  0
ARC
  5
119
100
AcDbEntity
  8
0
  6
ByLayer
 62
  256
370
   -1
100
AcDbCircle
 10
-0.001400566543452442
 20
-0.0001586451980983838
 40
62.00141143798828
100
AcDbArc
 50
4.962095260620117
 51
8.999936103820801
  0
ARC
  5
11A
100
AcDbEntity
  8
0
  6
ByLayer
 62
  256
370
   -1
100
AcDbCircle
 10
59.07629776000977
 20
5.151062965393066
 40
2.199996709823608
100
AcDbArc
 50
4.496898651123047
 51
102.6457214355469
  0
LINE
  5
11B
100
AcDbEntity
  8
0
  6
ByLayer
 62
  256
370
   -1
100
AcDbLine
 10
58.59474945068359
 20
7.297352313995361
 11
52.81449127197266
 21
5.995943546295166
  0
LINE
  5
11C
100
AcDbEntity
  8
0
  6
ByLayer
 62
  256
370
   -1
100
AcDbLine
 10
47.03423309326172
 20
4.694536209106445
 11
52.81449127197266
 21
5.995943546295166
  0
ARC
  5
11D
100
AcDbEntity
  8
0
  6
ByLayer
 62
  256
370
   -1
100
AcDbCircle
 10
47.25387573242188
 20
3.718963384628296
 40
0.9999890923500061
100
AcDbArc
 50
102.6879730224609
 51
-175.4994812011719
  0
ARC
  5
11E
100
AcDbEntity
  8
0
  6
ByLayer
 62
  256
370
   -1
100
AcDbCircle
 10
-0.001194519223645329
 20
-0.0001379150053253397
 40
28.00120162963867
100
AcDbArc
 50
4.500081539154053
 51
8.99989128112793
  0
ARC
  5
11F
100
AcDbEntity
  8
0
  6
ByLayer
 62
  256
370
   -1
100
AcDbCircle
 10
-0.001381098059937358
 20
-0.000281685235677287
 40
62.00141143798828
100
AcDbArc
 50
9.000060081481934
 51
13.03790378570557
  0
LINE
  5
120
100
AcDbEntity
  8
0
  6
ByLayer
 62
  256
370
   -1
100
AcDbLine
 10
60.40169525146484
 20
13.98696231842041
 11
59.91550445556641
 21
13.87023735046387
  0
LINE
  5
121
100
AcDbEntity
  8
0
  6
ByLayer
 62
  256
370
   -1
100
AcDbLine
 10
59.91550445556641
 20
13.87023735046387
 11
59.80074691772461
 21
14.35689449310303
  0
LINE
  5
122
100
AcDbEntity
  8
0
  6
ByLayer
 62
  256
370
   -1
100
AcDbLine
 10
59.68206405639648
 20
14.84260272979736
 11
59.80074691772461
 21
14.35688972473145
  0
LINE
  5
123
100
AcDbEntity
  8
0
  6
ByLayer
 62
  256
370
   -1
100
AcDbLine
 10
60.16825103759766
 20
14.95932579040527
 11
59.68206405639648
 21
14.84260272979736
  0
ARC
  5
124
100
AcDbEntity
  8
0
  6
ByLayer
 62
  256
370
   -1
100
AcDbCircle
 10
-0.00135850568767637
 20
-0.0003757890081033111
 40
62.00141143798828
100
AcDbArc
 50
13.96210098266602
 51
17.99993896484375
  0
ARC
  5
125
100
AcDbEntity
  8
0
  6
ByLayer
 62
  256
370
   -1
100
AcDbCircle
 10
57.54316711425781
 20
14.3292179107666
 40
2.199996709823608
100
AcDbArc
 50
13.49690914154053
 51
111.6457595825195
  0
LINE
  5
126
100
AcDbEntity
  8
0
  6
ByLayer
 62
  256
370
   -1
100
AcDbLine
 10
56.73178482055664
 20
16.37375259399414
 11
51.22628402709961
 21
14.1841344833374
  0
LINE
  5
127
100
AcDbEntity
  8
0
  6
ByLayer
 62
  256
370
   -1
100
AcDbLine
 10
45.72077560424805
 20
11.99451637268066
 11
51.22628402709961
 21
14.1841344833374
  0
ARC
  5
128
100
AcDbEntity
  8
0
  6
ByLayer
 62
  256
370
   -1
100
AcDbCircle
 10
46.09032821655273
 20
11.06531429290771
 40
0.9999890923500061
100
AcDbArc
 50
111.6880187988281
 51
-166.4994964599609
  0
ARC
  5
129
100
AcDbEntity
  8
0
  6
ByLayer
 62
  256
370
   -1
100
AcDbCircle
 10
46.09033203125
 20
11.06530380249023
 40
0.9999890923500061
100
AcDbArc
 50
-166.5005340576172
 51
-84.68804931640625
  0
LINE
  5
12A
100
AcDbEntity
  8
0
  6
ByLayer
 62
  256
370
   -1
100
AcDbLine
 10
46.18290328979492
 20
10.06960678100586
 11
52.08241653442383
 21
10.61809253692627
  0
LINE
  5
12B
100
AcDbEntity
  8
0
  6
ByLayer
 62
  256
370
   -1
100
AcDbLine
 10
57.98191833496094
 20
11.16657638549805
 11
52.08241653442383
 21
10.61809253692627
  0
ARC
  5
12C
100
AcDbEntity
  8
0
  6
ByLayer
 62
  256
370
   -1
100
AcDbCircle
 10
57.77666091918945
 20
13.35662651062012
 40
2.199996709823608
100
AcDbArc
 50
-84.64563751220703
 51
13.50307464599609
  0
ARC
  5
12D
100
AcDbEntity
  8
0
  6
ByLayer
 62
  256
370
   -1
100
AcDbCircle
 10
-0.001178729231469333
 20
-0.0002377286436967552
 40
28.00120162963867
100
AcDbArc
 50
9.000107765197754
 51
13.49991607666016
  0
ARC
  5
12E
100
AcDbEntity
  8
0
  6
ByLayer
 62
  256
370
   -1
100
AcDbCircle
 10
-0.001158237922936678
 20
-0.0003230810980312526
 40
28.00120162963867
100
AcDbArc
 50
13.50008678436279
 51
17.9998950958252
  0
ARC
  5
12F
100
AcDbEntity
  8
0
  6
ByLayer
 62
  256
370
   -1
100
AcDbCircle
 10
-0.001320029143244028
 20
-0.0004942687228322029
 40
62.00141143798828
100
AcDbArc
 50
18.00006675720215
 51
22.03790855407715
  0
LINE
  5
130
100
AcDbEntity
  8
0
  6
ByLayer
 62
  256
370
   -1
100
AcDbLine
 10
57.47000885009766
 20
23.26366996765137
 11
57.00806427001953
 21
23.07232856750488
  0
LINE
  5
131
100
AcDbEntity
  8
0
  6
ByLayer
 62
  256
370
   -1
100
AcDbLine
 10
57.00806427001953
 20
23.07232856750488
 11
56.81858825683594
 21
23.53504180908203
  0
LINE
  5
132
100
AcDbEntity
  8
0
  6
ByLayer
 62
  256
370
   -1
100
AcDbLine
 10
56.62538528442383
 20
23.99620246887207
 11
56.8185920715332
 21
23.53503799438477
  0
LINE
  5
133
100
AcDbEntity
  8
0
  6
ByLayer
 62
  256
370
   -1
100
AcDbLine
 10
57.08732986450195
 20
24.18754577636719
 11
56.62538528442383
 21
23.99620246887207
  0
ARC
  5
134
100
AcDbEntity
  8
0
  6
ByLayer
 62
  256
370
   -1
100
AcDbCircle
 10
-0.001282993936911225
 20
-0.000583679648116231
 40
62.00141143798828
100
AcDbArc
 50
22.96210479736328
 51
26.99994659423828
  0
ARC
  5
135
100
AcDbEntity
  8
0
  6
ByLayer
 62
  256
370
   -1
100
AcDbCircle
 10
54.5931282043457
 20
23.154541015625
 40
2.199996709823608
100
AcDbArc
 50
22.49690246582031
 51
120.6456832885742
  0
LINE
  5
136
100
AcDbEntity
  8
0
  6
ByLayer
 62
  256
370
   -1
100
AcDbLine
 10
53.47190856933594
 20
25.04697799682617
 11
48.37671661376953
 21
22.0230655670166
  0
LINE
  5
137
100
AcDbEntity
  8
0
  6
ByLayer
 62
  256
370
   -1
100
AcDbLine
 10
43.28152084350586
 20
18.99915313720703
 11
48.37671661376953
 21
22.0230655670166
  0
ARC
  5
138
100
AcDbEntity
  8
0
  6
ByLayer
 62
  256
370
   -1
100
AcDbCircle
 10
43.7918815612793
 20
18.13920211791992
 40
0.9999890923500061
100
AcDbArc
 50
120.68798828125
 51
-157.4994354248047
  0
ARC
  5
139
100
AcDbEntity
  8
0
  6
ByLayer
 62
  256
370
   -1
100
AcDbCircle
 10
43.79188537597656
 20
18.13919258117676
 40
0.9999890923500061
100
AcDbArc
 50
-157.50048828125
 51
-75.68798065185547
  0
LINE
  5
13A
100
AcDbEntity
  8
0
  6
ByLayer
 62
  256
370
   -1
100
AcDbLine
 10
44.03908157348633
 20
17.17023468017578
 11
49.78015518188477
 21
18.63485527038574
  0
LINE
  5
13B
100
AcDbEntity
  8
0
  6
ByLayer
 62
  256
370
   -1
100
AcDbLine
 10
55.52123260498047
 20
20.09947395324707
 11
49.78015518188477
 21
18.63485527038574
  0
ARC
  5
13C
100
AcDbEntity
  8
0
  6
ByLayer
 62
  256
370
   -1
100
AcDbCircle
 10
54.97589874267578
 20
22.23044967651367
 40
2.199996709823608
100
AcDbArc
 50
-75.6456298828125
 51
22.50311851501465
  0
ARC
  5
13D
100
AcDbEntity
  8
0
  6
ByLayer
 62
  256
370
   -1
100
AcDbCircle
 10
-0.001127028255723417
 20
-0.0004191957705188543
 40
28.00120162963867
100
AcDbArc
 50
18.0001106262207
 51
22.49991989135742
  0
ARC
  5
13E
100
AcDbEntity
  8
0
  6
ByLayer
 62
  256
370
   -1
100
AcDbCircle
 10
-0.001093437080271542
 20
-0.0005002918769605458
 40
28.00120162963867
100
AcDbArc
 50
22.50009155273438
 51
26.99990272521973
  0
ARC
  5
13F
100
AcDbEntity
  8
0
  6
ByLayer
 62
  256
370
   -1
100
AcDbCircle
 10
-0.001226456719450653
 20
-0.0006946815410628915
 40
62.00141143798828
100
AcDbArc
 50
27.00007057189941
 51
31.03791046142578
  0
LINE
  5
140
100
AcDbEntity
  8
0
  6
ByLayer
 62
  256
370
   -1
100
AcDbLine
 10
53.12321472167969
 20
31.96755027770996
 11
52.69689178466797
 21
31.706298828125
  0
LINE
  5
141
100
AcDbEntity
  8
0
  6
ByLayer
 62
  256
370
   -1
100
AcDbLine
 10
52.69689178466797
 20
31.706298828125
 11
52.43736267089844
 21
32.13367462158203
  0
LINE
  5
142
100
AcDbEntity
  8
0
  6
ByLayer
 62
  256
370
   -1
100
AcDbLine
 10
52.17439270019531
 20
32.55893707275391
 11
52.4373664855957
 21
32.13367080688477
  0
LINE
  5
143
100
AcDbEntity
  8
0
  6
ByLayer
 62
  256
370
   -1
100
AcDbLine
 10
52.6007194519043
 20
32.82018661499023
 11
52.17439270019531
 21
32.55893707275391
  0
ARC
  5
144
100
AcDbEntity
  8
0
  6
ByLayer
 62
  256
370
   -1
100
AcDbCircle
 10
-0.001175890327431262
 20
-0.0007771981181576848
 40
62.00141143798828
100
AcDbArc
 50
31.96210861206055
 51
35.99995040893555
  0
ARC
  5
145
100
AcDbEntity
  8
0
  6
ByLayer
 62
  256
370
   -1
100
AcDbCircle
 10
50.29882431030273
 20
31.40972137451172
 40
2.199996709823608
100
AcDbArc
 50
31.49691772460938
 51
129.6457366943359
  0
LINE
  5
146
100
AcDbEntity
  8
0
  6
ByLayer
 62
  256
370
   -1
100
AcDbLine
 10
48.89536666870117
 20
33.10345840454102
 11
44.33594512939453
 21
29.3197135925293
  0
LINE
  5
147
100
AcDbEntity
  8
0
  6
ByLayer
 62
  256
370
   -1
100
AcDbLine
 10
39.77652740478516
 20
25.53596878051758
 11
44.33594512939453
 21
29.3197135925293
  0
ARC
  5
148
100
AcDbEntity
  8
0
  6
ByLayer
 62
  256
370
   -1
100
AcDbCircle
 10
40.41513061523438
 20
24.76644134521484
 40
0.9999890923500061
100
AcDbArc
 50
129.68798828125
 51
-148.4994964599609
  0
ARC
  5
149
100
AcDbEntity
  8
0
  6
ByLayer
 62
  256
370
   -1
100
AcDbCircle
 10
40.41513824462891
 20
24.76643180847168
 40
0.9999890923500061
100
AcDbArc
 50
-148.5006561279297
 51
-66.68792724609375
  0
LINE
  5
14A
100
AcDbEntity
  8
0
  6
ByLayer
 62
  256
370
   -1
100
AcDbLine
 10
40.81086730957031
 20
23.84807586669922
 11
46.25214767456055
 21
26.1927661895752
  0
LINE
  5
14B
100
AcDbEntity
  8
0
  6
ByLayer
 62
  256
370
   -1
100
AcDbLine
 10
51.69341659545898
 20
28.53745269775391
 11
46.25214767456055
 21
26.1927661895752
  0
ARC
  5
14C
100
AcDbEntity
  8
0
  6
ByLayer
 62
  256
370
   -1
100
AcDbCircle
 10
50.82144165039062
 20
30.556884765625
 40
2.199996709823608
100
AcDbArc
 50
-66.64562225341797
 51
31.50310325622559
  0
ARC
  5
14D
100
AcDbEntity
  8
0
  6
ByLayer
 62
  256
370
   -1
100
AcDbCircle
 10
-0.00104757584631443
 20
-0.0005903408746235073
 40
28.00120162963867
100
AcDbArc
 50
27.00011825561523
 51
31.49992752075195
  0
ARC
  5
14E
100
AcDbEntity
  8
0
  6
ByLayer
 62
  256
370
   -1
100
AcDbCircle
 10
-0.00100171216763556
 20
-0.0006651838193647563
 40
28.00120162963867
100
AcDbArc
 50
31.50009346008301
 51
35.99990463256836
  0
ARC
  5
14F
100
AcDbEntity
  8
0
  6
ByLayer
 62
  256
370
   -1
100
AcDbCircle
 10
-0.001102684764191508
 20
-0.0008779889903962612
 40
62.00141143798828
100
AcDbArc
 50
36.00007629394531
 51
40.03791427612305
  0
LINE
  5
150
100
AcDbEntity
  8
0
  6
ByLayer
 62
  256
370
   -1
100
AcDbLine
 10
47.46834945678711
 20
39.88428115844727
 11
47.0881462097168
 21
39.55955505371094
  0
LINE
  5
151
100
AcDbEntity
  8
0
  6
ByLayer
 62
  256
370
   -1
100
AcDbLine
 10
47.0881462097168
 20
39.55955505371094
 11
46.76495742797852
 21
39.94107055664062
  0
LINE
  5
152
100
AcDbEntity
  8
0
  6
ByLayer
 62
  256
370
   -1
100
AcDbLine
 10
46.43869781494141
 20
40.3199577331543
 11
46.76495742797852
 21
39.94106674194336
  0
LINE
  5
153
100
AcDbEntity
  8
0
  6
ByLayer
 62
  256
370
   -1
100
AcDbLine
 10
46.81890869140625
 20
40.64468383789062
 11
46.43869781494141
 21
40.3199577331543
  0
ARC
  5
154
100
AcDbEntity
  8
0
  6
ByLayer
 62
  256
370
   -1
100
AcDbCircle
 10
-0.001039832597598433
 20
-0.0009515793644823134
 40
62.00141143798828
100
AcDbArc
 50
40.96210861206055
 51
44.99995040893555
  0
ARC
  5
155
100
AcDbEntity
  8
0
  6
ByLayer
 62
  256
370
   -1
100
AcDbCircle
 10
44.7660026550293
 20
38.89148712158203
 40
2.199996709823608
100
AcDbArc
 50
40.49690246582031
 51
138.6458435058594
  0
LINE
  5
156
100
AcDbEntity
  8
0
  6
ByLayer
 62
  256
370
   -1
100
AcDbLine
 10
43.11486053466797
 20
40.34482192993164
 11
39.20348358154297
 21
35.8944091796875
  0
LINE
  5
157
100
AcDbEntity
  8
0
  6
ByLayer
 62
  256
370
   -1
100
AcDbLine
 10
35.2921028137207
 20
31.44399833679199
 11
39.20348358154297
 21
35.8944091796875
  0
ARC
  5
158
100
AcDbEntity
  8
0
  6
ByLayer
 62
  256
370
   -1
100
AcDbCircle
 10
36.04323196411133
 20
30.78384780883789
 40
0.9999890923500061
100
AcDbArc
 50
138.6880798339844
 51
-139.4994354248047
  0
ARC
  5
159
100
AcDbEntity
  8
0
  6
ByLayer
 62
  256
370
   -1
100
AcDbCircle
 10
36.04323577880859
 20
30.78383827209473
 40
0.9999890923500061
100
AcDbArc
 50
-139.5005798339844
 51
-57.68792724609375
  0
LINE
  5
15A
100
AcDbEntity
  8
0
  6
ByLayer
 62
  256
370
   -1
100
AcDbLine
 10
36.5777587890625
 20
29.93869400024414
 11
41.58524703979492
 21
33.10572052001953
  0
LINE
  5
15B
100
AcDbEntity
  8
0
  6
ByLayer
 62
  256
370
   -1
100
AcDbLine
 10
46.59274291992188
 20
36.27274322509766
 11
41.58524703979492
 21
33.10572052001953
  0
ARC
  5
15C
100
AcDbEntity
  8
0
  6
ByLayer
 62
  256
370
   -1
100
AcDbCircle
 10
45.41559600830078
 20
38.13090515136719
 40
2.199996709823608
100
AcDbArc
 50
-57.64568328857421
 51
40.50315475463867
  0
ARC
  5
15D
100
AcDbEntity
  8
0
  6
ByLayer
 62
  256
370
   -1
100
AcDbCircle
 10
-0.0009423287701793015
 20
-0.0007469498668797314
 40
28.00120162963867
100
AcDbArc
 50
36.00011444091797
 51
40.49992752075195
  0
ARC
  5
15E
100
AcDbEntity
  8
0
  6
ByLayer
 62
  256
370
   -1
100
AcDbCircle
 10
-0.0008853216422721744
 20
-0.0008136965916492045
 40
28.00120162963867
100
AcDbArc
 50
40.50009918212891
 51
44.99990844726562
  0
ARC
  5
15F
100
AcDbEntity
  8
0
  6
ByLayer
 62
  256
370
   -1
100
AcDbCircle
 10
-0.0009517610305920243
 20
-0.00103967753238976
 40
62.00141143798828
100
AcDbArc
 50
45.00008010864258
 51
49.03792190551758
  0
LINE
  5
160
100
AcDbEntity
  8
0
  6
ByLayer
 62
  256
370
   -1
100
AcDbLine
 10
40.64465713500977
 20
46.81893157958984
 11
40.31993103027344
 21
46.43872451782227
  0
LINE
  5
161
100
AcDbEntity
  8
0
  6
ByLayer
 62
  256
370
   -1
100
AcDbLine
 10
40.31993103027344
 20
46.43872451782227
 11
39.9410400390625
 21
46.76498413085938
  0
LINE
  5
162
100
AcDbEntity
  8
0
  6
ByLayer
 62
  256
370
   -1
100
AcDbLine
 10
39.55952835083008
 20
47.08816909790039
 11
39.94104385375977
 21
46.76498031616211
  0
LINE
  5
163
100
AcDbEntity
  8
0
  6
ByLayer
 62
  256
370
   -1
100
AcDbLine
 10
39.88425827026367
 20
47.46837615966797
 11
39.55952835083008
 21
47.08816909790039
  0
ARC
  5
164
100
AcDbEntity
  8
0
  6
ByLayer
 62
  256
370
   -1
100
AcDbCircle
 10
-0.0008781706565059721
 20
-0.001102529466152191
 40
62.00141143798828
100
AcDbArc
 50
49.96211242675781
 51
53.99995422363281
  0
ARC
  5
165
100
AcDbEntity
  8
0
  6
ByLayer
 62
  256
370
   -1
100
AcDbCircle
 10
38.13088226318359
 20
45.41561889648438
 40
2.199996709823608
100
AcDbArc
 50
49.49697113037109
 51
147.6457366943359
  0
LINE
  5
166
100
AcDbEntity
  8
0
  6
ByLayer
 62
  256
370
   -1
100
AcDbLine
 10
36.27272033691406
 20
46.59276580810547
 11
33.10569763183594
 21
41.58526992797852
  0
LINE
  5
167
100
AcDbEntity
  8
0
  6
ByLayer
 62
  256
370
   -1
100
AcDbLine
 10
29.93867492675781
 20
36.57777786254883
 11
33.10569763183594
 21
41.58526992797852
  0
ARC
  5
168
100
AcDbEntity
  8
0
  6
ByLayer
 62
  256
370
   -1
100
AcDbCircle
 10
30.78382110595703
 20
36.04325485229492
 40
0.9999890923500061
100
AcDbArc
 50
147.6881713867188
 51
-130.4993438720703
  0
ARC
  5
169
100
AcDbEntity
  8
0
  6
ByLayer
 62
  256
370
   -1
100
AcDbCircle
 10
30.78382873535156
 20
36.04324722290039
 40
0.9999890923500061
100
AcDbArc
 50
-130.5003356933594
 51
-48.68807601928711
  0
LINE
  5
16A
100
AcDbEntity
  8
0
  6
ByLayer
 62
  256
370
   -1
100
AcDbLine
 10
31.44397926330566
 20
35.2921257019043
 11
35.89439010620117
 21
39.20350646972656
  0
LINE
  5
16B
100
AcDbEntity
  8
0
  6
ByLayer
 62
  256
370
   -1
100
AcDbLine
 10
40.34479904174805
 20
43.11488342285156
 11
35.89439010620117
 21
39.20350646972656
  0
ARC
  5
16C
100
AcDbEntity
  8
0
  6
ByLayer
 62
  256
370
   -1
100
AcDbCircle
 10
38.89146041870117
 20
44.76601791381836
 40
2.199996709823608
100
AcDbArc
 50
-48.64558410644531
 51
49.50309753417969
  0
ARC
  5
16D
100
AcDbEntity
  8
0
  6
ByLayer
 62
  256
370
   -1
100
AcDbCircle
 10
-0.0008138783741742373
 20
-0.0008851664606481791
 40
28.00120162963867
100
AcDbArc
 50
45.0001220703125
 51
49.49993133544922
  0
ARC
  5
16E
100
AcDbEntity
  8
0
  6
ByLayer
 62
  256
370
   -1
100
AcDbCircle
 10
-0.0007471316494047642
 20
-0.0009421735885553062
 40
28.00120162963867
100
AcDbArc
 50
49.50010299682617
 51
53.99991226196289
  0
ARC
  5
16F
100
AcDbEntity
  8
0
  6
ByLayer
 62
  256
370
   -1
100
AcDbCircle
 10
-0.0007774017285555601
 20
-0.001175765646621585
 40
62.00141143798828
100
AcDbArc
 50
54.00008773803711
 51
58.0379295349121
  0
LINE
  5
170
100
AcDbEntity
  8
0
  6
ByLayer
 62
  256
370
   -1
100
AcDbLine
 10
32.82015228271484
 20
52.60073852539062
 11
32.55889892578125
 21
52.17441940307617
  0
LINE
  5
171
100
AcDbEntity
  8
0
  6
ByLayer
 62
  256
370
   -1
100
AcDbLine
 10
32.55889892578125
 20
52.17441940307617
 11
32.13363647460938
 21
52.43738555908203
  0
LINE
  5
172
100
AcDbEntity
  8
0
  6
ByLayer
 62
  256
370
   -1
100
AcDbLine
 10
31.70626640319824
 20
52.69691467285156
 11
32.13364028930664
 21
52.43738555908203
  0
LINE
  5
173
100
AcDbEntity
  8
0
  6
ByLayer
 62
  256
370
   -1
100
AcDbLine
 10
31.96751403808594
 20
53.12323760986328
 11
31.70626640319824
 21
52.69691467285156
  0
ARC
  5
174
100
AcDbEntity
  8
0
  6
ByLayer
 62
  256
370
   -1
100
AcDbCircle
 10
-0.0006948850932531059
 20
-0.001226331805810332
 40
62.00141143798828
100
AcDbArc
 50
58.96212768554688
 51
62.99996185302734
  0
ARC
  5
175
100
AcDbEntity
  8
0
  6
ByLayer
 62
  256
370
   -1
100
AcDbCircle
 10
30.55685043334961
 20
50.82146453857422
 40
2.199996709823608
100
AcDbArc
 50
58.49693298339844
 51
156.6456909179688
  0
LINE
  5
176
100
AcDbEntity
  8
0
  6
ByLayer
 62
  256
370
   -1
100
AcDbLine
 10
28.53741836547852
 20
51.69343948364258
 11
26.19273376464844
 21
46.25216293334961
  0
LINE
  5
177
100
AcDbEntity
  8
0
  6
ByLayer
 62
  256
370
   -1
100
AcDbLine
 10
23.84804725646973
 20
40.81088638305664
 11
26.19273376464844
 21
46.25216293334961
  0
ARC
  5
178
100
AcDbEntity
  8
0
  6
ByLayer
 62
  256
370
   -1
100
AcDbCircle
 10
24.76640510559082
 20
40.41515731811523
 40
0.9999890923500061
100
AcDbArc
 50
156.6882171630859
 51
-121.4994201660156
  0
ARC
  5
179
100
AcDbEntity
  8
0
  6
ByLayer
 62
  256
370
   -1
100
AcDbCircle
 10
24.76641464233398
 20
40.4151496887207
 40
0.9999890923500061
100
AcDbArc
 50
-121.5005798339844
 51
-39.6879997253418
  0
LINE
  5
17A
100
AcDbEntity
  8
0
  6
ByLayer
 62
  256
370
   -1
100
AcDbLine
 10
25.53594207763672
 20
39.77654647827148
 11
29.31968307495117
 21
44.33596420288086
  0
LINE
  5
17B
100
AcDbEntity
  8
0
  6
ByLayer
 62
  256
370
   -1
100
AcDbLine
 10
33.10342788696289
 20
48.89538955688477
 11
29.31968307495117
 21
44.33596420288086
  0
ARC
  5
17C
100
AcDbEntity
  8
0
  6
ByLayer
 62
  256
370
   -1
100
AcDbCircle
 10
31.4096851348877
 20
50.29884338378906
 40
2.199996709823608
100
AcDbArc
 50
-39.64559555053711
 51
58.50307846069335
  0
ARC
  5
17D
100
AcDbEntity
  8
0
  6
ByLayer
 62
  256
370
   -1
100
AcDbCircle
 10
-0.0006653874879702926
 20
-0.00100158725399524
 40
28.00120162963867
100
AcDbArc
 50
54.00012969970703
 51
58.49993896484375
  0
ARC
  5
17E
100
AcDbEntity
  8
0
  6
ByLayer
 62
  256
370
   -1
100
AcDbCircle
 10
-0.0005905446014367044
 20
-0.001047451049089432
 40
28.00120162963867
100
AcDbArc
 50
58.5001106262207
 51
62.99992370605469
  0
ARC
  5
17F
100
AcDbEntity
  8
0
  6
ByLayer
 62
  256
370
   -1
100
AcDbCircle
 10
-0.000583900255151093
 20
-0.001282902550883591
 40
62.00141143798828
100
AcDbArc
 50
63.00008392333984
 51
67.03793334960938
  0
LINE
  5
180
100
AcDbEntity
  8
0
  6
ByLayer
 62
  256
370
   -1
100
AcDbLine
 10
24.18750953674316
 20
57.08734130859375
 11
23.99616622924805
 21
56.62540054321289
  0
LINE
  5
181
100
AcDbEntity
  8
0
  6
ByLayer
 62
  256
370
   -1
100
AcDbLine
 10
23.99616622924805
 20
56.62540054321289
 11
23.53499794006348
 21
56.818603515625
  0
LINE
  5
182
100
AcDbEntity
  8
0
  6
ByLayer
 62
  256
370
   -1
100
AcDbLine
 10
23.07229042053223
 20
57.00807952880859
 11
23.53500175476074
 21
56.81859970092773
  0
LINE
  5
183
100
AcDbEntity
  8
0
  6
ByLayer
 62
  256
370
   -1
100
AcDbLine
 10
23.26363372802734
 20
57.47002029418945
 11
23.07229042053223
 21
57.00807952880859
  0
ARC
  5
184
100
AcDbEntity
  8
0
  6
ByLayer
 62
  256
370
   -1
100
AcDbCircle
 10
-0.000494489271659404
 20
-0.001319937640801072
 40
62.00141143798828
100
AcDbArc
 50
67.96212768554688
 51
71.99996185302734
  0
ARC
  5
185
100
AcDbEntity
  8
0
  6
ByLayer
 62
  256
370
   -1
100
AcDbCircle
 10
22.23041534423828
 20
54.97591018676758
 40
2.199996709823608
100
AcDbArc
 50
67.49691772460938
 51
165.6457214355469
  0
LINE
  5
186
100
AcDbEntity
  8
0
  6
ByLayer
 62
  256
370
   -1
100
AcDbLine
 10
20.09943962097168
 20
55.52124404907227
 11
18.63482475280762
 21
49.78016662597656
  0
LINE
  5
187
100
AcDbEntity
  8
0
  6
ByLayer
 62
  256
370
   -1
100
AcDbLine
 10
17.17020797729492
 20
44.03909301757812
 11
18.63482475280762
 21
49.78016662597656
  0
ARC
  5
188
100
AcDbEntity
  8
0
  6
ByLayer
 62
  256
370
   -1
100
AcDbCircle
 10
18.13916397094727
 20
43.79189682006836
 40
0.9999890923500061
100
AcDbArc
 50
165.6879730224609
 51
-112.4994277954102
  0
ARC
  5
189
100
AcDbEntity
  8
0
  6
ByLayer
 62
  256
370
   -1
100
AcDbCircle
 10
18.13917350769043
 20
43.79189300537109
 40
0.9999890923500061
100
AcDbArc
 50
-112.5004806518555
 51
-30.68795013427734
  0
LINE
  5
18A
100
AcDbEntity
  8
0
  6
ByLayer
 62
  256
370
   -1
100
AcDbLine
 10
18.99912643432617
 20
43.28153228759766
 11
22.02303314208984
 21
48.37672805786133
  0
LINE
  5
18B
100
AcDbEntity
  8
0
  6
ByLayer
 62
  256
370
   -1
100
AcDbLine
 10
25.04694175720215
 20
53.471923828125
 11
22.02303314208984
 21
48.37672805786133
  0
ARC
  5
18C
100
AcDbEntity
  8
0
  6
ByLayer
 62
  256
370
   -1
100
AcDbCircle
 10
23.15450477600098
 20
54.59314346313477
 40
2.199996709823608
100
AcDbArc
 50
-30.64574623107911
 51
67.50305938720703
  0
ARC
  5
18D
100
AcDbEntity
  8
0
  6
ByLayer
 62
  256
370
   -1
100
AcDbCircle
 10
-0.0005005126004107296
 20
-0.001093345694243908
 40
28.00120162963867
100
AcDbArc
 50
63.00013351440429
 51
67.49993896484375
  0
ARC
  5
18E
100
AcDbEntity
  8
0
  6
ByLayer
 62
  256
370
   -1
100
AcDbCircle
 10
-0.000419416552176699
 20
-0.001126936636865139
 40
28.00120162963867
100
AcDbArc
 50
67.50011444091797
 51
71.99992370605469
  0
ARC
  5
18F
100
AcDbEntity
  8
0
  6
ByLayer
 62
  256
370
   -1
100
AcDbCircle
 10
-0.0003760212857741863
 20
-0.001358450041152537
 40
62.00141143798828
100
AcDbArc
 50
72.00009918212891
 51
76.03793334960938
  0
LINE
  5
190
100
AcDbEntity
  8
0
  6
ByLayer
 62
  256
370
   -1
100
AcDbLine
 10
14.95929050445557
 20
60.16826248168945
 11
14.84256744384766
 21
59.68207550048828
  0
LINE
  5
191
100
AcDbEntity
  8
0
  6
ByLayer
 62
  256
370
   -1
100
AcDbLine
 10
14.84256744384766
 20
59.68207550048828
 11
14.35685348510742
 21
59.80076217651367
  0
LINE
  5
192
100
AcDbEntity
  8
0
  6
ByLayer
 62
  256
370
   -1
100
AcDbLine
 10
13.87020206451416
 20
59.91551971435547
 11
14.356858253479
 21
59.80075836181641
  0
LINE
  5
193
100
AcDbEntity
  8
0
  6
ByLayer
 62
  256
370
   -1
100
AcDbLine
 10
13.98692512512207
 20
60.40170669555664
 11
13.87020206451416
 21
59.91551971435547
  0
ARC
  5
194
100
AcDbEntity
  8
0
  6
ByLayer
 62
  256
370
   -1
100
AcDbCircle
 10
-0.0002819174842443317
 20
-0.001381042180582881
 40
62.00141143798828
100
AcDbArc
 50
76.96212768554688
 51
80.99996948242188
  0
ARC
  5
195
100
AcDbEntity
  8
0
  6
ByLayer
 62
  256
370
   -1
100
AcDbCircle
 10
13.35659122467041
 20
57.77667617797852
 40
2.199996709823608
100
AcDbArc
 50
76.49692535400391
 51
174.6457366943359
  0
LINE
  5
196
100
AcDbEntity
  8
0
  6
ByLayer
 62
  256
370
   -1
100
AcDbLine
 10
11.16654205322266
 20
57.98192977905273
 11
10.61806106567383
 21
52.08242034912109
  0
LINE
  5
197
100
AcDbEntity
  8
0
  6
ByLayer
 62
  256
370
   -1
100
AcDbLine
 10
10.06957912445068
 20
46.18291091918945
 11
10.61806106567383
 21
52.08242034912109
  0
ARC
  5
198
100
AcDbEntity
  8
0
  6
ByLayer
 62
  256
370
   -1
100
AcDbCircle
 10
11.06527805328369
 20
46.09033966064453
 40
0.9999890923500061
100
AcDbArc
 50
174.6880493164062
 51
-103.4995040893555
  0
ARC
  5
199
100
AcDbEntity
  8
0
  6
ByLayer
 62
  256
370
   -1
100
AcDbCircle
 10
11.06528759002686
 20
46.09033584594727
 40
0.9999890923500061
100
AcDbArc
 50
-103.5004806518555
 51
-21.68800926208496
  0
LINE
  5
19A
100
AcDbEntity
  8
0
  6
ByLayer
 62
  256
370
   -1
100
AcDbLine
 10
11.99449062347412
 20
45.72078323364258
 11
14.18410396575928
 21
51.22629165649414
  0
LINE
  5
19B
100
AcDbEntity
  8
0
  6
ByLayer
 62
  256
370
   -1
100
AcDbLine
 10
16.37371826171875
 20
56.7318000793457
 11
14.18410396575928
 21
51.22629165649414
  0
ARC
  5
19C
100
AcDbEntity
  8
0
  6
ByLayer
 62
  256
370
   -1
100
AcDbCircle
 10
14.32918262481689
 20
57.54317474365234
 40
2.199996709823608
100
AcDbArc
 50
-21.64565086364746
 51
76.50306701660156
  0
ARC
  5
19D
100
AcDbEntity
  8
0
  6
ByLayer
 62
  256
370
   -1
100
AcDbCircle
 10
-0.0003233134921174496
 20
-0.001158182159997523
 40
28.00120162963867
100
AcDbArc
 50
72.00013732910156
 51
76.49994659423828
  0
ARC
  5
19E
100
AcDbEntity
  8
0
  6
ByLayer
 62
  256
370
   -1
100
AcDbCircle
 10
-0.0002379610523348674
 20
-0.0011786735849455
 40
28.00120162963867
100
AcDbArc
 50
76.5001220703125
 51
80.99992370605469
  0
ARC
  5
19F
100
AcDbEntity
  8
0
  6
ByLayer
 62
  256
370
   -1
100
AcDbCircle
 10
-0.0001588833256391808
 20
-0.001400547800585628
 40
62.00141143798828
100
AcDbArc
 50
81.00009155273438
 51
85.03793334960938
  0
LINE
  5
1A0
100
AcDbEntity
  8
0
  6
ByLayer
 62
  256
370
   -1
100
AcDbLine
 10
5.362721920013428
 20
61.76763916015625
 11
5.323493003845215
 21
61.2691764831543
  0
LINE
  5
1A1
100
AcDbEntity
  8
0
  6
ByLayer
 62
  256
370
   -1
100
AcDbLine
 10
5.323493003845215
 20
61.2691764831543
 11
4.825192928314209
 21
61.31041717529297
  0
LINE
  5
1A2
100
AcDbEntity
  8
0
  6
ByLayer
 62
  256
370
   -1
100
AcDbLine
 10
4.326580047607422
 20
61.34763717651367
 11
4.825197696685791
 21
61.31041717529297
  0
LINE
  5
1A3
100
AcDbEntity
  8
0
  6
ByLayer
 62
  256
370
   -1
100
AcDbLine
 10
4.365809440612793
 20
61.84609603881836
 11
4.326580047607422
 21
61.34763717651367
  0
ARC
  5
1A4
100
AcDbEntity
  8
0
  6
ByLayer
 62
  256
370
   -1
100
AcDbCircle
 10
-6.240390212042257e-05
 20
-0.001408140873536468
 40
62.00141143798828
100
AcDbArc
 50
85.96213531494141
 51
89.99996948242188
  0
ARC
  5
1A5
100
AcDbEntity
  8
0
  6
ByLayer
 62
  256
370
   -1
100
AcDbCircle
 10
4.153883457183838
 20
59.1547737121582
 40
2.199996709823608
100
AcDbArc
 50
85.49697113037109
 51
-176.354248046875
  0
LINE
  5
1A6
100
AcDbEntity
  8
0
  6
ByLayer
 62
  256
370
   -1
100
AcDbLine
 10
1.958687305450439
 20
59.0149040222168
 11
2.339845895767212
 21
53.10223007202148
  0
LINE
  5
1A7
100
AcDbEntity
  8
0
  6
ByLayer
 62
  256
370
   -1
100
AcDbLine
 10
2.721003293991089
 20
47.18955230712891
 11
2.339845895767212
 21
53.10223007202148
  0
ARC
  5
1A8
100
AcDbEntity
  8
0
  6
ByLayer
 62
  256
370
   -1
100
AcDbCircle
 10
3.718925476074219
 20
47.25387573242188
 40
0.9999890923500061
100
AcDbArc
 50
-176.3120880126953
 51
-94.49945831298828
  0
ARC
  5
1A9
100
AcDbEntity
  8
0
  6
ByLayer
 62
  256
370
   -1
100
AcDbCircle
 10
3.718935489654541
 20
47.25387573242188
 40
0.9999890923500061
100
AcDbArc
 50
-94.50048065185547
 51
-12.68778228759766
  0
LINE
  5
1AA
100
AcDbEntity
  8
0
  6
ByLayer
 62
  256
370
   -1
100
AcDbLine
 10
4.69450855255127
 20
47.03423690795898
 11
5.995912551879883
 21
52.81449127197266
  0
LINE
  5
1AB
100
AcDbEntity
  8
0
  6
ByLayer
 62
  256
370
   -1
100
AcDbLine
 10
7.297317504882812
 20
58.59474945068359
 11
5.995912551879883
 21
52.81449127197266
  0
ARC
  5
1AC
100
AcDbEntity
  8
0
  6
ByLayer
 62
  256
370
   -1
100
AcDbCircle
 10
5.151027679443359
 20
59.07629776000977
 40
2.199996709823608
100
AcDbArc
 50
-12.64562797546387
 51
85.50311279296875
  0
ARC
  5
1AD
100
AcDbEntity
  8
0
  6
ByLayer
 62
  256
370
   -1
100
AcDbCircle
 10
-0.0001381532638333738
 20
-0.001194500364363194
 40
28.00120162963867
100
AcDbArc
 50
81.00014495849609
 51
85.49995422363281
  0
ARC
  5
1AE
100
AcDbEntity
  8
0
  6
ByLayer
 62
  256
370
   -1
100
AcDbCircle
 10
-5.064609285909683e-05
 20
-0.001201387378387153
 40
28.00120162963867
100
AcDbArc
 50
85.5001220703125
 51
89.99992370605469
  0
LINE
  5
1AF
100
AcDbEntity
  8
0
  6
ByLayer
 62
  256
370
   -1
100
AcDbLine
 10
62.00000381469727
 20
-2.71010640062741e-06
 11
28
 21
-1.22391895729379e-06
  0
LINE
  5
1B0
100
AcDbEntity
  8
0
  6
ByLayer
 62
  256
370
   -1
100
AcDbLine
 10
0
 20
62.00000381469727
 11
0
 21
28
  0
LINE
  5
1B1
100
AcDbEntity
  8
0
  6
ByLayer
 62
  256
370
   -1
100
AcDbLine
 10
2.5
 20
0
 11
28
 21
0
  0
LINE
  5
1B2
100
AcDbEntity
  8
0
  6
ByLayer
 62
  256
370
   -1
100
AcDbLine
 10
2.469220876693726
 20
0.3910861611366272
 11
2.5
 21
0
  0
LINE
  5
1B3
100
AcDbEntity
  8
0
  6
ByLayer
 62
  256
370
   -1
100
AcDbLine
 10
2.377641201019287
 20
0.7725425362586975
 11
2.469220876693726
 21
0.3910861611366272
  0
LINE
  5
1B4
100
AcDbEntity
  8
0
  6
ByLayer
 62
  256
370
   -1
100
AcDbLine
 10
2.227516412734985
 20
1.134976267814636
 11
2.377641201019287
 21
0.7725425362586975
  0
LINE
  5
1B5
100
AcDbEntity
  8
0
  6
ByLayer
 62
  256
370
   -1
100
AcDbLine
 10
2.022542476654053
 20
1.469463109970093
 11
2.227516412734985
 21
1.134976267814636
  0
LINE
  5
1B6
100
AcDbEntity
  8
0
  6
ByLayer
 62
  256
370
   -1
100
AcDbLine
 10
1.767766952514648
 20
1.767766952514648
 11
2.022542476654053
 21
1.469463109970093
  0
LINE
  5
1B7
100
AcDbEntity
  8
0
  6
ByLayer
 62
  256
370
   -1
100
AcDbLine
 10
1.469463109970093
 20
2.022542476654053
 11
1.767766952514648
 21
1.767766952514648
  0
LINE
  5
1B8
100
AcDbEntity
  8
0
  6
ByLayer
 62
  256
370
   -1
100
AcDbLine
 10
1.134976267814636
 20
2.227516174316406
 11
1.469463109970093
 21
2.022542476654053
  0
LINE
  5
1B9
100
AcDbEntity
  8
0
  6
ByLayer
 62
  256
370
   -1
100
AcDbLine
 10
0.772542417049408
 20
2.377641201019287
 11
1.134976267814636
 21
2.227516174316406
  0
LINE
  5
1BA
100
AcDbEntity
  8
0
  6
ByLayer
 62
  256
370
   -1
100
AcDbLine
 10
0.391086220741272
 20
2.469220876693726
 11
0.772542417049408
 21
2.377641201019287
  0
LINE
  5
1BB
100
AcDbEntity
  8
0
  6
ByLayer
 62
  256
370
   -1
100
AcDbLine
 10
-1.22391895729379e-06
 20
28
 11
-1.092784742695585e-07
 21
2.5
  0
LINE
  5
1BC
100
AcDbEntity
  8
0
  6
ByLayer
 62
  256
370
   -1
100
AcDbLine
 10
-1.092784742695585e-07
 20
2.5
 11
0.391086220741272
 21
2.469220876693726
  0
ENDSEC
  0
SECTION
  2
OBJECTS
  0
DICTIONARY
  5
C
330
0
100
AcDbDictionary
281
    1
  3
ACAD_GROUP
350
D
  0
DICTIONARY
  5
D
330
C
100
AcDbDictionary
281
    1
  0
PLOTSETTINGS
  5
1BD
100
AcDbPlotSettings
  6
1x1
 40
0
 41
0
 42
0
 43
0
  0
ENDSEC
  0
EOF
