999
dxfrw 0.6.3
  0
SECTION
  2
HEADER
  9
$ACADVER
  1
AC1021
  9
$DWGCODEPAGE
  3
ANSI_1252
  9
$INSBASE
 10
0
 20
0
 30
0
  9
$EXTMIN
 10
-65.00001579512782
 20
-65.00001579510223
 30
0
  9
$EXTMAX
 10
65.00001579514642
 20
65.00001579515975
 30
0
  9
$LIMMIN
 10
0
 20
0
  9
$LIMMAX
 10
420
 20
297
  9
$ORTHOMODE
 70
    0
  9
$REGENMODE
 70
    1
  9
$FILLMODE
 70
    1
  9
$QTEXTMODE
 70
    0
  9
$MIRRTEXT
 70
    0
  9
$LTSCALE
 40
1
  9
$ATTMODE
 70
    0
  9
$TEXTSIZE
 40
2.5
  9
$TRACEWID
 40
15.68
  9
$TEXTSTYLE
  7
STANDARD
  9
$CLAYER
  8
0
  9
$CELTYPE
  6
BYLAYER
  9
$CECOLOR
 62
  256
  9
$CELTSCALE
 40
1
  9
$DISPSILH
 70
    0
  9
$DIMSCALE
 40
2.5
  9
$DIMASZ
 40
2.5
  9
$DIMEXO
 40
0.625
  9
$DIMDLI
 40
3.75
  9
$DIMRND
 40
0
  9
$DIMDLE
 40
0
  9
$DIMEXE
 40
1.25
  9
$DIMTP
 40
0
  9
$DIMTM
 40
0
  9
$DIMTXT
 40
2.5
  9
$DIMCEN
 40
2.5
  9
$DIMTSZ
 40
0
  9
$DIMTOL
 70
    0
  9
$DIMLIM
 70
    0
  9
$DIMTIH
 70
    0
  9
$DIMTOH
 70
    0
  9
$DIMSE1
 70
    0
  9
$DIMSE2
 70
    0
  9
$DIMTAD
 70
    1
  9
$DIMZIN
 70
    8
  9
$DIMBLK
  1

  9
$DIMASO
 70
    1
  9
$DIMSHO
 70
    1
  9
$DIMPOST
  1

  9
$DIMAPOST
  1

  9
$DIMALT
 70
    0
  9
$DIMALTD
 70
    3
  9
$DIMALTF
 40
0.03937
  9
$DIMLFAC
 40
1
  9
$DIMTOFL
 70
    1
  9
$DIMTVP
 40
0
  9
$DIMTIX
 70
    0
  9
$DIMSOXD
 70
    0
  9
$DIMSAH
 70
    0
  9
$DIMBLK1
  1

  9
$DIMBLK2
  1

  9
$DIMSTYLE
  2
Standard
  9
$DIMCLRD
 70
    0
  9
$DIMCLRE
 70
    0
  9
$DIMCLRT
 70
    0
  9
$DIMTFAC
 40
1
  9
$DIMGAP
 40
0.625
  9
$DIMJUST
 70
    0
  9
$DIMSD1
 70
    0
  9
$DIMSD2
 70
    0
  9
$DIMTOLJ
 70
    0
  9
$DIMTZIN
 70
    8
  9
$DIMALTZ
 70
    0
  9
$DIMALTTZ
 70
    0
  9
$DIMUPT
 70
    0
  9
$DIMDEC
 70
    2
  9
$DIMTDEC
 70
    2
  9
$DIMALTU
 70
    2
  9
$DIMALTTD
 70
    3
  9
$DIMTXSTY
  7
STANDARD
  9
$DIMAUNIT
 70
    0
  9
$DIMADEC
 70
    0
  9
$DIMALTRND
 40
0
  9
$DIMAZIN
 70
    0
  9
$DIMDSEP
 70
   44
  9
$DIMATFIT
 70
    3
  9
$DIMFRAC
 70
    0
  9
$DIMLDRBLK
  1
STANDARD
  9
$DIMLUNIT
 70
    2
  9
$DIMLWD
 70
   -2
  9
$DIMLWE
 70
   -2
  9
$DIMTMOVE
 70
    0
  9
$DIMFXL
 40
1
  9
$DIMFXLON
 70
    0
  9
$DIMJOGANG
 40
0.7854
  9
$DIMTFILL
 70
    0
  9
$DIMTFILLCLR
 70
    0
  9
$DIMARCSYM
 70
    0
  9
$DIMLTYPE
  6

  9
$DIMLTEX1
  6

  9
$DIMLTEX2
  6

  9
$LUNITS
 70
    2
  9
$LUPREC
 70
    4
  9
$SKETCHINC
 40
1
  9
$FILLETRAD
 40
0
  9
$AUNITS
 70
    0
  9
$AUPREC
 70
    2
  9
$MENU
  1
.
  9
$ELEVATION
 40
0
  9
$PELEVATION
 40
0
  9
$THICKNESS
 40
0
  9
$LIMCHECK
 70
    0
  9
$CHAMFERA
 40
0
  9
$CHAMFERB
 40
0
  9
$CHAMFERC
 40
0
  9
$CHAMFERD
 40
0
  9
$SKPOLY
 70
    0
  9
$USRTIMER
 70
    1
  9
$ANGBASE
 50
0
  9
$ANGDIR
 70
    0
  9
$PDMODE
 70
   34
  9
$PDSIZE
 40
0
  9
$PLINEWID
 40
0
  9
$SPLFRAME
 70
    0
  9
$SPLINETYPE
 70
    2
  9
$SPLINESEGS
 70
    8
  9
$HANDSEED
  5
20000
  9
$SURFTAB1
 70
    6
  9
$SURFTAB2
 70
    6
  9
$SURFTYPE
 70
    6
  9
$SURFU
 70
    6
  9
$SURFV
 70
    6
  9
$UCSBASE
  2

  9
$UCSNAME
  2

  9
$UCSORG
 10
0
 20
0
 30
0
  9
$UCSXDIR
 10
1
 20
0
 30
0
  9
$UCSYDIR
 10
0
 20
1
 30
0
  9
$UCSORTHOREF
  2

  9
$UCSORTHOVIEW
 70
    0
  9
$UCSORGTOP
 10
0
 20
0
 30
0
  9
$UCSORGBOTTOM
 10
0
 20
0
 30
0
  9
$UCSORGLEFT
 10
0
 20
0
 30
0
  9
$UCSORGRIGHT
 10
0
 20
0
 30
0
  9
$UCSORGFRONT
 10
0
 20
0
 30
0
  9
$UCSORGBACK
 10
0
 20
0
 30
0
  9
$PUCSBASE
  2

  9
$PUCSNAME
  2

  9
$PUCSORG
 10
0
 20
0
 30
0
  9
$PUCSXDIR
 10
1
 20
0
 30
0
  9
$PUCSYDIR
 10
0
 20
1
 30
0
  9
$PUCSORTHOREF
  2

  9
$PUCSORTHOVIEW
 70
    0
  9
$PUCSORGTOP
 10
0
 20
0
 30
0
  9
$PUCSORGBOTTOM
 10
0
 20
0
 30
0
  9
$PUCSORGLEFT
 10
0
 20
0
 30
0
  9
$PUCSORGRIGHT
 10
0
 20
0
 30
0
  9
$PUCSORGFRONT
 10
0
 20
0
 30
0
  9
$PUCSORGBACK
 10
0
 20
0
 30
0
  9
$USERI1
 70
    0
  9
$USERI2
 70
    0
  9
$USERI3
 70
    0
  9
$USERI4
 70
    0
  9
$USERI5
 70
    0
  9
$USERR1
 40
0
  9
$USERR2
 40
0
  9
$USERR3
 40
0
  9
$USERR4
 40
0
  9
$USERR5
 40
0
  9
$WORLDVIEW
 70
    1
  9
$SHADEDGE
 70
    3
  9
$SHADEDIF
 70
   70
  9
$TILEMODE
 70
    1
  9
$MAXACTVP
 70
   64
  9
$PINSBASE
 10
0
 20
0
 30
0
  9
$PLIMCHECK
 70
    0
  9
$PEXTMIN
 10
0
 20
0
 30
0
  9
$PEXTMAX
 10
0
 20
0
 30
0
  9
$SNAPSTYLE
 70
    0
  9
$PLIMMIN
 10
0
 20
0
  9
$PLIMMAX
 10
210
 20
297
  9
$UNITMODE
 70
    0
  9
$VISRETAIN
 70
    1
  9
$PLINEGEN
 70
    0
  9
$PSLTSCALE
 70
    1
  9
$TREEDEPTH
 70
 3020
  9
$CMLSTYLE
  2
Standard
  9
$CMLJUST
 70
    0
  9
$CMLSCALE
 40
20
  9
$PROXYGRAPHICS
 70
    1
  9
$MEASUREMENT
 70
    1
  9
$CELWEIGHT
370
   -1
  9
$ENDCAPS
280
    0
  9
$JOINSTYLE
280
    0
  9
$LWDISPLAY
290
    0
  9
$INSUNITS
 70
    4
  9
$HYPERLINKBASE
  1

  9
$STYLESHEET
  1

  9
$XEDIT
290
    1
  9
$CEPSNTYPE
380
    0
  9
$PSTYLEMODE
290
    1
  9
$EXTNAMES
290
    1
  9
$PSVPSCALE
 40
1
  9
$OLESTARTUP
290
    0
  9
$SORTENTS
280
  127
  9
$INDEXCTL
280
    0
  9
$HIDETEXT
280
    1
  9
$XCLIPFRAME
290
    0
  9
$HALOGAP
280
    0
  9
$OBSCOLOR
 70
  257
  9
$OBSLTYPE
280
    0
  9
$INTERSECTIONDISPLAY
280
    0
  9
$INTERSECTIONCOLOR
 70
  257
  9
$DIMASSOC
280
    1
  9
$PROJECTNAME
  1

  9
$CAMERADISPLAY
290
    0
  9
$LENSLENGTH
 40
50
  9
$CAMERAHEIGHT
 40
0
  9
$STEPSPERSEC
 40
2
  9
$STEPSIZE
 40
50
  9
$3DDWFPREC
 40
2
  9
$PSOLWIDTH
 40
5
  9
$PSOLHEIGHT
 40
80
  9
$LOFTANG1
 40
1.570796326794897
  9
$LOFTANG2
 40
1.570796326794897
  9
$LOFTMAG1
 40
0
  9
$LOFTMAG2
 40
0
  9
$LOFTPARAM
 70
    7
  9
$LOFTNORMALS
280
    1
  9
$LATITUDE
 40
1
  9
$LONGITUDE
 40
1
  9
$NORTHDIRECTION
 40
0
  9
$TIMEZONE
 70
-8000
  9
$LIGHTGLYPHDISPLAY
280
    1
  9
$TILEMODELIGHTSYNCH
280
    1
  9
$SOLIDHIST
280
    1
  9
$SHOWHIST
280
    1
  9
$DWFFRAME
280
    2
  9
$DGNFRAME
280
    0
  9
$REALWORLDSCALE
290
    1
  9
$INTERFERECOLOR
 62
    1
  9
$CSHADOW
280
    0
  9
$SHADOWPLANELOCATION
 40
0
  0
ENDSEC
  0
SECTION
  2
CLASSES
  0
ENDSEC
  0
SECTION
  2
TABLES
  0
TABLE
  2
VPORT
  5
8
330
0
100
AcDbSymbolTable
 70
    1
  0
VPORT
  5
31
330
2
100
AcDbSymbolTableRecord
100
AcDbViewportTableRecord
  2
*ACTIVE
 70
    0
 10
0
 20
0
 11
1
 21
1
 12
59.5769827499438
 22
33.30200574227628
 13
0
 23
0
 14
10
 24
10
 15
10
 25
10
 16
0
 26
0
 36
1
 17
0
 27
0
 37
0
 40
133.0552614748745
 41
1.788748564867968
 42
50
 43
0
 44
0
 50
0
 51
0
 71
    0
 72
  100
 73
    1
 74
    3
 75
    0
 76
    1
 77
    0
 78
    0
281
    0
 65
    1
110
0
120
0
130
0
111
1
121
0
131
0
112
0
122
1
132
0
 79
    0
146
0
348
10020
 60
    7
 61
    5
292
1
282
    1
141
0
142
0
 63
  250
421
3358443
  0
ENDTAB
  0
TABLE
  2
LTYPE
  5
5
330
0
100
AcDbSymbolTable
 70
    4
  0
LTYPE
  5
14
330
5
100
AcDbSymbolTableRecord
100
AcDbLinetypeTableRecord
  2
ByBlock
 70
    0
  3

 72
   65
 73
    0
 40
0
  0
LTYPE
  5
15
330
5
100
AcDbSymbolTableRecord
100
AcDbLinetypeTableRecord
  2
ByLayer
 70
    0
  3

 72
   65
 73
    0
 40
0
  0
LTYPE
  5
16
330
5
100
AcDbSymbolTableRecord
100
AcDbLinetypeTableRecord
  2
Continuous
 70
    0
  3
Solid line
 72
   65
 73
    0
 40
0
  0
LTYPE
  5
32
330
5
100
AcDbSymbolTableRecord
100
AcDbLinetypeTableRecord
  2
DOT
 70
    0
  3
Dot . . . . . . . . . . . . . . . . . . . . . .
 72
   65
 73
    2
 40
6.35
 49
0
 74
    0
 49
-6.35
 74
    0
  0
LTYPE
  5
33
330
5
100
AcDbSymbolTableRecord
100
AcDbLinetypeTableRecord
  2
DOTTINY
 70
    0
  3
Dot (.15x) .....................................
 72
   65
 73
    2
 40
0.9525
 49
0
 74
    0
 49
-0.9525
 74
    0
  0
LTYPE
  5
34
330
5
100
AcDbSymbolTableRecord
100
AcDbLinetypeTableRecord
  2
DOT2
 70
    0
  3
Dot (.5x) .....................................
 72
   65
 73
    2
 40
3.175
 49
0
 74
    0
 49
-3.175
 74
    0
  0
LTYPE
  5
35
330
5
100
AcDbSymbolTableRecord
100
AcDbLinetypeTableRecord
  2
DOTX2
 70
    0
  3
Dot (2x) .  .  .  .  .  .  .  .  .  .  .  .  .
 72
   65
 73
    2
 40
12.7
 49
0
 74
    0
 49
-12.7
 74
    0
  0
LTYPE
  5
36
330
5
100
AcDbSymbolTableRecord
100
AcDbLinetypeTableRecord
  2
DASHED
 70
    0
  3
Dashed _ _ _ _ _ _ _ _ _ _ _ _ _ _ _ _ _
 72
   65
 73
    2
 40
19.05
 49
12.7
 74
    0
 49
-6.35
 74
    0
  0
LTYPE
  5
37
330
5
100
AcDbSymbolTableRecord
100
AcDbLinetypeTableRecord
  2
DASHEDTINY
 70
    0
  3
Dashed (.15x) _ _ _ _ _ _ _ _ _ _ _ _ _ _ _ _ _
 72
   65
 73
    2
 40
2.8575
 49
1.905
 74
    0
 49
-0.9525
 74
    0
  0
LTYPE
  5
38
330
5
100
AcDbSymbolTableRecord
100
AcDbLinetypeTableRecord
  2
DASHED2
 70
    0
  3
Dashed (.5x) _ _ _ _ _ _ _ _ _ _ _ _ _ _ _ _ _
 72
   65
 73
    2
 40
9.524999999999999
 49
6.35
 74
    0
 49
-3.175
 74
    0
  0
LTYPE
  5
39
330
5
100
AcDbSymbolTableRecord
100
AcDbLinetypeTableRecord
  2
DASHEDX2
 70
    0
  3
Dashed (2x) ____  ____  ____  ____  ____  ___
 72
   65
 73
    2
 40
38.09999999999999
 49
25.4
 74
    0
 49
-12.7
 74
    0
  0
LTYPE
  5
3A
330
5
100
AcDbSymbolTableRecord
100
AcDbLinetypeTableRecord
  2
DASHDOT
 70
    0
  3
Dash dot __ . __ . __ . __ . __ . __ . __ . __
 72
   65
 73
    4
 40
25.4
 49
12.7
 74
    0
 49
-6.35
 74
    0
 49
0
 74
    0
 49
-6.35
 74
    0
  0
LTYPE
  5
3B
330
5
100
AcDbSymbolTableRecord
100
AcDbLinetypeTableRecord
  2
DASHDOTTINY
 70
    0
  3
Dash dot (.15x) _._._._._._._._._._._._._._._.
 72
   65
 73
    4
 40
3.81
 49
1.905
 74
    0
 49
-0.9525
 74
    0
 49
0
 74
    0
 49
-0.9525
 74
    0
  0
LTYPE
  5
3C
330
5
100
AcDbSymbolTableRecord
100
AcDbLinetypeTableRecord
  2
DASHDOT2
 70
    0
  3
Dash dot (.5x) _._._._._._._._._._._._._._._.
 72
   65
 73
    4
 40
12.7
 49
6.35
 74
    0
 49
-3.175
 74
    0
 49
0
 74
    0
 49
-3.175
 74
    0
  0
LTYPE
  5
3D
330
5
100
AcDbSymbolTableRecord
100
AcDbLinetypeTableRecord
  2
DASHDOTX2
 70
    0
  3
Dash dot (2x) ____  .  ____  .  ____  .  ___
 72
   65
 73
    4
 40
50.8
 49
25.4
 74
    0
 49
-12.7
 74
    0
 49
0
 74
    0
 49
-12.7
 74
    0
  0
LTYPE
  5
3E
330
5
100
AcDbSymbolTableRecord
100
AcDbLinetypeTableRecord
  2
DIVIDE
 70
    0
  3
Divide ____ . . ____ . . ____ . . ____ . . ____
 72
   65
 73
    6
 40
31.75
 49
12.7
 74
    0
 49
-6.35
 74
    0
 49
0
 74
    0
 49
-6.35
 74
    0
 49
0
 74
    0
 49
-6.35
 74
    0
  0
LTYPE
  5
3F
330
5
100
AcDbSymbolTableRecord
100
AcDbLinetypeTableRecord
  2
DIVIDETINY
 70
    0
  3
Divide (.15x) __..__..__..__..__..__..__..__.._
 72
   65
 73
    6
 40
4.7625
 49
1.905
 74
    0
 49
-0.9525
 74
    0
 49
0
 74
    0
 49
-0.9525
 74
    0
 49
0
 74
    0
 49
-0.9525
 74
    0
  0
LTYPE
  5
40
330
5
100
AcDbSymbolTableRecord
100
AcDbLinetypeTableRecord
  2
DIVIDE2
 70
    0
  3
Divide (.5x) __..__..__..__..__..__..__..__.._
 72
   65
 73
    6
 40
15.875
 49
6.35
 74
    0
 49
-3.175
 74
    0
 49
0
 74
    0
 49
-3.175
 74
    0
 49
0
 74
    0
 49
-3.175
 74
    0
  0
LTYPE
  5
41
330
5
100
AcDbSymbolTableRecord
100
AcDbLinetypeTableRecord
  2
DIVIDEX2
 70
    0
  3
Divide (2x) ________  .  .  ________  .  .  _
 72
   65
 73
    6
 40
63.5
 49
25.4
 74
    0
 49
-12.7
 74
    0
 49
0
 74
    0
 49
-12.7
 74
    0
 49
0
 74
    0
 49
-12.7
 74
    0
  0
LTYPE
  5
42
330
5
100
AcDbSymbolTableRecord
100
AcDbLinetypeTableRecord
  2
BORDER
 70
    0
  3
Border __ __ . __ __ . __ __ . __ __ . __ __ .
 72
   65
 73
    6
 40
44.45
 49
12.7
 74
    0
 49
-6.35
 74
    0
 49
12.7
 74
    0
 49
-6.35
 74
    0
 49
0
 74
    0
 49
-6.35
 74
    0
  0
LTYPE
  5
43
330
5
100
AcDbSymbolTableRecord
100
AcDbLinetypeTableRecord
  2
BORDERTINY
 70
    0
  3
Border (.15x) __.__.__.__.__.__.__.__.__.__.__.
 72
   65
 73
    6
 40
6.6675
 49
1.905
 74
    0
 49
-0.9525
 74
    0
 49
1.905
 74
    0
 49
-0.9525
 74
    0
 49
0
 74
    0
 49
-0.9525
 74
    0
  0
LTYPE
  5
44
330
5
100
AcDbSymbolTableRecord
100
AcDbLinetypeTableRecord
  2
BORDER2
 70
    0
  3
Border (.5x) __.__.__.__.__.__.__.__.__.__.__.
 72
   65
 73
    6
 40
22.225
 49
6.35
 74
    0
 49
-3.175
 74
    0
 49
6.35
 74
    0
 49
-3.175
 74
    0
 49
0
 74
    0
 49
-3.175
 74
    0
  0
LTYPE
  5
45
330
5
100
AcDbSymbolTableRecord
100
AcDbLinetypeTableRecord
  2
BORDERX2
 70
    0
  3
Border (2x) ____  ____  .  ____  ____  .  ___
 72
   65
 73
    6
 40
88.89999999999999
 49
25.4
 74
    0
 49
-12.7
 74
    0
 49
25.4
 74
    0
 49
-12.7
 74
    0
 49
0
 74
    0
 49
-12.7
 74
    0
  0
LTYPE
  5
46
330
5
100
AcDbSymbolTableRecord
100
AcDbLinetypeTableRecord
  2
CENTER
 70
    0
  3
Center ____ _ ____ _ ____ _ ____ _ ____ _ ____
 72
   65
 73
    4
 40
50.8
 49
31.75
 74
    0
 49
-6.35
 74
    0
 49
6.35
 74
    0
 49
-6.35
 74
    0
  0
LTYPE
  5
47
330
5
100
AcDbSymbolTableRecord
100
AcDbLinetypeTableRecord
  2
CENTERTINY
 70
    0
  3
Center (.15x) ___ _ ___ _ ___ _ ___ _ ___ _ ___
 72
   65
 73
    4
 40
7.619999999999999
 49
4.7625
 74
    0
 49
-0.9525
 74
    0
 49
0.9525
 74
    0
 49
-0.9525
 74
    0
  0
LTYPE
  5
48
330
5
100
AcDbSymbolTableRecord
100
AcDbLinetypeTableRecord
  2
CENTER2
 70
    0
  3
Center (.5x) ___ _ ___ _ ___ _ ___ _ ___ _ ___
 72
   65
 73
    4
 40
28.575
 49
19.05
 74
    0
 49
-3.175
 74
    0
 49
3.175
 74
    0
 49
-3.175
 74
    0
  0
LTYPE
  5
49
330
5
100
AcDbSymbolTableRecord
100
AcDbLinetypeTableRecord
  2
CENTERX2
 70
    0
  3
Center (2x) ________  __  ________  __  _____
 72
   65
 73
    4
 40
101.6
 49
63.5
 74
    0
 49
-12.7
 74
    0
 49
12.7
 74
    0
 49
-12.7
 74
    0
  0
ENDTAB
  0
TABLE
  2
LAYER
  5
2
330
0
100
AcDbSymbolTable
 70
    1
  0
LAYER
  5
10
330
2
100
AcDbSymbolTableRecord
100
AcDbLayerTableRecord
  2
0
 70
    0
 62
    7
  6
CONTINUOUS
370
    0
390
F
  0
ENDTAB
  0
TABLE
  2
STYLE
  5
3
330
0
100
AcDbSymbolTable
 70
    3
  0
STYLE
  5
4A
330
2
100
AcDbSymbolTableRecord
100
AcDbTextStyleTableRecord
  2
Standard
 70
    0
 40
0
 41
1
 50
0
 71
    0
 42
1
  3
txt
  4

  0
ENDTAB
  0
TABLE
  2
VIEW
  5
6
330
0
100
AcDbSymbolTable
 70
    0
  0
ENDTAB
  0
TABLE
  2
UCS
  5
7
330
0
100
AcDbSymbolTable
 70
    0
  0
ENDTAB
  0
TABLE
  2
APPID
  5
9
330
0
100
AcDbSymbolTable
 70
    1
  0
APPID
  5
12
330
9
100
AcDbSymbolTableRecord
100
AcDbRegAppTableRecord
  2
ACAD
 70
    0
  0
APPID
  5
4B
330
9
100
AcDbSymbolTableRecord
100
AcDbRegAppTableRecord
  2
LibreCad
 70
    0
  0
ENDTAB
  0
TABLE
  2
DIMSTYLE
  5
A
330
0
100
AcDbSymbolTable
 70
    1
100
AcDbDimStyleTable
 71
    1
  0
DIMSTYLE
105
4C
330
A
100
AcDbSymbolTableRecord
100
AcDbDimStyleTableRecord
  2
Standard
 70
    0
 40
1
 41
2.5
 42
0.625
 43
0.38
 44
1.25
 45
0
 46
0
 47
0
 48
0
 49
1
140
2.5
141
0.09
142
2.5
143
25.4
144
1
145
0
146
1
147
0.625
148
0
 71
    0
 72
    0
 73
    0
 74
    1
 75
    0
 76
    0
 77
    0
 78
    1
 79
    0
170
    0
171
    2
172
    0
173
    0
174
    0
175
    0
176
    0
177
    0
178
    0
179
    0
271
    2
272
    4
273
    2
274
    2
275
    0
276
    0
277
    2
278
    0
279
    0
280
    0
281
    0
282
    0
283
    1
284
    0
285
    0
286
    0
288
    0
289
    3
340
standard
341

371
   -2
372
   -2
  0
ENDTAB
  0
TABLE
  2
BLOCK_RECORD
  5
1
330
0
100
AcDbSymbolTable
 70
    2
  0
BLOCK_RECORD
  5
1F
330
1
100
AcDbSymbolTableRecord
100
AcDbBlockTableRecord
  2
*Model_Space
 70
    0
280
    1
281
    0
  0
BLOCK_RECORD
  5
1E
330
1
100
AcDbSymbolTableRecord
100
AcDbBlockTableRecord
  2
*Paper_Space
 70
    0
280
    1
281
    0
  0
ENDTAB
  0
ENDSEC
  0
SECTION
  2
BLOCKS
  0
BLOCK
  5
20
330
1F
100
AcDbEntity
  8
0
100
AcDbBlockBegin
  2
*Model_Space
 70
    0
 10
0
 20
0
 30
0
  3
*Model_Space
  1

  0
ENDBLK
  5
21
330
1F
100
AcDbEntity
  8
0
100
AcDbBlockEnd
  0
BLOCK
  5
1C
330
1B
100
AcDbEntity
  8
0
100
AcDbBlockBegin
  2
*Paper_Space
 70
    0
 10
0
 20
0
 30
0
  3
*Paper_Space
  1

  0
ENDBLK
  5
1D
330
1F
100
AcDbEntity
  8
0
100
AcDbBlockEnd
  0
ENDSEC
  0
SECTION
  2
ENTITIES
  0
LINE
  5
4D
100
AcDbEntity
  8
0
  6
ByLayer
 62
  256
370
   -1
100
AcDbLine
 10
36.0964241027832
 20
8.119093894958496
 11
35.73925399780273
 21
9.576305389404297
  0
LINE
  5
4E
100
AcDbEntity
  8
0
  6
ByLayer
 62
  256
370
   -1
100
AcDbLine
 10
34.16456985473633
 20
7.601455688476562
 11
36.0964241027832
 21
8.119093894958496
  0
LINE
  5
4F
100
AcDbEntity
  8
0
  6
ByLayer
 62
  256
370
   -1
100
AcDbLine
 10
38.05277633666992
 20
4.97205114364624
 11
36.0964241027832
 21
8.119093894958496
  0
ARC
  5
50
100
AcDbEntity
  8
0
  6
ByLayer
 62
  256
370
   -1
100
AcDbCircle
 10
38.90204620361328
 20
5.5
 40
0.9999988675117493
100
AcDbArc
 50
-148.1331024169922
 51
-89.99977874755859
  0
ARC
  5
51
100
AcDbEntity
  8
0
  6
ByLayer
 62
  256
370
   -1
100
AcDbCircle
 10
-0.0002831220626831055
 20
-3.119930624961853e-05
 40
35.00028610229492
100
AcDbArc
 50
5.107354809297249e-05
 51
12.54366683959961
  0
LINE
  5
52
100
AcDbEntity
  8
0
  6
ByLayer
 62
  256
370
   -1
100
AcDbLine
 10
38.90205001831055
 20
4.500001907348633
 11
45.7509765625
 21
4.500000953674316
  0
LINE
  5
53
100
AcDbEntity
  8
0
  6
ByLayer
 62
  256
370
   -1
100
AcDbLine
 10
52.59990310668945
 20
4.500000953674316
 11
45.7509765625
 21
4.500000953674316
  0
ARC
  5
54
100
AcDbEntity
  8
0
  6
ByLayer
 62
  256
370
   -1
100
AcDbCircle
 10
52.59989929199219
 20
6.5
 40
1.999999165534973
100
AcDbArc
 50
-89.99977874755859
 51
7.044534206390381
  0
ARC
  5
55
100
AcDbEntity
  8
0
  6
ByLayer
 62
  256
370
   -1
100
AcDbCircle
 10
-2.235174179077148e-05
 20
-0.0001047737896442413
 40
65.00003814697266
100
AcDbArc
 50
9.235526522388682e-05
 51
7.044664859771729
  0
ARC
  5
56
100
AcDbEntity
  8
0
  6
ByLayer
 62
  256
370
   -1
100
AcDbCircle
 10
-0.001136213541030884
 20
-0.0001909211277961731
 40
55.00114822387695
100
AcDbArc
 50
7.04462718963623
 51
14.9998893737793
  0
ARC
  5
57
100
AcDbEntity
  8
0
  6
ByLayer
 62
  256
370
   -1
100
AcDbCircle
 10
0.0004395842552185059
 20
0.0001471489667892456
 40
64.99954986572266
100
AcDbArc
 50
7.044494152069092
 51
14.99997806549072
  0
LINE
  5
58
100
AcDbEntity
  8
0
  6
ByLayer
 62
  256
370
   -1
100
AcDbLine
 10
35.31996536254883
 20
11.01687335968018
 11
35.73925399780273
 21
9.576306343078613
  0
LINE
  5
59
100
AcDbEntity
  8
0
  6
ByLayer
 62
  256
370
   -1
100
AcDbLine
 10
33.38811111450195
 20
10.49923419952393
 11
35.31996536254883
 21
11.01687335968018
  0
ARC
  5
5A
100
AcDbEntity
  8
0
  6
ByLayer
 62
  256
370
   -1
100
AcDbCircle
 10
-0.0002601141459308565
 20
-0.0001170659306808375
 40
35.00028610229492
100
AcDbArc
 50
17.45634269714355
 51
29.99995803833008
  0
LINE
  5
5B
100
AcDbEntity
  8
0
  6
ByLayer
 62
  256
370
   -1
100
AcDbLine
 10
35.44069290161133
 20
14.72046947479248
 11
35.31996536254883
 21
11.01687335968018
  0
ARC
  5
5C
100
AcDbEntity
  8
0
  6
ByLayer
 62
  256
370
   -1
100
AcDbCircle
 10
36.44015884399414
 20
14.68788909912109
 40
0.9999988675117493
100
AcDbArc
 50
119.9998550415039
 51
178.1331024169922
  0
LINE
  5
5D
100
AcDbEntity
  8
0
  6
ByLayer
 62
  256
370
   -1
100
AcDbLine
 10
35.94016265869141
 20
15.55391502380371
 11
41.87150192260742
 21
18.97837829589844
  0
LINE
  5
5E
100
AcDbEntity
  8
0
  6
ByLayer
 62
  256
370
   -1
100
AcDbLine
 10
47.80284881591797
 20
22.4028434753418
 11
41.87150192260742
 21
18.97837829589844
  0
ARC
  5
5F
100
AcDbEntity
  8
0
  6
ByLayer
 62
  256
370
   -1
100
AcDbCircle
 10
48.80284881591797
 20
20.67079162597656
 40
1.999999165534973
100
AcDbArc
 50
22.95547485351562
 51
119.9998092651367
  0
ARC
  5
60
100
AcDbEntity
  8
0
  6
ByLayer
 62
  256
370
   -1
100
AcDbCircle
 10
-0.00107877398841083
 20
-0.0004052887088619173
 40
55.00114822387695
100
AcDbArc
 50
15.00012111663818
 51
22.95538330078125
  0
ARC
  5
61
100
AcDbEntity
  8
0
  6
ByLayer
 62
  256
370
   -1
100
AcDbCircle
 10
0.0004549419973045588
 20
8.983325096778572e-05
 40
64.99954986572266
100
AcDbArc
 50
15.00003242492676
 51
22.95551681518555
  0
ARC
  5
62
100
AcDbEntity
  8
0
  6
ByLayer
 62
  256
370
   -1
100
AcDbCircle
 10
-7.106771954568103e-05
 20
7.703664596192539e-05
 40
65.00003814697266
100
AcDbArc
 50
22.95534515380859
 51
29.99991798400879
  0
ARC
  5
63
100
AcDbEntity
  8
0
  6
ByLayer
 62
  256
370
   -1
100
AcDbCircle
 10
-0.0002295912272529677
 20
-0.0001685804454609752
 40
35.00028610229492
100
AcDbArc
 50
30.00006294250488
 51
42.54367446899414
  0
LINE
  5
64
100
AcDbEntity
  8
0
  6
ByLayer
 62
  256
370
   -1
100
AcDbLine
 10
25.78665351867676
 20
23.66534233093262
 11
27.20086860656738
 21
25.07955551147461
  0
LINE
  5
65
100
AcDbEntity
  8
0
  6
ByLayer
 62
  256
370
   -1
100
AcDbLine
 10
27.20086860656738
 20
25.07955551147461
 11
26.16294479370117
 21
26.16295433044434
  0
LINE
  5
66
100
AcDbEntity
  8
0
  6
ByLayer
 62
  256
370
   -1
100
AcDbLine
 10
25.07954597473145
 20
27.20087814331055
 11
26.16294479370117
 21
26.16295623779297
  0
LINE
  5
67
100
AcDbEntity
  8
0
  6
ByLayer
 62
  256
370
   -1
100
AcDbLine
 10
23.66533088684082
 20
25.78666305541992
 11
25.07954597473145
 21
27.20087814331055
  0
ARC
  5
68
100
AcDbEntity
  8
0
  6
ByLayer
 62
  256
370
   -1
100
AcDbCircle
 10
-0.0001667324686422944
 20
-0.000231439174967818
 40
35.00028610229492
100
AcDbArc
 50
47.45634460449219
 51
59.9999656677246
  0
LINE
  5
69
100
AcDbEntity
  8
0
  6
ByLayer
 62
  256
370
   -1
100
AcDbLine
 10
23.33230209350586
 20
30.46865081787109
 11
25.07954597473145
 21
27.20087814331055
  0
ARC
  5
6A
100
AcDbEntity
  8
0
  6
ByLayer
 62
  256
370
   -1
100
AcDbCircle
 10
24.21415328979492
 20
30.9401683807373
 40
0.9999988675117493
100
AcDbArc
 50
149.9998626708984
 51
-151.8668518066406
  0
LINE
  5
6B
100
AcDbEntity
  8
0
  6
ByLayer
 62
  256
370
   -1
100
AcDbLine
 10
23.3481330871582
 20
31.4401683807373
 11
26.77259254455566
 21
37.37151336669922
  0
LINE
  5
6C
100
AcDbEntity
  8
0
  6
ByLayer
 62
  256
370
   -1
100
AcDbLine
 10
30.19705581665039
 20
43.30286026000977
 11
26.77259254455566
 21
37.37151336669922
  0
ARC
  5
6D
100
AcDbEntity
  8
0
  6
ByLayer
 62
  256
370
   -1
100
AcDbCircle
 10
31.92910575866699
 20
42.30286026000977
 40
1.999999165534973
100
AcDbArc
 50
52.95541763305664
 51
149.9999084472656
  0
ARC
  5
6E
100
AcDbEntity
  8
0
  6
ByLayer
 62
  256
370
   -1
100
AcDbCircle
 10
-0.0007316011469811201
 20
-0.0008903773268684745
 40
55.00114822387695
100
AcDbArc
 50
45.0001335144043
 51
52.95539474487305
  0
ARC
  5
6F
100
AcDbEntity
  8
0
  6
ByLayer
 62
  256
370
   -1
100
AcDbCircle
 10
-0.0008885291172191501
 20
-0.0007334493566304445
 40
55.00114822387695
100
AcDbArc
 50
37.04462814331055
 51
44.99989700317383
  0
ARC
  5
70
100
AcDbEntity
  8
0
  6
ByLayer
 62
  256
370
   -1
100
AcDbCircle
 10
42.30284881591797
 20
31.92912101745605
 40
1.999999165534973
100
AcDbArc
 50
-59.99980926513672
 51
37.04458236694336
  0
LINE
  5
71
100
AcDbEntity
  8
0
  6
ByLayer
 62
  256
370
   -1
100
AcDbLine
 10
43.30284881591797
 20
30.19707298278809
 11
37.37150192260742
 21
26.77260780334473
  0
LINE
  5
72
100
AcDbEntity
  8
0
  6
ByLayer
 62
  256
370
   -1
100
AcDbLine
 10
31.44016075134277
 20
23.34814453125
 11
37.37150192260742
 21
26.77260780334473
  0
ARC
  5
73
100
AcDbEntity
  8
0
  6
ByLayer
 62
  256
370
   -1
100
AcDbCircle
 10
30.94015884399414
 20
24.21416664123535
 40
0.9999988675117493
100
AcDbArc
 50
-118.1331787109375
 51
-59.99975585937501
  0
LINE
  5
74
100
AcDbEntity
  8
0
  6
ByLayer
 62
  256
370
   -1
100
AcDbLine
 10
30.46864128112793
 20
23.33231353759766
 11
27.20086860656738
 21
25.07955551147461
  0
ARC
  5
75
100
AcDbEntity
  8
0
  6
ByLayer
 62
  256
370
   -1
100
AcDbCircle
 10
3.302973709651269e-05
 20
-0.0001019126284518279
 40
65.00003814697266
100
AcDbArc
 50
30.00009918212891
 51
37.04467391967773
  0
ARC
  5
76
100
AcDbEntity
  8
0
  6
ByLayer
 62
  256
370
   -1
100
AcDbCircle
 10
0.0003071165701840073
 20
0.000347226916346699
 40
64.99954986572266
100
AcDbArc
 50
37.04450225830078
 51
44.99998474121094
  0
ARC
  5
77
100
AcDbEntity
  8
0
  6
ByLayer
 62
  256
370
   -1
100
AcDbCircle
 10
0.0003490746312309057
 20
0.0003052689135074615
 40
64.99954986572266
100
AcDbArc
 50
45.00004196166992
 51
52.95552444458008
  0
ARC
  5
78
100
AcDbEntity
  8
0
  6
ByLayer
 62
  256
370
   -1
100
AcDbCircle
 10
-0.0001000647826003842
 20
3.118181848549284e-05
 40
65.00003814697266
100
AcDbArc
 50
52.95535278320312
 51
59.99993133544923
  0
ARC
  5
79
100
AcDbEntity
  8
0
  6
ByLayer
 62
  256
370
   -1
100
AcDbCircle
 10
-0.000114541566290427
 20
-0.0002607905771583319
 40
35.00028610229492
100
AcDbArc
 50
60.00006484985352
 51
72.54368591308594
  0
LINE
  5
7A
100
AcDbEntity
  8
0
  6
ByLayer
 62
  256
370
   -1
100
AcDbLine
 10
10.49922180175781
 20
33.38811874389648
 11
11.01686000823975
 21
35.31997299194336
  0
LINE
  5
7B
100
AcDbEntity
  8
0
  6
ByLayer
 62
  256
370
   -1
100
AcDbLine
 10
11.01686000823975
 20
35.31997299194336
 11
9.576292037963867
 21
35.7392578125
  0
LINE
  5
7C
100
AcDbEntity
  8
0
  6
ByLayer
 62
  256
370
   -1
100
AcDbLine
 10
8.11907958984375
 20
36.09642791748047
 11
9.576292037963867
 21
35.7392578125
  0
LINE
  5
7D
100
AcDbEntity
  8
0
  6
ByLayer
 62
  256
370
   -1
100
AcDbLine
 10
7.601442813873291
 20
34.16457366943359
 11
8.11907958984375
 21
36.09642791748047
  0
ARC
  5
7E
100
AcDbEntity
  8
0
  6
ByLayer
 62
  256
370
   -1
100
AcDbCircle
 10
-2.867492548830342e-05
 20
-0.00028379843570292
 40
35.00028610229492
100
AcDbArc
 50
77.45635986328125
 51
89.99996948242188
  0
LINE
  5
7F
100
AcDbEntity
  8
0
  6
ByLayer
 62
  256
370
   -1
100
AcDbLine
 10
4.972034931182861
 20
38.05278015136719
 11
8.11907958984375
 21
36.09642791748047
  0
ARC
  5
80
100
AcDbEntity
  8
0
  6
ByLayer
 62
  256
370
   -1
100
AcDbCircle
 10
5.499983310699463
 20
38.90205001831055
 40
0.9999988675117493
100
AcDbArc
 50
179.9997863769531
 51
-121.8669052124023
  0
LINE
  5
81
100
AcDbEntity
  8
0
  6
ByLayer
 62
  256
370
   -1
100
AcDbLine
 10
4.499983787536621
 20
38.90205383300781
 11
4.49998140335083
 21
45.7509765625
  0
LINE
  5
82
100
AcDbEntity
  8
0
  6
ByLayer
 62
  256
370
   -1
100
AcDbLine
 10
4.499979496002197
 20
52.59990692138672
 11
4.49998140335083
 21
45.7509765625
  0
ARC
  5
83
100
AcDbEntity
  8
0
  6
ByLayer
 62
  256
370
   -1
100
AcDbCircle
 10
6.499979496002197
 20
52.59990692138672
 40
1.999999165534973
100
AcDbArc
 50
82.95549774169922
 51
179.9997863769531
  0
ARC
  5
84
100
AcDbEntity
  8
0
  6
ByLayer
 62
  256
370
   -1
100
AcDbCircle
 10
-0.0001883963122963905
 20
-0.001136890146881342
 40
55.00114822387695
100
AcDbArc
 50
75.00012969970703
 51
82.95539855957031
  0
ARC
  5
85
100
AcDbEntity
  8
0
  6
ByLayer
 62
  256
370
   -1
100
AcDbCircle
 10
-0.0004027638933621347
 20
-0.001079450477845967
 40
55.00114822387695
100
AcDbArc
 50
67.04463958740234
 51
74.99990844726562
  0
ARC
  5
86
100
AcDbEntity
  8
0
  6
ByLayer
 62
  256
370
   -1
100
AcDbCircle
 10
20.6707706451416
 20
48.8028564453125
 40
1.999999165534973
100
AcDbArc
 50
-29.99971389770509
 51
67.04452514648438
  0
LINE
  5
87
100
AcDbEntity
  8
0
  6
ByLayer
 62
  256
370
   -1
100
AcDbLine
 10
22.40282249450684
 20
47.80286026000977
 11
18.97836112976074
 21
41.87151336669922
  0
LINE
  5
88
100
AcDbEntity
  8
0
  6
ByLayer
 62
  256
370
   -1
100
AcDbLine
 10
15.55389976501465
 20
35.9401741027832
 11
18.97836112976074
 21
41.87151336669922
  0
ARC
  5
89
100
AcDbEntity
  8
0
  6
ByLayer
 62
  256
370
   -1
100
AcDbCircle
 10
14.68787384033203
 20
36.44016647338867
 40
0.9999988675117493
100
AcDbArc
 50
-88.13310241699219
 51
-29.9996166229248
  0
LINE
  5
8A
100
AcDbEntity
  8
0
  6
ByLayer
 62
  256
370
   -1
100
AcDbLine
 10
14.72045516967773
 20
35.44069671630859
 11
11.01686000823975
 21
35.31997299194336
  0
ARC
  5
8B
100
AcDbEntity
  8
0
  6
ByLayer
 62
  256
370
   -1
100
AcDbCircle
 10
7.95609230408445e-05
 20
-7.174405618570745e-05
 40
65.00003814697266
100
AcDbArc
 50
60.00010299682617
 51
67.044677734375
  0
ARC
  5
8C
100
AcDbEntity
  8
0
  6
ByLayer
 62
  256
370
   -1
100
AcDbCircle
 10
9.235725156031549e-05
 20
0.0004542656533885747
 40
64.99954986572266
100
AcDbArc
 50
67.04450988769531
 51
75
  0
ARC
  5
8D
100
AcDbEntity
  8
0
  6
ByLayer
 62
  256
370
   -1
100
AcDbCircle
 10
0.0001496729819336906
 20
0.0004389079986140132
 40
64.99954986572266
100
AcDbArc
 50
75.00004577636719
 51
82.95553588867188
  0
ARC
  5
8E
100
AcDbEntity
  8
0
  6
ByLayer
 62
  256
370
   -1
100
AcDbCircle
 10
-0.0001022495416691527
 20
-2.302815300936345e-05
 40
65.00003814697266
100
AcDbArc
 50
82.95536804199219
 51
89.99993896484375
  0
ARC
  5
8F
100
AcDbEntity
  8
0
  6
ByLayer
 62
  256
370
   -1
100
AcDbCircle
 10
3.119941902696155e-05
 20
-0.0002831220626831055
 40
35.00028610229492
100
AcDbArc
 50
90.00006103515625
 51
102.5436859130859
  0
LINE
  5
90
100
AcDbEntity
  8
0
  6
ByLayer
 62
  256
370
   -1
100
AcDbLine
 10
-7.60146951675415
 20
34.16456604003906
 11
-8.119109153747559
 21
36.09642028808594
  0
LINE
  5
91
100
AcDbEntity
  8
0
  6
ByLayer
 62
  256
370
   -1
100
AcDbLine
 10
-8.119109153747559
 20
36.09642028808594
 11
-9.576319694519043
 21
35.73925018310547
  0
LINE
  5
92
100
AcDbEntity
  8
0
  6
ByLayer
 62
  256
370
   -1
100
AcDbLine
 10
-11.01688766479492
 20
35.31996154785156
 11
-9.576320648193359
 21
35.73925018310547
  0
LINE
  5
93
100
AcDbEntity
  8
0
  6
ByLayer
 62
  256
370
   -1
100
AcDbLine
 10
-10.49924755096436
 20
33.38810729980469
 11
-11.01688766479492
 21
35.31996154785156
  0
ARC
  5
94
100
AcDbEntity
  8
0
  6
ByLayer
 62
  256
370
   -1
100
AcDbCircle
 10
0.0001170660398202017
 20
-0.0002601140877231956
 40
35.00028610229492
100
AcDbArc
 50
107.4563598632812
 51
119.9999694824219
  0
LINE
  5
95
100
AcDbEntity
  8
0
  6
ByLayer
 62
  256
370
   -1
100
AcDbLine
 10
-14.72048377990723
 20
35.4406852722168
 11
-11.01688766479492
 21
35.31996154785156
  0
ARC
  5
96
100
AcDbEntity
  8
0
  6
ByLayer
 62
  256
370
   -1
100
AcDbCircle
 10
-14.68790435791016
 20
36.44015121459961
 40
0.9999988675117493
100
AcDbArc
 50
-150.0001220703125
 51
-91.86683654785156
  0
LINE
  5
97
100
AcDbEntity
  8
0
  6
ByLayer
 62
  256
370
   -1
100
AcDbLine
 10
-15.55392932891846
 20
35.94015502929688
 11
-18.97839546203613
 21
41.87149429321289
  0
LINE
  5
98
100
AcDbEntity
  8
0
  6
ByLayer
 62
  256
370
   -1
100
AcDbLine
 10
-22.40286254882812
 20
47.8028450012207
 11
-18.97839546203613
 21
41.87149429321289
  0
ARC
  5
99
100
AcDbEntity
  8
0
  6
ByLayer
 62
  256
370
   -1
100
AcDbCircle
 10
-20.67081260681152
 20
48.80284118652344
 40
1.999999165534973
100
AcDbArc
 50
112.9554748535156
 51
-150.0001525878906
  0
ARC
  5
9A
100
AcDbEntity
  8
0
  6
ByLayer
 62
  256
370
   -1
100
AcDbCircle
 10
0.0004052891454193741
 20
-0.001078773871995509
 40
55.00114822387695
100
AcDbArc
 50
105.0001373291016
 51
112.9554061889648
  0
ARC
  5
9B
100
AcDbEntity
  8
0
  6
ByLayer
 62
  256
370
   -1
100
AcDbCircle
 10
0.0001909215789055452
 20
-0.001136213424615562
 40
55.00114822387695
100
AcDbArc
 50
97.04463958740234
 51
104.9999084472656
  0
ARC
  5
9C
100
AcDbEntity
  8
0
  6
ByLayer
 62
  256
370
   -1
100
AcDbCircle
 10
-6.500020980834961
 20
52.59989547729492
 40
1.999999165534973
100
AcDbArc
 50
0.0003201652143616229
 51
97.0445556640625
  0
LINE
  5
9D
100
AcDbEntity
  8
0
  6
ByLayer
 62
  256
370
   -1
100
AcDbLine
 10
-4.500021457672119
 20
52.59990310668945
 11
-4.500019073486328
 21
45.7509765625
  0
LINE
  5
9E
100
AcDbEntity
  8
0
  6
ByLayer
 62
  256
370
   -1
100
AcDbLine
 10
-4.500017642974854
 20
38.90205001831055
 11
-4.500019073486328
 21
45.7509765625
  0
ARC
  5
9F
100
AcDbEntity
  8
0
  6
ByLayer
 62
  256
370
   -1
100
AcDbCircle
 10
-5.500015735626221
 20
38.90204620361328
 40
0.9999988675117493
100
AcDbArc
 50
-58.13310241699219
 51
0.0004268873308319598
  0
LINE
  5
A0
100
AcDbEntity
  8
0
  6
ByLayer
 62
  256
370
   -1
100
AcDbLine
 10
-4.972066879272461
 20
38.05277252197266
 11
-8.119109153747559
 21
36.09642028808594
  0
ARC
  5
A1
100
AcDbEntity
  8
0
  6
ByLayer
 62
  256
370
   -1
100
AcDbCircle
 10
0.0001047737969201989
 20
-2.23516999540152e-05
 40
65.00003814697266
100
AcDbArc
 50
90.00010681152344
 51
97.04468536376953
  0
ARC
  5
A2
100
AcDbEntity
  8
0
  6
ByLayer
 62
  256
370
   -1
100
AcDbCircle
 10
-0.0001471491414122283
 20
0.0004395841970108449
 40
64.99954986572266
100
AcDbArc
 50
97.04450988769531
 51
105
  0
ARC
  5
A3
100
AcDbEntity
  8
0
  6
ByLayer
 62
  256
370
   -1
100
AcDbCircle
 10
-8.983343286672607e-05
 20
0.0004549419682007283
 40
64.99954986572266
100
AcDbArc
 50
105.0000534057617
 51
112.9555435180664
  0
ARC
  5
A4
100
AcDbEntity
  8
0
  6
ByLayer
 62
  256
370
   -1
100
AcDbCircle
 10
-7.703661685809493e-05
 20
-7.106774864951149e-05
 40
65.00003814697266
100
AcDbArc
 50
112.9553604125977
 51
119.9999465942383
  0
ARC
  5
A5
100
AcDbEntity
  8
0
  6
ByLayer
 62
  256
370
   -1
100
AcDbCircle
 10
0.000168580561876297
 20
-0.0002295911544933915
 40
35.00028610229492
100
AcDbArc
 50
120.0000762939453
 51
132.543701171875
  0
LINE
  5
A6
100
AcDbEntity
  8
0
  6
ByLayer
 62
  256
370
   -1
100
AcDbLine
 10
-23.66535377502441
 20
25.78664588928223
 11
-25.07956886291504
 21
27.20086097717285
  0
LINE
  5
A7
100
AcDbEntity
  8
0
  6
ByLayer
 62
  256
370
   -1
100
AcDbLine
 10
-25.07956886291504
 20
27.20086097717285
 11
-26.16296577453613
 21
26.16293716430664
  0
LINE
  5
A8
100
AcDbEntity
  8
0
  6
ByLayer
 62
  256
370
   -1
100
AcDbLine
 10
-27.20088958740234
 20
25.07953643798828
 11
-26.16296768188477
 21
26.16293525695801
  0
LINE
  5
A9
100
AcDbEntity
  8
0
  6
ByLayer
 62
  256
370
   -1
100
AcDbLine
 10
-25.78667449951172
 20
23.66532325744629
 11
-27.20088958740234
 21
25.07953643798828
  0
ARC
  5
AA
100
AcDbEntity
  8
0
  6
ByLayer
 62
  256
370
   -1
100
AcDbCircle
 10
0.0002314392477273941
 20
-0.000166732381330803
 40
35.00028610229492
100
AcDbArc
 50
137.4563751220703
 51
150
  0
LINE
  5
AB
100
AcDbEntity
  8
0
  6
ByLayer
 62
  256
370
   -1
100
AcDbLine
 10
-30.46866226196289
 20
23.33229064941406
 11
-27.20088958740234
 21
25.07953643798828
  0
ARC
  5
AC
100
AcDbEntity
  8
0
  6
ByLayer
 62
  256
370
   -1
100
AcDbCircle
 10
-30.94017791748047
 20
24.21414566040039
 40
0.9999988675117493
100
AcDbArc
 50
-120.0000762939453
 51
-61.86695861816406
  0
LINE
  5
AD
100
AcDbEntity
  8
0
  6
ByLayer
 62
  256
370
   -1
100
AcDbLine
 10
-31.4401798248291
 20
23.34812164306641
 11
-37.37152481079102
 21
26.7725772857666
  0
LINE
  5
AE
100
AcDbEntity
  8
0
  6
ByLayer
 62
  256
370
   -1
100
AcDbLine
 10
-43.30287170410156
 20
30.19703674316406
 11
-37.37152481079102
 21
26.7725772857666
  0
ARC
  5
AF
100
AcDbEntity
  8
0
  6
ByLayer
 62
  256
370
   -1
100
AcDbCircle
 10
-42.30287170410156
 20
31.92909049987793
 40
1.999999165534973
100
AcDbArc
 50
142.9554901123047
 51
-120.000129699707
  0
ARC
  5
B0
100
AcDbEntity
  8
0
  6
ByLayer
 62
  256
370
   -1
100
AcDbCircle
 10
0.00089037767611444
 20
-0.0007316007977351546
 40
55.00114822387695
100
AcDbArc
 50
135.0001525878906
 51
142.9554138183594
  0
ARC
  5
B1
100
AcDbEntity
  8
0
  6
ByLayer
 62
  256
370
   -1
100
AcDbCircle
 10
0.0007334498222917318
 20
-0.0008885288261808455
 40
55.00114822387695
100
AcDbArc
 50
127.0446548461914
 51
134.9999084472656
  0
ARC
  5
B2
100
AcDbEntity
  8
0
  6
ByLayer
 62
  256
370
   -1
100
AcDbCircle
 10
-31.92913818359375
 20
42.30283355712891
 40
1.999999165534973
100
AcDbArc
 50
30.00028038024902
 51
127.0445251464844
  0
LINE
  5
B3
100
AcDbEntity
  8
0
  6
ByLayer
 62
  256
370
   -1
100
AcDbLine
 10
-30.19709014892578
 20
43.30283737182617
 11
-26.77262306213379
 21
37.37149429321289
  0
LINE
  5
B4
100
AcDbEntity
  8
0
  6
ByLayer
 62
  256
370
   -1
100
AcDbLine
 10
-23.34815979003906
 20
31.44014930725098
 11
-26.77262306213379
 21
37.37149429321289
  0
ARC
  5
B5
100
AcDbEntity
  8
0
  6
ByLayer
 62
  256
370
   -1
100
AcDbCircle
 10
-24.21418190002441
 20
30.94014930725098
 40
0.9999988675117493
100
AcDbArc
 50
-28.13309288024902
 51
30.00028038024902
  0
LINE
  5
B6
100
AcDbEntity
  8
0
  6
ByLayer
 62
  256
370
   -1
100
AcDbLine
 10
-23.33232688903809
 20
30.46863174438477
 11
-25.07956886291504
 21
27.20086097717285
  0
ARC
  5
B7
100
AcDbEntity
  8
0
  6
ByLayer
 62
  256
370
   -1
100
AcDbCircle
 10
0.0001019126211758703
 20
3.302977347630076e-05
 40
65.00003814697266
100
AcDbArc
 50
120.000114440918
 51
127.0446929931641
  0
ARC
  5
B8
100
AcDbEntity
  8
0
  6
ByLayer
 62
  256
370
   -1
100
AcDbCircle
 10
-0.0003472270618658513
 20
0.0003071164537686855
 40
64.99954986572266
100
AcDbArc
 50
127.0445251464844
 51
135.0000152587891
  0
ARC
  5
B9
100
AcDbEntity
  8
0
  6
ByLayer
 62
  256
370
   -1
100
AcDbCircle
 10
-0.0003052690590266138
 20
0.0003490745148155838
 40
64.99954986572266
100
AcDbArc
 50
135.0000610351562
 51
142.9555358886719
  0
ARC
  5
BA
100
AcDbEntity
  8
0
  6
ByLayer
 62
  256
370
   -1
100
AcDbCircle
 10
-3.118177846772596e-05
 20
-0.0001000647898763418
 40
65.00003814697266
100
AcDbArc
 50
142.9553833007812
 51
149.9999542236328
  0
ARC
  5
BB
100
AcDbEntity
  8
0
  6
ByLayer
 62
  256
370
   -1
100
AcDbCircle
 10
0.0002607906062621623
 20
-0.000114541471702978
 40
35.00028610229492
100
AcDbArc
 50
150.0000915527344
 51
162.543701171875
  0
LINE
  5
BC
100
AcDbEntity
  8
0
  6
ByLayer
 62
  256
370
   -1
100
AcDbLine
 10
-33.38812255859375
 20
10.49921035766602
 11
-35.31997299194336
 21
11.01684665679932
  0
LINE
  5
BD
100
AcDbEntity
  8
0
  6
ByLayer
 62
  256
370
   -1
100
AcDbLine
 10
-35.31997299194336
 20
11.01684665679932
 11
-35.73926162719727
 21
9.576279640197754
  0
LINE
  5
BE
100
AcDbEntity
  8
0
  6
ByLayer
 62
  256
370
   -1
100
AcDbLine
 10
-36.09643173217773
 20
8.11906623840332
 11
-35.73926162719727
 21
9.576278686523438
  0
LINE
  5
BF
100
AcDbEntity
  8
0
  6
ByLayer
 62
  256
370
   -1
100
AcDbLine
 10
-34.16457366943359
 20
7.60142993927002
 11
-36.09643173217773
 21
8.11906623840332
  0
ARC
  5
C0
100
AcDbEntity
  8
0
  6
ByLayer
 62
  256
370
   -1
100
AcDbCircle
 10
0.00028379843570292
 20
-2.867482544388622e-05
 40
35.00028610229492
100
AcDbArc
 50
167.4563751220703
 51
179.9999847412109
  0
LINE
  5
C1
100
AcDbEntity
  8
0
  6
ByLayer
 62
  256
370
   -1
100
AcDbLine
 10
-38.05278015136719
 20
4.972021102905273
 11
-36.09643173217773
 21
8.11906623840332
  0
ARC
  5
C2
100
AcDbEntity
  8
0
  6
ByLayer
 62
  256
370
   -1
100
AcDbCircle
 10
-38.90205001831055
 20
5.499969005584717
 40
0.9999988675117493
100
AcDbArc
 50
-90.00021362304688
 51
-31.86687278747559
  0
LINE
  5
C3
100
AcDbEntity
  8
0
  6
ByLayer
 62
  256
370
   -1
100
AcDbLine
 10
-38.90205383300781
 20
4.499969959259033
 11
-45.75098037719727
 21
4.499964237213135
  0
LINE
  5
C4
100
AcDbEntity
  8
0
  6
ByLayer
 62
  256
370
   -1
100
AcDbLine
 10
-52.59990692138672
 20
4.499958992004395
 11
-45.75098037719727
 21
4.499964237213135
  0
ARC
  5
C5
100
AcDbEntity
  8
0
  6
ByLayer
 62
  256
370
   -1
100
AcDbCircle
 10
-52.59990692138672
 20
6.499958992004395
 40
1.999999165534973
100
AcDbArc
 50
172.9554901123047
 51
-90.00021362304688
  0
ARC
  5
C6
100
AcDbEntity
  8
0
  6
ByLayer
 62
  256
370
   -1
100
AcDbCircle
 10
0.001136890146881342
 20
-0.0001883958902908489
 40
55.00114822387695
100
AcDbArc
 50
165.0001525878906
 51
172.9554138183594
  0
ARC
  5
C7
100
AcDbEntity
  8
0
  6
ByLayer
 62
  256
370
   -1
100
AcDbCircle
 10
0.001079450594261289
 20
-0.0004027635441161692
 40
55.00114822387695
100
AcDbArc
 50
157.0446624755859
 51
164.9999237060547
  0
ARC
  5
C8
100
AcDbEntity
  8
0
  6
ByLayer
 62
  256
370
   -1
100
AcDbCircle
 10
-48.80286407470703
 20
20.67075347900391
 40
1.999999165534973
100
AcDbArc
 50
60.00019073486327
 51
157.0446319580078
  0
LINE
  5
C9
100
AcDbEntity
  8
0
  6
ByLayer
 62
  256
370
   -1
100
AcDbLine
 10
-47.8028678894043
 20
22.40280342102051
 11
-41.87152099609375
 21
18.97834587097168
  0
LINE
  5
CA
100
AcDbEntity
  8
0
  6
ByLayer
 62
  256
370
   -1
100
AcDbLine
 10
-35.9401741027832
 20
15.55388641357422
 11
-41.87152099609375
 21
18.97834587097168
  0
ARC
  5
CB
100
AcDbEntity
  8
0
  6
ByLayer
 62
  256
370
   -1
100
AcDbCircle
 10
-36.4401741027832
 20
14.6878604888916
 40
0.9999988675117493
100
AcDbArc
 50
1.866885662078857
 51
59.99995803833008
  0
LINE
  5
CC
100
AcDbEntity
  8
0
  6
ByLayer
 62
  256
370
   -1
100
AcDbLine
 10
-35.44070434570312
 20
14.72044086456299
 11
-35.31997299194336
 21
11.01684665679932
  0
ARC
  5
CD
100
AcDbEntity
  8
0
  6
ByLayer
 62
  256
370
   -1
100
AcDbCircle
 10
7.174401980591938e-05
 20
7.956093759275973e-05
 40
65.00003814697266
100
AcDbArc
 50
150.0001220703125
 51
157.0446929931641
  0
ARC
  5
CE
100
AcDbEntity
  8
0
  6
ByLayer
 62
  256
370
   -1
100
AcDbCircle
 10
-0.0004542656824924052
 20
9.235708421329036e-05
 40
64.99954986572266
100
AcDbArc
 50
157.0445251464844
 51
165.0000152587891
  0
ARC
  5
CF
100
AcDbEntity
  8
0
  6
ByLayer
 62
  256
370
   -1
100
AcDbCircle
 10
-0.0004389080568216741
 20
0.0001496728218626231
 40
64.99954986572266
100
AcDbArc
 50
165.0000610351562
 51
172.9555358886719
  0
ARC
  5
D0
100
AcDbEntity
  8
0
  6
ByLayer
 62
  256
370
   -1
100
AcDbCircle
 10
2.302819302713033e-05
 20
-0.0001022495416691527
 40
65.00003814697266
100
AcDbArc
 50
172.9553833007812
 51
179.9999542236328
  0
ARC
  5
D1
100
AcDbEntity
  8
0
  6
ByLayer
 62
  256
370
   -1
100
AcDbCircle
 10
0.000283122033579275
 20
3.119953180430457e-05
 40
35.00028610229492
100
AcDbArc
 50
-179.9999084472656
 51
-167.4562683105469
  0
LINE
  5
D2
100
AcDbEntity
  8
0
  6
ByLayer
 62
  256
370
   -1
100
AcDbLine
 10
-34.1645622253418
 20
-7.601483345031738
 11
-36.09641647338867
 21
-8.119123458862305
  0
LINE
  5
D3
100
AcDbEntity
  8
0
  6
ByLayer
 62
  256
370
   -1
100
AcDbLine
 10
-36.09641647338867
 20
-8.119123458862305
 11
-35.7392463684082
 21
-9.576334953308105
  0
LINE
  5
D4
100
AcDbEntity
  8
0
  6
ByLayer
 62
  256
370
   -1
100
AcDbLine
 10
-35.3199577331543
 20
-11.01690196990967
 11
-35.7392463684082
 21
-9.576335906982422
  0
LINE
  5
D5
100
AcDbEntity
  8
0
  6
ByLayer
 62
  256
370
   -1
100
AcDbLine
 10
-33.38810348510742
 20
-10.49926090240479
 11
-35.3199577331543
 21
-11.01690196990967
  0
ARC
  5
D6
100
AcDbEntity
  8
0
  6
ByLayer
 62
  256
370
   -1
100
AcDbCircle
 10
0.0002601140586193651
 20
0.0001170661344076507
 40
35.00028610229492
100
AcDbArc
 50
-162.5436096191406
 51
-150
  0
LINE
  5
D7
100
AcDbEntity
  8
0
  6
ByLayer
 62
  256
370
   -1
100
AcDbLine
 10
-35.44068145751953
 20
-14.72049903869629
 11
-35.3199577331543
 21
-11.01690196990967
  0
ARC
  5
D8
100
AcDbEntity
  8
0
  6
ByLayer
 62
  256
370
   -1
100
AcDbCircle
 10
-36.44014739990234
 20
-14.68791770935059
 40
0.9999988675117493
100
AcDbArc
 50
-60.00014114379882
 51
-1.866892576217651
  0
LINE
  5
D9
100
AcDbEntity
  8
0
  6
ByLayer
 62
  256
370
   -1
100
AcDbLine
 10
-35.94015121459961
 20
-15.5539436340332
 11
-41.87148666381836
 21
-18.9784107208252
  0
LINE
  5
DA
100
AcDbEntity
  8
0
  6
ByLayer
 62
  256
370
   -1
100
AcDbLine
 10
-47.80283355712891
 20
-22.40288162231445
 11
-41.87148666381836
 21
-18.9784107208252
  0
ARC
  5
DB
100
AcDbEntity
  8
0
  6
ByLayer
 62
  256
370
   -1
100
AcDbCircle
 10
-48.80283355712891
 20
-20.67083168029785
 40
1.999999165534973
100
AcDbArc
 50
-157.04443359375
 51
-60.00007629394531
  0
ARC
  5
DC
100
AcDbEntity
  8
0
  6
ByLayer
 62
  256
370
   -1
100
AcDbCircle
 10
0.001078773639164865
 20
0.000405289581976831
 40
55.00114822387695
100
AcDbArc
 50
-164.9998168945312
 51
-157.0445709228516
  0
ARC
  5
DD
100
AcDbEntity
  8
0
  6
ByLayer
 62
  256
370
   -1
100
AcDbCircle
 10
0.001136213424615562
 20
0.0001909220300149173
 40
55.00114822387695
100
AcDbArc
 50
-172.955322265625
 51
-165.0000610351562
  0
ARC
  5
DE
100
AcDbEntity
  8
0
  6
ByLayer
 62
  256
370
   -1
100
AcDbCircle
 10
-52.59989547729492
 20
-6.50004243850708
 40
1.999999165534973
100
AcDbArc
 50
90.00021362304688
 51
-172.9554290771484
  0
LINE
  5
DF
100
AcDbEntity
  8
0
  6
ByLayer
 62
  256
370
   -1
100
AcDbLine
 10
-52.59989929199219
 20
-4.500042915344238
 11
-45.75097274780273
 21
-4.500037670135498
  0
LINE
  5
E0
100
AcDbEntity
  8
0
  6
ByLayer
 62
  256
370
   -1
100
AcDbLine
 10
-38.90204620361328
 20
-4.500032901763916
 11
-45.75097274780273
 21
-4.500037670135498
  0
ARC
  5
E1
100
AcDbEntity
  8
0
  6
ByLayer
 62
  256
370
   -1
100
AcDbCircle
 10
-38.90204620361328
 20
-5.500030994415283
 40
0.9999988675117493
100
AcDbArc
 50
31.86689567565918
 51
90.00021362304688
  0
LINE
  5
E2
100
AcDbEntity
  8
0
  6
ByLayer
 62
  256
370
   -1
100
AcDbLine
 10
-38.05277252197266
 20
-4.972082138061523
 11
-36.09641647338867
 21
-8.119123458862305
  0
ARC
  5
E3
100
AcDbEntity
  8
0
  6
ByLayer
 62
  256
370
   -1
100
AcDbCircle
 10
2.235165811725892e-05
 20
0.0001047738114721142
 40
65.00003814697266
100
AcDbArc
 50
-179.9998626708984
 51
-172.9552917480469
  0
ARC
  5
E4
100
AcDbEntity
  8
0
  6
ByLayer
 62
  256
370
   -1
100
AcDbCircle
 10
-0.000439584138803184
 20
-0.0001471493160352111
 40
64.99954986572266
100
AcDbArc
 50
-172.9554595947266
 51
-164.9999694824219
  0
ARC
  5
E5
100
AcDbEntity
  8
0
  6
ByLayer
 62
  256
370
   -1
100
AcDbCircle
 10
-0.0004549419099930674
 20
-8.983361476566643e-05
 40
64.99954986572266
100
AcDbArc
 50
-164.9999237060547
 51
-157.04443359375
  0
ARC
  5
E6
100
AcDbEntity
  8
0
  6
ByLayer
 62
  256
370
   -1
100
AcDbCircle
 10
7.106777775334194e-05
 20
-7.703658775426447e-05
 40
65.00003814697266
100
AcDbArc
 50
-157.0445861816406
 51
-150.0000457763672
  0
ARC
  5
E7
100
AcDbEntity
  8
0
  6
ByLayer
 62
  256
370
   -1
100
AcDbCircle
 10
0.0002295910817338154
 20
0.0001685806491877884
 40
35.00028610229492
100
AcDbArc
 50
-149.9998931884766
 51
-137.4562683105469
  0
LINE
  5
E8
100
AcDbEntity
  8
0
  6
ByLayer
 62
  256
370
   -1
100
AcDbLine
 10
-25.78663444519043
 20
-23.66536331176758
 11
-27.20084762573242
 21
-25.07958030700684
  0
LINE
  5
E9
100
AcDbEntity
  8
0
  6
ByLayer
 62
  256
370
   -1
100
AcDbLine
 10
-27.20084762573242
 20
-25.07958030700684
 11
-26.16292381286621
 21
-26.16297721862793
  0
LINE
  5
EA
100
AcDbEntity
  8
0
  6
ByLayer
 62
  256
370
   -1
100
AcDbLine
 10
-25.07952308654785
 20
-27.20089912414551
 11
-26.16292190551758
 21
-26.16297912597656
  0
LINE
  5
EB
100
AcDbEntity
  8
0
  6
ByLayer
 62
  256
370
   -1
100
AcDbLine
 10
-23.66530990600586
 20
-25.78668212890625
 11
-25.07952308654785
 21
-27.20089912414551
  0
ARC
  5
EC
100
AcDbEntity
  8
0
  6
ByLayer
 62
  256
370
   -1
100
AcDbCircle
 10
0.0001667322794673964
 20
0.000231439305935055
 40
35.00028610229492
100
AcDbArc
 50
-132.5435943603516
 51
-119.9999694824219
  0
LINE
  5
ED
100
AcDbEntity
  8
0
  6
ByLayer
 62
  256
370
   -1
100
AcDbLine
 10
-23.33227920532227
 20
-30.46866989135742
 11
-25.07952308654785
 21
-27.20089912414551
  0
ARC
  5
EE
100
AcDbEntity
  8
0
  6
ByLayer
 62
  256
370
   -1
100
AcDbCircle
 10
-24.2141284942627
 20
-30.94018745422363
 40
0.9999988675117493
100
AcDbArc
 50
-30.00024032592773
 51
28.13323783874512
  0
LINE
  5
EF
100
AcDbEntity
  8
0
  6
ByLayer
 62
  256
370
   -1
100
AcDbLine
 10
-23.34810638427734
 20
-31.4401912689209
 11
-26.77255821228027
 21
-37.37153625488281
  0
LINE
  5
F0
100
AcDbEntity
  8
0
  6
ByLayer
 62
  256
370
   -1
100
AcDbLine
 10
-30.19701766967773
 20
-43.30288696289062
 11
-26.77255821228027
 21
-37.37153625488281
  0
ARC
  5
F1
100
AcDbEntity
  8
0
  6
ByLayer
 62
  256
370
   -1
100
AcDbCircle
 10
-31.92906761169434
 20
-42.30288314819336
 40
1.999999165534973
100
AcDbArc
 50
-127.0444488525391
 51
-30.00009155273438
  0
ARC
  5
F2
100
AcDbEntity
  8
0
  6
ByLayer
 62
  256
370
   -1
100
AcDbCircle
 10
0.0007316004484891891
 20
0.0008903780253604054
 40
55.00114822387695
100
AcDbArc
 50
-134.9998168945312
 51
-127.0445556640625
  0
ARC
  5
F3
100
AcDbEntity
  8
0
  6
ByLayer
 62
  256
370
   -1
100
AcDbCircle
 10
0.0008885285351425409
 20
0.0007334501715376973
 40
55.00114822387695
100
AcDbArc
 50
-142.9553070068359
 51
-135.0000610351562
  0
ARC
  5
F4
100
AcDbEntity
  8
0
  6
ByLayer
 62
  256
370
   -1
100
AcDbCircle
 10
-42.30281829833984
 20
-31.92915725708008
 40
1.999999165534973
100
AcDbArc
 50
120.0002746582031
 51
-142.9554901123047
  0
LINE
  5
F5
100
AcDbEntity
  8
0
  6
ByLayer
 62
  256
370
   -1
100
AcDbLine
 10
-43.30282211303711
 20
-30.19710922241211
 11
-37.37147903442383
 21
-26.77263641357422
  0
LINE
  5
F6
100
AcDbEntity
  8
0
  6
ByLayer
 62
  256
370
   -1
100
AcDbLine
 10
-31.44014167785645
 20
-23.34817123413086
 11
-37.37147903442383
 21
-26.77263641357422
  0
ARC
  5
F7
100
AcDbEntity
  8
0
  6
ByLayer
 62
  256
370
   -1
100
AcDbCircle
 10
-30.94013786315918
 20
-24.21419334411621
 40
0.9999988675117493
100
AcDbArc
 50
61.86690139770507
 51
120.0003280639648
  0
LINE
  5
F8
100
AcDbEntity
  8
0
  6
ByLayer
 62
  256
370
   -1
100
AcDbLine
 10
-30.4686222076416
 20
-23.33233833312988
 11
-27.20084762573242
 21
-25.07958030700684
  0
ARC
  5
F9
100
AcDbEntity
  8
0
  6
ByLayer
 62
  256
370
   -1
100
AcDbCircle
 10
-3.302982077002525e-05
 20
0.0001019126066239551
 40
65.00003814697266
100
AcDbArc
 50
-149.9998626708984
 51
-142.9552764892578
  0
ARC
  5
FA
100
AcDbEntity
  8
0
  6
ByLayer
 62
  256
370
   -1
100
AcDbCircle
 10
-0.0003071163373533636
 20
-0.0003472271782811731
 40
64.99954986572266
100
AcDbArc
 50
-142.9554443359375
 51
-134.9999694824219
  0
ARC
  5
FB
100
AcDbEntity
  8
0
  6
ByLayer
 62
  256
370
   -1
100
AcDbCircle
 10
-0.0003490743692964315
 20
-0.0003052692336495966
 40
64.99954986572266
100
AcDbArc
 50
-134.9999084472656
 51
-127.0444259643555
  0
ARC
  5
FC
100
AcDbEntity
  8
0
  6
ByLayer
 62
  256
370
   -1
100
AcDbCircle
 10
0.000100064804428257
 20
-3.118173844995908e-05
 40
65.00003814697266
100
AcDbArc
 50
-127.0446014404297
 51
-120.0000228881836
  0
ARC
  5
FD
100
AcDbEntity
  8
0
  6
ByLayer
 62
  256
370
   -1
100
AcDbCircle
 10
0.0001145413625636138
 20
0.0002607906644698232
 40
35.00028610229492
100
AcDbArc
 50
-119.999885559082
 51
-107.4562683105469
  0
LINE
  5
FE
100
AcDbEntity
  8
0
  6
ByLayer
 62
  256
370
   -1
100
AcDbLine
 10
-10.49919605255127
 20
-33.38812255859375
 11
-11.01683235168457
 21
-35.31997680664062
  0
LINE
  5
FF
100
AcDbEntity
  8
0
  6
ByLayer
 62
  256
370
   -1
100
AcDbLine
 10
-11.01683235168457
 20
-35.31997680664062
 11
-9.576264381408691
 21
-35.73926544189453
  0
LINE
  5
100
100
AcDbEntity
  8
0
  6
ByLayer
 62
  256
370
   -1
100
AcDbLine
 10
-8.119050979614258
 20
-36.09643173217773
 11
-9.576263427734375
 21
-35.73926544189453
  0
LINE
  5
101
100
AcDbEntity
  8
0
  6
ByLayer
 62
  256
370
   -1
100
AcDbLine
 10
-7.601414680480957
 20
-34.16457748413086
 11
-8.119050979614258
 21
-36.09643173217773
  0
ARC
  5
102
100
AcDbEntity
  8
0
  6
ByLayer
 62
  256
370
   -1
100
AcDbCircle
 10
2.867470539058559e-05
 20
0.00028379843570292
 40
35.00028610229492
100
AcDbArc
 50
-102.543586730957
 51
-89.99996948242188
  0
LINE
  5
103
100
AcDbEntity
  8
0
  6
ByLayer
 62
  256
370
   -1
100
AcDbLine
 10
-4.972005367279053
 20
-38.05278396606445
 11
-8.119050979614258
 21
-36.09643173217773
  0
ARC
  5
104
100
AcDbEntity
  8
0
  6
ByLayer
 62
  256
370
   -1
100
AcDbCircle
 10
-5.499953269958496
 20
-38.90205001831055
 40
0.9999988675117493
100
AcDbArc
 50
-0.0002134435635525733
 51
58.13312530517579
  0
LINE
  5
105
100
AcDbEntity
  8
0
  6
ByLayer
 62
  256
370
   -1
100
AcDbLine
 10
-4.499954223632812
 20
-38.90205383300781
 11
-4.499945640563965
 21
-45.75098037719727
  0
LINE
  5
106
100
AcDbEntity
  8
0
  6
ByLayer
 62
  256
370
   -1
100
AcDbLine
 10
-4.499936580657959
 20
-52.59990692138672
 11
-4.499945640563965
 21
-45.75098037719727
  0
ARC
  5
107
100
AcDbEntity
  8
0
  6
ByLayer
 62
  256
370
   -1
100
AcDbCircle
 10
-6.499938488006592
 20
-52.59990692138672
 40
1.999999165534973
100
AcDbArc
 50
-97.04445648193359
 51
-0.0002134433598257601
  0
ARC
  5
108
100
AcDbEntity
  8
0
  6
ByLayer
 62
  256
370
   -1
100
AcDbCircle
 10
0.0001883954100776464
 20
0.001136890146881342
 40
55.00114822387695
100
AcDbArc
 50
-104.9998168945312
 51
-97.0445556640625
  0
ARC
  5
109
100
AcDbEntity
  8
0
  6
ByLayer
 62
  256
370
   -1
100
AcDbCircle
 10
0.0004027631075587124
 20
0.00107945071067661
 40
55.00114822387695
100
AcDbArc
 50
-112.9553070068359
 51
-105.0000381469727
  0
ARC
  5
10A
100
AcDbEntity
  8
0
  6
ByLayer
 62
  256
370
   -1
100
AcDbCircle
 10
-20.67073249816895
 20
-48.80287170410156
 40
1.999999165534973
100
AcDbArc
 50
150.0002746582031
 51
-112.9554138183594
  0
LINE
  5
10B
100
AcDbEntity
  8
0
  6
ByLayer
 62
  256
370
   -1
100
AcDbLine
 10
-22.40278625488281
 20
-47.80287551879883
 11
-18.97832679748535
 21
-41.87152862548828
  0
LINE
  5
10C
100
AcDbEntity
  8
0
  6
ByLayer
 62
  256
370
   -1
100
AcDbLine
 10
-15.55387210845947
 20
-35.94018173217773
 11
-18.97832679748535
 21
-41.87152862548828
  0
ARC
  5
10D
100
AcDbEntity
  8
0
  6
ByLayer
 62
  256
370
   -1
100
AcDbCircle
 10
-14.68784523010254
 20
-36.4401741027832
 40
0.9999988675117493
100
AcDbArc
 50
91.86688995361328
 51
150.0003662109375
  0
LINE
  5
10E
100
AcDbEntity
  8
0
  6
ByLayer
 62
  256
370
   -1
100
AcDbLine
 10
-14.72042655944824
 20
-35.44070816040039
 11
-11.01683235168457
 21
-35.31997680664062
  0
ARC
  5
10F
100
AcDbEntity
  8
0
  6
ByLayer
 62
  256
370
   -1
100
AcDbCircle
 10
-7.956096669659019e-05
 20
7.174398342613131e-05
 40
65.00003814697266
100
AcDbArc
 50
-119.9998321533203
 51
-112.9552688598633
  0
ARC
  5
110
100
AcDbEntity
  8
0
  6
ByLayer
 62
  256
370
   -1
100
AcDbCircle
 10
-9.235690231435001e-05
 20
-0.0004542656824924052
 40
64.99954986572266
100
AcDbArc
 50
-112.955436706543
 51
-104.9999542236328
  0
ARC
  5
111
100
AcDbEntity
  8
0
  6
ByLayer
 62
  256
370
   -1
100
AcDbCircle
 10
-0.0001496726472396404
 20
-0.0004389080859255046
 40
64.99954986572266
100
AcDbArc
 50
-104.9999008178711
 51
-97.04441070556641
  0
ARC
  5
112
100
AcDbEntity
  8
0
  6
ByLayer
 62
  256
370
   -1
100
AcDbCircle
 10
0.0001022495271172374
 20
2.302823486388661e-05
 40
65.00003814697266
100
AcDbArc
 50
-97.04458618164062
 51
-90.00000762939453
  0
ARC
  5
113
100
AcDbEntity
  8
0
  6
ByLayer
 62
  256
370
   -1
100
AcDbCircle
 10
-3.119957909802906e-05
 20
0.000283122033579275
 40
35.00028610229492
100
AcDbArc
 50
-89.99989318847656
 51
-77.45627593994141
  0
LINE
  5
114
100
AcDbEntity
  8
0
  6
ByLayer
 62
  256
370
   -1
100
AcDbLine
 10
7.601489067077637
 20
-34.1645622253418
 11
8.119128227233887
 21
-36.09641647338867
  0
LINE
  5
115
100
AcDbEntity
  8
0
  6
ByLayer
 62
  256
370
   -1
100
AcDbLine
 10
8.119128227233887
 20
-36.09641647338867
 11
9.576340675354004
 21
-35.7392463684082
  0
LINE
  5
116
100
AcDbEntity
  8
0
  6
ByLayer
 62
  256
370
   -1
100
AcDbLine
 10
11.01690769195557
 20
-35.31995391845703
 11
9.576340675354004
 21
-35.7392463684082
  0
LINE
  5
117
100
AcDbEntity
  8
0
  6
ByLayer
 62
  256
370
   -1
100
AcDbLine
 10
10.49926662445068
 20
-33.38809967041016
 11
11.01690769195557
 21
-35.31995391845703
  0
ARC
  5
118
100
AcDbEntity
  8
0
  6
ByLayer
 62
  256
370
   -1
100
AcDbCircle
 10
-0.0001170661780633964
 20
0.0002601140295155346
 40
35.00028610229492
100
AcDbArc
 50
-72.54360198974609
 51
-59.99998092651367
  0
LINE
  5
119
100
AcDbEntity
  8
0
  6
ByLayer
 62
  256
370
   -1
100
AcDbLine
 10
14.72050380706787
 20
-35.44068145751953
 11
11.01690769195557
 21
-35.31995391845703
  0
ARC
  5
11A
100
AcDbEntity
  8
0
  6
ByLayer
 62
  256
370
   -1
100
AcDbCircle
 10
14.6879243850708
 20
-36.44014358520508
 40
0.9999988675117493
100
AcDbArc
 50
29.9998836517334
 51
88.13316345214844
  0
LINE
  5
11B
100
AcDbEntity
  8
0
  6
ByLayer
 62
  256
370
   -1
100
AcDbLine
 10
15.5539493560791
 20
-35.94014739990234
 11
18.97841835021973
 21
-41.87148284912109
  0
LINE
  5
11C
100
AcDbEntity
  8
0
  6
ByLayer
 62
  256
370
   -1
100
AcDbLine
 10
22.40288925170898
 20
-47.80282974243164
 11
18.97841835021973
 21
-41.87148284912109
  0
ARC
  5
11D
100
AcDbEntity
  8
0
  6
ByLayer
 62
  256
370
   -1
100
AcDbCircle
 10
20.67083930969238
 20
-48.80282974243164
 40
1.999999165534973
100
AcDbArc
 50
-67.04443359375
 51
29.99991989135742
  0
ARC
  5
11E
100
AcDbEntity
  8
0
  6
ByLayer
 62
  256
370
   -1
100
AcDbCircle
 10
-0.0004052897565998137
 20
0.001078773639164865
 40
55.00114822387695
100
AcDbArc
 50
-74.99982452392578
 51
-67.04456329345703
  0
ARC
  5
11F
100
AcDbEntity
  8
0
  6
ByLayer
 62
  256
370
   -1
100
AcDbCircle
 10
-0.0001909222191898152
 20
0.00113621330820024
 40
55.00114822387695
100
AcDbArc
 50
-82.95531463623047
 51
-75.00005340576172
  0
ARC
  5
120
100
AcDbEntity
  8
0
  6
ByLayer
 62
  256
370
   -1
100
AcDbCircle
 10
6.500051021575928
 20
-52.59989166259766
 40
1.999999165534973
100
AcDbArc
 50
-179.9996643066406
 51
-82.95541381835938
  0
LINE
  5
121
100
AcDbEntity
  8
0
  6
ByLayer
 62
  256
370
   -1
100
AcDbLine
 10
4.500051498413086
 20
-52.59989929199219
 11
4.500044822692871
 21
-45.75097274780273
  0
LINE
  5
122
100
AcDbEntity
  8
0
  6
ByLayer
 62
  256
370
   -1
100
AcDbLine
 10
4.500039577484131
 20
-38.90204620361328
 11
4.500044822692871
 21
-45.75097274780273
  0
ARC
  5
123
100
AcDbEntity
  8
0
  6
ByLayer
 62
  256
370
   -1
100
AcDbCircle
 10
5.500037670135498
 20
-38.90204620361328
 40
0.9999988675117493
100
AcDbArc
 50
121.8669052124023
 51
-179.9997863769531
  0
LINE
  5
124
100
AcDbEntity
  8
0
  6
ByLayer
 62
  256
370
   -1
100
AcDbLine
 10
4.97208833694458
 20
-38.05277252197266
 11
8.119128227233887
 21
-36.09641647338867
  0
ARC
  5
125
100
AcDbEntity
  8
0
  6
ByLayer
 62
  256
370
   -1
100
AcDbCircle
 10
-0.0001047738114721142
 20
2.235163992736489e-05
 40
65.00003814697266
100
AcDbArc
 50
-89.99984741210938
 51
-82.95527648925781
  0
ARC
  5
126
100
AcDbEntity
  8
0
  6
ByLayer
 62
  256
370
   -1
100
AcDbCircle
 10
0.0001471493887947872
 20
-0.0004395841096993536
 40
64.99954986572266
100
AcDbArc
 50
-82.9554443359375
 51
-74.99996185302734
  0
ARC
  5
127
100
AcDbEntity
  8
0
  6
ByLayer
 62
  256
370
   -1
100
AcDbCircle
 10
8.983368752524257e-05
 20
-0.0004549419099930674
 40
64.99954986572266
100
AcDbArc
 50
-74.99990844726562
 51
-67.04442596435547
  0
ARC
  5
128
100
AcDbEntity
  8
0
  6
ByLayer
 62
  256
370
   -1
100
AcDbCircle
 10
7.703657320234925e-05
 20
7.106778502929956e-05
 40
65.00003814697266
100
AcDbArc
 50
-67.04459381103516
 51
-60.00001907348633
  0
ARC
  5
129
100
AcDbEntity
  8
0
  6
ByLayer
 62
  256
370
   -1
100
AcDbCircle
 10
-0.0001685807219473645
 20
0.0002295910235261545
 40
35.00028610229492
100
AcDbArc
 50
-59.9998664855957
 51
-47.45625305175781
  0
LINE
  5
12A
100
AcDbEntity
  8
0
  6
ByLayer
 62
  256
370
   -1
100
AcDbLine
 10
23.66537284851074
 20
-25.78662490844727
 11
25.07958984375
 21
-27.20083999633789
  0
LINE
  5
12B
100
AcDbEntity
  8
0
  6
ByLayer
 62
  256
370
   -1
100
AcDbLine
 10
25.07958984375
 20
-27.20083999633789
 11
26.16298484802246
 21
-26.16291427612305
  0
LINE
  5
12C
100
AcDbEntity
  8
0
  6
ByLayer
 62
  256
370
   -1
100
AcDbLine
 10
27.20090675354004
 20
-25.07951545715332
 11
26.16298484802246
 21
-26.16291427612305
  0
LINE
  5
12D
100
AcDbEntity
  8
0
  6
ByLayer
 62
  256
370
   -1
100
AcDbLine
 10
25.78668975830078
 20
-23.66530227661133
 11
27.20090675354004
 21
-25.07951545715332
  0
ARC
  5
12E
100
AcDbEntity
  8
0
  6
ByLayer
 62
  256
370
   -1
100
AcDbCircle
 10
-0.0002314393786946312
 20
0.0001667321776039898
 40
35.00028610229492
100
AcDbArc
 50
-42.5435791015625
 51
-29.99996376037598
  0
LINE
  5
12F
100
AcDbEntity
  8
0
  6
ByLayer
 62
  256
370
   -1
100
AcDbLine
 10
30.46867942810059
 20
-23.33226585388184
 11
27.20090675354004
 21
-25.07951545715332
  0
ARC
  5
130
100
AcDbEntity
  8
0
  6
ByLayer
 62
  256
370
   -1
100
AcDbCircle
 10
30.9401969909668
 20
-24.21412086486816
 40
0.9999988675117493
100
AcDbArc
 50
59.99995803833008
 51
118.1331329345703
  0
LINE
  5
131
100
AcDbEntity
  8
0
  6
ByLayer
 62
  256
370
   -1
100
AcDbLine
 10
31.44019889831543
 20
-23.34809494018555
 11
37.37154388427734
 21
-26.77254486083984
  0
LINE
  5
132
100
AcDbEntity
  8
0
  6
ByLayer
 62
  256
370
   -1
100
AcDbLine
 10
43.30289459228516
 20
-30.1970043182373
 11
37.37154388427734
 21
-26.77254486083984
  0
ARC
  5
133
100
AcDbEntity
  8
0
  6
ByLayer
 62
  256
370
   -1
100
AcDbCircle
 10
42.30289840698242
 20
-31.92905426025391
 40
1.999999165534973
100
AcDbArc
 50
-37.04451370239258
 51
59.99990463256835
  0
ARC
  5
134
100
AcDbEntity
  8
0
  6
ByLayer
 62
  256
370
   -1
100
AcDbCircle
 10
-0.0008903782581910491
 20
0.0007316000992432237
 40
55.00114822387695
100
AcDbArc
 50
-44.99979782104492
 51
-37.04454040527344
  0
ARC
  5
135
100
AcDbEntity
  8
0
  6
ByLayer
 62
  256
370
   -1
100
AcDbCircle
 10
-0.0007334505207836628
 20
0.0008885282441042364
 40
55.00114822387695
100
AcDbArc
 50
-52.95529937744141
 51
-45.00003051757812
  0
ARC
  5
136
100
AcDbEntity
  8
0
  6
ByLayer
 62
  256
370
   -1
100
AcDbCircle
 10
31.92916870117188
 20
-42.30280685424805
 40
1.999999165534973
100
AcDbArc
 50
-149.9996643066406
 51
-52.95539855957031
  0
LINE
  5
137
100
AcDbEntity
  8
0
  6
ByLayer
 62
  256
370
   -1
100
AcDbLine
 10
30.19712257385254
 20
-43.30281066894531
 11
26.77265167236328
 21
-37.3714714050293
  0
LINE
  5
138
100
AcDbEntity
  8
0
  6
ByLayer
 62
  256
370
   -1
100
AcDbLine
 10
23.34818267822266
 20
-31.44013595581055
 11
26.77265167236328
 21
-37.3714714050293
  0
ARC
  5
139
100
AcDbEntity
  8
0
  6
ByLayer
 62
  256
370
   -1
100
AcDbCircle
 10
24.21420478820801
 20
-30.94013023376465
 40
0.9999988675117493
100
AcDbArc
 50
151.8668975830078
 51
-149.9996643066406
  0
LINE
  5
13A
100
AcDbEntity
  8
0
  6
ByLayer
 62
  256
370
   -1
100
AcDbLine
 10
23.33234977722168
 20
-30.46861267089844
 11
25.07958984375
 21
-27.20083999633789
  0
ARC
  5
13B
100
AcDbEntity
  8
0
  6
ByLayer
 62
  256
370
   -1
100
AcDbCircle
 10
-0.0001019125920720398
 20
-3.302984987385571e-05
 40
65.00003814697266
100
AcDbArc
 50
-59.99982833862305
 51
-52.95525360107422
  0
ARC
  5
13C
100
AcDbEntity
  8
0
  6
ByLayer
 62
  256
370
   -1
100
AcDbCircle
 10
0.0003472272946964949
 20
-0.0003071161918342113
 40
64.99954986572266
100
AcDbArc
 50
-52.95542526245117
 51
-44.99994659423828
  0
ARC
  5
13D
100
AcDbEntity
  8
0
  6
ByLayer
 62
  256
370
   -1
100
AcDbCircle
 10
0.0003052693209610879
 20
-0.0003490742819849402
 40
64.99954986572266
100
AcDbArc
 50
-44.9998893737793
 51
-37.04440689086914
  0
ARC
  5
13E
100
AcDbEntity
  8
0
  6
ByLayer
 62
  256
370
   -1
100
AcDbCircle
 10
3.118170207017101e-05
 20
0.0001000648117042147
 40
65.00003814697266
100
AcDbArc
 50
-37.04457473754883
 51
-30
  0
ARC
  5
13F
100
AcDbEntity
  8
0
  6
ByLayer
 62
  256
370
   -1
100
AcDbCircle
 10
-0.0002607907517813146
 20
0.0001145411879406311
 40
35.00028610229492
100
AcDbArc
 50
-29.99984550476074
 51
-17.45623397827148
  0
LINE
  5
140
100
AcDbEntity
  8
0
  6
ByLayer
 62
  256
370
   -1
100
AcDbLine
 10
33.38813400268555
 20
-10.49917411804199
 11
35.31998825073242
 21
-11.01680850982666
  0
LINE
  5
141
100
AcDbEntity
  8
0
  6
ByLayer
 62
  256
370
   -1
100
AcDbLine
 10
35.31998825073242
 20
-11.01680850982666
 11
35.73927307128906
 21
-9.576240539550781
  0
LINE
  5
142
100
AcDbEntity
  8
0
  6
ByLayer
 62
  256
370
   -1
100
AcDbLine
 10
36.09643936157227
 20
-8.119028091430664
 11
35.73927307128906
 21
-9.576239585876465
  0
LINE
  5
143
100
AcDbEntity
  8
0
  6
ByLayer
 62
  256
370
   -1
100
AcDbLine
 10
34.16458511352539
 20
-7.601392269134521
 11
36.09643936157227
 21
-8.119028091430664
  0
ARC
  5
144
100
AcDbEntity
  8
0
  6
ByLayer
 62
  256
370
   -1
100
AcDbCircle
 10
-0.0002837984939105809
 20
2.867451985366642e-05
 40
35.00028610229492
100
AcDbArc
 50
-12.54355525970459
 51
5.825580228702165e-05
  0
LINE
  5
145
100
AcDbEntity
  8
0
  6
ByLayer
 62
  256
370
   -1
100
AcDbLine
 10
38.05278778076172
 20
-4.971981048583984
 11
36.09643936157227
 21
-8.119028091430664
  0
ARC
  5
146
100
AcDbEntity
  8
0
  6
ByLayer
 62
  256
370
   -1
100
AcDbCircle
 10
38.90205764770508
 20
-5.49992847442627
 40
0.9999988675117493
100
AcDbArc
 50
90
 51
148.1331634521484
  0
LINE
  5
147
100
AcDbEntity
  8
0
  6
ByLayer
 62
  256
370
   -1
100
AcDbLine
 10
38.90205764770508
 20
-4.499927997589111
 11
45.75098419189453
 21
-4.499916076660156
  0
LINE
  5
148
100
AcDbEntity
  8
0
  6
ByLayer
 62
  256
370
   -1
100
AcDbLine
 10
52.59991455078125
 20
-4.499902725219727
 11
45.75098419189453
 21
-4.499916076660156
  0
ARC
  5
149
100
AcDbEntity
  8
0
  6
ByLayer
 62
  256
370
   -1
100
AcDbCircle
 10
52.59991455078125
 20
-6.499903202056885
 40
1.999999165534973
100
AcDbArc
 50
-7.0444016456604
 51
89.99989318847656
  0
ARC
  5
14A
100
AcDbEntity
  8
0
  6
ByLayer
 62
  256
370
   -1
100
AcDbCircle
 10
-0.001136890263296664
 20
0.0001883946970338002
 40
55.00114822387695
100
AcDbArc
 50
-14.99977684020996
 51
-7.044517040252686
  0
ARC
  5
14B
100
AcDbEntity
  8
0
  6
ByLayer
 62
  256
370
   -1
100
AcDbCircle
 10
-0.001079451059922576
 20
0.0004027623508591205
 40
55.00114822387695
100
AcDbArc
 50
-22.95527076721191
 51
-15.00000858306885
  0
ARC
  5
14C
100
AcDbEntity
  8
0
  6
ByLayer
 62
  256
370
   -1
100
AcDbCircle
 10
48.80288696289062
 20
-20.67070007324219
 40
1.999999165534973
100
AcDbArc
 50
-119.9997024536133
 51
-22.95533180236816
  0
LINE
  5
14D
100
AcDbEntity
  8
0
  6
ByLayer
 62
  256
370
   -1
100
AcDbLine
 10
47.80289077758789
 20
-22.40275382995605
 11
41.87154006958008
 21
-18.97830009460449
  0
LINE
  5
14E
100
AcDbEntity
  8
0
  6
ByLayer
 62
  256
370
   -1
100
AcDbLine
 10
35.94019317626953
 20
-15.55384922027588
 11
41.87154006958008
 21
-18.97830009460449
  0
ARC
  5
14F
100
AcDbEntity
  8
0
  6
ByLayer
 62
  256
370
   -1
100
AcDbCircle
 10
36.440185546875
 20
-14.68782138824463
 40
0.9999988675117493
100
AcDbArc
 50
-178.1329956054688
 51
-119.9996185302734
  0
LINE
  5
150
100
AcDbEntity
  8
0
  6
ByLayer
 62
  256
370
   -1
100
AcDbLine
 10
35.44071960449219
 20
-14.72040462493896
 11
35.31998825073242
 21
-11.01680850982666
  0
ARC
  5
151
100
AcDbEntity
  8
0
  6
ByLayer
 62
  256
370
   -1
100
AcDbCircle
 10
-7.174393249442801e-05
 20
-7.956101762829348e-05
 40
65.00003814697266
100
AcDbArc
 50
-29.99980735778809
 51
-22.95523262023926
  0
ARC
  5
152
100
AcDbEntity
  8
0
  6
ByLayer
 62
  256
370
   -1
100
AcDbCircle
 10
0.0004542657698038965
 20
-9.235660400008783e-05
 40
64.99954986572266
100
AcDbArc
 50
-22.95540237426758
 51
-14.99992275238037
  0
ARC
  5
153
100
AcDbEntity
  8
0
  6
ByLayer
 62
  256
370
   -1
100
AcDbCircle
 10
0.0004389082023408264
 20
-0.0001496723562013358
 40
64.99954986572266
100
AcDbArc
 50
-14.99986934661865
 51
-7.044381618499756
  0
ARC
  5
154
100
AcDbEntity
  8
0
  6
ByLayer
 62
  256
370
   -1
100
AcDbCircle
 10
-2.302829852851573e-05
 20
0.0001022495052893646
 40
65.00003814697266
100
AcDbArc
 50
-7.044553756713867
 51
2.151707485609222e-05
  0
LINE
  5
155
100
AcDbEntity
  8
0
  6
ByLayer
 62
  256
370
   -1
100
AcDbLine
 10
29.22868347167969
 20
1.651517152786255
 11
32.05710983276367
 21
4.479944229125977
  0
LINE
  5
156
100
AcDbEntity
  8
0
  6
ByLayer
 62
  256
370
   -1
100
AcDbLine
 10
32.05710983276367
 20
4.479944229125977
 11
29.22868347167969
 21
1.651517152786255
  0
LINE
  5
157
100
AcDbEntity
  8
0
  6
ByLayer
 62
  256
370
   -1
100
AcDbLine
 10
29.22868347167969
 20
1.651517152786255
 11
15.44009971618652
 21
15.44010066986084
  0
LINE
  5
158
100
AcDbEntity
  8
0
  6
ByLayer
 62
  256
370
   -1
100
AcDbLine
 10
32.05710983276367
 20
4.479944229125977
 11
18.26852607727051
 21
18.26852798461914
  0
LINE
  5
159
100
AcDbEntity
  8
0
  6
ByLayer
 62
  256
370
   -1
100
AcDbLine
 10
29.22868347167969
 20
1.651517152786255
 11
15.44009971618652
 21
15.44010066986084
  0
ARC
  5
15A
100
AcDbEntity
  8
0
  6
ByLayer
 62
  256
370
   -1
100
AcDbCircle
 10
-7.450580596923828e-06
 20
-3.958120942115784e-06
 40
5.000007629394531
100
AcDbArc
 50
4.535665357252583e-05
 51
44.99996948242188
  0
ARC
  5
15B
100
AcDbEntity
  8
0
  6
ByLayer
 62
  256
370
   -1
100
AcDbCircle
 10
-2.793967723846436e-05
 20
-1.210719347000122e-05
 40
33.50003051757812
100
AcDbArc
 50
2.070717891911045e-05
 51
44.99998092651367
  0
LINE
  5
15C
100
AcDbEntity
  8
0
  6
ByLayer
 62
  256
370
   -1
100
AcDbLine
 10
29.22868347167969
 20
1.651517152786255
 11
32.36862945556641
 21
1.651517152786255
  0
LINE
  5
15D
100
AcDbEntity
  8
0
  6
ByLayer
 62
  256
370
   -1
100
AcDbLine
 10
32.05710983276367
 20
4.479944229125977
 11
32.36862945556641
 21
1.651517152786255
  0
LINE
  5
15E
100
AcDbEntity
  8
0
  6
ByLayer
 62
  256
370
   -1
100
AcDbLine
 10
1.651517510414124
 20
29.22868347167969
 11
15.44010066986084
 21
15.44009971618652
  0
LINE
  5
15F
100
AcDbEntity
  8
0
  6
ByLayer
 62
  256
370
   -1
100
AcDbLine
 10
1.651517510414124
 20
29.22868347167969
 11
4.479944705963135
 21
32.05710983276367
  0
LINE
  5
160
100
AcDbEntity
  8
0
  6
ByLayer
 62
  256
370
   -1
100
AcDbLine
 10
4.479944705963135
 20
32.05710983276367
 11
1.651517510414124
 21
29.22868347167969
  0
LINE
  5
161
100
AcDbEntity
  8
0
  6
ByLayer
 62
  256
370
   -1
100
AcDbLine
 10
1.651517510414124
 20
29.22868347167969
 11
15.44010066986084
 21
15.44009971618652
  0
LINE
  5
162
100
AcDbEntity
  8
0
  6
ByLayer
 62
  256
370
   -1
100
AcDbLine
 10
1.651517510414124
 20
29.22868347167969
 11
1.651517510414124
 21
32.36862945556641
  0
LINE
  5
163
100
AcDbEntity
  8
0
  6
ByLayer
 62
  256
370
   -1
100
AcDbLine
 10
4.479944705963135
 20
32.05710983276367
 11
1.651517510414124
 21
32.36862945556641
  0
LINE
  5
164
100
AcDbEntity
  8
0
  6
ByLayer
 62
  256
370
   -1
100
AcDbLine
 10
4.479944705963135
 20
32.05710983276367
 11
18.26852798461914
 21
18.26852607727051
  0
ARC
  5
165
100
AcDbEntity
  8
0
  6
ByLayer
 62
  256
370
   -1
100
AcDbCircle
 10
-3.958120942115784e-06
 20
-7.450580596923828e-06
 40
5.000007629394531
100
AcDbArc
 50
45.00003051757812
 51
89.99995422363281
  0
ARC
  5
166
100
AcDbEntity
  8
0
  6
ByLayer
 62
  256
370
   -1
100
AcDbCircle
 10
-1.210719347000122e-05
 20
-2.793967723846436e-05
 40
33.50003051757812
100
AcDbArc
 50
45.00001525878906
 51
89.99997711181641
  0
ARC
  5
167
100
AcDbEntity
  8
0
  6
ByLayer
 62
  256
370
   -1
100
AcDbCircle
 10
3.958121396863135e-06
 20
-7.450580596923828e-06
 40
5.000007629394531
100
AcDbArc
 50
90.00004577636719
 51
134.9999694824219
  0
ARC
  5
168
100
AcDbEntity
  8
0
  6
ByLayer
 62
  256
370
   -1
100
AcDbCircle
 10
7.450580596923828e-06
 20
-3.958120487368433e-06
 40
5.000007629394531
100
AcDbArc
 50
135.0000457763672
 51
179.9999542236328
  0
ARC
  5
169
100
AcDbEntity
  8
0
  6
ByLayer
 62
  256
370
   -1
100
AcDbCircle
 10
1.210719437949592e-05
 20
-2.793967723846436e-05
 40
33.50003051757812
100
AcDbArc
 50
90.00002288818359
 51
135
  0
ARC
  5
16A
100
AcDbEntity
  8
0
  6
ByLayer
 62
  256
370
   -1
100
AcDbCircle
 10
2.793967723846436e-05
 20
-1.210719256050652e-05
 40
33.50003051757812
100
AcDbArc
 50
135.0000152587891
 51
179.9999847412109
  0
LINE
  5
16B
100
AcDbEntity
  8
0
  6
ByLayer
 62
  256
370
   -1
100
AcDbLine
 10
-1.65151834487915
 20
29.22868347167969
 11
-4.479945659637451
 21
32.05710983276367
  0
LINE
  5
16C
100
AcDbEntity
  8
0
  6
ByLayer
 62
  256
370
   -1
100
AcDbLine
 10
-4.479945659637451
 20
32.05710983276367
 11
-1.65151834487915
 21
29.22868347167969
  0
LINE
  5
16D
100
AcDbEntity
  8
0
  6
ByLayer
 62
  256
370
   -1
100
AcDbLine
 10
-1.65151834487915
 20
29.22868347167969
 11
-15.44010162353516
 21
15.44009876251221
  0
LINE
  5
16E
100
AcDbEntity
  8
0
  6
ByLayer
 62
  256
370
   -1
100
AcDbLine
 10
-4.479945659637451
 20
32.05710983276367
 11
-18.26852798461914
 21
18.26852607727051
  0
LINE
  5
16F
100
AcDbEntity
  8
0
  6
ByLayer
 62
  256
370
   -1
100
AcDbLine
 10
-1.65151834487915
 20
29.22868347167969
 11
-15.44010162353516
 21
15.44009876251221
  0
LINE
  5
170
100
AcDbEntity
  8
0
  6
ByLayer
 62
  256
370
   -1
100
AcDbLine
 10
-1.65151834487915
 20
29.22868347167969
 11
-1.65151846408844
 21
32.36862945556641
  0
LINE
  5
171
100
AcDbEntity
  8
0
  6
ByLayer
 62
  256
370
   -1
100
AcDbLine
 10
-4.479945659637451
 20
32.05710983276367
 11
-1.65151846408844
 21
32.36862945556641
  0
LINE
  5
172
100
AcDbEntity
  8
0
  6
ByLayer
 62
  256
370
   -1
100
AcDbLine
 10
-29.22868347167969
 20
1.651516199111938
 11
-15.44010066986084
 21
15.44009971618652
  0
LINE
  5
173
100
AcDbEntity
  8
0
  6
ByLayer
 62
  256
370
   -1
100
AcDbLine
 10
-29.22868347167969
 20
1.651516199111938
 11
-32.05710983276367
 21
4.47994327545166
  0
LINE
  5
174
100
AcDbEntity
  8
0
  6
ByLayer
 62
  256
370
   -1
100
AcDbLine
 10
-32.05710983276367
 20
4.47994327545166
 11
-29.22868347167969
 21
1.651516199111938
  0
LINE
  5
175
100
AcDbEntity
  8
0
  6
ByLayer
 62
  256
370
   -1
100
AcDbLine
 10
-29.22868347167969
 20
1.651516199111938
 11
-15.44010066986084
 21
15.44009971618652
  0
LINE
  5
176
100
AcDbEntity
  8
0
  6
ByLayer
 62
  256
370
   -1
100
AcDbLine
 10
-29.22868347167969
 20
1.651516199111938
 11
-32.36862945556641
 21
1.651516079902649
  0
LINE
  5
177
100
AcDbEntity
  8
0
  6
ByLayer
 62
  256
370
   -1
100
AcDbLine
 10
-32.05710983276367
 20
4.47994327545166
 11
-32.36862945556641
 21
1.651516079902649
  0
LINE
  5
178
100
AcDbEntity
  8
0
  6
ByLayer
 62
  256
370
   -1
100
AcDbLine
 10
-32.05710983276367
 20
4.47994327545166
 11
-18.26852607727051
 21
18.26852798461914
  0
ARC
  5
179
100
AcDbEntity
  8
0
  6
ByLayer
 62
  256
370
   -1
100
AcDbCircle
 10
7.450580142176477e-06
 20
3.958121396863135e-06
 40
5.000007629394531
100
AcDbArc
 50
-179.9999389648438
 51
-135.0000152587891
  0
ARC
  5
17A
100
AcDbEntity
  8
0
  6
ByLayer
 62
  256
370
   -1
100
AcDbCircle
 10
3.958120487368433e-06
 20
7.450580596923828e-06
 40
5.000007629394531
100
AcDbArc
 50
-134.9999694824219
 51
-90.00003051757812
  0
ARC
  5
17B
100
AcDbEntity
  8
0
  6
ByLayer
 62
  256
370
   -1
100
AcDbCircle
 10
2.793967541947495e-05
 20
1.210719619848533e-05
 40
33.50003051757812
100
AcDbArc
 50
-179.9999694824219
 51
-135
  0
ARC
  5
17C
100
AcDbEntity
  8
0
  6
ByLayer
 62
  256
370
   -1
100
AcDbCircle
 10
1.210719074151712e-05
 20
2.793967905745376e-05
 40
33.50003051757812
100
AcDbArc
 50
-134.9999694824219
 51
-90.00000762939453
  0
LINE
  5
17D
100
AcDbEntity
  8
0
  6
ByLayer
 62
  256
370
   -1
100
AcDbLine
 10
-29.22868347167969
 20
-1.651519656181335
 11
-32.05710983276367
 21
-4.479947090148926
  0
LINE
  5
17E
100
AcDbEntity
  8
0
  6
ByLayer
 62
  256
370
   -1
100
AcDbLine
 10
-32.05710983276367
 20
-4.479947090148926
 11
-29.22868347167969
 21
-1.651519656181335
  0
LINE
  5
17F
100
AcDbEntity
  8
0
  6
ByLayer
 62
  256
370
   -1
100
AcDbLine
 10
-29.22868347167969
 20
-1.651519656181335
 11
-15.44009876251221
 21
-15.44010162353516
  0
LINE
  5
180
100
AcDbEntity
  8
0
  6
ByLayer
 62
  256
370
   -1
100
AcDbLine
 10
-32.05710983276367
 20
-4.479947090148926
 11
-18.26852416992188
 21
-18.26852989196777
  0
LINE
  5
181
100
AcDbEntity
  8
0
  6
ByLayer
 62
  256
370
   -1
100
AcDbLine
 10
-29.22868347167969
 20
-1.651519656181335
 11
-15.44009876251221
 21
-15.44010162353516
  0
LINE
  5
182
100
AcDbEntity
  8
0
  6
ByLayer
 62
  256
370
   -1
100
AcDbLine
 10
-29.22868347167969
 20
-1.651519656181335
 11
-32.36862945556641
 21
-1.651519894599915
  0
LINE
  5
183
100
AcDbEntity
  8
0
  6
ByLayer
 62
  256
370
   -1
100
AcDbLine
 10
-32.05710983276367
 20
-4.479947090148926
 11
-32.36862945556641
 21
-1.651519894599915
  0
LINE
  5
184
100
AcDbEntity
  8
0
  6
ByLayer
 62
  256
370
   -1
100
AcDbLine
 10
-1.651514887809753
 20
-29.22868347167969
 11
-15.44009971618652
 21
-15.44010066986084
  0
LINE
  5
185
100
AcDbEntity
  8
0
  6
ByLayer
 62
  256
370
   -1
100
AcDbLine
 10
-1.651514887809753
 20
-29.22868347167969
 11
-4.479941844940186
 21
-32.05710983276367
  0
LINE
  5
186
100
AcDbEntity
  8
0
  6
ByLayer
 62
  256
370
   -1
100
AcDbLine
 10
-4.479941844940186
 20
-32.05710983276367
 11
-1.651514887809753
 21
-29.22868347167969
  0
LINE
  5
187
100
AcDbEntity
  8
0
  6
ByLayer
 62
  256
370
   -1
100
AcDbLine
 10
-1.651514887809753
 20
-29.22868347167969
 11
-15.44009971618652
 21
-15.44010066986084
  0
LINE
  5
188
100
AcDbEntity
  8
0
  6
ByLayer
 62
  256
370
   -1
100
AcDbLine
 10
-1.651514887809753
 20
-29.22868347167969
 11
-1.651514649391174
 21
-32.36862945556641
  0
LINE
  5
189
100
AcDbEntity
  8
0
  6
ByLayer
 62
  256
370
   -1
100
AcDbLine
 10
-4.479941844940186
 20
-32.05710983276367
 11
-1.651514649391174
 21
-32.36862945556641
  0
LINE
  5
18A
100
AcDbEntity
  8
0
  6
ByLayer
 62
  256
370
   -1
100
AcDbLine
 10
-4.479941844940186
 20
-32.05710983276367
 11
-18.26852607727051
 21
-18.26852798461914
  0
ARC
  5
18B
100
AcDbEntity
  8
0
  6
ByLayer
 62
  256
370
   -1
100
AcDbCircle
 10
-3.958120942115784e-06
 20
7.450580596923828e-06
 40
5.000007629394531
100
AcDbArc
 50
-89.99995422363281
 51
-45.00003051757812
  0
ARC
  5
18C
100
AcDbEntity
  8
0
  6
ByLayer
 62
  256
370
   -1
100
AcDbCircle
 10
-7.450580596923828e-06
 20
3.958120942115784e-06
 40
5.000007629394531
100
AcDbArc
 50
-44.99996566772461
 51
-4.462359720491804e-05
  0
ARC
  5
18D
100
AcDbEntity
  8
0
  6
ByLayer
 62
  256
370
   -1
100
AcDbCircle
 10
-1.210719347000122e-05
 20
2.793967723846436e-05
 40
33.50003051757812
100
AcDbArc
 50
-89.99997711181641
 51
-45.00001525878906
  0
ARC
  5
18E
100
AcDbEntity
  8
0
  6
ByLayer
 62
  256
370
   -1
100
AcDbCircle
 10
-2.793967723846436e-05
 20
1.210719347000122e-05
 40
33.50003051757812
100
AcDbArc
 50
-44.99997711181641
 51
-1.730284566292539e-05
  0
LINE
  5
18F
100
AcDbEntity
  8
0
  6
ByLayer
 62
  256
370
   -1
100
AcDbLine
 10
1.651517510414124
 20
-29.22868347167969
 11
4.479944705963135
 21
-32.05710983276367
  0
LINE
  5
190
100
AcDbEntity
  8
0
  6
ByLayer
 62
  256
370
   -1
100
AcDbLine
 10
4.479944705963135
 20
-32.05710983276367
 11
1.651517510414124
 21
-29.22868347167969
  0
LINE
  5
191
100
AcDbEntity
  8
0
  6
ByLayer
 62
  256
370
   -1
100
AcDbLine
 10
1.651517510414124
 20
-29.22868347167969
 11
15.44010066986084
 21
-15.44009971618652
  0
LINE
  5
192
100
AcDbEntity
  8
0
  6
ByLayer
 62
  256
370
   -1
100
AcDbLine
 10
4.479944705963135
 20
-32.05710983276367
 11
18.26852798461914
 21
-18.26852607727051
  0
LINE
  5
193
100
AcDbEntity
  8
0
  6
ByLayer
 62
  256
370
   -1
100
AcDbLine
 10
1.651517510414124
 20
-29.22868347167969
 11
15.44010066986084
 21
-15.44009971618652
  0
LINE
  5
194
100
AcDbEntity
  8
0
  6
ByLayer
 62
  256
370
   -1
100
AcDbLine
 10
1.651517510414124
 20
-29.22868347167969
 11
1.651517510414124
 21
-32.36862945556641
  0
LINE
  5
195
100
AcDbEntity
  8
0
  6
ByLayer
 62
  256
370
   -1
100
AcDbLine
 10
4.479944705963135
 20
-32.05710983276367
 11
1.651517510414124
 21
-32.36862945556641
  0
LINE
  5
196
100
AcDbEntity
  8
0
  6
ByLayer
 62
  256
370
   -1
100
AcDbLine
 10
29.22868347167969
 20
-1.651517152786255
 11
15.44009971618652
 21
-15.44010066986084
  0
LINE
  5
197
100
AcDbEntity
  8
0
  6
ByLayer
 62
  256
370
   -1
100
AcDbLine
 10
29.22868347167969
 20
-1.651517152786255
 11
32.05710983276367
 21
-4.479944229125977
  0
LINE
  5
198
100
AcDbEntity
  8
0
  6
ByLayer
 62
  256
370
   -1
100
AcDbLine
 10
32.05710983276367
 20
-4.479944229125977
 11
29.22868347167969
 21
-1.651517152786255
  0
LINE
  5
199
100
AcDbEntity
  8
0
  6
ByLayer
 62
  256
370
   -1
100
AcDbLine
 10
29.22868347167969
 20
-1.651517152786255
 11
15.44009971618652
 21
-15.44010066986084
  0
LINE
  5
19A
100
AcDbEntity
  8
0
  6
ByLayer
 62
  256
370
   -1
100
AcDbLine
 10
29.22868347167969
 20
-1.651517152786255
 11
32.36862945556641
 21
-1.651517152786255
  0
LINE
  5
19B
100
AcDbEntity
  8
0
  6
ByLayer
 62
  256
370
   -1
100
AcDbLine
 10
32.05710983276367
 20
-4.479944229125977
 11
32.36862945556641
 21
-1.651517152786255
  0
LINE
  5
19C
100
AcDbEntity
  8
0
  6
ByLayer
 62
  256
370
   -1
100
AcDbLine
 10
32.05710983276367
 20
-4.479944229125977
 11
18.26852607727051
 21
-18.26852798461914
  0
ENDSEC
  0
SECTION
  2
OBJECTS
  0
DICTIONARY
  5
C
330
0
100
AcDbDictionary
281
    1
  3
ACAD_GROUP
350
D
  0
DICTIONARY
  5
D
330
C
100
AcDbDictionary
281
    1
  0
PLOTSETTINGS
  5
19D
100
AcDbPlotSettings
  6
1x1
 40
0
 41
0
 42
0
 43
0
  0
ENDSEC
  0
EOF
